<svg xmlns="http://www.w3.org/2000/svg" xmlns:xlink="http://www.w3.org/1999/xlink" viewBox="0 0 188 188"><defs><style>.cls-1{fill:url(#Degradado_sin_nombre_70);}.cls-2{fill:#fff;}</style><linearGradient id="Degradado_sin_nombre_70" y1="94" x2="188" y2="94" gradientUnits="userSpaceOnUse"><stop offset="0" stop-color="#2f2e65"/><stop offset="1" stop-color="#384a95"/></linearGradient></defs><g id="Capa_2" data-name="Capa 2"><g id="Capa_6" data-name="Capa 6"><rect class="cls-1" width="188" height="188" rx="27.3"/><polygon class="cls-2" points="166 157.81 154.52 151.18 154.52 164.43 166 157.81"/><rect class="cls-2" x="25" y="23" width="53.28" height="28.69" rx="7.32"/><path class="cls-2" d="M107.8,156.62v-5.74H74.88a3.4,3.4,0,0,0,3.4-3.41V142a3.4,3.4,0,0,0-3.4-3.41H32.51a3.31,3.31,0,0,0-.95.15V26.28H29.1V159.9H162.72v-3.28Zm-75.29-5.74h-.95v-.15A3.31,3.31,0,0,0,32.51,150.88Z"/></g></g></svg>