<svg xmlns="http://www.w3.org/2000/svg" xmlns:xlink="http://www.w3.org/1999/xlink" viewBox="0 0 188 188"><defs><style>.cls-1{fill:url(#Degradado_sin_nombre_70);}.cls-2{fill:#fff;}.cls-3{fill:url(#Degradado_sin_nombre_70-2);}.cls-4{fill:url(#Degradado_sin_nombre_70-3);}.cls-5{fill:url(#Degradado_sin_nombre_70-4);}.cls-6{fill:url(#Degradado_sin_nombre_70-5);}.cls-7{fill:url(#Degradado_sin_nombre_70-6);}.cls-8{fill:url(#Degradado_sin_nombre_70-7);}.cls-9{fill:url(#Degradado_sin_nombre_70-8);}.cls-10{fill:url(#Degradado_sin_nombre_70-9);}.cls-11{fill:url(#Degradado_sin_nombre_70-10);}.cls-12{fill:url(#Degradado_sin_nombre_70-11);}.cls-13{fill:url(#Degradado_sin_nombre_70-12);}.cls-14{fill:url(#Degradado_sin_nombre_70-13);}.cls-15{fill:url(#Degradado_sin_nombre_70-14);}.cls-16{fill:url(#Degradado_sin_nombre_70-15);}.cls-17{fill:url(#Degradado_sin_nombre_70-16);}.cls-18{fill:url(#Degradado_sin_nombre_70-17);}</style><linearGradient id="Degradado_sin_nombre_70" y1="94" x2="188" y2="94" gradientUnits="userSpaceOnUse"><stop offset="0" stop-color="#2f2e65"/><stop offset="1" stop-color="#384a95"/></linearGradient><linearGradient id="Degradado_sin_nombre_70-2" x1="46.41" y1="46.41" x2="91.65" y2="46.41" xlink:href="#Degradado_sin_nombre_70"/><linearGradient id="Degradado_sin_nombre_70-3" x1="46.41" y1="77.79" x2="91.65" y2="77.79" xlink:href="#Degradado_sin_nombre_70"/><linearGradient id="Degradado_sin_nombre_70-4" x1="46.41" y1="109.17" x2="91.65" y2="109.17" xlink:href="#Degradado_sin_nombre_70"/><linearGradient id="Degradado_sin_nombre_70-5" x1="46.41" y1="140.54" x2="91.65" y2="140.54" xlink:href="#Degradado_sin_nombre_70"/><linearGradient id="Degradado_sin_nombre_70-6" x1="97.49" y1="36.56" x2="136.16" y2="36.56" xlink:href="#Degradado_sin_nombre_70"/><linearGradient id="Degradado_sin_nombre_70-7" x1="97.49" y1="45.32" x2="136.16" y2="45.32" xlink:href="#Degradado_sin_nombre_70"/><linearGradient id="Degradado_sin_nombre_70-8" x1="97.49" y1="54.07" x2="136.16" y2="54.07" xlink:href="#Degradado_sin_nombre_70"/><linearGradient id="Degradado_sin_nombre_70-9" x1="97.49" y1="67.94" x2="136.16" y2="67.94" xlink:href="#Degradado_sin_nombre_70"/><linearGradient id="Degradado_sin_nombre_70-10" x1="97.49" y1="76.69" x2="136.16" y2="76.69" xlink:href="#Degradado_sin_nombre_70"/><linearGradient id="Degradado_sin_nombre_70-11" x1="97.49" y1="85.45" x2="136.16" y2="85.45" xlink:href="#Degradado_sin_nombre_70"/><linearGradient id="Degradado_sin_nombre_70-12" x1="97.49" y1="99.31" x2="136.16" y2="99.31" xlink:href="#Degradado_sin_nombre_70"/><linearGradient id="Degradado_sin_nombre_70-13" x1="97.49" y1="108.07" x2="136.16" y2="108.07" xlink:href="#Degradado_sin_nombre_70"/><linearGradient id="Degradado_sin_nombre_70-14" x1="97.49" y1="116.83" x2="136.16" y2="116.83" xlink:href="#Degradado_sin_nombre_70"/><linearGradient id="Degradado_sin_nombre_70-15" x1="97.49" y1="130.69" x2="136.16" y2="130.69" xlink:href="#Degradado_sin_nombre_70"/><linearGradient id="Degradado_sin_nombre_70-16" x1="97.49" y1="139.45" x2="136.16" y2="139.45" xlink:href="#Degradado_sin_nombre_70"/><linearGradient id="Degradado_sin_nombre_70-17" x1="97.49" y1="148.2" x2="136.16" y2="148.2" xlink:href="#Degradado_sin_nombre_70"/></defs><g id="Capa_2" data-name="Capa 2"><g id="Capa_6" data-name="Capa 6"><rect class="cls-1" width="188" height="188" rx="27.3"/><rect class="cls-2" x="39.11" y="15.77" width="102.89" height="153.23" rx="9.36"/><rect class="cls-3" x="46.41" y="33.28" width="45.24" height="26.27"/><rect class="cls-4" x="46.41" y="64.65" width="45.24" height="26.27"/><rect class="cls-5" x="46.41" y="96.03" width="45.24" height="26.27"/><rect class="cls-6" x="46.41" y="127.41" width="45.24" height="26.27"/><rect class="cls-7" x="97.49" y="34.01" width="38.67" height="5.11"/><rect class="cls-8" x="97.49" y="42.76" width="38.67" height="5.11"/><rect class="cls-9" x="97.49" y="51.52" width="38.67" height="5.11"/><rect class="cls-10" x="97.49" y="65.38" width="38.67" height="5.11"/><rect class="cls-11" x="97.49" y="74.14" width="38.67" height="5.11"/><rect class="cls-12" x="97.49" y="82.9" width="38.67" height="5.11"/><rect class="cls-13" x="97.49" y="96.76" width="38.67" height="5.11"/><rect class="cls-14" x="97.49" y="105.52" width="38.67" height="5.11"/><rect class="cls-15" x="97.49" y="114.27" width="38.67" height="5.11"/><rect class="cls-16" x="97.49" y="128.14" width="38.67" height="5.11"/><rect class="cls-17" x="97.49" y="136.89" width="38.67" height="5.11"/><rect class="cls-18" x="97.49" y="145.65" width="38.67" height="5.11"/></g></g></svg>