<svg xmlns="http://www.w3.org/2000/svg" xmlns:xlink="http://www.w3.org/1999/xlink" viewBox="0 0 188 188"><defs><style>.cls-1{fill:url(#Degradado_sin_nombre_70);}.cls-2{fill:#fff;}.cls-3{fill:url(#Degradado_sin_nombre_70-2);}.cls-4{fill:url(#Degradado_sin_nombre_70-3);}.cls-5{fill:url(#Degradado_sin_nombre_70-4);}.cls-6{fill:url(#Degradado_sin_nombre_70-5);}.cls-7{fill:url(#Degradado_sin_nombre_70-6);}</style><linearGradient id="Degradado_sin_nombre_70" y1="94" x2="188" y2="94" gradientUnits="userSpaceOnUse"><stop offset="0" stop-color="#2f2e65"/><stop offset="1" stop-color="#384a95"/></linearGradient><linearGradient id="Degradado_sin_nombre_70-2" x1="48.18" y1="98.53" x2="72.88" y2="98.53" xlink:href="#Degradado_sin_nombre_70"/><linearGradient id="Degradado_sin_nombre_70-3" x1="88.39" y1="97.48" x2="107.13" y2="97.48" xlink:href="#Degradado_sin_nombre_70"/><linearGradient id="Degradado_sin_nombre_70-4" x1="109" y1="97.48" x2="125.07" y2="97.48" xlink:href="#Degradado_sin_nombre_70"/><linearGradient id="Degradado_sin_nombre_70-5" x1="127.55" y1="97.48" x2="146.09" y2="97.48" xlink:href="#Degradado_sin_nombre_70"/><linearGradient id="Degradado_sin_nombre_70-6" x1="42" y1="98.53" x2="79.06" y2="98.53" xlink:href="#Degradado_sin_nombre_70"/></defs><g id="Capa_2" data-name="Capa 2"><g id="Capa_6" data-name="Capa 6"><rect class="cls-1" width="188" height="188" rx="27.3"/><rect class="cls-2" x="23" y="49.71" width="143.57" height="8.57"/><rect class="cls-2" x="23" y="61.86" width="145" height="77.14" rx="6.32"/><circle class="cls-3" cx="60.53" cy="98.53" r="12.35"/><path class="cls-4" d="M88.39,107V88H98.2a14.41,14.41,0,0,1,4.18.47,4.44,4.44,0,0,1,2.32,1.73,5.37,5.37,0,0,1-1.65,7.69,6.88,6.88,0,0,1-2.07.76,5.64,5.64,0,0,1,1.54.7,6.39,6.39,0,0,1,.94,1,7.86,7.86,0,0,1,.82,1.18l2.85,5.53h-6.65l-3.15-5.83a4.6,4.6,0,0,0-1.06-1.47,2.53,2.53,0,0,0-1.45-.44H94.3V107ZM94.3,95.67h2.49a9.18,9.18,0,0,0,1.56-.26,1.54,1.54,0,0,0,1-.6,1.93,1.93,0,0,0-.21-2.52,3.54,3.54,0,0,0-2.2-.49H94.3Z"/><path class="cls-5" d="M109,88h15.79V92h-9.88v3h9.16v3.88h-9.16v3.76h10.16V107H109Z"/><path class="cls-6" d="M140.93,99.21l5.16,1.56a9.51,9.51,0,0,1-1.64,3.62,7.07,7.07,0,0,1-2.77,2.2,10.47,10.47,0,0,1-4.22.74,12.33,12.33,0,0,1-5.08-.9,8.07,8.07,0,0,1-3.4-3.18,10.77,10.77,0,0,1-1.43-5.82q0-4.73,2.52-7.26t7.12-2.55a9.68,9.68,0,0,1,5.66,1.46,8.58,8.58,0,0,1,3.06,4.47l-5.2,1.16a4.26,4.26,0,0,0-.57-1.27,3.34,3.34,0,0,0-1.21-1,3.4,3.4,0,0,0-1.6-.37,3.46,3.46,0,0,0-3.07,1.61,6.83,6.83,0,0,0-.8,3.75c0,2.12.32,3.56,1,4.35a3.3,3.3,0,0,0,2.7,1.17,3.23,3.23,0,0,0,2.55-1A5.82,5.82,0,0,0,140.93,99.21Z"/><path class="cls-7" d="M60.53,82.47A16.06,16.06,0,1,1,44.47,98.53,16.08,16.08,0,0,1,60.53,82.47m0-2.47A18.53,18.53,0,1,0,79.06,98.53,18.53,18.53,0,0,0,60.53,80Z"/></g></g></svg>