<svg xmlns="http://www.w3.org/2000/svg" xmlns:xlink="http://www.w3.org/1999/xlink" viewBox="0 0 188 188"><defs><style>.cls-1{fill:url(#Degradado_sin_nombre_70);}.cls-2{fill:#fff;}.cls-3{fill:url(#Degradado_sin_nombre_70-2);}.cls-4{fill:url(#Degradado_sin_nombre_70-3);}.cls-5{fill:url(#Degradado_sin_nombre_70-4);}.cls-6{fill:url(#Degradado_sin_nombre_70-5);}.cls-7{fill:url(#Degradado_sin_nombre_70-6);}.cls-8{fill:url(#Degradado_sin_nombre_70-7);}.cls-9{fill:url(#Degradado_sin_nombre_70-8);}.cls-10{fill:url(#Degradado_sin_nombre_70-9);}.cls-11{fill:url(#Degradado_sin_nombre_70-10);}</style><linearGradient id="Degradado_sin_nombre_70" y1="94" x2="188" y2="94" gradientUnits="userSpaceOnUse"><stop offset="0" stop-color="#2f2e65"/><stop offset="1" stop-color="#384a95"/></linearGradient><linearGradient id="Degradado_sin_nombre_70-2" x1="24.71" y1="79.89" x2="165.05" y2="79.89" xlink:href="#Degradado_sin_nombre_70"/><linearGradient id="Degradado_sin_nombre_70-3" x1="59.73" y1="103.37" x2="63.84" y2="103.37" xlink:href="#Degradado_sin_nombre_70"/><linearGradient id="Degradado_sin_nombre_70-4" x1="67.15" y1="97.66" x2="81.81" y2="97.66" xlink:href="#Degradado_sin_nombre_70"/><linearGradient id="Degradado_sin_nombre_70-5" x1="83.77" y1="97.66" x2="99.8" y2="97.66" xlink:href="#Degradado_sin_nombre_70"/><linearGradient id="Degradado_sin_nombre_70-6" x1="102.72" y1="97.48" x2="125.57" y2="97.48" xlink:href="#Degradado_sin_nombre_70"/><linearGradient id="Degradado_sin_nombre_70-7" x1="57.71" y1="61.62" x2="80.87" y2="61.62" xlink:href="#Degradado_sin_nombre_70"/><linearGradient id="Degradado_sin_nombre_70-8" x1="81.02" y1="61.62" x2="104.18" y2="61.62" xlink:href="#Degradado_sin_nombre_70"/><linearGradient id="Degradado_sin_nombre_70-9" x1="104.33" y1="61.62" x2="127.49" y2="61.62" xlink:href="#Degradado_sin_nombre_70"/><linearGradient id="Degradado_sin_nombre_70-10" x1="128.54" y1="67.33" x2="132.65" y2="67.33" xlink:href="#Degradado_sin_nombre_70"/></defs><g id="Capa_2" data-name="Capa 2"><g id="Capa_6" data-name="Capa 6"><rect class="cls-1" width="188" height="188" rx="27.3"/><rect class="cls-2" x="20.09" y="27" width="149.23" height="105.98" rx="26.78"/><path class="cls-3" d="M136.78,130.15H53a28.31,28.31,0,0,1-28.28-28.27v-44A28.32,28.32,0,0,1,53,29.62h83.79A28.31,28.31,0,0,1,165.05,57.9v44A28.3,28.3,0,0,1,136.78,130.15ZM53,32.62A25.31,25.31,0,0,0,27.71,57.9v44A25.31,25.31,0,0,0,53,127.15h83.79a25.3,25.3,0,0,0,25.27-25.27v-44a25.31,25.31,0,0,0-25.27-25.28Z"/><path class="cls-4" d="M59.73,105.42v-4.11h4.11v4.11Z"/><path class="cls-5" d="M81.6,94.48l-4,.73a3,3,0,0,0-.93-1.83,2.8,2.8,0,0,0-1.88-.61,3.05,3.05,0,0,0-2.45,1.06,5.44,5.44,0,0,0-.92,3.55,6.27,6.27,0,0,0,.93,3.9,3.05,3.05,0,0,0,2.5,1.14,2.76,2.76,0,0,0,1.91-.66,4,4,0,0,0,1.06-2.29l4,.69a7.2,7.2,0,0,1-2.42,4.2,7.5,7.5,0,0,1-4.78,1.42,7.1,7.1,0,0,1-5.44-2.16,8.31,8.31,0,0,1-2-6,8.33,8.33,0,0,1,2-6,7.21,7.21,0,0,1,5.5-2.14,7.45,7.45,0,0,1,4.51,1.22A6.73,6.73,0,0,1,81.6,94.48Z"/><path class="cls-6" d="M83.77,97.44a8.34,8.34,0,0,1,1-4,6.91,6.91,0,0,1,2.86-2.93,8.5,8.5,0,0,1,4.13-1,7.77,7.77,0,0,1,5.78,2.28,7.93,7.93,0,0,1,2.25,5.79,8,8,0,0,1-2.27,5.85,7.73,7.73,0,0,1-5.73,2.32,9.14,9.14,0,0,1-4.08-1A6.6,6.6,0,0,1,84.78,102,9.34,9.34,0,0,1,83.77,97.44Zm4.21.22a5.16,5.16,0,0,0,1.1,3.54,3.61,3.61,0,0,0,5.41,0,5.26,5.26,0,0,0,1.09-3.57,5.17,5.17,0,0,0-1.09-3.52,3.61,3.61,0,0,0-5.41,0A5.17,5.17,0,0,0,88,97.66Z"/><path class="cls-7" d="M102.72,89.89h3.78V92a6.11,6.11,0,0,1,4.85-2.47,5.22,5.22,0,0,1,2.59.61,4.75,4.75,0,0,1,1.8,1.86A7.15,7.15,0,0,1,118,90.15a5.4,5.4,0,0,1,2.53-.61,5.68,5.68,0,0,1,2.9.69,4.23,4.23,0,0,1,1.77,2,8.94,8.94,0,0,1,.42,3.22v9.93h-4.11V96.54a6.46,6.46,0,0,0-.43-3,1.93,1.93,0,0,0-1.75-.88,2.83,2.83,0,0,0-1.63.53,2.9,2.9,0,0,0-1.09,1.54,10.89,10.89,0,0,0-.34,3.21v7.46h-4.11V96.91a11.67,11.67,0,0,0-.22-2.93,1.89,1.89,0,0,0-.68-1,2.18,2.18,0,0,0-1.25-.32,3,3,0,0,0-1.71.51,2.81,2.81,0,0,0-1.09,1.48,11,11,0,0,0-.33,3.21v7.54h-4.11Z"/><path class="cls-8" d="M62.62,69.38,57.71,53.85h4L64.61,64l2.68-10.18h4L73.85,64l3-10.18h4.05l-5,15.53H71.93l-2.68-10-2.63,10Z"/><path class="cls-9" d="M85.93,69.38,81,53.85h4L87.92,64,90.6,53.85h4L97.16,64l3-10.18h4.05l-5,15.53h-4l-2.68-10-2.63,10Z"/><path class="cls-10" d="M109.24,69.38l-4.91-15.53h4L111.23,64l2.68-10.18h4L120.46,64l3-10.18h4.06l-5,15.53h-4l-2.68-10-2.63,10Z"/><path class="cls-11" d="M128.54,69.38V65.27h4.11v4.11Z"/><rect class="cls-2" x="20.09" y="137.3" width="149.23" height="13.7" rx="6.85"/></g></g></svg>