<svg xmlns="http://www.w3.org/2000/svg" xmlns:xlink="http://www.w3.org/1999/xlink" viewBox="0 0 188 188"><defs><style>.cls-1{fill:url(#Degradado_sin_nombre_70);}.cls-2{fill:#fff;fill-rule:evenodd;}</style><linearGradient id="Degradado_sin_nombre_70" y1="94" x2="188" y2="94" gradientUnits="userSpaceOnUse"><stop offset="0" stop-color="#2f2e65"/><stop offset="1" stop-color="#384a95"/></linearGradient></defs><g id="Capa_2" data-name="Capa 2"><g id="Capa_6" data-name="Capa 6"><rect class="cls-1" width="188" height="188" rx="27.3"/><path class="cls-2" d="M59.5,58.1H159.83A4.21,4.21,0,0,1,164,62.27v64.46a4.2,4.2,0,0,1-4.17,4.16H59.5a4.19,4.19,0,0,1-4.17-4.16V62.27A4.2,4.2,0,0,1,59.5,58.1Zm-9.79,55.79-.07-45.27a2.46,2.46,0,0,0-.26-.92l-6-11.91a3.47,3.47,0,0,0-.39-.53v-.07a2.32,2.32,0,0,0-1.46-.54,2.07,2.07,0,0,0-1.51.61,2.53,2.53,0,0,0-.4.53l-5.89,12a2,2,0,0,0-.2.93L33.69,114Zm-.39,6.67-16.09.08v2.26H49.32Zm-2.45,13.58a8.15,8.15,0,0,1-11.52,0A7.73,7.73,0,0,1,33,129.5v-4.56l16.09-.06.06,4.62a9,9,0,0,1-2.31,4.64Zm2.45-17.94H33.23v2.33H49.32Zm-9.55-5.09-.12-37.39h4.63l.07,37.39ZM45.92,67l-9.06.15,4.38-8.75Zm20.53,4.1h84.7v6H66.45Zm0,43h84.7v6H66.45Zm0-14.29h84.7v6H66.45Zm0-14.36h84.7v6H66.45Z"/></g></g></svg>