<svg xmlns="http://www.w3.org/2000/svg" viewBox="0 0 329 207"><defs><style>.cls-1{fill:none;stroke:#9797f7;stroke-linecap:round;stroke-miterlimit:10;stroke-width:3px;}.cls-2{fill:#44438a;}.cls-3{fill:#b2b2f9;}.cls-4{fill:#7777e8;}.cls-5{fill:#2f2e65;}.cls-6{fill:#171738;}.cls-7{font-size:12px;font-family:MyriadPro-Regular, Myriad Pro;}</style></defs><title>av-insurgentes-sur</title><g id="Capa_2" data-name="Capa 2"><g id="Capa_3" data-name="Capa 3"><line class="cls-1" x1="314.5" y1="1.5" x2="1.5" y2="178.5"/><line class="cls-1" x1="327.5" y1="28.5" x2="14.5" y2="205.5"/><path class="cls-2" d="M98.54,135.68l1.5-.45.87-.19,1.36-.35,0,.05-.59.23-.86.27a.91.91,0,0,0-.23,0l-.75.2-1.4.42a3.91,3.91,0,0,0,0,.71,14.42,14.42,0,0,1,.62,3.74c0,1,0,2,0,3,0,.22.07.3.32.27.82-.12,1.65-.21,2.48-.3s1.79-.21,2.69-.3c.39-.05.78-.08,1.17-.12l0,.08a1.25,1.25,0,0,1-.33.25,5.47,5.47,0,0,1-.9.16c-1.11.09-2.23.12-3.33.26a9.53,9.53,0,0,0-2.8.84c-1.41.64-2.82,1.28-4.2,2-1.14.58-2.24,1.24-3.4,1.9-.18-1-.43-2-.53-3.08-.12-1.21-.13-2.43-.13-3.64a2.09,2.09,0,0,1,.27-1.1,3,3,0,0,1,.84-.78c.72-.53,1.45-1.05,2.2-1.55a16.83,16.83,0,0,1,4.05-2.07C97.88,136,98.21,135.82,98.54,135.68Z"/><path d="M101.7,135l.59-.23,0-.05-1.36.35-.87.19a6.77,6.77,0,0,1,.71-.26l3-.74a2.43,2.43,0,0,0,.38-.13,16.89,16.89,0,0,1,2.14-.83c1.24-.3,2.52-.49,3.78-.73a10.27,10.27,0,0,1,1.09-.17,1.79,1.79,0,0,1,.72.12,10.53,10.53,0,0,1,1.22.46,4,4,0,0,1,2.21,2.23A7,7,0,0,1,116,137a9.74,9.74,0,0,1,0,3.65,4,4,0,0,1-.8,1.56c-.38.46-.74.93-1.12,1.38a2.75,2.75,0,0,1-.41.31,3.21,3.21,0,0,1,.09,2.4,1.54,1.54,0,0,1-.94.91,4.42,4.42,0,0,1-3.58.16,1.53,1.53,0,0,1-1.15-1.19,12.72,12.72,0,0,1,0-1.38,1,1,0,0,0-.22,1.84,11.41,11.41,0,0,0,1.09.72c.27.18.27.3,0,.42s-.61.16-.89.29c-.82.39-1.62.8-2.43,1.22l-4,2.09c-.65.34-1.31.67-2,1-.07,0-.11.15-.12.23-.06.47-.1.95-.17,1.42a1.2,1.2,0,0,1-.74.88,4.09,4.09,0,0,1-3.39.09A1.76,1.76,0,0,1,94,153.89a5.54,5.54,0,0,1-.1-1,1,1,0,0,0-.06.83c.11.27.24.53.38.83-.14,0-.24.05-.31,0a8.16,8.16,0,0,1-1.88-.91l0,0c-.39-.39-.81-.75-1.16-1.16a1.64,1.64,0,0,1-.26-.73c-.15-.88-.28-1.76-.42-2.63,0-.09,0-.23,0-.26a1.7,1.7,0,0,1-.52-1.38c-.13-1.3-.2-2.61-.25-3.92a15.65,15.65,0,0,1,.13-1.67,2.38,2.38,0,0,1,.78-1.37A13.72,13.72,0,0,1,93.65,138c1-.57,2-1.12,3-1.61a17.77,17.77,0,0,1,1.9-.66c-.33.14-.66.3-1,.42a16.83,16.83,0,0,0-4.05,2.07c-.75.5-1.48,1-2.2,1.55a3,3,0,0,0-.84.78,2.09,2.09,0,0,0-.27,1.1c0,1.21,0,2.43.13,3.64.1,1,.35,2.09.53,3.08,1.16-.66,2.26-1.32,3.4-1.9,1.38-.7,2.79-1.34,4.2-2a9.53,9.53,0,0,1,2.8-.84c1.1-.14,2.22-.17,3.33-.26a5.47,5.47,0,0,0,.9-.16,1.25,1.25,0,0,0,.33-.25l0-.08c-.39,0-.78.07-1.17.12-.9.09-1.8.19-2.69.3s-1.66.18-2.48.3c-.25,0-.32,0-.32-.27,0-1,0-2,0-3a14.42,14.42,0,0,0-.62-3.74,3.91,3.91,0,0,1,0-.71l1.4-.42.75-.2a.91.91,0,0,1,.23,0l-2.37.71c.1.39.23.76.3,1.14a20.76,20.76,0,0,1,.38,2.47c.08,1.22.06,2.45.08,3.67,0,.2,0,.28.25.23.41-.07.83-.11,1.25-.16.83-.1,1.67-.18,2.5-.27s1.49-.18,2.23-.25c.55-.06.84-.2.91-.75s.18-1.4.22-2.1a9.37,9.37,0,0,0-.92-4.8,1.16,1.16,0,0,0-1.12-.77,9.53,9.53,0,0,0-1,.2Zm5.24,7.75a3.11,3.11,0,0,1,.41-.2c1.38-.32,2.76-.65,4.15-1a1.12,1.12,0,0,0,.61-.36c.48-.53,1-1,1.46-1.57a2.33,2.33,0,0,0,.68-1,6,6,0,0,0-.08-3.22,2.79,2.79,0,0,0-1.27-1.84c-.63-.34-1.27-.63-1.9-.94a.65.65,0,0,0-.28,0c-1,.15-1.94.26-2.9.44-.78.15-1.55.37-2.32.58-.33.1-.64.27-1,.4l0,.08a1.59,1.59,0,0,1,1.74.6,7.85,7.85,0,0,1,1.07,2.05.88.88,0,0,1-.09,1c0,.05,0,.17,0,.25a21.8,21.8,0,0,1,0,2.29,3.71,3.71,0,0,1-1.25,2.54,1.65,1.65,0,0,0,.91-.38c.63-.5,1.35-.9,2-1.35l2.48-1.63c.5-.33,1-.65,1.53-1l0,.07-.55.36-3.57,2.36c-.59.38-1.19.75-1.77,1.15-.06,0-.34.08-.11.27l-.49.17a1.51,1.51,0,0,0-.84.34.67.67,0,0,1-.4.14c-.63,0-1.26.06-1.89.12a17.2,17.2,0,0,0-2.69.34,20.58,20.58,0,0,0-3.11,1.11c-1.22.53-2.42,1.13-3.6,1.75-1,.51-1.88,1.11-2.81,1.67-.15.09-.17.2-.11.4.19.76.34,1.53.46,2.3.06.38-.21.57-.59.49a2.18,2.18,0,0,1-.23-.09c0,.42.18.54.62.55s.84,0,1.25.05c.12,0,.31.13.32.21a.48.48,0,0,1-.19.36c-.28.21-.59.39-.91.59a5,5,0,0,0,2.32,1.26,2,2,0,0,0-.2-.44,1.31,1.31,0,0,1,.64-1.89,4.35,4.35,0,0,1,4.15.37.54.54,0,0,0,.43,0,6.24,6.24,0,0,0,.66-.38l2.76-1.45c1.3-.68,2.6-1.37,3.91-2a8.83,8.83,0,0,1,2.36-1,1,1,0,0,0,.3-.15c-.44-.28-.85-.52-1.22-.8a1.23,1.23,0,0,1-.55-.9,1.07,1.07,0,0,1,.61-1.11,9.56,9.56,0,0,1,1.54-.67c.67-.21,1.37-.36,2.06-.51.32-.06.65-.06,1-.09-.2-.48-.14-.61.28-.82a.73.73,0,0,0,.3-.22,5.57,5.57,0,0,0,.33-.57c-.2,0-.42.13-.65.17s-.71.1-.91-.31a.24.24,0,0,0-.18,0l-1.49.32Zm6.2-.25.07.17.27-.15a3.28,3.28,0,0,0,2-2.16,9,9,0,0,0,0-4.67,4,4,0,0,0-2.53-2.7,4.24,4.24,0,0,1,1.46,1.57,3.83,3.83,0,0,1,.54,1.68c0,.82,0,1.65,0,2.47a4.38,4.38,0,0,1-.81,2.54C113.73,141.62,113.44,142.05,113.14,142.47Zm-.06,2.35a4.35,4.35,0,0,0-.58-.27,4.17,4.17,0,0,0-3.69.45,1.06,1.06,0,0,0-.3,1.69,2.72,2.72,0,0,0,.91.58,4.21,4.21,0,0,0,3.25-.15,2.62,2.62,0,0,0,.82-.62C114,146,113.81,145.26,113.08,144.82ZM90,141a1.84,1.84,0,0,0-.46,1.13c0,1-.11,1.93-.07,2.9s.2,2.08.33,3.11a1.07,1.07,0,0,0,.2.48c.17.24.39.11.58,0a.29.29,0,0,0,.19-.35,19.59,19.59,0,0,1-.55-2.7C90.11,144,90.1,142.5,90,141Zm8.63,11.8c-.29-.13-.48-.24-.68-.32a4.15,4.15,0,0,0-3.08,0c-.72.29-1,.78-.79,1.38a1.79,1.79,0,0,0,.61.73,3.61,3.61,0,0,0,2.3.59,3.05,3.05,0,0,0,1.59-.42c.62-.4.81-.85.53-1.37A3.47,3.47,0,0,0,98.66,152.79Zm8-10.85h-.06a1,1,0,0,0,.16-.25,6.87,6.87,0,0,0,.49-3.08c0-.37-.27-.8.14-1.13.06,0,0-.2,0-.29a2.69,2.69,0,0,0-.17-.57,6,6,0,0,0-1.26-2.14,1.26,1.26,0,0,0-1.3-.25,1.23,1.23,0,0,1,1,.78c.17.36.34.72.48,1.09a7,7,0,0,1,.49,2.34C106.68,139.6,106.63,140.77,106.61,141.94Zm9.39-3.79c-.09.47-.2.94-.28,1.42a3.6,3.6,0,0,1-1.16,2.33,2.77,2.77,0,0,1-1.35.74,1.78,1.78,0,0,0-.58.22.26.26,0,0,0-.08.42.89.89,0,0,0,1.41.23,8.73,8.73,0,0,0,1.63-2.14A5.36,5.36,0,0,0,116,138.15Zm-7.79,7.29a3.53,3.53,0,0,1,3-1.2,2.87,2.87,0,0,1,2.58,1.19,3.69,3.69,0,0,0,0-.88c-.07-.34-.09-.77-.64-.7l0,0c-.34-.16-.66-.44-1.07-.19,0,0,0,0-.06,0a5.39,5.39,0,0,0-1.07.09c-.69.18-1.37.42-2,.65S108.13,144.71,108.21,145.44Zm5.84-4.48a1.77,1.77,0,0,0,.45-1.5c0-.1-.11-.25-.19-.27s-.23.06-.3.14c-.61.64-1.21,1.3-1.81,2-.09.1-.24.27-.21.37s.27.28.49.27A1.64,1.64,0,0,0,114.05,141Zm-23.12,7.62a3.08,3.08,0,0,0-.5.23.32.32,0,0,0-.15.2c.1.72.21,1.43.31,2.15,0,.33.32.29.52.28s.31-.18.27-.4C91.23,150.24,91.08,149.44,90.93,148.58Zm23.15-14.26-.11,0a.54.54,0,0,0,0,.25,5.15,5.15,0,0,1,.55,2.4c0,.7-.13,1.4-.2,2.12a.51.51,0,0,1,.19.09,1,1,0,0,1,.19.26C114.77,137.62,115.08,135.89,114.08,134.32Zm-21.29,18a7.52,7.52,0,0,0-2-.2,1.27,1.27,0,0,0,.78,1A1.63,1.63,0,0,0,92.79,152.27Zm1.29.64c1-1,2.86-1,4.21-.45a1.38,1.38,0,0,0-.25-.17,4.26,4.26,0,0,0-3.06-.2C94.56,152.22,94.08,152.31,94.08,152.91Zm19.82-18.68,0-.1a4,4,0,0,0-2.79-1.63,1.14,1.14,0,0,0,.44.31,4.21,4.21,0,0,1,2.16,1.37S113.85,134.21,113.9,134.23ZM99.42,152.5l-.58.28.54.7Z"/><path class="cls-3" d="M101.7,135l1.81-.41a9.53,9.53,0,0,1,1-.2,1.16,1.16,0,0,1,1.12.77,9.37,9.37,0,0,1,.92,4.8c0,.7-.13,1.4-.22,2.1s-.36.69-.91.75c-.74.07-1.48.17-2.23.25s-1.67.17-2.5.27c-.42,0-.84.09-1.25.16-.23,0-.25,0-.25-.23,0-1.22,0-2.45-.08-3.67a20.76,20.76,0,0,0-.38-2.47c-.07-.38-.2-.75-.3-1.14l2.37-.71Z"/><path class="cls-4" d="M107,142.72c-.24-.19,0-.23.1-.27.58-.4,1.18-.77,1.77-1.15l3.57-2.36.55-.36,0-.07c-.51.32-1,.64-1.53,1l-2.48,1.63c-.68.45-1.4.85-2,1.35a1.65,1.65,0,0,1-.91.38,3.71,3.71,0,0,0,1.25-2.54,21.8,21.8,0,0,0,0-2.29c0-.08,0-.2,0-.25a.88.88,0,0,0,.09-1,7.85,7.85,0,0,0-1.07-2.05,1.59,1.59,0,0,0-1.74-.6l0-.08c.32-.13.63-.3,1-.4.77-.21,1.54-.43,2.32-.58,1-.18,1.94-.29,2.9-.44a.65.65,0,0,1,.28,0c.63.31,1.27.6,1.9.94a2.79,2.79,0,0,1,1.27,1.84,6,6,0,0,1,.08,3.22,2.33,2.33,0,0,1-.68,1c-.48.53-1,1-1.46,1.57a1.12,1.12,0,0,1-.61.36c-1.39.31-2.77.64-4.15,1a3.11,3.11,0,0,0-.41.2Zm-.1-8.87a22.5,22.5,0,0,1,5.55.73C111.82,133.7,109,133.37,106.86,133.85Z"/><path class="cls-4" d="M106.94,142.72l3.24-.75,1.49-.32a.24.24,0,0,1,.18,0c.2.41.56.36.91.31s.45-.12.65-.17a5.57,5.57,0,0,1-.33.57.73.73,0,0,1-.3.22c-.42.21-.48.34-.28.82-.34,0-.67,0-1,.09-.69.15-1.39.3-2.06.51a9.56,9.56,0,0,0-1.54.67,1.07,1.07,0,0,0-.61,1.11,1.23,1.23,0,0,0,.55.9c.37.28.78.52,1.22.8a1,1,0,0,1-.3.15,8.83,8.83,0,0,0-2.36,1c-1.31.66-2.61,1.35-3.91,2l-2.76,1.45a6.24,6.24,0,0,1-.66.38.54.54,0,0,1-.43,0,4.35,4.35,0,0,0-4.15-.37,1.31,1.31,0,0,0-.64,1.89,2,2,0,0,1,.2.44,5,5,0,0,1-2.32-1.26c.32-.2.63-.38.91-.59a.48.48,0,0,0,.19-.36c0-.08-.2-.2-.32-.21-.41,0-.83,0-1.25-.05s-.6-.13-.62-.55a2.18,2.18,0,0,0,.23.09c.38.08.65-.11.59-.49-.12-.77-.27-1.54-.46-2.3-.06-.2,0-.31.11-.4.93-.56,1.85-1.16,2.81-1.67,1.18-.62,2.38-1.22,3.6-1.75a20.58,20.58,0,0,1,3.11-1.11,17.2,17.2,0,0,1,2.69-.34c.63-.06,1.26-.07,1.89-.12a.67.67,0,0,0,.4-.14,1.51,1.51,0,0,1,.84-.34l.5-.17Zm-2.14,1.8a1.84,1.84,0,0,0-1.32-.32c-.92,0-1.84.13-2.75.22a7.44,7.44,0,0,0-2.7.7c-.75.37-1.53.71-2.27,1.12q-1.82,1-3.57,2.07a.82.82,0,0,0-.39.9c.11.56.54.79,1,1a5.36,5.36,0,0,1,1.11.77,1.87,1.87,0,0,0,1.54.72,8,8,0,0,1,2.49.14,1.68,1.68,0,0,0,1,0c1.07-.46,2.13-1,3.18-1.5q1.35-.65,2.67-1.35c.58-.3,1.14-.63,1.69-1a.83.83,0,0,0,.38-.79,1.49,1.49,0,0,0-.35-.92A7.22,7.22,0,0,0,104.8,144.52Z"/><path class="cls-5" d="M113.14,142.47c.3-.42.59-.85.9-1.25a4.38,4.38,0,0,0,.81-2.54c.05-.82,0-1.65,0-2.47a3.83,3.83,0,0,0-.54-1.68,4.24,4.24,0,0,0-1.46-1.57,4,4,0,0,1,2.53,2.7,9,9,0,0,1,0,4.67,3.28,3.28,0,0,1-2,2.16l-.27.15Z"/><path class="cls-6" d="M113.08,144.82c.73.44.88,1.17.41,1.68a2.62,2.62,0,0,1-.82.62,4.21,4.21,0,0,1-3.25.15,2.72,2.72,0,0,1-.91-.58,1.06,1.06,0,0,1,.3-1.69,4.17,4.17,0,0,1,3.69-.45A4.35,4.35,0,0,1,113.08,144.82Zm-.61.3a3.21,3.21,0,0,0-3.12,0,.91.91,0,0,0,0,1.59,3,3,0,0,0,3.22,0,.83.83,0,0,0,.22-1.37A2,2,0,0,0,112.47,145.12Z"/><path class="cls-5" d="M90,141c.07,1.51.08,3,.22,4.58a19.59,19.59,0,0,0,.55,2.7.29.29,0,0,1-.19.35c-.19.1-.41.23-.58,0a1.07,1.07,0,0,1-.2-.48c-.13-1-.28-2.07-.33-3.11s.06-1.94.07-2.9A1.84,1.84,0,0,1,90,141Z"/><path class="cls-6" d="M98.66,152.79a3.47,3.47,0,0,1,.48.59c.28.52.09,1-.53,1.37a3.05,3.05,0,0,1-1.59.42,3.61,3.61,0,0,1-2.3-.59,1.79,1.79,0,0,1-.61-.73c-.22-.6.07-1.09.79-1.38a4.15,4.15,0,0,1,3.08,0C98.18,152.55,98.37,152.66,98.66,152.79Zm-1.13,2a4.27,4.27,0,0,0,.81-.37.74.74,0,0,0,.07-1.12,3.17,3.17,0,0,0-.87-.61,3.83,3.83,0,0,0-.76-.18h-.24a2.09,2.09,0,0,0-1.52.31.77.77,0,0,0-.23,1.3,2.69,2.69,0,0,0,2.47.72Z"/><path class="cls-2" d="M106.61,141.94c0-1.17.07-2.34.06-3.5a7,7,0,0,0-.49-2.34c-.14-.37-.31-.73-.48-1.09a1.23,1.23,0,0,0-1-.78,1.26,1.26,0,0,1,1.3.25,6,6,0,0,1,1.26,2.14,2.69,2.69,0,0,1,.17.57c0,.09,0,.24,0,.29-.41.33-.17.76-.14,1.13a6.87,6.87,0,0,1-.49,3.08,1,1,0,0,1-.16.25Z"/><path class="cls-2" d="M116,138.15a5.36,5.36,0,0,1-.41,3.22,8.73,8.73,0,0,1-1.63,2.14.89.89,0,0,1-1.41-.23.26.26,0,0,1,.08-.42,1.78,1.78,0,0,1,.58-.22,2.77,2.77,0,0,0,1.35-.74,3.6,3.6,0,0,0,1.16-2.33C115.8,139.09,115.91,138.62,116,138.15Z"/><path class="cls-6" d="M108.21,145.44c-.08-.73,0-.84.66-1.07s1.36-.47,2-.65a5.39,5.39,0,0,1,1.07-.09s.05,0,.06,0c.41-.25.73,0,1.07.19l0,0c.55-.07.57.36.64.7a3.69,3.69,0,0,1,0,.88,2.87,2.87,0,0,0-2.58-1.19A3.53,3.53,0,0,0,108.21,145.44Z"/><path class="cls-6" d="M114.05,141a1.64,1.64,0,0,1-1.57,1c-.22,0-.44-.05-.49-.27s.12-.27.21-.37c.6-.66,1.2-1.32,1.81-2,.07-.08.22-.17.3-.14s.16.17.19.27A1.77,1.77,0,0,1,114.05,141Z"/><path class="cls-3" d="M90.93,148.58c.15.86.3,1.66.45,2.46,0,.22,0,.4-.27.4s-.47.05-.52-.28c-.1-.72-.21-1.43-.31-2.15a.32.32,0,0,1,.15-.2A3.08,3.08,0,0,1,90.93,148.58Z"/><path class="cls-2" d="M114.08,134.32c1,1.57.69,3.3.61,5.09a1,1,0,0,0-.19-.26.51.51,0,0,0-.19-.09c.07-.72.18-1.42.2-2.12a5.15,5.15,0,0,0-.55-2.4.54.54,0,0,1,0-.25Z"/><path class="cls-6" d="M92.79,152.27a1.63,1.63,0,0,1-1.21.76,1.27,1.27,0,0,1-.78-1A7.52,7.52,0,0,1,92.79,152.27Z"/><path class="cls-6" d="M94.08,152.91c0-.6.48-.69.9-.82a4.26,4.26,0,0,1,3.06.2,1.38,1.38,0,0,1,.25.17C96.94,151.89,95,151.92,94.08,152.91Z"/><path class="cls-6" d="M113.9,134.23c-.05,0-.13,0-.15,0a4.21,4.21,0,0,0-2.16-1.37,1.14,1.14,0,0,1-.44-.31,4,4,0,0,1,2.79,1.63Z"/><path class="cls-6" d="M99.42,152.5l0,1-.54-.7Z"/><path d="M106.86,133.85c2.09-.48,5-.15,5.55.73A22.5,22.5,0,0,0,106.86,133.85Zm5.15.46a7.58,7.58,0,0,0-3.74-.56Z"/><path d="M104.8,144.52a7.22,7.22,0,0,1,1.65,1.77,1.49,1.49,0,0,1,.35.92.83.83,0,0,1-.38.79c-.55.35-1.11.68-1.69,1q-1.32.71-2.67,1.35c-1,.52-2.11,1-3.18,1.5a1.68,1.68,0,0,1-1,0,8,8,0,0,0-2.49-.14,1.87,1.87,0,0,1-1.54-.72,5.36,5.36,0,0,0-1.11-.77c-.43-.25-.86-.48-1-1a.82.82,0,0,1,.39-.9q1.75-1.08,3.57-2.07c.74-.41,1.52-.75,2.27-1.12a7.44,7.44,0,0,1,2.7-.7c.91-.09,1.83-.18,2.75-.22A1.84,1.84,0,0,1,104.8,144.52Zm.79.72a7.65,7.65,0,0,0-1-.73,4.19,4.19,0,0,0-2.08-.19c-.73.05-1.47.13-2.2.24a8.41,8.41,0,0,0-1.48.36c-.62.23-1.22.52-1.82.79-.3.14-.59.31-.9.48.48.43.92.84,1.38,1.23s.86.72,1.3,1.07a.34.34,0,0,0,.28,0l2-1,3.1-1.52ZM99,148.73l.17.11c.83.49,1.65,1,2.49,1.46a.38.38,0,0,0,.29,0c.69-.34,1.39-.69,2.07-1.05s1.5-.78,2.23-1.21a.89.89,0,0,0,.36-1.2c-.29-.48-.63-.93-.94-1.39Zm-3.08-2.48-.64.35c-1,.55-1.94,1.08-2.89,1.67a.86.86,0,0,0,0,1.55c.54.34,1.1.65,1.69,1l4.63-2.17ZM94,151.05c.65.58.69.61,1.13.59a10.56,10.56,0,0,1,2.86.15,1.58,1.58,0,0,0,.83-.07c.58-.21,1.15-.47,1.72-.73.35-.16.68-.36,1-.55l-.12-.1L99,148.86a.34.34,0,0,0-.26,0l-3.25,1.51Z"/><path d="M112.47,145.12a2,2,0,0,1,.33.24.83.83,0,0,1-.22,1.37,3,3,0,0,1-3.22,0,.91.91,0,0,1,0-1.59A3.21,3.21,0,0,1,112.47,145.12Zm-3,1.59a3.07,3.07,0,0,0,2.66.14,1.57,1.57,0,0,0,.7-.57.82.82,0,0,0-.52-1.16A2.77,2.77,0,0,0,110,145c-.19.09-.45.08-.6.21A.84.84,0,0,0,109.49,146.71Z"/><path class="cls-5" d="M96.54,152.5h.24c.1.06.19.16.3.17a1.61,1.61,0,0,1,1.08.52,1.15,1.15,0,0,1,.34.7.92.92,0,0,1-.59.69l-.38.2-.27.05-.23-.06a2.79,2.79,0,0,1-2.16-.74.65.65,0,0,1,.09-1,4,4,0,0,1,.83-.34A6.22,6.22,0,0,1,96.54,152.5Z"/><path d="M96.54,152.5a6.22,6.22,0,0,0-.75.15A4,4,0,0,0,95,153a.65.65,0,0,0-.09,1,2.79,2.79,0,0,0,2.16.74l.23.06a2.69,2.69,0,0,1-2.47-.72.77.77,0,0,1,.23-1.3A2.09,2.09,0,0,1,96.54,152.5Z"/><path d="M97.53,154.78l.38-.2a.92.92,0,0,0,.59-.69,1.15,1.15,0,0,0-.34-.7,1.61,1.61,0,0,0-1.08-.52c-.11,0-.2-.11-.3-.17a3.83,3.83,0,0,1,.76.18,3.17,3.17,0,0,1,.87.61.74.74,0,0,1-.07,1.12A4.27,4.27,0,0,1,97.53,154.78Z"/><path class="cls-2" d="M112,134.31l-3.74-.56A7.58,7.58,0,0,1,112,134.31Z"/><path class="cls-3" d="M105.59,145.24l-1.48.76-3.1,1.52-2,1a.34.34,0,0,1-.28,0c-.44-.35-.88-.71-1.3-1.07s-.9-.8-1.38-1.23c.31-.17.6-.34.9-.48.6-.27,1.2-.56,1.82-.79a8.41,8.41,0,0,1,1.48-.36c.73-.11,1.47-.19,2.2-.24a4.19,4.19,0,0,1,2.08.19A7.65,7.65,0,0,1,105.59,145.24Z"/><path class="cls-2" d="M99,148.73l6.67-3.31c.31.46.65.91.94,1.39a.89.89,0,0,1-.36,1.2c-.73.43-1.48.82-2.23,1.21s-1.38.71-2.07,1.05a.38.38,0,0,1-.29,0c-.84-.48-1.66-1-2.49-1.46Z"/><path class="cls-3" d="M95.92,146.25l2.83,2.39-4.63,2.17c-.59-.34-1.15-.65-1.69-1a.86.86,0,0,1,0-1.55c1-.59,1.93-1.12,2.89-1.67Z"/><path class="cls-2" d="M94,151.05l1.42-.66,3.25-1.51a.34.34,0,0,1,.26,0l2.52,1.48.12.1c-.35.19-.68.39-1,.55-.57.26-1.14.52-1.72.73a1.58,1.58,0,0,1-.83.07,10.56,10.56,0,0,0-2.86-.15C94.72,151.66,94.68,151.63,94,151.05Z"/><path class="cls-5" d="M109.49,146.71a.84.84,0,0,1,0-1.48c.15-.13.41-.12.6-.21a2.77,2.77,0,0,1,2.29.1.82.82,0,0,1,.52,1.16,1.57,1.57,0,0,1-.7.57A3.07,3.07,0,0,1,109.49,146.71Z"/><path class="cls-2" d="M258,31.47l-1.28.91c-.23.19-.45.38-.69.56l-1.11.86,0,0,.54-.32.74-.51a1.33,1.33,0,0,1,.14-.19c.2-.16.41-.31.62-.46l1.19-.85a3.79,3.79,0,0,1,.54.47,14.79,14.79,0,0,0,2.57,2.79c.76.64,1.57,1.23,2.36,1.85.17.13.19.24,0,.41-.6.58-1.18,1.18-1.76,1.77s-1.27,1.29-1.9,1.93l-.81.85,0,.07a1.18,1.18,0,0,0,.39-.1,4.42,4.42,0,0,0,.68-.61c.76-.82,1.47-1.68,2.26-2.46a9.4,9.4,0,0,1,2.39-1.69c1.37-.71,2.74-1.43,4.15-2.09,1.15-.54,2.35-1,3.59-1.51-.67-.75-1.34-1.58-2.1-2.31s-1.84-1.6-2.79-2.35a2.14,2.14,0,0,0-1-.46,3,3,0,0,0-1.14.18c-.86.24-1.72.5-2.57.78a16.83,16.83,0,0,0-4.13,1.91C258.61,31.14,258.28,31.3,258,31.47Z"/><path d="M254,34.7a8.8,8.8,0,0,0-.8.69,1.19,1.19,0,0,0-.08,1.36,9.38,9.38,0,0,0,3.22,3.68c.58.4,1.18.76,1.78,1.12s.77.15,1.15-.25l1.57-1.61,1.76-1.8c.29-.3.59-.6.9-.89s.13-.21,0-.34c-.95-.76-1.93-1.5-2.84-2.31a23,23,0,0,1-1.72-1.83c-.25-.29-.47-.62-.7-.94l-2,1.43a1.33,1.33,0,0,1,.14-.19c.2-.16.41-.31.62-.46l1.19-.85a3.79,3.79,0,0,1,.54.47,14.79,14.79,0,0,0,2.57,2.79c.76.64,1.57,1.23,2.36,1.85.17.13.19.24,0,.41-.6.58-1.18,1.18-1.76,1.77s-1.27,1.29-1.9,1.93l-.81.85,0,.07a1.18,1.18,0,0,0,.39-.1,4.42,4.42,0,0,0,.68-.61c.76-.82,1.47-1.68,2.26-2.46a9.4,9.4,0,0,1,2.39-1.69c1.37-.71,2.74-1.43,4.15-2.09,1.15-.54,2.35-1,3.59-1.51-.67-.75-1.34-1.58-2.1-2.31s-1.84-1.6-2.79-2.35a2.14,2.14,0,0,0-1-.46,3,3,0,0,0-1.14.18c-.86.24-1.72.5-2.57.78a16.83,16.83,0,0,0-4.13,1.91c-.3.2-.63.36-.94.53a18.71,18.71,0,0,1,1.69-1.09c1-.5,2-.95,3.11-1.36A13.33,13.33,0,0,1,266.89,28a2.32,2.32,0,0,1,1.55.22,14.87,14.87,0,0,1,1.4.94c1,.84,2,1.7,2.93,2.6.35.34.79.67.76,1.26,0,.07.12.13.18.2.61.65,1.22,1.29,1.82,1.95a1.56,1.56,0,0,1,.41.65,14.51,14.51,0,0,1,.2,1.63s0,0,0,0a7.89,7.89,0,0,1-.43,2c0,.07-.12.13-.21.23-.15-.29-.28-.55-.42-.81a.94.94,0,0,0-.69-.46,5.21,5.21,0,0,1,.72.69,1.79,1.79,0,0,1,.1,1.62,4.16,4.16,0,0,1-2.16,2.62,1.23,1.23,0,0,1-1.15,0c-.42-.24-.82-.5-1.23-.74a.34.34,0,0,0-.25,0c-.67.29-1.34.6-2,.91l-4.12,1.87c-.82.38-1.65.76-2.46,1.17-.28.14-.5.37-.77.52s-.38.08-.35-.23a11.73,11.73,0,0,0,.1-1.31,1,1,0,0,0-1.58-1c.35.28.74.54,1.07.86a1.54,1.54,0,0,1,.24,1.64,4.49,4.49,0,0,1-2.34,2.73,1.58,1.58,0,0,1-1.29.17,3.25,3.25,0,0,1-1.84-1.55,2.56,2.56,0,0,1-.49.13l-1.78,0a4.22,4.22,0,0,1-1.72-.33A10,10,0,0,1,248.21,46a6.9,6.9,0,0,1-1-1.62,4,4,0,0,1-.39-3.11,11.22,11.22,0,0,1,.38-1.25,2.27,2.27,0,0,1,.35-.63,9.47,9.47,0,0,1,.81-.75c1-.86,1.9-1.74,2.91-2.54a17.62,17.62,0,0,1,2-1.17,1.85,1.85,0,0,0,.33-.21c.83-.65,1.64-1.31,2.47-1.95a4.6,4.6,0,0,1,.64-.4c-.23.19-.45.38-.69.56l-1.11.86,0,0,.54-.32Zm1.73,9.81q-.58.48-1.17,1s-.09.13-.07.17c.2.41-.06.66-.32.9a5.86,5.86,0,0,1-.53.41,6.37,6.37,0,0,0,.65.09.68.68,0,0,0,.36-.1c.42-.2.56-.17.81.29a8.09,8.09,0,0,1,.69-.73c.54-.45,1.08-.91,1.67-1.31a9.09,9.09,0,0,1,1.47-.8,1.07,1.07,0,0,1,1.25.2,1.23,1.23,0,0,1,.37,1c0,.47-.07.94-.12,1.46a1.28,1.28,0,0,0,.31-.15,8.52,8.52,0,0,1,2.26-1.22c1.32-.64,2.66-1.23,4-1.84l2.85-1.27c.23-.11.48-.17.7-.29a.54.54,0,0,0,.23-.36,4.37,4.37,0,0,1,2.27-3.5,1.32,1.32,0,0,1,1.89.66,1.59,1.59,0,0,0,.22.43,5.08,5.08,0,0,0,.43-2.61c-.35.13-.68.27-1,.36a.5.5,0,0,1-.4-.07.43.43,0,0,1,0-.38c.23-.35.49-.69.74-1s.26-.56-.05-.83c0,.09,0,.16-.07.23-.17.35-.49.45-.75.17-.54-.57-1.05-1.17-1.53-1.78-.12-.17-.22-.22-.38-.16-1,.39-2,.74-3,1.18-1.22.55-2.42,1.13-3.59,1.76a21.33,21.33,0,0,0-2.8,1.77,16.49,16.49,0,0,0-1.92,1.91c-.43.45-.83.95-1.26,1.41a.74.74,0,0,1-.36.23,1.5,1.5,0,0,0-.79.45l-.43.29c0-.31-.21-.11-.28-.09l-2,.68L252,44.39l-.63.22,0-.08,1.7-.61,2.81-.94c.77-.26,1.53-.58,2.32-.77a1.66,1.66,0,0,0,.85-.48,3.68,3.68,0,0,1-2.76-.59,18.27,18.27,0,0,1-1.83-1.38c-.07,0-.15-.14-.22-.13a.86.86,0,0,1-.86-.55,7.72,7.72,0,0,1-1-2.11,1.58,1.58,0,0,1,.6-1.74l0-.06a8.89,8.89,0,0,0-.91.51c-.64.47-1.29,1-1.88,1.47s-1.43,1.34-2.14,2a.46.46,0,0,0-.15.22c-.16.69-.32,1.38-.44,2.07a2.84,2.84,0,0,0,.66,2.15,6.16,6.16,0,0,0,2.5,2,2.32,2.32,0,0,0,1.22.1l2.13-.18a1.08,1.08,0,0,0,.66-.27q1.65-1.35,3.32-2.68a1.92,1.92,0,0,1,.41-.19Zm-3,2.58a4.35,4.35,0,0,1-2.5-.92c-.67-.47-1.3-1-1.95-1.52a4,4,0,0,1-1-1.46,4.27,4.27,0,0,1-.33-2.12,4.07,4.07,0,0,0,.57,3.66,9,9,0,0,0,3.65,2.91,3.3,3.3,0,0,0,2.9-.21l.29-.12-.09-.16Zm4.5,2.83a2.61,2.61,0,0,0,1-.27,4.21,4.21,0,0,0,2.12-2.47,2.79,2.79,0,0,0,.11-1.08,1.06,1.06,0,0,0-1.52-.8,4.17,4.17,0,0,0-2.63,2.63,4.42,4.42,0,0,0-.14.63C256.1,49.4,256.58,50,257.28,49.92ZM270.86,31a21.1,21.1,0,0,1,1.79,2.1c.14.18.28.12.4.07s.43-.18.35-.47a1.24,1.24,0,0,0-.25-.45c-.75-.73-1.47-1.49-2.26-2.17s-1.56-1.15-2.33-1.73a1.85,1.85,0,0,0-1.17-.34C268.54,29,269.75,30,270.86,31Zm.68,11.81c.24.55.7.68,1.4.44a3.16,3.16,0,0,0,1.32-1,3.72,3.72,0,0,0,.95-2.18,1.84,1.84,0,0,0-.2-.93c-.34-.54-.91-.62-1.57-.23a4.12,4.12,0,0,0-1.9,2.43,7.42,7.42,0,0,0-.17.73A3.42,3.42,0,0,0,271.54,42.84Zm-16.41-3.27a6.87,6.87,0,0,1-1.53-1.82,11.92,11.92,0,0,1-.57-1,1.22,1.22,0,0,1,0-1.31,1.23,1.23,0,0,0-.61,1.18,6,6,0,0,0,.91,2.31,2.62,2.62,0,0,0,.34.48c.06.07.18.17.25.15.52-.11.7.34,1,.59a6.83,6.83,0,0,0,2.72,1.51,1.45,1.45,0,0,0,.3,0l-.05,0C257,41,256,40.3,255.13,39.57Zm-3.19,8.84a9,9,0,0,0,2.69,0,.89.89,0,0,0,.69-1.25.26.26,0,0,0-.38-.2,1.82,1.82,0,0,0-.53.33,2.77,2.77,0,0,1-1.42.6,3.54,3.54,0,0,1-2.55-.53l-1.29-.65A5.42,5.42,0,0,0,251.94,48.41Zm6.5-3.45c-.6.4-1.2.79-1.77,1.22a6,6,0,0,0-.73.78s0,0,0,.06c-.45.17-.42.59-.51.95,0,0,0,.05,0,.06-.39.39-.07.67.16.93a4.11,4.11,0,0,0,.67.57,2.92,2.92,0,0,1,.65-2.78,3.56,3.56,0,0,1,2.83-1.65C259.17,44.59,259,44.57,258.44,45Zm-4.14,1.35c.14-.18.24-.38.09-.56s-.28-.07-.43-.06c-.88.06-1.77.13-2.65.21-.11,0-.27.07-.3.15a.43.43,0,0,0,.11.32,1.73,1.73,0,0,0,1.45.57A1.65,1.65,0,0,0,254.3,46.31Zm20.18-11c.15.16.34.2.48,0s.33-.35.1-.59c-.5-.52-1-1-1.51-1.57,0,0-.17,0-.25,0s-.25.13-.48.25ZM251,46.5a1.48,1.48,0,0,1-.09-.32.51.51,0,0,1,0-.2c-.61-.39-1.23-.74-1.79-1.16a5,5,0,0,1-1.55-1.91c0-.06-.13-.09-.2-.14l-.05.1C247.94,44.63,249.49,45.45,251,46.5Zm25-9.82a1.26,1.26,0,0,0-.27-1.2,7.34,7.34,0,0,0-1.07,1.69A1.63,1.63,0,0,0,275.92,36.68Zm-2.83,2.1a4.29,4.29,0,0,0-1.73,2.53,1,1,0,0,0,0,.3c.38-1.41,1.58-2.89,3-3C273.82,38.21,273.44,38.53,273.09,38.78Zm-25.67,3.75a4.13,4.13,0,0,1,.25-2.55,1.22,1.22,0,0,0,0-.54,4.08,4.08,0,0,0-.43,3.21l.1,0C247.38,42.62,247.43,42.57,247.42,42.53Zm24.05.56-.22-.85-.58.29Z"/><path class="cls-3" d="M255.46,33.52,254,34.7a8.8,8.8,0,0,0-.8.69,1.19,1.19,0,0,0-.08,1.36,9.38,9.38,0,0,0,3.22,3.68c.58.4,1.18.76,1.78,1.12s.77.15,1.15-.25l1.57-1.61,1.76-1.8c.29-.3.59-.6.9-.89s.13-.21,0-.34c-.95-.76-1.93-1.5-2.84-2.31a23,23,0,0,1-1.72-1.83c-.25-.29-.47-.62-.7-.94l-2,1.43Z"/><path class="cls-4" d="M258.34,42.43a1.92,1.92,0,0,0-.41.19q-1.67,1.34-3.32,2.68a1.08,1.08,0,0,1-.66.27l-2.13.18a2.32,2.32,0,0,1-1.22-.1,6.16,6.16,0,0,1-2.5-2,2.84,2.84,0,0,1-.66-2.15c.12-.69.28-1.38.44-2.07a.46.46,0,0,1,.15-.22c.71-.68,1.4-1.37,2.14-2s1.24-1,1.88-1.47a8.89,8.89,0,0,1,.91-.51l0,.06a1.58,1.58,0,0,0-.6,1.74,7.72,7.72,0,0,0,1,2.11.86.86,0,0,0,.86.55c.07,0,.15.08.22.13a18.27,18.27,0,0,0,1.83,1.38,3.68,3.68,0,0,0,2.76.59,1.66,1.66,0,0,1-.85.48c-.79.19-1.55.51-2.32.77l-2.81.94-1.7.61,0,.08.63-.22L256.05,43l2-.68c.07,0,.28-.22.28.09Zm-9.78-.71a22.47,22.47,0,0,1,2.84-4.82C249.74,38.25,248.22,40.72,248.56,41.72Z"/><path class="cls-4" d="M258.33,42.44l.43-.29a1.5,1.5,0,0,1,.79-.45.74.74,0,0,0,.36-.23c.43-.46.83-1,1.26-1.41a16.49,16.49,0,0,1,1.92-1.91,21.33,21.33,0,0,1,2.8-1.77c1.17-.63,2.37-1.21,3.59-1.76,1-.44,2-.79,3-1.18.16-.06.26,0,.38.16.48.61,1,1.21,1.53,1.78.26.28.58.18.75-.17,0-.07,0-.14.07-.23.31.27.32.47.05.83s-.51.67-.74,1a.43.43,0,0,0,0,.38.5.5,0,0,0,.4.07c.34-.09.67-.23,1-.36a5.08,5.08,0,0,1-.43,2.61,1.59,1.59,0,0,1-.22-.43,1.32,1.32,0,0,0-1.89-.66,4.37,4.37,0,0,0-2.27,3.5.54.54,0,0,1-.23.36c-.22.12-.47.18-.7.29l-2.85,1.27c-1.34.61-2.68,1.2-4,1.84a8.52,8.52,0,0,0-2.26,1.22,1.28,1.28,0,0,1-.31.15c.05-.52.12-1,.12-1.46a1.23,1.23,0,0,0-.37-1,1.07,1.07,0,0,0-1.25-.2,9.09,9.09,0,0,0-1.47.8c-.59.4-1.13.86-1.67,1.31a8.09,8.09,0,0,0-.69.73c-.25-.46-.39-.49-.81-.29a.68.68,0,0,1-.36.1,6.37,6.37,0,0,1-.65-.09,5.86,5.86,0,0,0,.53-.41c.26-.24.52-.49.32-.9,0,0,0-.14.07-.17q.58-.51,1.17-1l2.59-2.08Zm3.12,1.8a1.54,1.54,0,0,0,.51.85.86.86,0,0,0,.86.18c.61-.22,1.22-.46,1.81-.72.91-.41,1.81-.84,2.71-1.28,1.05-.51,2.11-1,3.14-1.58a1.69,1.69,0,0,0,.64-.73,7.67,7.67,0,0,1,1.42-2.05,1.88,1.88,0,0,0,.38-1.66,5,5,0,0,1,.08-1.34,1.61,1.61,0,0,0-.23-1.41.81.81,0,0,0-.94-.25c-1.29.48-2.57,1-3.83,1.53-.78.34-1.53.74-2.29,1.11a7.74,7.74,0,0,0-2.21,1.69c-.63.66-1.26,1.33-1.86,2a1.83,1.83,0,0,0-.57,1.24A7.35,7.35,0,0,0,261.45,44.24Z"/><path class="cls-5" d="M254.32,47.15l-1.54-.06a4.35,4.35,0,0,1-2.5-.92c-.67-.47-1.3-1-1.95-1.52a4,4,0,0,1-1-1.46,4.27,4.27,0,0,1-.33-2.12,4.07,4.07,0,0,0,.57,3.66,9,9,0,0,0,3.65,2.91,3.3,3.3,0,0,0,2.9-.21l.29-.12Z"/><path class="cls-6" d="M256.35,47.93A4.17,4.17,0,0,1,259,45.3a1.06,1.06,0,0,1,1.52.8,2.79,2.79,0,0,1-.11,1.08,4.21,4.21,0,0,1-2.12,2.47,2.61,2.61,0,0,1-1,.27c-.7,0-1.18-.52-1.07-1.36A4.42,4.42,0,0,1,256.35,47.93Zm.45.73a.83.83,0,0,0,1.22.68,3,3,0,0,0,2-2.53.91.91,0,0,0-1.25-1,3.19,3.19,0,0,0-1.95,2.43A1.82,1.82,0,0,0,256.8,48.66Z"/><path class="cls-5" d="M267.39,28c1.15,1,2.36,1.94,3.47,3a21.1,21.1,0,0,1,1.79,2.1c.14.18.28.12.4.07s.43-.18.35-.47a1.24,1.24,0,0,0-.25-.45c-.75-.73-1.47-1.49-2.26-2.17s-1.56-1.15-2.33-1.73A1.85,1.85,0,0,0,267.39,28Z"/><path class="cls-6" d="M271.54,41.38a4.12,4.12,0,0,1,1.9-2.43c.66-.39,1.23-.31,1.57.23a1.84,1.84,0,0,1,.2.93,3.72,3.72,0,0,1-.95,2.18,3.16,3.16,0,0,1-1.32,1c-.7.24-1.16.11-1.4-.44a3.42,3.42,0,0,1-.17-.73A7.42,7.42,0,0,1,271.54,41.38Zm2.3.88a2.66,2.66,0,0,0,1-2.39.77.77,0,0,0-1.16-.62,2.14,2.14,0,0,0-1.18,1l-.15.19a3.5,3.5,0,0,0-.33.71,3.45,3.45,0,0,0-.05,1.06.76.76,0,0,0,.92.64,4.24,4.24,0,0,0,.79-.41Z"/><path class="cls-2" d="M257.92,41.68c-.93-.7-1.88-1.38-2.79-2.11a6.87,6.87,0,0,1-1.53-1.82,11.92,11.92,0,0,1-.57-1,1.22,1.22,0,0,1,0-1.31,1.23,1.23,0,0,0-.61,1.18,6,6,0,0,0,.91,2.31,2.62,2.62,0,0,0,.34.48c.06.07.18.17.25.15.52-.11.7.34,1,.59a6.83,6.83,0,0,0,2.72,1.51,1.45,1.45,0,0,0,.3,0Z"/><path class="cls-2" d="M249.15,46.74a5.42,5.42,0,0,0,2.79,1.67,9,9,0,0,0,2.69,0,.89.89,0,0,0,.69-1.25.26.26,0,0,0-.38-.2,1.82,1.82,0,0,0-.53.33,2.77,2.77,0,0,1-1.42.6,3.54,3.54,0,0,1-2.55-.53Z"/><path class="cls-6" d="M259.7,45.1c-.53-.51-.66-.53-1.26-.14s-1.2.79-1.77,1.22a6,6,0,0,0-.73.78s0,0,0,.06c-.45.17-.42.59-.51.95,0,0,0,.05,0,.06-.39.39-.07.67.16.93a4.11,4.11,0,0,0,.67.57,2.92,2.92,0,0,1,.65-2.78A3.56,3.56,0,0,1,259.7,45.1Z"/><path class="cls-6" d="M252.57,46.94a1.65,1.65,0,0,0,1.73-.63c.14-.18.24-.38.09-.56s-.28-.07-.43-.06c-.88.06-1.77.13-2.65.21-.11,0-.27.07-.3.15a.43.43,0,0,0,.11.32A1.73,1.73,0,0,0,252.57,46.94Z"/><path class="cls-3" d="M272.82,33.42l1.66,1.88c.15.16.34.2.48,0s.33-.35.1-.59c-.5-.52-1-1-1.51-1.57,0,0-.17,0-.25,0S273.05,33.3,272.82,33.42Z"/><path class="cls-2" d="M247.32,42.87c.62,1.76,2.17,2.58,3.63,3.63a1.48,1.48,0,0,1-.09-.32.51.51,0,0,1,0-.2c-.61-.39-1.23-.74-1.79-1.16a5,5,0,0,1-1.55-1.91c0-.06-.13-.09-.2-.14Z"/><path class="cls-6" d="M274.58,37.17a1.63,1.63,0,0,0,1.34-.49,1.26,1.26,0,0,0-.27-1.2A7.34,7.34,0,0,0,274.58,37.17Z"/><path class="cls-6" d="M274.29,38.57c-.47-.36-.85,0-1.2.21a4.29,4.29,0,0,0-1.73,2.53,1,1,0,0,0,0,.3C271.72,40.2,272.92,38.72,274.29,38.57Z"/><path class="cls-6" d="M247.36,42.67c0-.05.07-.1.06-.14a4.13,4.13,0,0,1,.25-2.55,1.22,1.22,0,0,0,0-.54,4.08,4.08,0,0,0-.43,3.21Z"/><path class="cls-6" d="M270.67,42.53l.8.56-.22-.85Z"/><path d="M248.56,41.72c-.34-1,1.18-3.47,2.84-4.82A22.47,22.47,0,0,0,248.56,41.72Zm1.9-3.77a7.5,7.5,0,0,0-1.87,3.28Z"/><path d="M261.64,40.61c.6-.7,1.23-1.37,1.86-2a7.74,7.74,0,0,1,2.21-1.69c.76-.37,1.51-.77,2.29-1.11,1.26-.54,2.54-1.05,3.83-1.53a.81.81,0,0,1,.94.25,1.61,1.61,0,0,1,.23,1.41,5,5,0,0,0-.08,1.34,1.88,1.88,0,0,1-.38,1.66A7.67,7.67,0,0,0,271.12,41a1.69,1.69,0,0,1-.64.73c-1,.56-2.09,1.07-3.14,1.58-.9.44-1.8.87-2.71,1.28-.59.26-1.2.5-1.81.72a.86.86,0,0,1-.86-.18,1.54,1.54,0,0,1-.51-.85,7.35,7.35,0,0,1-.38-2.39A1.83,1.83,0,0,1,261.64,40.61Zm1,1.61,3.11-1.51,2-1a.31.31,0,0,0,.17-.21c0-.56,0-1.12,0-1.69s-.07-1.2-.11-1.84a10,10,0,0,0-.93.42c-.59.3-1.19.6-1.75.95a8.19,8.19,0,0,0-1.19.94c-.54.51-1.06,1-1.55,1.59a4.14,4.14,0,0,0-1.13,1.75,7.2,7.2,0,0,0-.07,1.26Zm-1.41.87c.16.53.31,1.07.51,1.6a.9.9,0,0,0,1.17.45c.79-.31,1.56-.66,2.33-1s1.4-.65,2.1-1c.08,0,.19-.13.2-.21.14-1,.26-1.91.38-2.86,0,0,0-.1,0-.21ZM268,39.62l4.57-2.3c.09-.69.19-1.32.26-2a.86.86,0,0,0-1.2-1c-1,.38-2.06.82-3.09,1.24l-.67.29Zm3.41-1.51-3.18,1.62a.3.3,0,0,0-.18.2c-.13,1-.26,1.93-.38,2.89,0,0,0,.08,0,.15.37-.16.73-.3,1.07-.47.56-.28,1.11-.57,1.64-.9A1.66,1.66,0,0,0,271,41a10.43,10.43,0,0,1,1.64-2.35c.29-.33.29-.39.23-1.25Z"/><path d="M258.77,45.83a.91.91,0,0,1,1.25,1,3,3,0,0,1-2,2.53.83.83,0,0,1-1.22-.68,1.82,1.82,0,0,1,0-.4A3.19,3.19,0,0,1,258.77,45.83Zm0,.11c-.19,0-.34.25-.53.34a2.8,2.8,0,0,0-1.33,1.87.81.81,0,0,0,.59,1.12,1.52,1.52,0,0,0,.88-.2,3.06,3.06,0,0,0,1.52-2.18C260.09,46.14,259.36,45.79,258.77,45.94Z"/><path class="cls-5" d="M272.45,40.26l-.15.19a.76.76,0,0,1-.05.34A1.61,1.61,0,0,0,272,42a1.16,1.16,0,0,0,.34.69.93.93,0,0,0,.91,0,3.29,3.29,0,0,1,.39-.17l.21-.19a.81.81,0,0,1,.1-.21,2.8,2.8,0,0,0,.74-2.16.65.65,0,0,0-.87-.57,4.08,4.08,0,0,0-.79.44A6.58,6.58,0,0,0,272.45,40.26Z"/><path d="M272.45,40.26a6.58,6.58,0,0,1,.57-.5,4.08,4.08,0,0,1,.79-.44.65.65,0,0,1,.87.57,2.8,2.8,0,0,1-.74,2.16.81.81,0,0,0-.1.21,2.66,2.66,0,0,0,1-2.39.77.77,0,0,0-1.16-.62A2.14,2.14,0,0,0,272.45,40.26Z"/><path d="M273.63,42.45a3.29,3.29,0,0,0-.39.17.93.93,0,0,1-.91,0A1.16,1.16,0,0,1,272,42a1.61,1.61,0,0,1,.26-1.18.76.76,0,0,0,.05-.34,3.5,3.5,0,0,0-.33.71,3.45,3.45,0,0,0-.05,1.06.76.76,0,0,0,.92.64A4.24,4.24,0,0,0,273.63,42.45Z"/><path class="cls-2" d="M248.59,41.23,250.46,38A7.5,7.5,0,0,0,248.59,41.23Z"/><path class="cls-3" d="M261.15,42.91l1.51-.69,3.11-1.51,2-1a.31.31,0,0,0,.17-.21c0-.56,0-1.12,0-1.69s-.07-1.2-.11-1.84a10,10,0,0,0-.93.42c-.59.3-1.19.6-1.75.95a8.19,8.19,0,0,0-1.19.94c-.54.51-1.06,1-1.55,1.59a4.14,4.14,0,0,0-1.13,1.75A7.2,7.2,0,0,0,261.15,42.91Z"/><path class="cls-2" d="M268,39.87l-6.71,3.22c.16.53.31,1.07.51,1.6a.9.9,0,0,0,1.17.45c.79-.31,1.56-.66,2.33-1s1.4-.65,2.1-1c.08,0,.19-.13.2-.21.14-1,.26-1.91.38-2.86C268,40,268,40,268,39.87Z"/><path class="cls-3" d="M267.91,35.92l.13,3.7,4.57-2.3c.09-.69.19-1.32.26-2a.86.86,0,0,0-1.2-1c-1,.38-2.06.82-3.09,1.24Z"/><path class="cls-2" d="M272.85,37.39l-1.4.72-3.18,1.62a.3.3,0,0,0-.18.2c-.13,1-.26,1.93-.38,2.89,0,0,0,.08,0,.15.37-.16.73-.3,1.07-.47.56-.28,1.11-.57,1.64-.9A1.66,1.66,0,0,0,271,41a10.43,10.43,0,0,1,1.64-2.35C272.91,38.31,272.91,38.25,272.85,37.39Z"/><path class="cls-5" d="M259.9,46.89c.19-.75-.54-1.1-1.13-1-.19,0-.34.25-.53.34a2.8,2.8,0,0,0-1.33,1.87.81.81,0,0,0,.59,1.12,1.52,1.52,0,0,0,.88-.2A3.06,3.06,0,0,0,259.9,46.89Z"/><text class="cls-7" transform="matrix(0.86, -0.51, 0.51, 0.86, 139.53, 118.48)">A</text><text class="cls-7" transform="translate(145.65 114.89) rotate(-30.39)">v</text><text class="cls-7" transform="matrix(0.86, -0.51, 0.51, 0.86, 150.23, 112.2)">.</text><text class="cls-7" transform="translate(152.38 110.95) rotate(-30.39)"> </text><text class="cls-7" transform="matrix(0.86, -0.51, 0.51, 0.86, 154.57, 109.66)">I</text><text class="cls-7" transform="translate(157.14 108.15) rotate(-30.39)">n</text><text class="cls-7" transform="matrix(0.86, -0.51, 0.51, 0.86, 162.89, 104.78)">s</text><text class="cls-7" transform="translate(167.01 102.36) rotate(-30.39)">u</text><text class="cls-7" transform="translate(172.69 99.03) rotate(-30.39)">r</text><text class="cls-7" transform="translate(176 97.09) rotate(-30.39)">g</text><text class="cls-7" transform="translate(181.8 93.69) rotate(-30.39)">e</text><text class="cls-7" transform="matrix(0.86, -0.51, 0.51, 0.86, 186.99, 90.65)">n</text><text class="cls-7" transform="matrix(0.86, -0.51, 0.51, 0.86, 192.68, 87.31)">t</text><text class="cls-7" transform="matrix(0.86, -0.51, 0.51, 0.86, 196.05, 85.33)">e</text><text class="cls-7" transform="translate(201.24 82.29) rotate(-30.39)">s</text><text class="cls-7" transform="translate(205.33 79.89) rotate(-30.39)"> </text><text class="cls-7" transform="translate(207.54 78.59) rotate(-30.39)">S</text><text class="cls-7" transform="matrix(0.86, -0.51, 0.51, 0.86, 212.64, 75.6)">u</text><text class="cls-7" transform="translate(218.34 72.26) rotate(-30.39)">r</text></g></g></svg>