<svg xmlns="http://www.w3.org/2000/svg" viewBox="0 0 90.64 61.1"><defs><style>.cls-1{fill:#7777e8;}.cls-2{fill:#6262c3;}.cls-3{fill:#2f2e65;}.cls-4{fill:#44438a;}.cls-5{fill:#eeb500;}.cls-6{fill:#fff;}.cls-7{font-size:9.43px;font-family:Arial-BoldMT, Arial;font-weight:700;}.cls-8{letter-spacing:-0.07em;}.cls-9{letter-spacing:0em;}</style></defs><title>centro-universitario-teatro</title><g id="Capa_2" data-name="Capa 2"><g id="Capa_3" data-name="Capa 3"><polygon class="cls-1" points="13.85 32.59 15.63 32.16 16.28 32.82 15.06 34.42 13.85 32.59"/><polygon class="cls-1" points="51.97 44.08 50.56 43.66 50.24 46.28 51.97 46.42 51.97 44.08"/><polygon class="cls-1" points="51.56 33.13 51.56 32.95 23.89 16.74 14.55 22.34 42.5 37.25 51.56 33.13"/><polygon class="cls-2" points="14.55 22.34 14.35 22.46 14.35 45.15 42.5 61.1 42.5 37.25 14.55 22.34"/><polygon class="cls-3" points="24.51 48.02 24.48 48.03 24.48 50.72 27.82 52.61 27.82 49.78 24.51 48.02"/><polygon class="cls-4" points="42.5 37.25 42.5 61.1 51.09 56.33 51.56 56.01 51.56 33.13 42.5 37.25"/><polygon class="cls-3" points="46.48 54.73 46.48 58.8 47.95 57.99 48.03 57.93 48.03 54.02 46.48 54.73"/><polygon class="cls-3" points="42.5 48.21 42.5 50.32 13.85 35.67 13.85 32.6 42.5 48.21"/><polygon class="cls-3" points="42.5 48.2 42.5 50.31 51.97 46.42 51.97 44.08 42.5 48.2"/><polygon class="cls-1" points="13.85 33.76 42.5 49.01 51.97 44.77 51.97 45.7 42.5 49.47 13.85 35.08 13.85 33.76"/><polygon class="cls-3" points="43.39 39.56 50.85 36.2 50.85 37.88 43.39 41.27 43.39 39.56"/><polygon class="cls-3" points="43.39 42.28 50.85 38.92 50.85 40.6 43.39 43.99 43.39 42.28"/><polygon class="cls-3" points="43.39 50.73 50.85 47.36 50.85 49.04 43.39 52.43 43.39 50.73"/><polygon class="cls-3" points="43.39 53.45 50.85 50.08 50.85 51.76 43.39 55.15 43.39 53.45"/><polygon class="cls-1" points="15.09 24.66 27.16 31.04 27.16 32.15 15.08 25.7 15.09 24.66"/><polygon class="cls-1" points="15.09 27.01 27.16 33.39 27.16 34.49 15.08 28.05 15.09 27.01"/><polygon class="cls-1" points="15.09 29.35 27.16 35.73 27.16 36.83 15.08 30.39 15.09 29.35"/><polygon class="cls-1" points="28.45 31.84 40.53 38.22 40.53 39.32 28.45 32.88 28.45 31.84"/><polygon class="cls-1" points="28.45 34.18 40.53 40.56 40.53 41.66 28.45 35.22 28.45 34.18"/><polygon class="cls-1" points="28.45 36.53 40.53 42.91 40.53 44.01 28.45 37.57 28.45 36.53"/><polygon class="cls-1" points="15.53 37.58 15.53 39.9 18.99 41.96 19 39.67 15.53 37.58"/><polygon class="cls-1" points="15.53 40.67 15.53 43 18.99 45.05 19 42.76 15.53 40.67"/><polygon class="cls-1" points="20.26 40.67 20.27 43 23.73 45.05 23.74 42.76 20.26 40.67"/><polygon class="cls-1" points="20.26 43.77 20.27 46.09 23.73 48.15 23.74 45.86 20.26 43.77"/><polygon class="cls-1" points="29.64 45.44 29.65 48.05 33.54 50.37 33.55 47.79 29.64 45.44"/><polygon class="cls-1" points="29.64 48.92 29.65 51.54 33.54 53.85 33.55 51.28 29.64 48.92"/><polygon class="cls-1" points="34.97 48.92 34.98 51.54 38.87 53.85 38.89 51.28 34.97 48.92"/><polygon class="cls-1" points="34.97 52.41 34.98 55.03 38.87 57.34 38.89 54.76 34.97 52.41"/><path class="cls-5" d="M47.11,16h0a8.07,8.07,0,0,0-15.92,0h0c-1.31,8.2,6.89,15.68,7.95,16.61v0l0,0,0,0v0C40.22,31.7,48.41,24.22,47.11,16Zm-8,6.52a5.46,5.46,0,1,1,5.45-5.46A5.47,5.47,0,0,1,39.14,22.54Z"/><circle class="cls-6" cx="39.07" cy="32.85" r="2.18"/></g><g id="Capa_4" data-name="Capa 4"><text class="cls-7" transform="translate(0 8.09)">Centro Universitario<tspan x="48.9" y="11.31">de </tspan><tspan class="cls-8" x="62.52" y="11.31">T</tspan><tspan class="cls-9" x="67.58" y="11.31">eatro</tspan></text></g></g></svg>