<svg xmlns="http://www.w3.org/2000/svg" viewBox="0 0 65.94 55.87"><defs><style>.cls-1{fill:#7777e8;}.cls-2{fill:#6262c3;}.cls-3{fill:#2f2e65;}.cls-4{fill:#44438a;}.cls-5{fill:#eeb500;}.cls-6{fill:#fff;}.cls-7{font-size:8.8px;font-family:Arial-BoldMT, Arial;font-weight:700;}.cls-8{letter-spacing:-0.07em;}.cls-9{letter-spacing:0em;}</style></defs><title>enallt</title><g id="Capa_2" data-name="Capa 2"><g id="Capa_3" data-name="Capa 3"><polygon class="cls-1" points="0 26.33 1.85 25.9 2.53 26.58 1.26 28.23 0 26.33"/><polygon class="cls-1" points="39.49 38.23 38.03 37.8 37.7 40.52 39.49 40.66 39.49 38.23"/><polygon class="cls-1" points="39.07 26.89 39.07 26.71 10.41 9.91 0.73 15.72 29.68 31.16 39.07 26.89"/><polygon class="cls-2" points="0.73 15.72 0.53 15.85 0.53 39.35 29.68 55.87 29.68 31.16 0.73 15.72"/><polygon class="cls-3" points="11.04 42.31 11.02 42.33 11.02 45.12 14.48 47.08 14.48 44.15 11.04 42.31"/><polygon class="cls-4" points="29.68 31.16 29.68 55.87 38.57 50.93 39.07 50.6 39.07 26.89 29.68 31.16"/><polygon class="cls-3" points="33.81 49.27 33.81 53.49 35.33 52.64 35.41 52.59 35.41 48.54 33.81 49.27"/><polygon class="cls-3" points="29.68 42.51 29.68 44.7 0 29.53 0 26.35 29.68 42.51"/><polygon class="cls-3" points="29.68 42.51 29.68 44.7 39.49 40.66 39.49 38.23 29.68 42.51"/><polygon class="cls-1" points="0 27.55 29.68 43.35 39.49 38.95 39.49 39.91 29.68 43.82 0 28.91 0 27.55"/><polygon class="cls-3" points="30.6 33.56 38.33 30.08 38.33 31.82 30.6 35.33 30.6 33.56"/><polygon class="cls-3" points="30.6 36.38 38.33 32.9 38.33 34.64 30.6 38.14 30.6 36.38"/><polygon class="cls-3" points="30.6 45.12 38.33 41.64 38.33 43.38 30.6 46.89 30.6 45.12"/><polygon class="cls-3" points="30.6 47.94 38.33 44.46 38.33 46.2 30.6 49.7 30.6 47.94"/><polygon class="cls-1" points="1.29 18.12 13.8 24.73 13.79 25.88 1.28 19.2 1.29 18.12"/><polygon class="cls-1" points="1.29 20.55 13.8 27.16 13.79 28.3 1.28 21.63 1.29 20.55"/><polygon class="cls-1" points="1.29 22.98 13.8 29.59 13.79 30.73 1.28 24.06 1.29 22.98"/><polygon class="cls-1" points="15.13 25.56 27.64 32.17 27.64 33.31 15.13 26.64 15.13 25.56"/><polygon class="cls-1" points="15.13 27.98 27.64 34.59 27.64 35.74 15.13 29.06 15.13 27.98"/><polygon class="cls-1" points="15.13 30.41 27.64 37.02 27.64 38.17 15.13 31.49 15.13 30.41"/><polygon class="cls-1" points="1.74 31.5 1.75 33.91 5.33 36.04 5.34 33.67 1.74 31.5"/><polygon class="cls-1" points="1.74 34.71 1.75 37.12 5.33 39.24 5.34 36.88 1.74 34.71"/><polygon class="cls-1" points="6.65 34.71 6.66 37.12 10.23 39.24 10.25 36.88 6.65 34.71"/><polygon class="cls-1" points="6.65 37.92 6.66 40.32 10.23 42.45 10.25 40.08 6.65 37.92"/><polygon class="cls-1" points="16.36 39.64 16.37 42.35 20.4 44.75 20.41 42.08 16.36 39.64"/><polygon class="cls-1" points="16.36 43.25 16.37 45.97 20.4 48.36 20.41 45.69 16.36 43.25"/><polygon class="cls-1" points="21.88 43.25 21.89 45.97 25.92 48.36 25.94 45.69 21.88 43.25"/><polygon class="cls-1" points="21.88 46.87 21.89 49.58 25.92 51.97 25.94 49.3 21.88 46.87"/><path class="cls-5" d="M30.71,7h0A8.36,8.36,0,0,0,14.21,7h0c-1.34,8.49,7.14,16.23,8.24,17.19v0l0,0,0,0v0C23.57,23.23,32.06,15.49,30.71,7Zm-8.26,6.74A5.65,5.65,0,1,1,28.1,8.09,5.65,5.65,0,0,1,22.45,13.74Z"/><circle class="cls-6" cx="22.38" cy="24.43" r="2.26"/></g><g id="Capa_4" data-name="Capa 4"><text class="cls-7" transform="translate(31.9 17.96)">ENAL<tspan class="cls-8" x="23.95" y="0">L</tspan><tspan class="cls-9" x="28.67" y="0">T</tspan></text></g></g></svg>