<svg xmlns="http://www.w3.org/2000/svg" viewBox="0 0 105.84 62.37"><defs><style>.cls-1{fill:#7777e8;}.cls-2{fill:#6262c3;}.cls-3{fill:#2f2e65;}.cls-4{fill:#44438a;}.cls-5{fill:#eeb500;}.cls-6{fill:#fff;}.cls-7{font-size:9.43px;font-family:Arial-BoldMT, Arial;font-weight:700;}</style></defs><title>escuela-artes-cinematograficas</title><g id="Capa_2" data-name="Capa 2"><g id="Capa_3" data-name="Capa 3"><polygon class="cls-1" points="23.13 35.03 24.84 34.63 25.47 35.26 24.3 36.79 23.13 35.03"/><polygon class="cls-1" points="59.69 46.05 58.34 45.65 58.03 48.16 59.69 48.3 59.69 46.05"/><polygon class="cls-1" points="59.3 35.55 59.3 35.38 32.77 19.83 23.81 25.21 50.61 39.5 59.3 35.55"/><polygon class="cls-2" points="23.81 25.21 23.62 25.32 23.62 47.08 50.61 62.37 50.61 39.5 23.81 25.21"/><polygon class="cls-3" points="33.35 49.83 33.33 49.84 33.33 52.42 36.53 54.23 36.53 51.52 33.35 49.83"/><polygon class="cls-4" points="50.61 39.5 50.61 62.37 58.84 57.8 59.3 57.49 59.3 35.55 50.61 39.5"/><polygon class="cls-3" points="54.43 56.26 54.43 60.17 55.84 59.39 55.91 59.34 55.91 55.59 54.43 56.26"/><polygon class="cls-3" points="50.61 50.01 50.61 52.03 23.13 37.99 23.13 35.04 50.61 50.01"/><polygon class="cls-3" points="50.61 50.01 50.61 52.03 59.69 48.3 59.69 46.05 50.61 50.01"/><polygon class="cls-1" points="23.13 36.16 50.61 50.78 59.69 46.71 59.69 47.6 50.61 51.22 23.13 37.42 23.13 36.16"/><polygon class="cls-3" points="51.46 41.72 58.61 38.5 58.61 40.11 51.46 43.36 51.46 41.72"/><polygon class="cls-3" points="51.46 44.33 58.61 41.11 58.61 42.72 51.46 45.96 51.46 44.33"/><polygon class="cls-3" points="51.46 52.42 58.61 49.2 58.61 50.81 51.46 54.06 51.46 52.42"/><polygon class="cls-3" points="51.46 55.03 58.61 51.81 58.61 53.42 51.46 56.67 51.46 55.03"/><polygon class="cls-1" points="24.32 27.43 35.9 33.55 35.9 34.61 24.32 28.43 24.32 27.43"/><polygon class="cls-1" points="24.32 29.68 35.9 35.8 35.9 36.86 24.32 30.68 24.32 29.68"/><polygon class="cls-1" points="24.32 31.93 35.9 38.05 35.9 39.1 24.32 32.93 24.32 31.93"/><polygon class="cls-1" points="37.14 34.31 48.72 40.43 48.72 41.49 37.13 35.31 37.14 34.31"/><polygon class="cls-1" points="37.14 36.56 48.72 42.68 48.72 43.74 37.13 37.56 37.14 36.56"/><polygon class="cls-1" points="37.14 38.81 48.72 44.93 48.72 45.98 37.13 39.81 37.14 38.81"/><polygon class="cls-1" points="24.74 39.82 24.75 42.05 28.06 44.02 28.08 41.82 24.74 39.82"/><polygon class="cls-1" points="24.74 42.79 24.75 45.02 28.06 46.98 28.08 44.79 24.74 42.79"/><polygon class="cls-1" points="29.28 42.79 29.29 45.02 32.61 46.98 32.62 44.79 29.28 42.79"/><polygon class="cls-1" points="29.28 45.75 29.29 47.98 32.61 49.95 32.62 47.76 29.28 45.75"/><polygon class="cls-1" points="38.27 47.35 38.28 49.86 42.01 52.08 42.03 49.61 38.27 47.35"/><polygon class="cls-1" points="38.27 50.7 38.28 53.21 42.01 55.42 42.03 52.95 38.27 50.7"/><polygon class="cls-1" points="43.39 50.7 43.4 53.21 47.13 55.42 47.15 52.95 43.39 50.7"/><polygon class="cls-1" points="43.39 54.04 43.4 56.55 47.13 58.77 47.15 56.3 43.39 54.04"/><path class="cls-5" d="M58.19,27.36h0a7.73,7.73,0,0,0-15.26,0h0c-1.24,7.86,6.61,15,7.63,15.91v0l0,0,0,0v0C51.59,42.38,59.44,35.22,58.19,27.36ZM50.55,33.6a5.23,5.23,0,1,1,5.23-5.23A5.23,5.23,0,0,1,50.55,33.6Z"/><circle class="cls-6" cx="50.48" cy="43.49" r="2.09"/></g><g id="Capa_4" data-name="Capa 4"><text class="cls-7" transform="translate(0 8.09)">Escuela Nacional de<tspan x="0" y="11.31">Artes Cinematográficas</tspan></text></g></g></svg>