<svg xmlns="http://www.w3.org/2000/svg" viewBox="0 0 88.94 66.52"><defs><style>.cls-1{fill:#7777e8;}.cls-2{fill:#6262c3;}.cls-3{fill:#2f2e65;}.cls-4{fill:#44438a;}.cls-5{fill:#eeb500;}.cls-6{fill:#fff;}.cls-7{font-size:9.43px;font-family:Arial-BoldMT, Arial;font-weight:700;}.cls-8{letter-spacing:-0.02em;}</style></defs><title>escuela-nacional-ciencias-tierra</title><g id="Capa_2" data-name="Capa 2"><g id="Capa_3" data-name="Capa 3"><polygon class="cls-1" points="49.61 37.11 51.44 36.67 52.12 37.35 50.86 39 49.61 37.11"/><polygon class="cls-1" points="88.94 48.96 87.49 48.53 87.15 51.24 88.94 51.38 88.94 48.96"/><polygon class="cls-1" points="88.52 37.67 88.52 37.49 59.97 20.76 50.33 26.54 79.17 41.92 88.52 37.67"/><polygon class="cls-2" points="50.33 26.54 50.13 26.66 50.13 50.07 79.17 66.53 79.17 41.92 50.33 26.54"/><polygon class="cls-3" points="60.6 53.03 60.58 53.04 60.58 55.82 64.02 57.77 64.02 54.85 60.6 53.03"/><polygon class="cls-4" points="79.17 41.92 79.17 66.53 88.02 61.6 88.52 61.27 88.52 37.67 79.17 41.92"/><polygon class="cls-3" points="83.28 59.95 83.28 64.15 84.79 63.31 84.88 63.26 84.88 59.22 83.28 59.95"/><polygon class="cls-3" points="79.17 53.22 79.17 55.4 49.61 40.29 49.61 37.12 79.17 53.22"/><polygon class="cls-3" points="79.17 53.22 79.17 55.4 88.94 51.38 88.94 48.96 79.17 53.22"/><polygon class="cls-1" points="49.61 38.32 79.17 54.05 88.94 49.67 88.94 50.64 79.17 54.52 49.61 39.68 49.61 38.32"/><polygon class="cls-3" points="80.08 44.31 87.78 40.84 87.78 42.57 80.08 46.06 80.08 44.31"/><polygon class="cls-3" points="80.08 47.11 87.78 43.65 87.78 45.38 80.08 48.87 80.08 47.11"/><polygon class="cls-3" points="80.08 55.82 87.78 52.35 87.78 54.09 80.08 57.58 80.08 55.82"/><polygon class="cls-3" points="80.08 58.63 87.78 55.16 87.78 56.89 80.08 60.38 80.08 58.63"/><polygon class="cls-1" points="50.89 28.93 63.35 35.52 63.34 36.65 50.88 30.01 50.89 28.93"/><polygon class="cls-1" points="50.89 31.35 63.35 37.94 63.34 39.07 50.88 32.43 50.89 31.35"/><polygon class="cls-1" points="50.89 33.77 63.35 40.35 63.34 41.49 50.88 34.84 50.89 33.77"/><polygon class="cls-1" points="64.67 36.34 77.13 42.92 77.13 44.06 64.67 37.41 64.67 36.34"/><polygon class="cls-1" points="64.67 38.76 77.13 45.34 77.13 46.48 64.67 39.83 64.67 38.76"/><polygon class="cls-1" points="64.67 41.17 77.13 47.76 77.13 48.89 64.67 42.25 64.67 41.17"/><polygon class="cls-1" points="51.34 42.26 51.35 44.66 54.91 46.77 54.93 44.41 51.34 42.26"/><polygon class="cls-1" points="51.34 45.45 51.35 47.85 54.91 49.97 54.93 47.61 51.34 45.45"/><polygon class="cls-1" points="56.23 45.45 56.23 47.85 59.8 49.97 59.81 47.61 56.23 45.45"/><polygon class="cls-1" points="56.23 48.65 56.23 51.04 59.8 53.16 59.81 50.8 56.23 48.65"/><polygon class="cls-1" points="65.9 50.37 65.91 53.07 69.92 55.45 69.94 52.79 65.9 50.37"/><polygon class="cls-1" points="65.9 53.96 65.91 56.66 69.92 59.05 69.94 56.39 65.9 53.96"/><polygon class="cls-1" points="71.4 53.96 71.41 56.66 75.42 59.05 75.44 56.39 71.4 53.96"/><polygon class="cls-1" points="71.4 57.56 71.41 60.26 75.42 62.64 75.44 59.99 71.4 57.56"/><path class="cls-5" d="M78,16.66h0a8.32,8.32,0,0,0-16.42,0h0c-1.34,8.46,7.11,16.17,8.2,17.13v0l0,0,0,0v0C70.89,32.83,79.34,25.12,78,16.66Zm-8.23,6.72a5.63,5.63,0,1,1,5.63-5.63A5.63,5.63,0,0,1,69.77,23.38Z"/><circle class="cls-6" cx="69.7" cy="34.03" r="2.25"/></g><g id="Capa_4" data-name="Capa 4"><text class="cls-7" transform="translate(0 8.09)">Escuela Nacional<tspan x="0" y="11.31">de Ciencias </tspan><tspan x="0" y="22.63">de la </tspan><tspan class="cls-8" x="24.11" y="22.63">T</tspan><tspan x="29.69" y="22.63">ierra</tspan></text></g></g></svg>