<svg xmlns="http://www.w3.org/2000/svg" viewBox="0 0 77.56 65.1"><defs><style>.cls-1{fill:#7777e8;}.cls-2{fill:#6262c3;}.cls-3{fill:#2f2e65;}.cls-4{fill:#44438a;}.cls-5{fill:#eeb500;}.cls-6{fill:#fff;}.cls-7{font-size:9.43px;font-family:Arial-BoldMT, Arial;font-weight:700;}.cls-8{letter-spacing:-0.06em;}</style></defs><title>escuela-nacional-trabajo-social</title><g id="Capa_2" data-name="Capa 2"><g id="Capa_3" data-name="Capa 3"><polygon class="cls-1" points="34.31 36.1 36.12 35.67 36.79 36.34 35.55 37.96 34.31 36.1"/><polygon class="cls-1" points="73.08 47.79 71.65 47.36 71.31 50.03 73.08 50.17 73.08 47.79"/><polygon class="cls-1" points="72.66 36.65 72.66 36.48 44.52 19.98 35.02 25.68 63.44 40.84 72.66 36.65"/><polygon class="cls-2" points="35.02 25.68 34.82 25.8 34.82 48.88 63.44 65.1 63.44 40.84 35.02 25.68"/><polygon class="cls-3" points="45.15 51.79 45.12 51.8 45.12 54.54 48.52 56.47 48.52 53.59 45.15 51.79"/><polygon class="cls-4" points="63.44 40.84 63.44 65.1 72.18 60.25 72.66 59.92 72.66 36.65 63.44 40.84"/><polygon class="cls-3" points="67.5 58.62 67.5 62.76 68.99 61.93 69.07 61.88 69.07 57.9 67.5 58.62"/><polygon class="cls-3" points="63.44 51.99 63.44 54.13 34.31 39.24 34.31 36.12 63.44 51.99"/><polygon class="cls-3" points="63.45 51.98 63.45 54.13 73.08 50.17 73.08 47.79 63.45 51.98"/><polygon class="cls-1" points="34.31 37.29 63.45 52.8 73.08 48.49 73.08 49.44 63.45 53.27 34.31 38.63 34.31 37.29"/><polygon class="cls-3" points="64.35 43.2 71.93 39.78 71.93 41.49 64.35 44.93 64.35 43.2"/><polygon class="cls-3" points="64.35 45.96 71.93 42.54 71.93 44.25 64.35 47.7 64.35 45.96"/><polygon class="cls-3" points="64.35 54.55 71.93 51.13 71.93 52.84 64.35 56.28 64.35 54.55"/><polygon class="cls-3" points="64.35 57.31 71.93 53.89 71.93 55.6 64.35 59.05 64.35 57.31"/><polygon class="cls-1" points="35.57 28.04 47.85 34.53 47.85 35.65 35.56 29.1 35.57 28.04"/><polygon class="cls-1" points="35.57 30.43 47.85 36.92 47.85 38.04 35.56 31.48 35.57 30.43"/><polygon class="cls-1" points="35.57 32.81 47.85 39.3 47.85 40.42 35.56 33.87 35.57 32.81"/><polygon class="cls-1" points="49.16 35.34 61.44 41.83 61.44 42.95 49.16 36.4 49.16 35.34"/><polygon class="cls-1" points="49.16 37.72 61.44 44.21 61.44 45.33 49.16 38.78 49.16 37.72"/><polygon class="cls-1" points="49.16 40.11 61.44 46.6 61.44 47.72 49.16 41.17 49.16 40.11"/><polygon class="cls-1" points="36.02 41.18 36.02 43.54 39.54 45.63 39.55 43.3 36.02 41.18"/><polygon class="cls-1" points="36.02 44.33 36.02 46.69 39.54 48.78 39.55 46.45 36.02 44.33"/><polygon class="cls-1" points="40.83 44.33 40.84 46.69 44.35 48.78 44.37 46.45 40.83 44.33"/><polygon class="cls-1" points="40.83 47.47 40.84 49.84 44.35 51.92 44.37 49.6 40.83 47.47"/><polygon class="cls-1" points="50.37 49.17 50.37 51.83 54.33 54.18 54.35 51.56 50.37 49.17"/><polygon class="cls-1" points="50.37 52.71 50.37 55.38 54.33 57.73 54.35 55.11 50.37 52.71"/><polygon class="cls-1" points="55.79 52.71 55.8 55.38 59.76 57.73 59.77 55.11 55.79 52.71"/><polygon class="cls-1" points="55.79 56.26 55.8 58.92 59.76 61.27 59.77 58.65 55.79 56.26"/><path class="cls-5" d="M71.07,27.17h0a8.2,8.2,0,0,0-16.18,0h0c-1.32,8.34,7,15.94,8.09,16.89v0l0,0,0,0v0C64.06,43.11,72.39,35.51,71.07,27.17ZM63,33.8a5.55,5.55,0,1,1,5.55-5.55A5.56,5.56,0,0,1,63,33.8Z"/><circle class="cls-6" cx="62.89" cy="44.29" r="2.22"/></g><g id="Capa_4" data-name="Capa 4"><text class="cls-7" transform="translate(0 8.09)">Escuela Nacional<tspan x="0" y="11.31">de </tspan><tspan class="cls-8" x="13.62" y="11.31">T</tspan><tspan x="18.86" y="11.31">rabajo Social</tspan></text></g></g></svg>