<svg xmlns="http://www.w3.org/2000/svg" viewBox="0 0 139.08 95.03"><defs><style>.cls-1,.cls-6{fill:none;stroke:#4d4d99;stroke-miterlimit:10;stroke-width:0.92px;}.cls-1{stroke-linecap:round;}.cls-2{fill:#2f2e65;}.cls-3{fill:#7777e8;}.cls-4{fill:#44438a;}.cls-5{fill:#4d4d99;}.cls-7{fill:#28284f;}.cls-8{font-size:9.64px;fill:#fff;font-family:Arial-BoldMT, Arial;font-weight:700;}</style></defs><title>estadio-olimpico</title><g id="Capa_2" data-name="Capa 2"><g id="Capa_3" data-name="Capa 3"><line class="cls-1" x1="82.59" y1="14.87" x2="79.61" y2="3.2"/><rect class="cls-2" x="73.61" y="1.2" width="12" height="4" transform="translate(158.15 -10.21) rotate(168.01)"/><line class="cls-1" x1="50.77" y1="22.94" x2="45.63" y2="12.05"/><rect class="cls-2" x="39.63" y="10.05" width="12" height="4" transform="translate(92.35 5.38) rotate(157.07)"/><line class="cls-1" x1="22.19" y1="36.06" x2="17.05" y2="25.17"/><rect class="cls-2" x="11.05" y="23.17" width="12" height="4" transform="translate(42.56 41.71) rotate(157.07)"/><path class="cls-3" d="M78,76.81c33-9.38,56.15-29.48,56.38-47.48-11.75-14.72-43.8-19.31-77-9.89C24.36,28.81,1.25,48.91,1,66.91,12.77,81.64,44.82,86.22,78,76.81Z"/><path class="cls-4" d="M62.07,32.75c33.19-9.41,65.25-4.83,77,9.9a20.19,20.19,0,0,0-1.17-7.12c-7-19.52-43-26.72-80.5-16.09S-4.8,54.51,2.18,74a21.72,21.72,0,0,0,3.51,6.2C5.93,62.22,29,42.12,62.07,32.75Z"/><path class="cls-5" d="M61.33,30.78c33.34-9.4,65.54-4.8,77.35,9.93a20.19,20.19,0,0,0-1.17-7.12c-7-19.52-43.24-26.74-80.88-16.13S-5.84,52.51,1.19,72a21.42,21.42,0,0,0,3.53,6.2C5,60.23,28.15,40.14,61.33,30.78Z"/><polyline class="cls-6" points="121.3 53.67 111.3 33.24 20.3 56.22 27.3 73.24 32.8 85.74"/><polyline class="cls-6" points="69.8 43.88 78.8 67.71 82.8 76.74"/><ellipse class="cls-6" cx="77.8" cy="65.16" rx="7" ry="5.11"/><path class="cls-7" d="M136.9,32.53a21.59,21.59,0,0,0-3.51-6.2c-.23,18-23.34,38.1-56.38,47.48-33.19,9.41-65.24,4.83-77-9.9A20,20,0,0,0,1.18,71c7,19.52,43,26.72,80.51,16.09S143.89,52.05,136.9,32.53Z"/><path class="cls-2" d="M137.9,35.53a21.59,21.59,0,0,0-3.51-6.2c-.23,18-23.34,38.1-56.38,47.48-33.19,9.41-65.24,4.83-77-9.9A20,20,0,0,0,2.18,74c7,19.52,43,26.72,80.51,16.09S144.89,55.05,137.9,35.53Z"/><line class="cls-1" x1="38.8" y1="82.74" x2="37.8" y2="70.74"/><rect class="cls-2" x="31.8" y="68.74" width="12" height="4" transform="translate(-8.44 5.21) rotate(-7.09)"/><line class="cls-1" x1="69.8" y1="79.74" x2="68.8" y2="67.74"/><rect class="cls-2" x="62.8" y="65.74" width="12" height="4" transform="translate(-7.84 9.01) rotate(-7.09)"/><line class="cls-1" x1="102.8" y1="67.74" x2="101.8" y2="55.74"/><rect class="cls-2" x="95.8" y="53.74" width="12" height="4" transform="translate(-6.1 12.99) rotate(-7.09)"/><text class="cls-8" transform="matrix(0.94, -0.35, 0.35, 0.94, 43.6, 47.87)">Estadio<tspan x="-10.18" y="11.57">Olimpico de</tspan><tspan x="10.45" y="23.13">CU</tspan></text></g></g></svg>