<svg xmlns="http://www.w3.org/2000/svg" viewBox="0 0 79.85 48.49"><defs><style>.cls-1{fill:#7777e8;}.cls-2{fill:#6262c3;}.cls-3{fill:#2f2e65;}.cls-4{fill:#44438a;}.cls-5{fill:#eeb500;}.cls-6{fill:#fff;}.cls-7{font-size:8.8px;font-family:Arial-BoldMT, Arial;font-weight:700;}</style></defs><title>facultad-economia</title><g id="Capa_2" data-name="Capa 2"><g id="Capa_3" data-name="Capa 3"><polygon class="cls-1" points="0 22.24 1.64 21.85 2.25 22.45 1.12 23.92 0 22.24"/><polygon class="cls-1" points="35.11 32.82 33.81 32.43 33.51 34.85 35.11 34.98 35.11 32.82"/><polygon class="cls-1" points="34.73 22.74 34.73 22.58 9.25 7.64 0.65 12.8 26.38 26.53 34.73 22.74"/><polygon class="cls-2" points="0.65 12.8 0.47 12.91 0.47 33.81 26.38 48.49 26.38 26.53 0.65 12.8"/><polygon class="cls-3" points="9.82 36.44 9.79 36.46 9.79 38.93 12.87 40.68 12.87 38.07 9.82 36.44"/><polygon class="cls-4" points="26.38 26.53 26.38 48.49 34.29 44.1 34.73 43.81 34.73 22.74 26.38 26.53"/><polygon class="cls-3" points="30.05 42.62 30.05 46.38 31.41 45.63 31.48 45.58 31.48 41.98 30.05 42.62"/><polygon class="cls-3" points="26.38 36.62 26.38 38.56 0 25.08 0 22.25 26.38 36.62"/><polygon class="cls-3" points="26.39 36.62 26.39 38.56 35.11 34.98 35.11 32.82 26.39 36.62"/><polygon class="cls-1" points="0 23.32 26.39 37.36 35.11 33.45 35.11 34.31 26.39 37.78 0 24.53 0 23.32"/><polygon class="cls-3" points="27.2 28.66 34.07 25.57 34.07 27.11 27.2 30.23 27.2 28.66"/><polygon class="cls-3" points="27.2 31.17 34.07 28.07 34.07 29.62 27.2 32.73 27.2 31.17"/><polygon class="cls-3" points="27.2 38.94 34.07 35.84 34.07 37.39 27.2 40.51 27.2 38.94"/><polygon class="cls-3" points="27.2 41.44 34.07 38.35 34.07 39.9 27.2 43.01 27.2 41.44"/><polygon class="cls-1" points="1.14 14.94 12.26 20.82 12.26 21.83 1.14 15.9 1.14 14.94"/><polygon class="cls-1" points="1.14 17.1 12.26 22.97 12.26 23.99 1.14 18.06 1.14 17.1"/><polygon class="cls-1" points="1.14 19.26 12.26 25.13 12.26 26.15 1.14 20.22 1.14 19.26"/><polygon class="cls-1" points="13.45 21.55 24.57 27.42 24.57 28.44 13.45 22.5 13.45 21.55"/><polygon class="cls-1" points="13.45 23.7 24.57 29.58 24.57 30.6 13.45 24.66 13.45 23.7"/><polygon class="cls-1" points="13.45 25.86 24.57 31.74 24.57 32.76 13.45 26.82 13.45 25.86"/><polygon class="cls-1" points="1.55 26.83 1.55 28.97 4.74 30.86 4.75 28.76 1.55 26.83"/><polygon class="cls-1" points="1.55 29.68 1.55 31.82 4.74 33.71 4.75 31.61 1.55 29.68"/><polygon class="cls-1" points="5.91 29.68 5.92 31.82 9.1 33.71 9.11 31.61 5.91 29.68"/><polygon class="cls-1" points="5.91 32.53 5.92 34.67 9.1 36.56 9.11 34.46 5.91 32.53"/><polygon class="cls-1" points="14.54 34.07 14.55 36.48 18.13 38.61 18.15 36.24 14.54 34.07"/><polygon class="cls-1" points="14.54 37.28 14.55 39.69 18.13 41.82 18.15 39.45 14.54 37.28"/><polygon class="cls-1" points="19.45 37.28 19.46 39.69 23.05 41.82 23.06 39.45 19.45 37.28"/><polygon class="cls-1" points="19.45 40.49 19.46 42.9 23.05 45.03 23.06 42.66 19.45 40.49"/><path class="cls-5" d="M28.52,7.09h0a7.43,7.43,0,0,0-14.66,0h0c-1.2,7.55,6.35,14.44,7.32,15.29v0l0,0,0,0v0C22.18,21.53,29.72,14.64,28.52,7.09Zm-7.34,6a5,5,0,1,1,5-5A5,5,0,0,1,21.18,13.09Z"/><circle class="cls-6" cx="21.12" cy="22.59" r="2.01"/></g><g id="Capa_4" data-name="Capa 4"><text class="cls-7" transform="translate(30.97 7.55)">Facultad de<tspan x="0" y="10.56">Economía</tspan></text></g></g></svg>