<svg xmlns="http://www.w3.org/2000/svg" viewBox="0 0 112.26 56.33"><defs><style>.cls-1{fill:#7777e8;}.cls-2{fill:#6262c3;}.cls-3{fill:#2f2e65;}.cls-4{fill:#44438a;}.cls-5{fill:#eeb500;}.cls-6{fill:#fff;}.cls-7{font-size:9.43px;font-family:Arial-BoldMT, Arial;font-weight:700;}</style></defs><title>facultad-ciencias-politicas</title><g id="Capa_2" data-name="Capa 2"><g id="Capa_3" data-name="Capa 3"><polygon class="cls-1" points="0 26.56 1.86 26.12 2.55 26.81 1.27 28.47 0 26.56"/><polygon class="cls-1" points="39.8 38.56 38.33 38.12 37.99 40.86 39.8 41 39.8 38.56"/><polygon class="cls-1" points="39.37 27.13 39.37 26.95 10.49 10.02 0.73 15.87 29.91 31.43 39.37 27.13"/><polygon class="cls-2" points="0.73 15.87 0.53 15.99 0.53 39.68 29.91 56.33 29.91 31.43 0.73 15.87"/><polygon class="cls-3" points="11.13 42.67 11.1 42.68 11.1 45.49 14.59 47.47 14.59 44.51 11.13 42.67"/><polygon class="cls-4" points="29.91 31.43 29.91 56.33 38.87 51.35 39.37 51.01 39.37 27.13 29.91 31.43"/><polygon class="cls-3" points="34.07 49.67 34.07 53.93 35.6 53.08 35.69 53.02 35.69 48.94 34.07 49.67"/><polygon class="cls-3" points="29.91 42.87 29.91 45.07 0 29.78 0 26.57 29.91 42.87"/><polygon class="cls-3" points="29.91 42.86 29.91 45.07 39.8 41 39.8 38.56 29.91 42.86"/><polygon class="cls-1" points="0 27.79 29.91 43.71 39.8 39.28 39.8 40.25 29.91 44.18 0 29.16 0 27.79"/><polygon class="cls-3" points="30.84 33.84 38.63 30.34 38.63 32.09 30.84 35.62 30.84 33.84"/><polygon class="cls-3" points="30.84 36.68 38.63 33.17 38.63 34.93 30.84 38.46 30.84 36.68"/><polygon class="cls-3" points="30.84 45.5 38.63 41.99 38.63 43.74 30.84 47.27 30.84 45.5"/><polygon class="cls-3" points="30.84 48.34 38.63 44.83 38.63 46.58 30.84 50.11 30.84 48.34"/><polygon class="cls-1" points="1.3 18.29 13.9 24.95 13.9 26.1 1.29 19.38 1.3 18.29"/><polygon class="cls-1" points="1.3 20.74 13.9 27.4 13.9 28.55 1.29 21.82 1.3 20.74"/><polygon class="cls-1" points="1.3 23.18 13.9 29.84 13.9 31 1.29 24.27 1.3 23.18"/><polygon class="cls-1" points="15.25 25.78 27.86 32.44 27.85 33.59 15.24 26.86 15.25 25.78"/><polygon class="cls-1" points="15.25 28.23 27.86 34.89 27.85 36.04 15.24 29.31 15.25 28.23"/><polygon class="cls-1" points="15.25 30.67 27.86 37.34 27.85 38.49 15.24 31.76 15.25 30.67"/><polygon class="cls-1" points="1.75 31.77 1.76 34.2 5.37 36.34 5.38 33.95 1.75 31.77"/><polygon class="cls-1" points="1.75 35 1.76 37.43 5.37 39.57 5.38 37.19 1.75 35"/><polygon class="cls-1" points="6.7 35 6.71 37.43 10.31 39.57 10.33 37.19 6.7 35"/><polygon class="cls-1" points="6.7 38.23 6.71 40.66 10.31 42.8 10.33 40.42 6.7 38.23"/><polygon class="cls-1" points="16.48 39.98 16.49 42.71 20.56 45.12 20.57 42.43 16.48 39.98"/><polygon class="cls-1" points="16.48 43.61 16.49 46.35 20.56 48.76 20.57 46.07 16.48 43.61"/><polygon class="cls-1" points="22.05 43.61 22.06 46.35 26.13 48.76 26.14 46.07 22.05 43.61"/><polygon class="cls-1" points="22.05 47.25 22.06 49.98 26.13 52.4 26.14 49.71 22.05 47.25"/><path class="cls-5" d="M29.93,7.05h0a8.42,8.42,0,0,0-16.61,0h0c-1.36,8.56,7.19,16.36,8.3,17.33v0l0,0,0,0v0C22.74,23.41,31.29,15.61,29.93,7.05Zm-8.32,6.8a5.7,5.7,0,1,1,5.7-5.69A5.69,5.69,0,0,1,21.61,13.85Z"/><circle class="cls-6" cx="21.54" cy="24.62" r="2.28"/></g><g id="Capa_4" data-name="Capa 4"><text class="cls-7" transform="translate(32.08 10.63)">Facultad de<tspan x="0" y="11.31">Ciencias Políticas</tspan><tspan x="0" y="22.63" xml:space="preserve">    y Sociales</tspan></text></g></g></svg>