<svg xmlns="http://www.w3.org/2000/svg" viewBox="0 0 77.1 59.85"><defs><style>.cls-1{fill:#7777e8;}.cls-2{fill:#6262c3;}.cls-3{fill:#2f2e65;}.cls-4{fill:#44438a;}.cls-5{fill:#eeb500;}.cls-6{fill:#fff;}.cls-7{font-size:8.8px;font-family:Arial-BoldMT, Arial;font-weight:700;}</style></defs><title>facultad-odontologia</title><g id="Capa_2" data-name="Capa 2"><g id="Capa_3" data-name="Capa 3"><polygon class="cls-1" points="0 31.18 1.79 30.75 2.45 31.41 1.23 33.02 0 31.18"/><polygon class="cls-1" points="38.33 42.73 36.92 42.3 36.59 44.95 38.33 45.09 38.33 42.73"/><polygon class="cls-1" points="37.92 31.72 37.92 31.55 10.1 15.24 0.71 20.88 28.81 35.86 37.92 31.72"/><polygon class="cls-2" points="0.71 20.88 0.51 21 0.51 43.81 28.81 59.85 28.81 35.86 0.71 20.88"/><polygon class="cls-3" points="10.72 46.69 10.7 46.7 10.7 49.41 14.05 51.31 14.05 48.47 10.72 46.69"/><polygon class="cls-4" points="28.81 35.86 28.81 59.85 37.44 55.05 37.92 54.73 37.92 31.72 28.81 35.86"/><polygon class="cls-3" points="32.82 53.44 32.82 57.53 34.29 56.72 34.37 56.66 34.37 52.73 32.82 53.44"/><polygon class="cls-3" points="28.81 46.88 28.81 49.01 0 34.28 0 31.19 28.81 46.88"/><polygon class="cls-3" points="28.81 46.88 28.81 49 38.33 45.09 38.33 42.73 28.81 46.88"/><polygon class="cls-1" points="0 32.36 28.81 47.69 38.33 43.42 38.33 44.36 28.81 48.15 0 33.68 0 32.36"/><polygon class="cls-3" points="29.71 38.19 37.2 34.81 37.2 36.5 29.71 39.91 29.71 38.19"/><polygon class="cls-3" points="29.71 40.93 37.2 37.55 37.2 39.24 29.71 42.64 29.71 40.93"/><polygon class="cls-3" points="29.71 49.41 37.2 46.03 37.2 47.72 29.71 51.13 29.71 49.41"/><polygon class="cls-3" points="29.71 52.15 37.2 48.77 37.2 50.46 29.71 53.86 29.71 52.15"/><polygon class="cls-1" points="1.25 23.21 13.39 29.63 13.39 30.73 1.24 24.26 1.25 23.21"/><polygon class="cls-1" points="1.25 25.57 13.39 31.98 13.39 33.09 1.24 26.61 1.25 25.57"/><polygon class="cls-1" points="1.25 27.92 13.39 34.34 13.39 35.45 1.24 28.97 1.25 27.92"/><polygon class="cls-1" points="14.69 30.42 26.83 36.84 26.83 37.95 14.68 31.47 14.69 30.42"/><polygon class="cls-1" points="14.69 32.78 26.83 39.2 26.83 40.3 14.68 33.83 14.69 32.78"/><polygon class="cls-1" points="14.69 35.14 26.83 41.55 26.83 42.66 14.68 36.19 14.69 35.14"/><polygon class="cls-1" points="1.69 36.2 1.7 38.53 5.17 40.6 5.19 38.3 1.69 36.2"/><polygon class="cls-1" points="1.69 39.31 1.7 41.65 5.17 43.71 5.19 41.41 1.69 39.31"/><polygon class="cls-1" points="6.45 39.31 6.46 41.65 9.94 43.71 9.95 41.41 6.45 39.31"/><polygon class="cls-1" points="6.45 42.42 6.46 44.76 9.94 46.82 9.95 44.52 6.45 42.42"/><polygon class="cls-1" points="15.88 44.1 15.89 46.73 19.8 49.05 19.82 46.46 15.88 44.1"/><polygon class="cls-1" points="15.88 47.6 15.89 50.23 19.8 52.56 19.82 49.97 15.88 47.6"/><polygon class="cls-1" points="21.24 47.6 21.25 50.23 25.16 52.56 25.18 49.97 21.24 47.6"/><polygon class="cls-1" points="21.24 51.11 21.25 53.74 25.16 56.06 25.18 53.47 21.24 51.11"/><path class="cls-5" d="M24.43,9.5h0a8.11,8.11,0,0,0-16,0h0c-1.31,8.24,6.93,15.76,8,16.69v0l0,0,0,0v0C17.5,25.26,25.73,17.74,24.43,9.5Zm-8,6.55a5.49,5.49,0,1,1,5.48-5.49A5.49,5.49,0,0,1,16.41,16.05Z"/><circle class="cls-6" cx="16.34" cy="26.42" r="2.19"/></g><g id="Capa_4" data-name="Capa 4"><text class="cls-7" transform="translate(25.31 7.55)">Facultad de<tspan x="0" y="10.56">Odontología</tspan></text></g></g></svg>