<svg xmlns="http://www.w3.org/2000/svg" viewBox="0 0 76.57 55.2"><defs><style>.cls-1{fill:#7777e8;}.cls-2{fill:#6262c3;}.cls-3{fill:#2f2e65;}.cls-4{fill:#44438a;}.cls-5{fill:#eeb500;}.cls-6{fill:#fff;}.cls-7{font-size:8.8px;font-family:Arial-BoldMT, Arial;font-weight:700;}</style></defs><title>facultad-de-psicologia</title><g id="Capa_2" data-name="Capa 2"><g id="Capa_3" data-name="Capa 3"><polygon class="cls-1" points="42.76 29.92 44.34 29.55 44.92 30.13 43.84 31.54 42.76 29.92"/><polygon class="cls-1" points="76.57 40.11 75.32 39.73 75.03 42.06 76.57 42.19 76.57 40.11"/><polygon class="cls-1" points="76.2 30.4 76.2 30.25 51.67 15.87 43.38 20.84 68.17 34.05 76.2 30.4"/><polygon class="cls-2" points="43.38 20.84 43.21 20.94 43.21 41.06 68.17 55.2 68.17 34.05 43.38 20.84"/><polygon class="cls-3" points="52.21 43.6 52.19 43.61 52.19 46 55.15 47.68 55.15 45.17 52.21 43.6"/><polygon class="cls-4" points="68.17 34.05 68.17 55.2 75.78 50.97 76.2 50.69 76.2 30.4 68.17 34.05"/><polygon class="cls-3" points="71.7 49.55 71.7 53.17 73 52.44 73.07 52.4 73.07 48.93 71.7 49.55"/><polygon class="cls-3" points="68.17 43.77 68.17 45.64 42.76 32.66 42.76 29.93 68.17 43.77"/><polygon class="cls-3" points="68.17 43.77 68.17 45.64 76.57 42.19 76.57 40.11 68.17 43.77"/><polygon class="cls-1" points="42.76 30.96 68.17 44.48 76.57 40.72 76.57 41.55 68.17 44.89 42.76 32.13 42.76 30.96"/><polygon class="cls-3" points="68.96 36.11 75.57 33.13 75.57 34.62 68.96 37.62 68.96 36.11"/><polygon class="cls-3" points="68.96 38.52 75.57 35.54 75.57 37.03 68.96 40.03 68.96 38.52"/><polygon class="cls-3" points="68.96 46 75.57 43.02 75.57 44.51 68.96 47.52 68.96 46"/><polygon class="cls-3" points="68.96 48.42 75.57 45.44 75.57 46.93 68.96 49.93 68.96 48.42"/><polygon class="cls-1" points="43.86 22.89 54.57 28.55 54.57 29.53 43.85 23.82 43.86 22.89"/><polygon class="cls-1" points="43.86 24.97 54.57 30.63 54.57 31.61 43.85 25.9 43.86 24.97"/><polygon class="cls-1" points="43.86 27.05 54.57 32.71 54.57 33.69 43.85 27.98 43.86 27.05"/><polygon class="cls-1" points="55.71 29.26 66.42 34.91 66.42 35.89 55.71 30.18 55.71 29.26"/><polygon class="cls-1" points="55.71 31.34 66.42 36.99 66.42 37.97 55.71 32.26 55.71 31.34"/><polygon class="cls-1" points="55.71 33.41 66.42 39.07 66.42 40.05 55.71 34.34 55.71 33.41"/><polygon class="cls-1" points="44.25 34.35 44.26 36.41 47.32 38.23 47.33 36.2 44.25 34.35"/><polygon class="cls-1" points="44.25 37.09 44.26 39.15 47.32 40.97 47.33 38.95 44.25 37.09"/><polygon class="cls-1" points="48.45 37.09 48.45 39.15 51.52 40.97 51.53 38.95 48.45 37.09"/><polygon class="cls-1" points="48.45 39.84 48.45 41.9 51.52 43.72 51.53 41.69 48.45 39.84"/><polygon class="cls-1" points="56.76 41.31 56.77 43.64 60.22 45.69 60.23 43.4 56.76 41.31"/><polygon class="cls-1" points="56.76 44.41 56.77 46.73 60.22 48.78 60.23 46.49 56.76 44.41"/><polygon class="cls-1" points="61.49 44.41 61.5 46.73 64.95 48.78 64.96 46.49 61.49 44.41"/><polygon class="cls-1" points="61.49 47.5 61.5 49.82 64.95 51.87 64.96 49.58 61.49 47.5"/><path class="cls-5" d="M62.62,11.78h0a7.15,7.15,0,0,0-14.11,0h0c-1.15,7.27,6.11,13.9,7.05,14.72v0l0,0,0,0v0C56.51,25.68,63.78,19.05,62.62,11.78Zm-7.07,5.78a4.84,4.84,0,1,1,4.84-4.84A4.84,4.84,0,0,1,55.55,17.56Z"/><circle class="cls-6" cx="55.49" cy="26.71" r="1.94"/><text class="cls-7" transform="translate(0 7.55)">Facultad de<tspan x="0" y="10.56">Psicología</tspan></text></g></g></svg>