<svg xmlns="http://www.w3.org/2000/svg" viewBox="0 0 71.32 56.5"><defs><style>.cls-1{fill:#7777e8;}.cls-2{fill:#6262c3;}.cls-3{fill:#2f2e65;}.cls-4{fill:#44438a;}.cls-5{fill:#eeb500;}.cls-6{fill:#fff;}.cls-7{font-size:8.8px;font-family:Arial-BoldMT, Arial;font-weight:700;}</style></defs><title>facultad-derecho</title><g id="Capa_2" data-name="Capa 2"><g id="Capa_3" data-name="Capa 3"><polygon class="cls-1" points="0 28.78 1.73 28.37 2.37 29.01 1.19 30.56 0 28.78"/><polygon class="cls-1" points="37.06 39.95 35.7 39.54 35.38 42.09 37.06 42.23 37.06 39.95"/><polygon class="cls-1" points="36.67 29.3 36.67 29.14 9.77 13.37 0.69 18.82 27.86 33.31 36.67 29.3"/><polygon class="cls-2" points="0.69 18.82 0.49 18.93 0.49 40.99 27.86 56.5 27.86 33.31 0.69 18.82"/><polygon class="cls-3" points="10.36 43.78 10.34 43.79 10.34 46.41 13.59 48.24 13.59 45.49 10.36 43.78"/><polygon class="cls-4" points="27.86 33.31 27.86 56.5 36.2 51.86 36.67 51.55 36.67 29.3 27.86 33.31"/><polygon class="cls-3" points="31.73 50.3 31.73 54.26 33.16 53.47 33.23 53.42 33.23 49.62 31.73 50.3"/><polygon class="cls-3" points="27.86 43.96 27.86 46.02 0 31.77 0 28.79 27.86 43.96"/><polygon class="cls-3" points="27.86 43.96 27.86 46.01 37.06 42.23 37.06 39.95 27.86 43.96"/><polygon class="cls-1" points="0 29.92 27.86 44.75 37.06 40.62 37.06 41.52 27.86 45.19 0 31.2 0 29.92"/><polygon class="cls-3" points="28.72 35.56 35.97 32.29 35.97 33.93 28.72 37.22 28.72 35.56"/><polygon class="cls-3" points="28.72 38.2 35.97 34.94 35.97 36.57 28.72 39.86 28.72 38.2"/><polygon class="cls-3" points="28.72 46.41 35.97 43.14 35.97 44.78 28.72 48.07 28.72 46.41"/><polygon class="cls-3" points="28.72 49.05 35.97 45.79 35.97 47.42 28.72 50.71 28.72 49.05"/><polygon class="cls-1" points="1.21 21.07 12.95 27.28 12.95 28.35 1.2 22.09 1.21 21.07"/><polygon class="cls-1" points="1.21 23.35 12.95 29.56 12.95 30.63 1.2 24.36 1.21 23.35"/><polygon class="cls-1" points="1.21 25.63 12.95 31.84 12.95 32.91 1.2 26.64 1.21 25.63"/><polygon class="cls-1" points="14.2 28.05 25.94 34.25 25.94 35.32 14.2 29.06 14.2 28.05"/><polygon class="cls-1" points="14.2 30.33 25.94 36.53 25.94 37.6 14.2 31.34 14.2 30.33"/><polygon class="cls-1" points="14.2 32.61 25.94 38.81 25.94 39.88 14.2 33.62 14.2 32.61"/><polygon class="cls-1" points="1.63 33.63 1.64 35.89 5 37.89 5.01 35.66 1.63 33.63"/><polygon class="cls-1" points="1.63 36.64 1.64 38.9 5 40.9 5.01 38.67 1.63 36.64"/><polygon class="cls-1" points="6.24 36.64 6.25 38.9 9.61 40.9 9.62 38.67 6.24 36.64"/><polygon class="cls-1" points="6.24 39.65 6.25 41.91 9.61 43.9 9.62 41.68 6.24 39.65"/><polygon class="cls-1" points="15.35 41.27 15.36 43.81 19.14 46.06 19.16 43.56 15.35 41.27"/><polygon class="cls-1" points="15.35 44.66 15.36 47.2 19.14 49.45 19.16 46.95 15.35 44.66"/><polygon class="cls-1" points="20.54 44.66 20.55 47.2 24.33 49.45 24.34 46.95 20.54 44.66"/><polygon class="cls-1" points="20.54 48.05 20.55 50.59 24.33 52.84 24.34 50.34 20.54 48.05"/><path class="cls-5" d="M20.19,6.57h0a7.84,7.84,0,0,0-15.47,0h0c-1.26,8,6.7,15.24,7.73,16.14v0h0v0C13.49,21.81,21.46,14.54,20.19,6.57ZM12.44,12.9a5.31,5.31,0,1,1,5.31-5.3A5.3,5.3,0,0,1,12.44,12.9Z"/><circle class="cls-6" cx="12.37" cy="22.93" r="2.12"/></g><g id="Capa_4" data-name="Capa 4"><text class="cls-7" transform="translate(22.44 8.1)">Facultad de<tspan x="0" y="10.56">Derecho</tspan></text></g></g></svg>