<svg xmlns="http://www.w3.org/2000/svg" viewBox="0 0 85.46 64.01"><defs><style>.cls-1{fill:#7777e8;}.cls-2{fill:#6262c3;}.cls-3{fill:#2f2e65;}.cls-4{fill:#44438a;}.cls-5{fill:#eeb500;}.cls-6{fill:#fff;}.cls-7{font-size:8.8px;font-family:Arial-BoldMT, Arial;font-weight:700;}</style></defs><title>facultad-arquitectura</title><g id="Capa_2" data-name="Capa 2"><g id="Capa_3" data-name="Capa 3"><polygon class="cls-1" points="44.02 33.02 45.95 32.56 46.67 33.27 45.34 35.01 44.02 33.02"/><polygon class="cls-1" points="85.46 45.51 83.93 45.05 83.57 47.9 85.46 48.05 85.46 45.51"/><polygon class="cls-1" points="85.01 33.61 85.01 33.42 54.94 15.79 44.78 21.88 75.16 38.08 85.01 33.61"/><polygon class="cls-2" points="44.78 21.88 44.57 22.01 44.57 46.67 75.16 64.01 75.16 38.08 44.78 21.88"/><polygon class="cls-3" points="55.6 49.79 55.58 49.8 55.58 52.73 59.21 54.78 59.21 51.71 55.6 49.79"/><polygon class="cls-4" points="75.16 38.08 75.16 64.01 84.49 58.82 85.01 58.48 85.01 33.61 75.16 38.08"/><polygon class="cls-3" points="79.49 57.08 79.49 61.51 81.09 60.63 81.18 60.57 81.18 56.32 79.49 57.08"/><polygon class="cls-3" points="75.16 49.99 75.16 52.29 44.02 36.37 44.02 33.03 75.16 49.99"/><polygon class="cls-3" points="75.16 49.99 75.16 52.28 85.46 48.05 85.46 45.51 75.16 49.99"/><polygon class="cls-1" points="44.02 34.29 75.16 50.87 85.46 46.26 85.46 47.27 75.16 51.36 44.02 35.72 44.02 34.29"/><polygon class="cls-3" points="76.13 40.6 84.23 36.95 84.23 38.77 76.13 42.45 76.13 40.6"/><polygon class="cls-3" points="76.13 43.56 84.23 39.9 84.23 41.73 76.13 45.41 76.13 43.56"/><polygon class="cls-3" points="76.13 52.73 84.23 49.08 84.23 50.91 76.13 54.58 76.13 52.73"/><polygon class="cls-3" points="76.13 55.69 84.23 52.03 84.23 53.86 76.13 57.54 76.13 55.69"/><polygon class="cls-1" points="45.37 24.4 58.49 31.34 58.49 32.54 45.36 25.54 45.37 24.4"/><polygon class="cls-1" points="45.37 26.95 58.49 33.89 58.49 35.09 45.36 28.08 45.37 26.95"/><polygon class="cls-1" points="45.37 29.5 58.49 36.44 58.49 37.63 45.36 30.63 45.37 29.5"/><polygon class="cls-1" points="59.89 32.2 73.02 39.14 73.02 40.34 59.89 33.33 59.89 32.2"/><polygon class="cls-1" points="59.89 34.75 73.02 41.69 73.02 42.88 59.89 35.88 59.89 34.75"/><polygon class="cls-1" points="59.89 37.3 73.02 44.23 73.02 45.43 59.89 38.43 59.89 37.3"/><polygon class="cls-1" points="45.84 38.44 45.85 40.97 49.61 43.2 49.62 40.71 45.84 38.44"/><polygon class="cls-1" points="45.84 41.81 45.85 44.33 49.61 46.56 49.62 44.08 45.84 41.81"/><polygon class="cls-1" points="50.99 41.81 51 44.33 54.76 46.56 54.77 44.08 50.99 41.81"/><polygon class="cls-1" points="50.99 45.17 51 47.7 54.76 49.93 54.77 47.44 50.99 45.17"/><polygon class="cls-1" points="61.18 46.98 61.19 49.83 65.42 52.34 65.44 49.54 61.18 46.98"/><polygon class="cls-1" points="61.18 50.77 61.19 53.62 65.42 56.13 65.44 53.33 61.18 50.77"/><polygon class="cls-1" points="66.98 50.77 66.99 53.62 71.22 56.13 71.24 53.33 66.98 50.77"/><polygon class="cls-1" points="66.98 54.56 66.99 57.41 71.22 59.92 71.24 57.12 66.98 54.56"/><path class="cls-5" d="M71.51,11.26h0a8.76,8.76,0,0,0-17.29,0h0c-1.42,8.91,7.49,17,8.64,18v0l0,0,0,0v0C64,28.3,72.92,20.17,71.51,11.26Zm-8.67,7.08a5.93,5.93,0,1,1,5.93-5.93A5.93,5.93,0,0,1,62.84,18.34Z"/><circle class="cls-6" cx="62.77" cy="29.56" r="2.37"/></g><g id="Capa_4" data-name="Capa 4"><text class="cls-7" transform="translate(0 7.55)">Facultad de<tspan x="0" y="10.56">Arquitectura</tspan></text></g></g></svg>