<svg xmlns="http://www.w3.org/2000/svg" viewBox="0 0 55.62 64.94"><defs><style>.cls-1{fill:#7777e8;}.cls-2{fill:#6262c3;}.cls-3{fill:#2f2e65;}.cls-4{fill:#44438a;}.cls-5{fill:#eeb500;}.cls-6{fill:#fff;}.cls-7{font-size:9.43px;font-family:Arial-BoldMT, Arial;font-weight:700;}</style></defs><title>facultad-ciencias</title><g id="Capa_2" data-name="Capa 2"><g id="Capa_3" data-name="Capa 3"><polygon class="cls-1" points="16.65 35.8 18.47 35.37 19.14 36.04 17.9 37.67 16.65 35.8"/><polygon class="cls-1" points="55.62 47.54 54.18 47.11 53.85 49.8 55.62 49.94 55.62 47.54"/><polygon class="cls-1" points="55.2 36.35 55.2 36.18 26.92 19.6 17.37 25.33 45.94 40.56 55.2 36.35"/><polygon class="cls-2" points="17.37 25.33 17.17 25.45 17.17 48.64 45.94 64.94 45.94 40.56 17.37 25.33"/><polygon class="cls-3" points="27.55 51.57 27.52 51.58 27.52 54.33 30.93 56.27 30.93 53.38 27.55 51.57"/><polygon class="cls-4" points="45.94 40.56 45.94 64.94 54.71 60.07 55.2 59.74 55.2 36.35 45.94 40.56"/><polygon class="cls-3" points="50.01 58.43 50.01 62.59 51.51 61.76 51.59 61.7 51.59 57.71 50.01 58.43"/><polygon class="cls-3" points="45.94 51.77 45.94 53.92 16.65 38.95 16.65 35.81 45.94 51.77"/><polygon class="cls-3" points="45.94 51.76 45.94 53.92 55.62 49.94 55.62 47.54 45.94 51.76"/><polygon class="cls-1" points="16.65 37 45.94 52.59 55.62 48.25 55.62 49.2 45.94 53.05 16.65 38.34 16.65 37"/><polygon class="cls-3" points="46.85 42.93 54.47 39.49 54.47 41.21 46.85 44.67 46.85 42.93"/><polygon class="cls-3" points="46.85 45.71 54.47 42.27 54.47 43.99 46.85 47.45 46.85 45.71"/><polygon class="cls-3" points="46.85 54.34 54.47 50.9 54.47 52.62 46.85 56.08 46.85 54.34"/><polygon class="cls-3" points="46.85 57.12 54.47 53.68 54.47 55.4 46.85 58.86 46.85 57.12"/><polygon class="cls-1" points="17.92 27.7 30.26 34.22 30.26 35.35 17.91 28.76 17.92 27.7"/><polygon class="cls-1" points="17.92 30.1 30.26 36.62 30.26 37.74 17.91 31.16 17.92 30.1"/><polygon class="cls-1" points="17.92 32.49 30.26 39.01 30.26 40.14 17.91 33.56 17.92 32.49"/><polygon class="cls-1" points="31.58 35.03 43.92 41.55 43.92 42.68 31.58 36.1 31.58 35.03"/><polygon class="cls-1" points="31.58 37.43 43.92 43.95 43.92 45.08 31.58 38.49 31.58 37.43"/><polygon class="cls-1" points="31.58 39.83 43.92 46.35 43.92 47.47 31.58 40.89 31.58 39.83"/><polygon class="cls-1" points="18.37 40.9 18.38 43.28 21.91 45.38 21.92 43.04 18.37 40.9"/><polygon class="cls-1" points="18.37 44.06 18.38 46.44 21.91 48.54 21.92 46.2 18.37 44.06"/><polygon class="cls-1" points="23.21 44.06 23.22 46.44 26.75 48.54 26.76 46.2 23.21 44.06"/><polygon class="cls-1" points="23.21 47.23 23.22 49.6 26.75 51.7 26.76 49.37 23.21 47.23"/><polygon class="cls-1" points="32.79 48.93 32.8 51.61 36.78 53.97 36.79 51.34 32.79 48.93"/><polygon class="cls-1" points="32.79 52.5 32.8 55.17 36.78 57.53 36.79 54.9 32.79 52.5"/><polygon class="cls-1" points="38.24 52.5 38.25 55.17 42.23 57.53 42.25 54.9 38.24 52.5"/><polygon class="cls-1" points="38.24 56.06 38.25 58.73 42.23 61.1 42.25 58.46 38.24 56.06"/><path class="cls-5" d="M55.35,19.76h0a8.24,8.24,0,0,0-16.27,0h0c-1.33,8.38,7,16,8.12,17v0l0,0,0,0v0C48.31,35.78,56.68,28.14,55.35,19.76Zm-8.14,6.66a5.58,5.58,0,1,1,5.57-5.58A5.58,5.58,0,0,1,47.21,26.42Z"/><circle class="cls-6" cx="47.13" cy="36.96" r="2.23"/></g><g id="Capa_4" data-name="Capa 4"><text class="cls-7" transform="translate(0 8.09)">Facultad de<tspan x="0" y="11.31">Ciencias</tspan></text></g></g></svg>