<svg xmlns="http://www.w3.org/2000/svg" viewBox="0 0 126.48 65.87"><defs><style>.cls-1{fill:#7777e8;}.cls-2{fill:#6262c3;}.cls-3{fill:#2f2e65;}.cls-4{fill:#44438a;}.cls-5{fill:#eeb500;}.cls-6{fill:#fff;}.cls-7{font-size:8.8px;font-family:Arial-BoldMT, Arial;font-weight:700;}.cls-8{letter-spacing:-0.06em;}</style></defs><title>faciltad-veterinaria</title><g id="Capa_2" data-name="Capa 2"><g id="Capa_3" data-name="Capa 3"><polygon class="cls-1" points="0 32.27 2.1 31.78 2.87 32.55 1.44 34.43 0 32.27"/><polygon class="cls-1" points="44.92 45.81 43.26 45.31 42.87 48.41 44.92 48.57 44.92 45.81"/><polygon class="cls-1" points="44.43 32.91 44.43 32.71 11.84 13.6 0.83 20.21 33.76 37.77 44.43 32.91"/><polygon class="cls-2" points="0.83 20.21 0.6 20.34 0.6 47.08 33.76 65.87 33.76 37.77 0.83 20.21"/><polygon class="cls-3" points="12.56 50.45 12.53 50.47 12.53 53.64 16.46 55.87 16.46 52.53 12.56 50.45"/><polygon class="cls-4" points="33.76 37.77 33.76 65.87 43.87 60.25 44.43 59.87 44.43 32.91 33.76 37.77"/><polygon class="cls-3" points="38.45 58.36 38.45 63.16 40.18 62.2 40.28 62.13 40.28 57.53 38.45 58.36"/><polygon class="cls-3" points="33.76 50.68 33.76 53.16 0 35.91 0 32.29 33.76 50.68"/><polygon class="cls-3" points="33.76 50.67 33.76 53.16 44.92 48.57 44.92 45.81 33.76 50.67"/><polygon class="cls-1" points="0 33.66 33.76 51.63 44.92 46.63 44.92 47.72 33.76 52.16 0 35.21 0 33.66"/><polygon class="cls-3" points="34.81 40.49 43.59 36.53 43.59 38.51 34.81 42.5 34.81 40.49"/><polygon class="cls-3" points="34.81 43.7 43.59 39.74 43.59 41.72 34.81 45.7 34.81 43.7"/><polygon class="cls-3" points="34.81 53.64 43.59 49.68 43.59 51.66 34.81 55.65 34.81 53.64"/><polygon class="cls-3" points="34.81 56.85 43.59 52.89 43.59 54.87 34.81 58.85 34.81 56.85"/><polygon class="cls-1" points="1.46 22.94 15.69 30.45 15.69 31.75 1.46 24.16 1.46 22.94"/><polygon class="cls-1" points="1.46 25.7 15.69 33.22 15.69 34.52 1.46 26.93 1.46 25.7"/><polygon class="cls-1" points="1.46 28.46 15.69 35.98 15.69 37.28 1.46 29.69 1.46 28.46"/><polygon class="cls-1" points="17.21 31.39 31.44 38.91 31.44 40.21 17.2 32.62 17.21 31.39"/><polygon class="cls-1" points="17.21 34.15 31.44 41.67 31.44 42.97 17.2 35.38 17.21 34.15"/><polygon class="cls-1" points="17.21 36.92 31.44 44.43 31.44 45.73 17.2 38.14 17.21 36.92"/><polygon class="cls-1" points="1.98 38.16 1.99 40.89 6.06 43.31 6.08 40.62 1.98 38.16"/><polygon class="cls-1" points="1.98 41.8 1.99 44.54 6.06 46.96 6.08 44.26 1.98 41.8"/><polygon class="cls-1" points="7.56 41.8 7.57 44.54 11.64 46.96 11.66 44.26 7.56 41.8"/><polygon class="cls-1" points="7.56 45.45 7.57 48.19 11.64 50.6 11.66 47.91 7.56 45.45"/><polygon class="cls-1" points="18.6 47.41 18.61 50.5 23.2 53.22 23.22 50.19 18.6 47.41"/><polygon class="cls-1" points="18.6 51.52 18.61 54.6 23.2 57.33 23.22 54.29 18.6 51.52"/><polygon class="cls-1" points="24.89 51.52 24.9 54.6 29.48 57.33 29.5 54.29 24.89 51.52"/><polygon class="cls-1" points="24.89 55.63 24.9 58.71 29.48 61.43 29.5 58.4 24.89 55.63"/><path class="cls-5" d="M28.65,8h0A9.5,9.5,0,0,0,9.89,8h0C8.34,17.62,18,26.42,19.24,27.52v0l0,0,0,0v0C20.54,26.42,30.19,17.62,28.65,8Zm-9.39,7.67a6.43,6.43,0,1,1,6.43-6.42A6.43,6.43,0,0,1,19.26,15.63Z"/><circle class="cls-6" cx="19.18" cy="27.79" r="2.57"/></g><g id="Capa_4" data-name="Capa 4"><text class="cls-7" transform="translate(30.17 9.73)">Facultad de Medicina<tspan class="cls-8" x="0" y="10.56">V</tspan><tspan x="5.38" y="10.56">eterinaria y Zootecnia</tspan></text></g></g></svg>