<svg xmlns="http://www.w3.org/2000/svg" viewBox="0 0 110.47 54"><defs><style>.cls-1{fill:#7777e8;}.cls-2{fill:#6262c3;}.cls-3{fill:#2f2e65;}.cls-4{fill:#44438a;}.cls-5{fill:#eeb500;}.cls-6{fill:#fff;}.cls-7{font-size:8.8px;font-family:Arial-BoldMT, Arial;font-weight:700;}.cls-8{letter-spacing:-0.04em;}.cls-9{letter-spacing:0em;}</style></defs><title>facultad-contaduria-administracion</title><g id="Capa_2" data-name="Capa 2"><g id="Capa_3" data-name="Capa 3"><polygon class="cls-1" points="70.41 24.04 72.28 23.6 72.97 24.29 71.69 25.96 70.41 24.04"/><polygon class="cls-1" points="110.47 36.11 108.99 35.67 108.65 38.43 110.47 38.58 110.47 36.11"/><polygon class="cls-1" points="110.04 24.61 110.04 24.43 80.97 7.38 71.15 13.28 100.52 28.94 110.04 24.61"/><polygon class="cls-2" points="71.15 13.28 70.94 13.4 70.94 37.24 100.52 54 100.52 28.94 71.15 13.28"/><polygon class="cls-3" points="81.61 40.25 81.59 40.27 81.59 43.09 85.09 45.08 85.09 42.11 81.61 40.25"/><polygon class="cls-4" points="100.52 28.94 100.52 54 109.54 48.99 110.04 48.65 110.04 24.61 100.52 28.94"/><polygon class="cls-3" points="104.7 47.3 104.7 51.58 106.25 50.73 106.33 50.67 106.33 46.56 104.7 47.3"/><polygon class="cls-3" points="100.52 40.45 100.52 42.67 70.41 27.28 70.41 24.05 100.52 40.45"/><polygon class="cls-3" points="100.52 40.45 100.52 42.66 110.47 38.58 110.47 36.11 100.52 40.45"/><polygon class="cls-1" points="70.41 25.27 100.52 41.3 110.47 36.84 110.47 37.81 100.52 41.77 70.41 26.65 70.41 25.27"/><polygon class="cls-3" points="101.45 31.37 109.29 27.84 109.29 29.6 101.45 33.16 101.45 31.37"/><polygon class="cls-3" points="101.45 34.23 109.29 30.7 109.29 32.46 101.45 36.02 101.45 34.23"/><polygon class="cls-3" points="101.45 43.1 109.29 39.56 109.29 41.33 101.45 44.89 101.45 43.1"/><polygon class="cls-3" points="101.45 45.95 109.29 42.42 109.29 44.19 101.45 47.74 101.45 45.95"/><polygon class="cls-1" points="71.71 15.71 84.4 22.42 84.4 23.57 71.71 16.8 71.71 15.71"/><polygon class="cls-1" points="71.71 18.18 84.4 24.88 84.4 26.04 71.71 19.27 71.71 18.18"/><polygon class="cls-1" points="71.71 20.64 84.4 27.34 84.4 28.5 71.71 21.73 71.71 20.64"/><polygon class="cls-1" points="85.76 23.25 98.45 29.95 98.45 31.11 85.75 24.34 85.76 23.25"/><polygon class="cls-1" points="85.76 25.71 98.45 32.42 98.45 33.58 85.75 26.81 85.76 25.71"/><polygon class="cls-1" points="85.76 28.18 98.45 34.88 98.45 36.04 85.75 29.27 85.76 28.18"/><polygon class="cls-1" points="72.18 29.28 72.18 31.73 75.82 33.88 75.83 31.48 72.18 29.28"/><polygon class="cls-1" points="72.18 32.54 72.18 34.98 75.82 37.13 75.83 34.73 72.18 32.54"/><polygon class="cls-1" points="77.15 32.54 77.16 34.98 80.79 37.13 80.81 34.73 77.15 32.54"/><polygon class="cls-1" points="77.15 35.79 77.16 38.23 80.79 40.39 80.81 37.98 77.15 35.79"/><polygon class="cls-1" points="87 37.54 87.01 40.29 91.1 42.72 91.12 40.01 87 37.54"/><polygon class="cls-1" points="87 41.2 87.01 43.95 91.1 46.38 91.12 43.68 87 41.2"/><polygon class="cls-1" points="92.61 41.2 92.62 43.95 96.71 46.38 96.72 43.68 92.61 41.2"/><polygon class="cls-1" points="92.61 44.87 92.62 47.62 96.71 50.05 96.72 47.34 92.61 44.87"/><path class="cls-5" d="M108.35,15h0a8.47,8.47,0,0,0-16.72,0h0c-1.36,8.61,7.24,16.47,8.36,17.44v0l0,0,0,0v0C101.11,31.48,109.72,23.62,108.35,15ZM100,21.85a5.73,5.73,0,1,1,5.73-5.73A5.72,5.72,0,0,1,100,21.85Z"/><circle class="cls-6" cx="99.9" cy="32.69" r="2.29"/></g><g id="Capa_4" data-name="Capa 4"><text class="cls-7" transform="translate(0 7.55)">Facultad de Contaduría<tspan x="0" y="10.56">y</tspan><tspan class="cls-8" x="4.89" y="10.56"> </tspan><tspan class="cls-9" x="7.01" y="10.56">Administración</tspan></text></g></g></svg>