<svg xmlns="http://www.w3.org/2000/svg" viewBox="0 0 72.19 62.09"><defs><style>.cls-1{fill:#7777e8;}.cls-2{fill:#6262c3;}.cls-3{fill:#2f2e65;}.cls-4{fill:#44438a;}.cls-5{fill:#eeb500;}.cls-6{fill:#fff;}.cls-7{font-size:8.8px;font-family:Arial-BoldMT, Arial;font-weight:700;}</style></defs><title>facultad-ingenieria</title><g id="Capa_2" data-name="Capa 2"><g id="Capa_3" data-name="Capa 3"><polygon class="cls-1" points="0 31.94 1.88 31.5 2.58 32.19 1.29 33.88 0 31.94"/><polygon class="cls-1" points="40.31 44.09 38.82 43.64 38.48 46.42 40.31 46.57 40.31 44.09"/><polygon class="cls-1" points="39.88 32.51 39.88 32.33 10.62 15.18 0.74 21.11 30.29 36.87 39.88 32.51"/><polygon class="cls-2" points="0.74 21.11 0.54 21.23 0.54 45.23 30.29 62.09 30.29 36.87 0.74 21.11"/><polygon class="cls-3" points="11.27 48.25 11.25 48.27 11.25 51.11 14.78 53.11 14.78 50.12 11.27 48.25"/><polygon class="cls-4" points="30.29 36.87 30.29 62.09 39.37 57.05 39.88 56.71 39.88 32.51 30.29 36.87"/><polygon class="cls-3" points="34.51 55.35 34.51 59.66 36.06 58.8 36.15 58.74 36.15 54.61 34.51 55.35"/><polygon class="cls-3" points="30.29 48.46 30.29 50.69 0 35.2 0 31.95 30.29 48.46"/><polygon class="cls-3" points="30.3 48.45 30.3 50.68 40.31 46.57 40.31 44.09 30.3 48.45"/><polygon class="cls-1" points="0 33.18 30.3 49.31 40.31 44.82 40.31 45.8 30.3 49.79 0 34.57 0 33.18"/><polygon class="cls-3" points="31.24 39.32 39.12 35.76 39.12 37.54 31.24 41.12 31.24 39.32"/><polygon class="cls-3" points="31.24 42.19 39.12 38.64 39.12 40.42 31.24 43.99 31.24 42.19"/><polygon class="cls-3" points="31.24 51.12 39.12 47.56 39.12 49.34 31.24 52.92 31.24 51.12"/><polygon class="cls-3" points="31.24 53.99 39.12 50.44 39.12 52.22 31.24 55.8 31.24 53.99"/><polygon class="cls-1" points="1.31 23.56 14.08 30.31 14.08 31.47 1.31 24.66 1.31 23.56"/><polygon class="cls-1" points="1.31 26.04 14.08 32.79 14.08 33.95 1.31 27.14 1.31 26.04"/><polygon class="cls-1" points="1.31 28.52 14.08 35.27 14.08 36.43 1.31 29.62 1.31 28.52"/><polygon class="cls-1" points="15.44 31.15 28.21 37.9 28.21 39.06 15.44 32.25 15.44 31.15"/><polygon class="cls-1" points="15.44 33.63 28.21 40.37 28.21 41.54 15.44 34.73 15.44 33.63"/><polygon class="cls-1" points="15.44 36.11 28.21 42.85 28.21 44.02 15.44 37.21 15.44 36.11"/><polygon class="cls-1" points="1.78 37.22 1.78 39.68 5.44 41.85 5.45 39.43 1.78 37.22"/><polygon class="cls-1" points="1.78 40.49 1.78 42.95 5.44 45.12 5.45 42.7 1.78 40.49"/><polygon class="cls-1" points="6.78 40.49 6.79 42.95 10.45 45.12 10.46 42.7 6.78 40.49"/><polygon class="cls-1" points="6.78 43.76 6.79 46.22 10.45 48.39 10.46 45.97 6.78 43.76"/><polygon class="cls-1" points="16.7 45.53 16.7 48.3 20.82 50.74 20.84 48.02 16.7 45.53"/><polygon class="cls-1" points="16.7 49.21 16.7 51.98 20.82 54.42 20.84 51.7 16.7 49.21"/><polygon class="cls-1" points="22.34 49.21 22.34 51.98 26.46 54.42 26.48 51.7 22.34 49.21"/><polygon class="cls-1" points="22.34 52.9 22.34 55.67 26.46 58.11 26.48 55.39 22.34 52.9"/><path class="cls-5" d="M21.12,7.14h0a8.53,8.53,0,0,0-16.83,0h0c-1.38,8.67,7.28,16.57,8.4,17.56v0l0,0,0,0v0C13.84,23.71,22.5,15.81,21.12,7.14ZM12.69,14a5.77,5.77,0,1,1,5.77-5.77A5.76,5.76,0,0,1,12.69,14Z"/><circle class="cls-6" cx="12.62" cy="24.94" r="2.31"/></g><g id="Capa_4" data-name="Capa 4"><text class="cls-7" transform="translate(23.31 9.7)">Facultad de<tspan x="0" y="10.56">Ingeniería</tspan></text></g></g></svg>