<svg xmlns="http://www.w3.org/2000/svg" viewBox="0 0 75.55 62.85"><defs><style>.cls-1{fill:#7777e8;}.cls-2{fill:#6262c3;}.cls-3{fill:#2f2e65;}.cls-4{fill:#44438a;}.cls-5{fill:#eeb500;}.cls-6{fill:#fff;}.cls-7{font-size:8.8px;font-family:Arial-BoldMT, Arial;font-weight:700;}</style></defs><title>facultad-quimica</title><g id="Capa_2" data-name="Capa 2"><g id="Capa_3" data-name="Capa 3"><polygon class="cls-1" points="0 32.24 1.91 31.78 2.62 32.49 1.31 34.2 0 32.24"/><polygon class="cls-1" points="40.94 44.57 39.42 44.12 39.07 46.94 40.94 47.09 40.94 44.57"/><polygon class="cls-1" points="40.49 32.82 40.49 32.63 10.79 15.22 0.76 21.24 30.76 37.24 40.49 32.82"/><polygon class="cls-2" points="0.76 21.24 0.55 21.36 0.55 45.73 30.76 62.85 30.76 37.24 0.76 21.24"/><polygon class="cls-3" points="11.45 48.8 11.42 48.82 11.42 51.7 15 53.73 15 50.7 11.45 48.8"/><polygon class="cls-4" points="30.76 37.24 30.76 62.85 39.98 57.73 40.49 57.39 40.49 32.82 30.76 37.24"/><polygon class="cls-3" points="35.04 56.01 35.04 60.38 36.62 59.51 36.7 59.45 36.7 55.25 35.04 56.01"/><polygon class="cls-3" points="30.76 49.01 30.76 51.27 0 35.55 0 32.25 30.76 49.01"/><polygon class="cls-3" points="30.76 49 30.76 51.27 40.94 47.09 40.94 44.57 30.76 49"/><polygon class="cls-1" points="0 33.49 30.76 49.87 40.94 45.31 40.94 46.31 30.76 50.36 0 34.91 0 33.49"/><polygon class="cls-3" points="31.72 39.73 39.73 36.12 39.73 37.92 31.72 41.55 31.72 39.73"/><polygon class="cls-3" points="31.72 42.65 39.73 39.04 39.73 40.84 31.72 44.48 31.72 42.65"/><polygon class="cls-3" points="31.72 51.71 39.73 48.1 39.73 49.91 31.72 53.54 31.72 51.71"/><polygon class="cls-3" points="31.72 54.63 39.73 51.02 39.73 52.83 31.72 56.46 31.72 54.63"/><polygon class="cls-1" points="1.33 23.73 14.3 30.58 14.3 31.76 1.33 24.84 1.33 23.73"/><polygon class="cls-1" points="1.33 26.24 14.3 33.09 14.3 34.28 1.33 27.36 1.33 26.24"/><polygon class="cls-1" points="1.33 28.76 14.3 35.61 14.3 36.8 1.33 29.88 1.33 28.76"/><polygon class="cls-1" points="15.68 31.43 28.65 38.28 28.65 39.47 15.68 32.55 15.68 31.43"/><polygon class="cls-1" points="15.68 33.95 28.65 40.8 28.65 41.98 15.68 35.07 15.68 33.95"/><polygon class="cls-1" points="15.68 36.47 28.65 43.32 28.65 44.5 15.68 37.58 15.68 36.47"/><polygon class="cls-1" points="1.8 37.59 1.81 40.09 5.52 42.3 5.54 39.84 1.8 37.59"/><polygon class="cls-1" points="1.8 40.92 1.81 43.41 5.52 45.62 5.54 43.16 1.8 40.92"/><polygon class="cls-1" points="6.89 40.92 6.9 43.41 10.61 45.62 10.62 43.16 6.89 40.92"/><polygon class="cls-1" points="6.89 44.24 6.9 46.74 10.61 48.94 10.62 46.48 6.89 44.24"/><polygon class="cls-1" points="16.95 46.03 16.96 48.84 21.14 51.33 21.16 48.56 16.95 46.03"/><polygon class="cls-1" points="16.95 49.77 16.96 52.59 21.14 55.07 21.16 52.3 16.95 49.77"/><polygon class="cls-1" points="22.68 49.77 22.69 52.59 26.87 55.07 26.89 52.3 22.68 49.77"/><polygon class="cls-1" points="22.68 53.52 22.69 56.33 26.87 58.81 26.89 56.04 22.68 53.52"/><path class="cls-5" d="M24.42,7.25h0a8.66,8.66,0,0,0-17.09,0h0c-1.4,8.8,7.4,16.83,8.54,17.83v0l0,0,0,0v0C17,24.08,25.82,16.05,24.42,7.25Zm-8.56,7a5.86,5.86,0,1,1,5.86-5.86A5.87,5.87,0,0,1,15.86,14.25Z"/><circle class="cls-6" cx="15.79" cy="25.32" r="2.34"/></g><g id="Capa_4" data-name="Capa 4"><text class="cls-7" transform="translate(26.67 12.36)">Facultad de<tspan x="0" y="10.56">Química</tspan></text></g></g></svg>