<svg xmlns="http://www.w3.org/2000/svg" viewBox="0 0 94.97 55.31"><defs><style>.cls-1{fill:#7777e8;}.cls-2{fill:#6262c3;}.cls-3{fill:#2f2e65;}.cls-4{fill:#44438a;}.cls-5{fill:#eeb500;}.cls-6{fill:#fff;}.cls-7{font-size:8.8px;font-family:Arial-BoldMT, Arial;font-weight:700;}</style></defs><title>facultad-filosofia-letras</title><g id="Capa_2" data-name="Capa 2"><g id="Capa_3" data-name="Capa 3"><polygon class="cls-1" points="0 28.1 1.7 27.7 2.33 28.33 1.16 29.85 0 28.1"/><polygon class="cls-1" points="36.38 39.07 35.04 38.66 34.72 41.17 36.38 41.3 36.38 39.07"/><polygon class="cls-1" points="35.99 28.62 35.99 28.45 9.59 12.98 0.67 18.33 27.34 32.55 35.99 28.62"/><polygon class="cls-2" points="0.67 18.33 0.48 18.44 0.48 40.09 27.34 55.31 27.34 32.55 0.67 18.33"/><polygon class="cls-3" points="10.17 42.83 10.15 42.84 10.15 45.41 13.34 47.21 13.34 44.51 10.17 42.83"/><polygon class="cls-4" points="27.34 32.55 27.34 55.31 35.53 50.76 35.99 50.45 35.99 28.62 27.34 32.55"/><polygon class="cls-3" points="31.14 49.23 31.14 53.12 32.54 52.34 32.62 52.29 32.62 48.56 31.14 49.23"/><polygon class="cls-3" points="27.34 43.01 27.34 45.02 0 31.05 0 28.11 27.34 43.01"/><polygon class="cls-3" points="27.34 43 27.34 45.02 36.38 41.3 36.38 39.07 27.34 43"/><polygon class="cls-1" points="0 29.22 27.34 43.77 36.38 39.73 36.38 40.61 27.34 44.21 0 30.48 0 29.22"/><polygon class="cls-3" points="28.19 34.76 35.31 31.55 35.31 33.16 28.19 36.39 28.19 34.76"/><polygon class="cls-3" points="28.19 37.35 35.31 34.15 35.31 35.75 28.19 38.98 28.19 37.35"/><polygon class="cls-3" points="28.19 45.41 35.31 42.2 35.31 43.81 28.19 47.04 28.19 45.41"/><polygon class="cls-3" points="28.19 48.01 35.31 44.8 35.31 46.4 28.19 49.63 28.19 48.01"/><polygon class="cls-1" points="1.18 20.54 12.71 26.63 12.71 27.68 1.18 21.53 1.18 20.54"/><polygon class="cls-1" points="1.18 22.78 12.71 28.87 12.71 29.92 1.18 23.77 1.18 22.78"/><polygon class="cls-1" points="1.18 25.02 12.71 31.1 12.71 32.16 1.18 26.01 1.18 25.02"/><polygon class="cls-1" points="13.94 27.39 25.46 33.48 25.46 34.53 13.93 28.38 13.94 27.39"/><polygon class="cls-1" points="13.94 29.62 25.46 35.71 25.46 36.77 13.93 30.62 13.94 29.62"/><polygon class="cls-1" points="13.94 31.86 25.46 37.95 25.46 39 13.93 32.85 13.94 31.86"/><polygon class="cls-1" points="1.6 32.87 1.61 35.08 4.91 37.04 4.92 34.86 1.6 32.87"/><polygon class="cls-1" points="1.6 35.82 1.61 38.04 4.91 40 4.92 37.81 1.6 35.82"/><polygon class="cls-1" points="6.12 35.82 6.13 38.04 9.43 40 9.44 37.81 6.12 35.82"/><polygon class="cls-1" points="6.12 38.77 6.13 40.99 9.43 42.95 9.44 40.77 6.12 38.77"/><polygon class="cls-1" points="15.07 40.36 15.08 42.86 18.79 45.07 18.81 42.61 15.07 40.36"/><polygon class="cls-1" points="15.07 43.69 15.08 46.19 18.79 48.39 18.81 45.94 15.07 43.69"/><polygon class="cls-1" points="20.16 43.69 20.17 46.19 23.88 48.39 23.89 45.94 20.16 43.69"/><polygon class="cls-1" points="20.16 47.02 20.17 49.51 23.88 51.72 23.89 49.26 20.16 47.02"/><path class="cls-5" d="M20.05,7h0A7.69,7.69,0,0,0,4.85,7h0c-1.24,7.82,6.58,15,7.59,15.84v0l0,0,0,0v0C13.47,22,21.29,14.82,20.05,7Zm-7.61,6.21A5.21,5.21,0,1,1,17.65,8,5.2,5.2,0,0,1,12.44,13.21Z"/><circle class="cls-6" cx="12.37" cy="23.06" r="2.08"/></g><g id="Capa_4" data-name="Capa 4"><text class="cls-7" transform="translate(22.62 7.55)">Facultad de<tspan x="0" y="10.56">Filosofía y Letras</tspan></text></g></g></svg>