<svg xmlns="http://www.w3.org/2000/svg" viewBox="0 0 57.58 64.12"><defs><style>.cls-1{fill:#7777e8;}.cls-2{fill:#6262c3;}.cls-3{fill:#2f2e65;}.cls-4{fill:#44438a;}.cls-5{fill:#eeb500;}.cls-6{fill:#fff;}.cls-7{font-size:8.8px;font-family:Arial-BoldMT, Arial;font-weight:700;}</style></defs><title>facultad-medicina</title><g id="Capa_2" data-name="Capa 2"><g id="Capa_3" data-name="Capa 3"><polygon class="cls-1" points="18.84 35.14 20.65 34.71 21.32 35.38 20.08 37 18.84 35.14"/><polygon class="cls-1" points="57.58 46.82 56.15 46.39 55.82 49.06 57.58 49.2 57.58 46.82"/><polygon class="cls-1" points="57.17 35.69 57.17 35.52 29.05 19.03 19.55 24.73 47.95 39.88 57.17 35.69"/><polygon class="cls-2" points="19.55 24.73 19.36 24.85 19.36 47.91 47.95 64.11 47.95 39.88 19.55 24.73"/><polygon class="cls-3" points="29.67 50.82 29.65 50.83 29.65 53.57 33.04 55.49 33.04 52.62 29.67 50.82"/><polygon class="cls-4" points="47.95 39.88 47.95 64.11 56.68 59.27 57.17 58.95 57.17 35.69 47.95 39.88"/><polygon class="cls-3" points="52.01 57.64 52.01 61.78 53.5 60.95 53.58 60.9 53.58 56.92 52.01 57.64"/><polygon class="cls-3" points="47.95 51.01 47.95 53.16 18.84 38.27 18.84 35.15 47.95 51.01"/><polygon class="cls-3" points="47.96 51.01 47.96 53.15 57.58 49.2 57.58 46.82 47.96 51.01"/><polygon class="cls-1" points="18.84 36.33 47.96 51.83 57.58 47.52 57.58 48.46 47.96 52.29 18.84 37.67 18.84 36.33"/><polygon class="cls-3" points="48.86 42.23 56.44 38.81 56.44 40.52 48.86 43.96 48.86 42.23"/><polygon class="cls-3" points="48.86 44.99 56.44 41.58 56.44 43.29 48.86 46.73 48.86 44.99"/><polygon class="cls-3" points="48.86 53.57 56.44 50.16 56.44 51.86 48.86 55.3 48.86 53.57"/><polygon class="cls-3" points="48.86 56.34 56.44 52.92 56.44 54.63 48.86 58.07 48.86 56.34"/><polygon class="cls-1" points="20.1 27.09 32.37 33.57 32.37 34.69 20.1 28.14 20.1 27.09"/><polygon class="cls-1" points="20.1 29.47 32.37 35.95 32.37 37.07 20.1 30.53 20.1 29.47"/><polygon class="cls-1" points="20.1 31.85 32.37 38.34 32.37 39.46 20.1 32.91 20.1 31.85"/><polygon class="cls-1" points="33.68 34.38 45.95 40.86 45.95 41.98 33.68 35.44 33.68 34.38"/><polygon class="cls-1" points="33.68 36.76 45.95 43.24 45.95 44.37 33.68 37.82 33.68 36.76"/><polygon class="cls-1" points="33.68 39.14 45.95 45.63 45.95 46.75 33.68 40.2 33.68 39.14"/><polygon class="cls-1" points="20.55 40.21 20.55 42.58 24.07 44.66 24.08 42.34 20.55 40.21"/><polygon class="cls-1" points="20.55 43.36 20.55 45.72 24.07 47.81 24.08 45.48 20.55 43.36"/><polygon class="cls-1" points="25.36 43.36 25.37 45.72 28.88 47.81 28.89 45.48 25.36 43.36"/><polygon class="cls-1" points="25.36 46.5 25.37 48.87 28.88 50.95 28.89 48.63 25.36 46.5"/><polygon class="cls-1" points="34.88 48.2 34.9 50.86 38.85 53.21 38.87 50.59 34.88 48.2"/><polygon class="cls-1" points="34.88 51.74 34.9 54.4 38.85 56.75 38.87 54.13 34.88 51.74"/><polygon class="cls-1" points="40.31 51.74 40.31 54.4 44.27 56.75 44.29 54.13 40.31 51.74"/><polygon class="cls-1" points="40.31 55.28 40.31 57.94 44.27 60.29 44.29 57.67 40.31 55.28"/><path class="cls-5" d="M54.58,16.66h0a8.19,8.19,0,0,0-16.17,0h0c-1.32,8.32,7,15.92,8.08,16.87v0l0,0,0,0v0C47.58,32.58,55.9,25,54.58,16.66Zm-8.1,6.61A5.54,5.54,0,1,1,52,17.73,5.55,5.55,0,0,1,46.48,23.27Z"/><circle class="cls-6" cx="46.4" cy="33.76" r="2.22"/></g><g id="Capa_4" data-name="Capa 4"><text class="cls-7" transform="translate(0 7.55)">Facultad de<tspan x="0" y="10.56">Medicina</tspan></text></g></g></svg>