<svg xmlns="http://www.w3.org/2000/svg" viewBox="0 0 53.26 54.85"><defs><style>.cls-1{fill:#7777e8;}.cls-2{fill:#6262c3;}.cls-3{fill:#2f2e65;}.cls-4{fill:#44438a;}.cls-5{fill:#eeb500;}.cls-6{fill:#fff;}.cls-7{font-size:9.43px;font-family:Arial-BoldMT, Arial;font-weight:700;}</style></defs><title>iimas</title><g id="Capa_2" data-name="Capa 2"><g id="Capa_3" data-name="Capa 3"><polygon class="cls-1" points="15.64 26.71 17.4 26.3 18.04 26.94 16.84 28.52 15.64 26.71"/><polygon class="cls-1" points="53.27 38.05 51.88 37.63 51.55 40.23 53.27 40.37 53.27 38.05"/><polygon class="cls-1" points="52.86 27.25 52.86 27.08 25.55 11.07 16.33 16.6 43.91 31.31 52.86 27.25"/><polygon class="cls-2" points="16.33 16.6 16.14 16.72 16.14 39.11 43.91 54.85 43.91 31.31 16.33 16.6"/><polygon class="cls-3" points="26.16 41.94 26.14 41.95 26.14 44.61 29.43 46.48 29.43 43.68 26.16 41.94"/><polygon class="cls-4" points="43.91 31.31 43.91 54.85 52.39 50.14 52.86 49.83 52.86 27.25 43.91 31.31"/><polygon class="cls-3" points="47.85 48.56 47.85 52.58 49.3 51.78 49.38 51.73 49.38 47.87 47.85 48.56"/><polygon class="cls-3" points="43.91 42.13 43.91 44.21 15.64 29.75 15.64 26.73 43.91 42.13"/><polygon class="cls-3" points="43.92 42.12 43.92 44.21 53.27 40.37 53.27 38.05 43.92 42.12"/><polygon class="cls-1" points="15.64 27.87 43.92 42.92 53.27 38.73 53.27 39.65 43.92 43.37 15.64 29.17 15.64 27.87"/><polygon class="cls-3" points="44.8 33.6 52.15 30.28 52.15 31.94 44.8 35.28 44.8 33.6"/><polygon class="cls-3" points="44.8 36.28 52.15 32.97 52.15 34.62 44.8 37.96 44.8 36.28"/><polygon class="cls-3" points="44.8 44.61 52.15 41.3 52.15 42.95 44.8 46.29 44.8 44.61"/><polygon class="cls-3" points="44.8 47.3 52.15 43.98 52.15 45.64 44.8 48.98 44.8 47.3"/><polygon class="cls-1" points="16.86 18.89 28.78 25.19 28.78 26.28 16.86 19.92 16.86 18.89"/><polygon class="cls-1" points="16.86 21.2 28.78 27.5 28.78 28.59 16.86 22.23 16.86 21.2"/><polygon class="cls-1" points="16.86 23.52 28.78 29.82 28.78 30.9 16.86 24.55 16.86 23.52"/><polygon class="cls-1" points="30.05 25.97 41.97 32.27 41.97 33.36 30.05 27 30.05 25.97"/><polygon class="cls-1" points="30.05 28.29 41.97 34.58 41.97 35.67 30.05 29.31 30.05 28.29"/><polygon class="cls-1" points="30.05 30.6 41.97 36.9 41.97 37.98 30.05 31.63 30.05 30.6"/><polygon class="cls-1" points="17.3 31.64 17.3 33.93 20.71 35.96 20.73 33.7 17.3 31.64"/><polygon class="cls-1" points="17.3 34.69 17.3 36.99 20.71 39.01 20.73 36.76 17.3 34.69"/><polygon class="cls-1" points="21.97 34.69 21.98 36.99 25.39 39.01 25.4 36.76 21.97 34.69"/><polygon class="cls-1" points="21.97 37.75 21.98 40.04 25.39 42.07 25.4 39.81 21.97 37.75"/><polygon class="cls-1" points="31.22 39.39 31.23 41.98 35.07 44.26 35.09 41.72 31.22 39.39"/><polygon class="cls-1" points="31.22 42.83 31.23 45.42 35.07 47.7 35.09 45.16 31.22 42.83"/><polygon class="cls-1" points="36.49 42.83 36.49 45.42 40.34 47.7 40.35 45.16 36.49 42.83"/><polygon class="cls-1" points="36.49 46.27 36.49 48.86 40.34 51.14 40.35 48.6 36.49 46.27"/><path class="cls-5" d="M43.52,6.67h0a8,8,0,0,0-15.71,0h0c-1.28,8.09,6.8,15.47,7.85,16.38v0l0,0,0,0v0C36.72,22.14,44.81,14.76,43.52,6.67ZM35.65,13.1A5.39,5.39,0,1,1,41,7.71,5.39,5.39,0,0,1,35.65,13.1Z"/><circle class="cls-6" cx="35.58" cy="23.28" r="2.15"/></g><g id="Capa_4" data-name="Capa 4"><text class="cls-7" transform="translate(0 10.88)">IIMAS</text></g></g></svg>