<svg xmlns="http://www.w3.org/2000/svg" viewBox="0 0 79.2 78.49"><defs><style>.cls-1{fill:#7777e8;}.cls-2{fill:#6262c3;}.cls-3{fill:#2f2e65;}.cls-4{fill:#44438a;}.cls-5{fill:#eeb500;}.cls-6{fill:#fff;}.cls-7{font-size:9.43px;font-family:Arial-BoldMT, Arial;font-weight:700;}</style></defs><title>instituto-biomedicas</title><g id="Capa_2" data-name="Capa 2"><g id="Capa_3" data-name="Capa 3"><polygon class="cls-1" points="38.81 48.29 40.7 47.84 41.39 48.54 40.1 50.23 38.81 48.29"/><polygon class="cls-1" points="79.2 60.46 77.71 60.01 77.36 62.8 79.2 62.95 79.2 60.46"/><polygon class="cls-1" points="78.76 48.86 78.76 48.68 49.45 31.5 39.55 37.44 69.16 53.23 78.76 48.86"/><polygon class="cls-2" points="39.55 37.44 39.35 37.56 39.35 61.6 69.16 78.49 69.16 53.23 39.55 37.44"/><polygon class="cls-3" points="50.1 64.63 50.08 64.65 50.08 67.5 53.61 69.5 53.61 66.51 50.1 64.63"/><polygon class="cls-4" points="69.16 53.23 69.16 78.49 78.26 73.44 78.76 73.1 78.76 48.86 69.16 53.23"/><polygon class="cls-3" points="73.39 71.74 73.39 76.06 74.94 75.2 75.03 75.14 75.03 71 73.39 71.74"/><polygon class="cls-3" points="69.16 64.84 69.16 67.07 38.81 51.55 38.81 48.3 69.16 64.84"/><polygon class="cls-3" points="69.16 64.83 69.16 67.07 79.2 62.95 79.2 60.46 69.16 64.83"/><polygon class="cls-1" points="38.81 49.53 69.16 65.69 79.2 61.19 79.2 62.18 69.16 66.17 38.81 50.92 38.81 49.53"/><polygon class="cls-3" points="70.11 55.68 78.01 52.12 78.01 53.9 70.11 57.48 70.11 55.68"/><polygon class="cls-3" points="70.11 58.56 78.01 55 78.01 56.78 70.11 60.37 70.11 58.56"/><polygon class="cls-3" points="70.11 67.5 78.01 63.94 78.01 65.72 70.11 69.31 70.11 67.5"/><polygon class="cls-3" points="70.11 70.39 78.01 66.82 78.01 68.61 70.11 72.19 70.11 70.39"/><polygon class="cls-1" points="40.12 39.89 52.92 46.65 52.92 47.82 40.12 41 40.12 39.89"/><polygon class="cls-1" points="40.12 42.38 52.92 49.14 52.92 50.3 40.12 43.48 40.12 42.38"/><polygon class="cls-1" points="40.12 44.86 52.92 51.62 52.92 52.79 40.12 45.96 40.12 44.86"/><polygon class="cls-1" points="54.28 47.49 67.08 54.25 67.08 55.42 54.28 48.6 54.28 47.49"/><polygon class="cls-1" points="54.28 49.98 67.08 56.74 67.08 57.91 54.28 51.08 54.28 49.98"/><polygon class="cls-1" points="54.28 52.46 67.08 59.22 67.08 60.39 54.28 53.56 54.28 52.46"/><polygon class="cls-1" points="40.59 53.58 40.6 56.04 44.26 58.21 44.27 55.79 40.59 53.58"/><polygon class="cls-1" points="40.59 56.86 40.6 59.32 44.26 61.49 44.27 59.07 40.59 56.86"/><polygon class="cls-1" points="45.61 56.86 45.62 59.32 49.28 61.49 49.29 59.07 45.61 56.86"/><polygon class="cls-1" points="45.61 60.13 45.62 62.6 49.28 64.77 49.29 62.35 45.61 60.13"/><polygon class="cls-1" points="55.54 61.9 55.55 64.67 59.67 67.12 59.69 64.39 55.54 61.9"/><polygon class="cls-1" points="55.54 65.59 55.55 68.37 59.67 70.82 59.69 68.09 55.54 65.59"/><polygon class="cls-1" points="61.19 65.59 61.2 68.37 65.32 70.82 65.34 68.09 61.19 65.59"/><polygon class="cls-1" points="61.19 69.29 61.2 72.06 65.32 74.51 65.34 71.78 61.19 69.29"/><path class="cls-5" d="M72.81,30.45h0a8.54,8.54,0,0,0-16.86,0h0c-1.38,8.68,7.3,16.6,8.42,17.58v0l0,0,0,0v0C65.51,47.05,74.19,39.13,72.81,30.45Zm-8.44,6.9a5.78,5.78,0,1,1,5.78-5.78A5.78,5.78,0,0,1,64.37,37.35Z"/><circle class="cls-6" cx="64.29" cy="48.28" r="2.31"/></g><g id="Capa_4" data-name="Capa 4"><text class="cls-7" transform="translate(0 8.09)">Instituto de<tspan x="0" y="11.31">Investigaciones</tspan><tspan x="0" y="22.63">Biomédicas</tspan></text></g></g></svg>