<svg xmlns="http://www.w3.org/2000/svg" viewBox="0 0 255 199.77"><defs><style>.cls-1{fill:#9797f7;}.cls-2{fill:#2f2e65;}.cls-3{fill:#7777e8;}.cls-4{fill:#6262c3;}.cls-5{fill:#353570;}.cls-6{fill:#44438a;}.cls-7{font-size:9.64px;fill:#fff;font-family:Arial-BoldMT, Arial;font-weight:700;}.cls-8{letter-spacing:-0.07em;}.cls-9{letter-spacing:0em;}</style></defs><title>islas-rectoria-biblioteca</title><g id="Capa_2" data-name="Capa 2"><g id="Capa_3" data-name="Capa 3"><polygon class="cls-1" points="105.58 28.77 0 84.13 171.07 199.77 255 134.33 105.58 28.77"/><path class="cls-2" d="M152.5,103.77a1.5,1.5,0,0,0-1.5,1.5v11a1.5,1.5,0,0,0,3,0v-11A1.5,1.5,0,0,0,152.5,103.77Z"/><path class="cls-3" d="M154,89.77s-6,11-9,14,6,5,6,5,5,1,7-2,5,0,4-3S157,91.77,154,89.77Z"/><path class="cls-4" d="M141,102.77l7,2s3,3,10,0,3-1,9-1,7-7,7-7l-7-4s0-4-6-2a28,28,0,0,1-12,1s-1,3-7,5S132,102.77,141,102.77Z"/><path class="cls-2" d="M138.88,93.19s-5.64,7,1.63,6.51,11,1.41,11,1.41l10.2.21a80.74,80.74,0,0,0,10,1.18,13.42,13.42,0,0,1,3.23.62,5.08,5.08,0,0,0,6.46-3.05l.18-.5-4.23-4-7.71-6.83L163,86.24l-6.07-.32s-4.45-3-8.24.22-6.73,2.61-6.73,2.61S135.62,89.4,138.88,93.19Z"/><path class="cls-5" d="M139.81,97.63a14.45,14.45,0,0,0,6.19,3.14c4,1,3,2,8,2s3,3,10,2,9,2,11,1,3-4-1-5-9.21-1.38-14.6-2.69-4.4-3.31-9.4-3.31S139.61,95.49,139.81,97.63Z"/><path class="cls-5" d="M159,89.77a58.46,58.46,0,0,0,10,1c5,0,9-4,10,0s6,5,6,6-4,2-9,0-12-4-14-4S152,91.77,159,89.77Z"/><path class="cls-2" d="M187.5,142.77a1.5,1.5,0,0,0-1.5,1.5v11a1.5,1.5,0,0,0,3,0v-11A1.5,1.5,0,0,0,187.5,142.77Z"/><path class="cls-3" d="M189,128.77s-6,11-9,14,6,5,6,5,5,1,7-2,5,0,4-3S192,130.77,189,128.77Z"/><path class="cls-4" d="M189,123.77s-6,11-9,14,6,5,6,5,5,1,7-2,5,0,4-3S192,125.77,189,123.77Z"/><path class="cls-2" d="M189,116.77s-6,11-9,14,6,5,6,5,5,1,7-2,5,0,4-3S192,118.77,189,116.77Z"/><polygon class="cls-3" points="77.44 59.58 66.69 64.95 74.75 67.64 88.19 62.27 77.44 59.58"/><polygon class="cls-3" points="64 67.64 53.26 73.01 61.32 75.7 74.75 70.33 64 67.64"/><polygon class="cls-3" points="50.57 75.7 39.82 81.08 47.88 83.76 61.32 78.39 50.57 75.7"/><polygon class="cls-3" points="100.28 60.92 89.53 66.3 97.59 68.98 111.03 63.61 100.28 60.92"/><polygon class="cls-3" points="86.84 68.98 76.09 74.36 84.16 77.05 97.59 71.67 86.84 68.98"/><polygon class="cls-3" points="73.41 77.05 62.66 82.42 70.72 85.11 84.16 79.73 73.41 77.05"/><polygon class="cls-3" points="59.97 85.11 49.23 90.48 57.29 93.17 70.72 87.79 59.97 85.11"/><polygon class="cls-3" points="86.44 68.58 75.69 73.95 83.75 76.64 97.19 71.27 86.44 68.58"/><polygon class="cls-3" points="73 76.64 62.26 82.01 70.32 84.7 83.75 79.33 73 76.64"/><polygon class="cls-3" points="59.57 84.7 48.82 90.08 56.88 92.76 70.32 87.39 59.57 84.7"/><polygon class="cls-3" points="109.28 69.92 98.53 75.3 106.59 77.98 120.03 72.61 109.28 69.92"/><polygon class="cls-3" points="95.84 77.98 85.09 83.36 93.16 86.05 106.59 80.67 95.84 77.98"/><polygon class="cls-3" points="82.41 86.05 71.66 91.42 79.72 94.11 93.16 88.73 82.41 86.05"/><polygon class="cls-3" points="143.32 23.55 143.32 23.3 103.57 0 90.15 8.05 130.3 29.47 143.32 23.55"/><polygon class="cls-6" points="90.15 8.05 89.87 8.22 89.87 40.82 130.3 63.73 130.3 29.47 90.15 8.05"/><polygon class="cls-2" points="130.3 29.47 130.3 63.73 142.63 56.88 143.32 56.42 143.32 23.55 130.3 29.47"/><polygon class="cls-3" points="147.75 60.89 143.32 57.56 143.32 56.42 142.63 56.88 130.3 63.73 89.87 40.82 89.87 41.12 76.21 49.31 122.07 76.06 147.75 60.89"/><polygon class="cls-6" points="122.07 76.06 76.21 49.31 76.16 49.34 76.16 54.82 122.76 80.86 123.08 80.67 122.59 75.76 122.07 76.06"/><polygon class="cls-2" points="148.8 61.67 147.75 60.89 122.59 75.76 123.08 80.67 148.8 65.78 148.8 61.67"/><polygon class="cls-3" points="124.6 12.33 116.73 7.71 108.75 10.16 116.59 15.76 124.6 12.33"/><polygon class="cls-2" points="124.64 12.35 124.6 12.33 116.59 15.76 116.31 15.56 118.12 19.78 124.81 15.76 124.64 12.35"/><polygon class="cls-6" points="108.75 10.16 108.37 10.28 108.37 14.39 117.96 19.87 118.12 19.78 116.31 15.56 108.75 10.16"/><polygon class="cls-3" points="51.19 20.34 32.54 32.77 51.19 43.9 72.95 32.77 51.19 20.34"/><polygon class="cls-6" points="51.19 77.01 32.54 66.49 32.54 71.15 51.19 81.67 51.19 77.01"/><polygon class="cls-2" points="51.19 72.34 32.54 61.83 32.54 66.49 51.19 77.01 51.19 72.34"/><polygon class="cls-2" points="51.19 81.67 32.54 71.15 32.54 75.82 51.19 86.33 51.19 81.67"/><polygon class="cls-2" points="51.19 91 32.54 80.48 32.54 85.14 51.19 95.66 51.19 91"/><polygon class="cls-6" points="51.19 86.33 32.54 75.82 32.54 80.48 51.19 91 51.19 86.33"/><polygon class="cls-6" points="51.19 95.66 32.54 85.14 32.54 89.81 51.19 100.32 51.19 95.66"/><polygon class="cls-6" points="51.19 49.02 32.54 38.51 32.54 43.17 51.19 53.69 51.19 49.02"/><polygon class="cls-6" points="51.19 67.68 32.54 57.16 32.54 61.83 51.19 72.34 51.19 67.68"/><polygon class="cls-2" points="51.19 43.9 32.54 32.77 32.54 38.51 51.19 49.02 51.19 43.9"/><polygon class="cls-6" points="51.19 58.35 32.54 47.84 32.54 52.5 51.19 63.02 51.19 58.35"/><polygon class="cls-2" points="51.19 63.02 32.54 52.5 32.54 57.16 51.19 67.68 51.19 63.02"/><polygon class="cls-2" points="51.19 53.69 32.54 43.17 32.54 47.84 51.19 58.35 51.19 53.69"/><polygon class="cls-2" points="32.54 89.81 32.54 94.95 51.19 105.83 51.19 100.32 32.54 89.81"/><polygon class="cls-4" points="51.19 63.02 72.95 50.91 72.95 46.25 51.19 58.35 51.19 63.02"/><polygon class="cls-6" points="51.19 67.68 72.95 55.57 72.95 50.91 51.19 63.02 51.19 67.68"/><polygon class="cls-4" points="51.19 72.34 72.95 60.24 72.95 55.57 51.19 67.68 51.19 72.34"/><polygon class="cls-6" points="51.19 77.01 72.95 64.9 72.95 60.24 51.19 72.34 51.19 77.01"/><polygon class="cls-6" points="72.95 36.92 72.95 32.77 51.19 43.9 51.19 49.02 72.95 36.92"/><polygon class="cls-6" points="51.19 53.69 51.19 58.35 72.95 46.25 72.95 41.58 51.19 53.69"/><polygon class="cls-4" points="51.19 53.69 72.95 41.58 72.95 36.92 51.19 49.02 51.19 53.69"/><polygon class="cls-6" points="51.19 95.66 72.95 83.56 72.95 78.89 51.19 91 51.19 95.66"/><polygon class="cls-4" points="51.19 100.32 72.95 88.22 72.95 83.56 51.19 95.66 51.19 100.32"/><polygon class="cls-6" points="51.19 105.83 72.95 94.95 72.95 88.22 51.19 100.32 51.19 105.83"/><polygon class="cls-4" points="51.19 91 72.95 78.89 72.95 74.23 51.19 86.33 51.19 91"/><polygon class="cls-6" points="51.19 81.67 51.19 86.33 57.41 82.87 57.41 78.21 51.19 81.67"/><polygon class="cls-6" points="65.96 78.12 72.95 74.23 72.95 69.56 65.96 73.45 65.96 78.12"/><polygon class="cls-4" points="57.41 73.55 51.19 77.01 51.19 81.67 57.41 78.21 57.41 73.55"/><polygon class="cls-3" points="57.41 73.55 57.41 78.21 57.41 82.87 65.96 78.12 65.96 73.45 65.96 68.79 57.41 73.55"/><polygon class="cls-4" points="65.96 68.79 65.96 73.45 72.95 69.56 72.95 64.9 65.96 68.79"/><text class="cls-7" transform="translate(91.27 25.49) rotate(14.29)">Biblioteca <tspan x="0" y="11.57">Central</tspan></text><text class="cls-7" transform="translate(146.27 94.49) rotate(14.29)">Islas</text><text class="cls-7" transform="translate(36.27 34.49) rotate(14.29)"><tspan class="cls-8">T<tspan class="cls-9" x="5.17" y="0">orre de </tspan></tspan><tspan x="0" y="11.57">Rectoría</tspan></text><path class="cls-2" d="M117.5,102.77a1.5,1.5,0,0,0-1.5,1.5v11a1.5,1.5,0,0,0,3,0v-11A1.5,1.5,0,0,0,117.5,102.77Z"/><path class="cls-3" d="M119,88.77s-6,11-9,14,6,5,6,5,5,1,7-2,5,0,4-3S122,90.77,119,88.77Z"/><path class="cls-4" d="M119,83.77s-6,11-9,14,6,5,6,5,5,1,7-2,5,0,4-3S122,85.77,119,83.77Z"/><path class="cls-2" d="M119,76.77s-6,11-9,14,6,5,6,5,5,1,7-2,5,0,4-3S122,78.77,119,76.77Z"/></g></g></svg>