<svg xmlns="http://www.w3.org/2000/svg" viewBox="0 0 72.24 65.44"><defs><style>.cls-1{fill:#9797f7;}.cls-2{fill:#2f2e65;}.cls-3{fill:#7777e8;}.cls-4{fill:#6262c3;}.cls-5{fill:#353570;}.cls-6{font-size:9.64px;fill:#fff;font-family:Arial-BoldMT, Arial;font-weight:700;}</style></defs><title>jardin-botanico</title><g id="Capa_2" data-name="Capa 2"><g id="Capa_3" data-name="Capa 3"><path class="cls-1" d="M20.28,30.13s3,1,7-2,8-4,12-1,4,4,10,3,9-3,12,2,3,9,7,9,6,4,1,7-3,4-11,8-14-1-17,2,4,3-7,5-13,4-17,0-3-6-7-7-6-3-6-7,3-11,4-12S12.28,28.13,20.28,30.13Z"/><path class="cls-2" d="M16.78,19.13a1.5,1.5,0,0,0-1.5,1.5v11a1.5,1.5,0,0,0,3,0v-11A1.51,1.51,0,0,0,16.78,19.13Z"/><path class="cls-3" d="M18.28,5.13s-6,11-9,14,6,5,6,5,5,1,7-2,5,0,4-3S21.28,7.13,18.28,5.13Z"/><path class="cls-4" d="M5.28,18.13l7,2s3,3,10,0,3-1,9-1,7-7,7-7l-7-4s0-4-6-2a28,28,0,0,1-12,1s-1,3-7,5S-3.72,18.13,5.28,18.13Z"/><path class="cls-2" d="M3.15,8.56s-5.63,7,1.63,6.51,11,1.4,11,1.4l10.2.21a81.55,81.55,0,0,0,10,1.19,13,13,0,0,1,3.23.62,5.09,5.09,0,0,0,6.46-3.06l.17-.49-4.23-4L33.85,4.1,27.23,1.61l-6.07-.32s-4.45-3-8.25.22-6.72,2.6-6.72,2.6S-.1,4.77,3.15,8.56Z"/><path class="cls-5" d="M4.08,13a14.53,14.53,0,0,0,6.2,3.14c4,1,3,2,8,2s3,3,10,2,9,2,11,1,3-4-1-5-9.21-1.37-14.61-2.68-4.39-3.32-9.39-3.32S3.89,10.85,4.08,13Z"/><path class="cls-5" d="M23.28,5.13a58.46,58.46,0,0,0,10,1c5,0,9-4,10,0s6,5,6,6-4,2-9,0-12-4-14-4S16.28,7.13,23.28,5.13Z"/><path class="cls-3" d="M47.52,13.67a2.48,2.48,0,0,0-4.62,1.81s1.12,3-.29,5.15a6.06,6.06,0,0,1-3.49,2.22V9.24a4,4,0,1,0-8,0v8.27a5.51,5.51,0,0,1-2.83-2c-1.49-2.22-.41-5.4-.38-5.48A2.39,2.39,0,0,0,23.4,8.41c-.09.22-2,5.48.87,9.76a10.63,10.63,0,0,0,6.83,4.31V33.29a4,4,0,1,0,8,0V28c3.56-.73,6.13-2.29,7.66-4.65C49.58,19,47.6,13.88,47.52,13.67Z"/><polygon class="cls-2" points="37.78 12.91 35.32 12.91 36.13 10.47 36.77 10.68 36.24 12.24 37.78 12.24 37.78 12.91"/><polygon class="cls-2" points="33.77 17.67 33.12 17.51 33.68 15.25 32.11 15.25 32.11 14.58 34.54 14.58 33.77 17.67"/><polygon class="cls-2" points="37.8 19.7 37.26 18.06 36.26 18.56 35.97 17.96 37.65 17.12 38.44 19.49 37.8 19.7"/><polygon class="cls-2" points="35.79 23.02 35.21 20.69 33.55 21.25 33.34 20.61 35.68 19.83 36.44 22.85 35.79 23.02"/><polygon class="cls-2" points="34.41 27.76 33.81 27.46 34.24 26.61 32.77 26.61 32.77 25.94 35.32 25.94 34.41 27.76"/><polygon class="cls-2" points="37.12 26.94 36.45 26.94 36.45 23.73 38.27 24.64 37.97 25.24 37.12 24.81 37.12 26.94"/><polygon class="cls-2" points="42.8 25.27 40.25 25.27 41.16 23.45 41.76 23.75 41.33 24.61 42.8 24.61 42.8 25.27"/><polygon class="cls-2" points="45.8 23.6 45.13 23.6 45.13 21.26 44.13 21.26 44.13 20.6 45.8 20.6 45.8 23.6"/><polygon class="cls-2" points="45.04 19.83 44.56 19.36 45.33 18.59 44.8 18.59 44.8 17.92 46.94 17.92 45.04 19.83"/><polygon class="cls-2" points="45.77 16.4 45.17 16.1 45.6 15.25 44.8 15.25 44.8 14.58 46.68 14.58 45.77 16.4"/><polygon class="cls-2" points="31.2 19.83 30.19 18.82 29.73 19.74 29.13 19.44 30.01 17.69 31.67 19.36 31.2 19.83"/><polygon class="cls-2" points="27.86 19.16 27.09 18.4 27.09 18.93 26.43 18.93 26.43 16.78 28.33 18.69 27.86 19.16"/><path class="cls-2" d="M27.11,16.36,26.64,15a1.31,1.31,0,0,0-.21.63h-.67A2.65,2.65,0,0,1,26.52,14l.39-.38.84,2.52Z"/><polygon class="cls-2" points="23.74 14.35 23.1 14.14 23.94 11.63 25.66 13.34 25.19 13.82 24.23 12.86 23.74 14.35"/><polygon class="cls-2" points="26.43 11.58 25.76 11.58 25.76 9.24 25.42 9.24 25.42 8.57 26.43 8.57 26.43 11.58"/><polygon class="cls-2" points="32.44 9.57 31.77 9.57 31.77 7.1 34.22 7.92 34 8.55 32.44 8.03 32.44 9.57"/><polygon class="cls-2" points="35.82 32.44 35.24 31.29 33.44 31.29 33.44 30.62 35.65 30.62 36.41 32.14 35.82 32.44"/><polygon class="cls-4" points="28.1 36.97 27.43 32.96 29.43 34.96 31.1 32.62 32.77 35.63 35.45 33.63 36.78 35.63 39.45 33.63 40.12 35.63 41.46 35.63 39.45 37.63 28.1 36.97"/><path class="cls-4" d="M8.3,35.28a31.87,31.87,0,0,1,5.36.95,31,31,0,0,1,5.18,1.89,14.72,14.72,0,0,1,4.78,3,10.92,10.92,0,0,1,1.68,2.35,8.21,8.21,0,0,1,.93,2.75l-.27.17c-1.7-1-3-2-4.39-2.94-.32-.25-.69-.47-1-.73s-.63-.55-1-.81a18.18,18.18,0,0,0-2-1.61,45.23,45.23,0,0,0-4.51-2.6,39.65,39.65,0,0,0-4.87-2.09Z"/><path class="cls-3" d="M24.83,45.25a6.94,6.94,0,0,1,1.91-3.7,9.29,9.29,0,0,1,3.51-2,14.85,14.85,0,0,1,3.91-1.08,11,11,0,0,1,4,.3l0,.31a12.18,12.18,0,0,0-3.55.89,19.62,19.62,0,0,0-3.1,1.75,13.74,13.74,0,0,0-1.35,1.18A7.38,7.38,0,0,1,28.68,44a13.47,13.47,0,0,1-3.61,1.48Z"/><path class="cls-4" d="M38.86,43a21.68,21.68,0,0,0-3.26.38,23.87,23.87,0,0,0-3.05.79,8.22,8.22,0,0,0-1.36.68c-.22.11-.42.24-.64.34s-.46.14-.68.23a18.31,18.31,0,0,1-3.28.64l-.22-.22a4.85,4.85,0,0,1,2.11-3.19A6.79,6.79,0,0,1,32,41.7a14.84,14.84,0,0,1,3.53.08,15.71,15.71,0,0,1,3.35.87Z"/><path class="cls-3" d="M26,44.42c-.08,0-.23-.05-.22,0l-.08-.05-.13-.06-.22-.14c-.14-.08-.25-.17-.38-.25s-.46-.35-.66-.52c-.4-.35-.74-.69-1.06-1a4.67,4.67,0,0,1-.75-1.12A6.1,6.1,0,0,0,21.84,40a9.88,9.88,0,0,0-2-1.91,10.48,10.48,0,0,0-2.67-1.36l0-.31a9.14,9.14,0,0,1,3.27.26,11.1,11.1,0,0,1,1.6.6,12.46,12.46,0,0,1,1.47.92c.47.35.95.7,1.39,1.09a3.91,3.91,0,0,1,1,1.42,5.47,5.47,0,0,1,.39,1.7,5.33,5.33,0,0,1,0,.89c0,.15,0,.3-.08.44l-.05.22,0,.11,0,0s-.09,0-.15,0Z"/><path class="cls-2" d="M25.38,46A12.54,12.54,0,0,1,21,45.93a8.69,8.69,0,0,1-1.93-.62,17.1,17.1,0,0,0-1.88-.8c-.64-.23-1.28-.44-1.93-.61a16.36,16.36,0,0,0-1.95-.49,5.39,5.39,0,0,0-3.8.27l-.22-.22a3.72,3.72,0,0,1,1.9-1.2,10.59,10.59,0,0,1,2.21-.4,21.8,21.8,0,0,1,4.36.23A12.92,12.92,0,0,1,22,43a9.21,9.21,0,0,1,3.5,2.78Z"/><path class="cls-2" d="M41.15,46.82a29.34,29.34,0,0,0-3.9-.64A33.28,33.28,0,0,0,33.41,46a11.39,11.39,0,0,0-1.86.23c-.31,0-.61.1-.91.13s-.6,0-.9,0a24,24,0,0,1-4-.35l-.12-.28a6.41,6.41,0,0,1,3.68-2.45,9.37,9.37,0,0,1,4.28.23,20.73,20.73,0,0,1,4,1.14,22.43,22.43,0,0,1,3.66,1.85Z"/><path class="cls-2" d="M25.29,43.08a5.43,5.43,0,0,1,.58-3.87,4.69,4.69,0,0,1,1.24-1.46c.52-.38,1.06-.75,1.6-1.08a14.91,14.91,0,0,1,1.66-.92,12.88,12.88,0,0,1,1.79-.58,11.36,11.36,0,0,1,3.61-.28l0,.31a13.57,13.57,0,0,0-3.06,1.4,11.76,11.76,0,0,0-2.47,2,7.19,7.19,0,0,0-.93,1.26,5.81,5.81,0,0,1-1,1.18,14.92,14.92,0,0,1-2.79,2.14Z"/><path class="cls-2" d="M49.78,36.13a1.5,1.5,0,0,0-1.5,1.5v11a1.5,1.5,0,0,0,3,0v-11A1.51,1.51,0,0,0,49.78,36.13Z"/><path class="cls-3" d="M51.28,22.13s-6,11-9,14,6,5,6,5,5,1,7-2,5,0,4-3S54.28,24.13,51.28,22.13Z"/><path class="cls-4" d="M51.28,17.13s-6,11-9,14,6,5,6,5,5,1,7-2,5,0,4-3S54.28,19.13,51.28,17.13Z"/><path class="cls-2" d="M51.28,10.13s-6,11-9,14,6,5,6,5,5,1,7-2,5,0,4-3S54.28,12.13,51.28,10.13Z"/><text class="cls-6" transform="translate(25.91 40.91) rotate(-3.1)">Jardín<tspan x="0" y="11.57">Botánico</tspan></text></g></g></svg>