<svg xmlns="http://www.w3.org/2000/svg" viewBox="0 0 35.34 39.63"><defs><style>.cls-1{font-size:9.64px;font-family:Arial-BoldMT, Arial;font-weight:700;}.cls-2{fill:#fe9400;}</style></defs><title>m-copilco</title><g id="Capa_2" data-name="Capa 2"><g id="Capa_3" data-name="Capa 3"><text class="cls-1" transform="translate(0 8.27)">Copilco</text><path class="cls-2" d="M13.28,12.64c2.77,0,5.54,0,8.31,0a8.86,8.86,0,0,1,2,.3,8.13,8.13,0,0,1,1.79.64,16.43,16.43,0,0,1,2,1.3,9.34,9.34,0,0,1,1.32,1.19,6.56,6.56,0,0,1,.63,1c.17.26.35.51.53.77,0,.05.08.09.08.14.06.83.73,1.43.82,2.24a25,25,0,0,1,.28,2.56c0,4.63,0,9.26,0,13.89,0,.86,0,1.71,0,2.57,0,.28-.12.4-.4.4-1.07,0-2.14,0-3.2,0-.3,0-.39-.14-.39-.41V23.09a7.2,7.2,0,0,0-.52-3,5.8,5.8,0,0,0-4.41-3.25,11.24,11.24,0,0,0-2-.11c-2.57,0-5.13,0-7.69,0H5.58c-.21,0-.41,0-.62,0-.6.06-.8-.14-.78-.76,0-.81,0-1.63.06-2.44v-.21c0-.69,0-.69.64-.69Z"/><path class="cls-2" d="M4.18,30.05c0-3,0-6,0-9,0-.69.09-.81.79-.78s1.43.12,2.14.22a1.27,1.27,0,0,1,1,1,4.92,4.92,0,0,1,.18,1.26c0,5.41,0,10.81,0,16.21,0,.62,0,.62-.62.62H4.8c-.63,0-.63,0-.63-.61v-9Z"/><path class="cls-2" d="M19.39,30.7c0-2.65,0-5.29,0-7.94a7.91,7.91,0,0,0-.21-1.88c-.1-.45,0-.6.51-.58a11.5,11.5,0,0,1,1.44,0c.74.13,1.57.12,2,.89a1.92,1.92,0,0,1,.27.89c0,5.68,0,11.35.08,17,0,.36-.14.49-.5.49H20c-.56,0-.62-.06-.62-.61V30.7Z"/><path class="cls-2" d="M11.81,30.63c0-2.67,0-5.34,0-8a13.12,13.12,0,0,0-.26-2c0-.25.05-.35.26-.36a8.45,8.45,0,0,1,2.88.21,1.84,1.84,0,0,1,.52.37c.77.61.61,1.45.6,2.27,0,1.6,0,3.19,0,4.78q0,5.5,0,11c0,.69,0,.7-.7.7H12.4c-.53,0-.59-.07-.59-.61V30.63Z"/></g></g></svg>