<svg xmlns="http://www.w3.org/2000/svg" viewBox="0 0 55.17 37.52"><defs><style>.cls-1{font-size:9.64px;font-family:Arial-BoldMT, Arial;font-weight:700;}.cls-2{fill:#fe9400;}</style></defs><title>m-universidad</title><g id="Capa_2" data-name="Capa 2"><g id="Capa_3" data-name="Capa 3"><text class="cls-1" transform="translate(0 8.27)">Universidad</text><path class="cls-2" d="M20.65,12.64c2.55,0,5.11,0,7.66,0a8.61,8.61,0,0,1,1.81.27,7.56,7.56,0,0,1,1.65.59,15.47,15.47,0,0,1,1.89,1.2,8.48,8.48,0,0,1,1.22,1.1,5.54,5.54,0,0,1,.58.9l.48.71s.08.09.08.13c0,.77.67,1.32.76,2.07A20.75,20.75,0,0,1,37,22c0,4.26,0,8.53,0,12.79,0,.8,0,1.59-.06,2.38,0,.26-.1.36-.36.36H33.67c-.27,0-.36-.12-.36-.37,0-.65,0-1.31,0-2V22.27a6.69,6.69,0,0,0-.47-2.8,5.47,5.47,0,0,0-1.16-1.59,5.24,5.24,0,0,0-2.91-1.4,10.5,10.5,0,0,0-1.86-.11c-2.36,0-4.72,0-7.08,0H13.55a5.48,5.48,0,0,0-.57.05c-.56,0-.74-.13-.72-.7,0-.75,0-1.5.05-2.26a.6.6,0,0,0,0-.19c0-.63,0-.63.6-.63Z"/><path class="cls-2" d="M12.26,28.68V20.41c0-.64.09-.75.73-.72s1.32.11,2,.21a1.14,1.14,0,0,1,.92.94A4.66,4.66,0,0,1,16.05,22c0,5,0,10,0,14.93,0,.57,0,.58-.57.58H12.83c-.58,0-.58,0-.58-.57V28.68Z"/><path class="cls-2" d="M26.28,29.28c0-2.44,0-4.87,0-7.31a7.12,7.12,0,0,0-.2-1.73c-.09-.42,0-.56.47-.54a10,10,0,0,1,1.34,0c.67.11,1.44.11,1.84.82a1.71,1.71,0,0,1,.25.82c0,5.23.05,10.46.08,15.69,0,.33-.13.46-.46.45H26.85c-.51,0-.57-.06-.57-.57V29.28Z"/><path class="cls-2" d="M19.29,29.22c0-2.46,0-4.92,0-7.39A11.2,11.2,0,0,0,19.05,20c0-.23,0-.32.24-.33a7.86,7.86,0,0,1,2.65.19,2,2,0,0,1,.48.35c.71.56.56,1.33.55,2.09,0,1.47,0,2.94,0,4.4,0,3.38,0,6.77,0,10.15,0,.63,0,.64-.64.64H19.84c-.49,0-.55-.06-.55-.55V29.22Z"/></g></g></svg>