<svg xmlns="http://www.w3.org/2000/svg" viewBox="0 0 83.65 70"><defs><style>.cls-1,.cls-5{font-size:9.64px;font-family:Arial-BoldMT, Arial;font-weight:700;}.cls-2{fill:#44438a;}.cls-3{fill:#2f2e65;}.cls-4{fill:#7777e8;}.cls-5{fill:#fff;}</style></defs><title>muac-centro-cultural</title><g id="Capa_2" data-name="Capa 2"><g id="Capa_3" data-name="Capa 3"><text class="cls-1" transform="matrix(1, -0.03, 0.03, 1, 46.85, 54.28)">Centro<tspan x="0" y="11.57">Cultural</tspan></text></g><g id="Capa_4" data-name="Capa 4"><polygon class="cls-2" points="0 34.13 26.01 14.64 12.99 47.08 0 47.76 0 34.13"/><polygon class="cls-3" points="26.01 14.64 12.99 47.08 14.1 47.05 27.08 15.16 26.01 14.64"/><polygon class="cls-3" points="73 37.56 70.68 36.43 70.02 37.56 71.63 37.95 64.53 45.74 65.89 45.7 73 37.56"/><polygon class="cls-4" points="70.68 36.43 27.08 15.16 14.1 47.05 61.06 45.83 70.02 37.56 70.68 36.43"/><polygon class="cls-2" points="71.63 37.95 70.02 37.56 61.06 45.83 64.53 45.74 71.63 37.95"/><path class="cls-3" d="M46.3,65.62q-1.78-11.88-3.54-23.77C42,36.56,41.22,31.27,40.41,26a33.87,33.87,0,0,1-.18-4.5c0-.18.05-.26.25-.26a1.8,1.8,0,0,0,.48-.15c.48.65,1,1.37,1.51,2.06.09.11.3.13.44.22a2.35,2.35,0,0,1,.47.36c0,.05,0,.2-.06.33a2.69,2.69,0,0,0,.24.24l1,.85c.76.62.76.62,1.56.11a7.67,7.67,0,0,0,3.47-4.5,7.24,7.24,0,0,0-.75-5.55,12.68,12.68,0,0,0-4.09-4.4.55.55,0,0,0-.4,0,7.41,7.41,0,0,0-2.56,1.52l-.31.24c0-1,.08-1.92.1-2.83a.38.38,0,0,1,.28-.41c.77-.35,1.54-.72,2.31-1.06a.42.42,0,0,0,.3-.5l-.14-.05-2.49-.52c-.17,0-.29-.07-.31-.29s.07-.31.25-.38l.67-.28C43,6,43.6,5.76,44.16,5.5c.1,0,.16-.21.2-.34S44.21,5,44.12,5s-.31-.07-.47-.11l-2.94-.66c0-.4.07-.76.1-1.12,0-.09,0-.24,0-.26-.3-.13-.19-.37-.17-.59.05-.59.1-1.19.16-1.78,0-.43,0-.44-.48-.47,0,.11,0,.22,0,.33-.1,1-.2,2.1-.31,3.15,0,.48-.12.53-.58.42L35.68,3a.75.75,0,0,0-.28,0,1,1,0,0,0,0,.39c0,.1.16.16.25.24l2.87,2.41c.15.13.28.27.42.4l0,.06-3.67-.81c-.2.37,0,.52.25.69l4,3.49a.66.66,0,0,1,.19.4c0,.89,0,1.79,0,2.68,0,.16,0,.32,0,.48h-.29l0,.29a4.86,4.86,0,0,1-.27-.49A11.92,11.92,0,0,0,35.27,8.8a.64.64,0,0,0-.47-.07,9.13,9.13,0,0,0-2.93,1.41A6.7,6.7,0,0,0,29,16.67c.21,2.07,1.42,3.61,2.44,5.26a7.45,7.45,0,0,0,1.38,1.43c.19.17.35.52.73.33,0,0,.08,0,.11.07l.6.63A11.19,11.19,0,0,0,38.67,21c0,.71,0,1.39,0,2.06,0,1.29.07,2.57.11,3.85a3.86,3.86,0,0,0,.12.57.31.31,0,0,0,.1-.25l.12-6.64a4.7,4.7,0,0,1,.13-.63,8.37,8.37,0,0,1,.23,1.66,77.2,77.2,0,0,1-.74,8.32Q37,40.57,35.27,51.22c-.61,3.74-1.37,7.47-2,11.21a1.71,1.71,0,0,1,0,.45L31,70H47ZM45,11.73a12,12,0,0,1,3.44,4,6.3,6.3,0,0,1,.39,5.56,7.24,7.24,0,0,1-3.33,3.45h-.1l-.75-13.25Zm-4,7.29c.14-1.48.22-3,.33-4.45l0-.42c1.25,1,1.34,5.17.12,6.4A2.85,2.85,0,0,1,41.08,19Zm-.22-9.19H41l0,1.37h-.07ZM34.17,23.49A13.38,13.38,0,0,1,31.52,21a8.9,8.9,0,0,1-2-4.62,5.66,5.66,0,0,1,1.65-4.51,8.33,8.33,0,0,1,3.57-2.25.9.9,0,0,1,.23,0C34.72,14.18,34.45,18.79,34.17,23.49Zm4.94-5.2,0-3.21h-.08l-.06.63c-.07,1.14-.12,2.29-.22,3.43a4.18,4.18,0,0,1-.32.94l-.14,0a6.83,6.83,0,0,1-.86-2.22,5.37,5.37,0,0,1,.75-4.25,3.4,3.4,0,0,1,.26-.29c.12.12.29.21.35.35a6.11,6.11,0,0,1,.57,2.63A5.14,5.14,0,0,1,39.11,18.29Zm1-9.23.08,0L40,10.56H40C40,10.06,40,9.56,40.08,9.06ZM40,17.78c0-2,0-3.93,0-5.89h.13A52.49,52.49,0,0,1,40,17.78Z"/><text class="cls-5" transform="translate(1.64 44.78) rotate(-3.1)">MUAC</text></g></g></svg>