<svg xmlns="http://www.w3.org/2000/svg" viewBox="0 0 141.01 111.56"><defs><style>.cls-1{fill:#b2b2f9;}.cls-10,.cls-11,.cls-2,.cls-3,.cls-4,.cls-5,.cls-6,.cls-7,.cls-8,.cls-9{fill:none;stroke-miterlimit:10;stroke-width:1.5px;}.cls-2{stroke:#9797f7;}.cls-3{stroke:#8b8be7;}.cls-4{stroke:#8080d7;}.cls-5{stroke:#7474c6;}.cls-6{stroke:#6968b6;}.cls-7{stroke:#5d5da6;}.cls-8{stroke:#525196;}.cls-9{stroke:#464585;}.cls-10{stroke:#3b3a75;}.cls-11{stroke:#2f2e65;}.cls-12{font-size:7.62px;font-family:Arial-BoldMT, Arial;font-weight:700;}.cls-13{fill:#2f2e65;}.cls-14{fill:#7777e8;}.cls-15{fill:#6262c3;}</style></defs><title>reserva-escultorico</title><g id="Capa_2" data-name="Capa 2"><g id="Capa_3" data-name="Capa 3"><path class="cls-1" d="M35,5.91s12-8,24,4,20,5,31,16,10,13,22,25,23,10,20,17,13,18,8,20-19-1-23,5-8.74,11.85-17.37,13.42S89,116.91,74,106.91s-10-17-23-18-16,6-24-9-12-19-19-26-10-11-6-18-4-20,4-27S26-1.09,35,5.91Z"/><rect class="cls-2" x="34.87" y="37.36" width="19.48" height="19.48" transform="translate(-6.95 7.73) rotate(-9.19)"/><rect class="cls-3" x="37.45" y="38.45" width="19.31" height="19.31" transform="translate(-5.17 5.67) rotate(-6.54)"/><rect class="cls-4" x="40.01" y="39.51" width="19.18" height="19.18" transform="translate(-3.18 3.43) rotate(-3.84)"/><rect class="cls-5" x="42.55" y="40.55" width="19.09" height="19.09" transform="translate(-0.96 1.02) rotate(-1.11)"/><rect class="cls-6" x="45.07" y="41.57" width="19.04" height="19.04" transform="translate(1.96 104.21) rotate(-88.36)"/><rect class="cls-7" x="47.57" y="42.57" width="19.04" height="19.04" transform="translate(0.78 105.03) rotate(-85.61)"/><rect class="cls-8" x="50.05" y="43.55" width="19.09" height="19.09" transform="translate(-0.5 105.63) rotate(-82.86)"/><rect class="cls-9" x="52.5" y="44.5" width="19.18" height="19.18" transform="translate(-1.84 105.99) rotate(-80.13)"/><rect class="cls-10" x="54.93" y="45.44" width="19.31" height="19.31" transform="translate(-3.24 106.15) rotate(-77.44)"/><rect class="cls-11" x="57.34" y="46.35" width="19.48" height="19.48" transform="translate(-4.65 106.1) rotate(-74.78)"/><text class="cls-12" transform="translate(35.82 64.58) rotate(12.8)">Espacio<tspan x="0" y="9.15">Escultórico</tspan></text><path class="cls-13" d="M96.54,61.91a1.5,1.5,0,0,0-1.5,1.5v11a1.5,1.5,0,0,0,3,0v-11A1.5,1.5,0,0,0,96.54,61.91Z"/><path class="cls-14" d="M98,47.91s-6,11-9,14,6,5,6,5,5,1,7-2,5,0,4-3S101,49.91,98,47.91Z"/><path class="cls-15" d="M98,42.91s-6,11-9,14,6,5,6,5,5,1,7-2,5,0,4-3S101,44.91,98,42.91Z"/><path class="cls-13" d="M98,35.91s-6,11-9,14,6,5,6,5,5,1,7-2,5,0,4-3S101,37.91,98,35.91Z"/><path class="cls-14" d="M58.28,8.44a2.48,2.48,0,0,0-4.62,1.81s1.12,3-.29,5.15a6,6,0,0,1-3.49,2.22V4a4,4,0,0,0-8,0v8.27a5.55,5.55,0,0,1-2.83-2c-1.49-2.21-.41-5.39-.38-5.48a2.39,2.39,0,0,0-4.49-1.65c-.08.22-2,5.48.87,9.76a10.66,10.66,0,0,0,6.83,4.31V28.06a4,4,0,0,0,8,0V22.73c3.56-.73,6.13-2.29,7.66-4.65C60.34,13.78,58.36,8.65,58.28,8.44Z"/><polygon class="cls-13" points="48.55 7.68 46.08 7.68 46.89 5.24 47.53 5.45 47.01 7.02 48.55 7.02 48.55 7.68"/><polygon class="cls-13" points="44.53 12.44 43.88 12.28 44.44 10.02 42.87 10.02 42.87 9.35 45.3 9.35 44.53 12.44"/><polygon class="cls-13" points="48.56 14.47 48.02 12.83 47.02 13.33 46.73 12.73 48.41 11.89 49.2 14.26 48.56 14.47"/><polygon class="cls-13" points="46.55 17.79 45.97 15.46 44.31 16.02 44.1 15.38 46.45 14.6 47.2 17.63 46.55 17.79"/><polygon class="cls-13" points="45.17 22.53 44.57 22.23 45 21.38 43.53 21.38 43.53 20.71 46.08 20.71 45.17 22.53"/><polygon class="cls-13" points="47.88 21.71 47.21 21.71 47.21 18.5 49.03 19.41 48.73 20.01 47.88 19.58 47.88 21.71"/><polygon class="cls-13" points="53.56 20.04 51.01 20.04 51.92 18.23 52.52 18.52 52.09 19.38 53.56 19.38 53.56 20.04"/><polygon class="cls-13" points="56.56 18.37 55.9 18.37 55.9 16.04 54.89 16.04 54.89 15.37 56.56 15.37 56.56 18.37"/><polygon class="cls-13" points="55.8 14.6 55.33 14.13 56.09 13.36 55.56 13.36 55.56 12.7 57.7 12.7 55.8 14.6"/><polygon class="cls-13" points="56.53 11.17 55.93 10.88 56.36 10.02 55.56 10.02 55.56 9.35 57.44 9.35 56.53 11.17"/><polygon class="cls-13" points="41.96 14.6 40.95 13.59 40.49 14.52 39.9 14.22 40.77 12.46 42.44 14.13 41.96 14.6"/><polygon class="cls-13" points="38.62 13.93 37.86 13.17 37.86 13.7 37.19 13.7 37.19 11.55 39.09 13.46 38.62 13.93"/><path class="cls-13" d="M37.87,11.13,37.4,9.72a1.42,1.42,0,0,0-.21.64h-.67a2.59,2.59,0,0,1,.77-1.58l.38-.38.84,2.52Z"/><polygon class="cls-13" points="34.5 9.13 33.86 8.91 34.7 6.4 36.42 8.12 35.95 8.59 34.99 7.63 34.5 9.13"/><polygon class="cls-13" points="37.19 6.35 36.52 6.35 36.52 4.01 36.19 4.01 36.19 3.34 37.19 3.34 37.19 6.35"/><polygon class="cls-13" points="43.2 4.34 42.53 4.34 42.53 1.88 44.98 2.69 44.77 3.32 43.2 2.8 43.2 4.34"/><polygon class="cls-13" points="46.58 27.21 46 26.06 44.2 26.06 44.2 25.39 46.41 25.39 47.17 26.91 46.58 27.21"/><polygon class="cls-15" points="38.86 31.74 38.19 27.73 40.19 29.73 41.87 27.39 43.53 30.4 46.21 28.4 47.54 30.4 50.22 28.4 50.88 30.4 52.22 30.4 50.22 32.41 38.86 31.74"/><path class="cls-15" d="M.06,44.05a31.69,31.69,0,0,1,5.36,1,30.64,30.64,0,0,1,5.18,1.89,14.75,14.75,0,0,1,4.78,3,10.3,10.3,0,0,1,1.68,2.34A8.19,8.19,0,0,1,18,55l-.26.16c-1.71-1-3-2-4.4-2.93-.32-.26-.68-.48-1-.74s-.63-.55-1-.81a17.28,17.28,0,0,0-2-1.61,45.23,45.23,0,0,0-4.51-2.6A41.25,41.25,0,0,0,0,44.36Z"/><path class="cls-14" d="M16.59,54a6.94,6.94,0,0,1,1.91-3.7,9.56,9.56,0,0,1,3.51-2,15.25,15.25,0,0,1,3.91-1.08,11.18,11.18,0,0,1,4,.3l0,.31a12.24,12.24,0,0,0-3.56.89,18.91,18.91,0,0,0-3.1,1.76,11.46,11.46,0,0,0-1.34,1.17,7.45,7.45,0,0,1-1.42,1.07,13.47,13.47,0,0,1-3.61,1.48Z"/><path class="cls-15" d="M30.62,51.72a21.83,21.83,0,0,0-3.26.38,22.33,22.33,0,0,0-3.05.8,6.57,6.57,0,0,0-1.35.68c-.23.1-.43.23-.65.33s-.46.15-.68.23a18.31,18.31,0,0,1-3.28.64l-.21-.22a4.8,4.8,0,0,1,2.1-3.19,6.79,6.79,0,0,1,3.56-.9,15.48,15.48,0,0,1,3.54.08,15.78,15.78,0,0,1,3.34.87Z"/><path class="cls-14" d="M17.79,53.2c-.09,0-.24-.06-.23-.05l-.08,0L17.35,53l-.22-.13-.38-.26c-.23-.18-.46-.35-.66-.52a13.06,13.06,0,0,1-1.06-1A4.48,4.48,0,0,1,14.28,50a6.1,6.1,0,0,0-.68-1.19,9.88,9.88,0,0,0-2-1.91,10.93,10.93,0,0,0-2.66-1.36l0-.31a9.37,9.37,0,0,1,3.27.26,10.68,10.68,0,0,1,1.6.6A12.46,12.46,0,0,1,15.3,47c.47.35.95.7,1.39,1.09a3.91,3.91,0,0,1,1,1.42,5.47,5.47,0,0,1,.39,1.7,5.33,5.33,0,0,1,0,.89,3.54,3.54,0,0,1-.08.45l0,.22,0,.1,0,0s-.09,0-.14,0Z"/><path class="cls-13" d="M17.14,54.81a12.3,12.3,0,0,1-4.35-.11,8.69,8.69,0,0,1-1.93-.62A19.27,19.27,0,0,0,9,53.28c-.64-.23-1.28-.44-1.93-.61a19,19,0,0,0-1.94-.49,5.36,5.36,0,0,0-3.81.28l-.22-.22A3.67,3.67,0,0,1,3,51a10.57,10.57,0,0,1,2.21-.39,21,21,0,0,1,4.36.22,13,13,0,0,1,4.22.89,9.28,9.28,0,0,1,3.49,2.78Z"/><path class="cls-13" d="M32.91,55.59A29.34,29.34,0,0,0,29,55a33.28,33.28,0,0,0-3.84-.17,10.52,10.52,0,0,0-1.86.24c-.31,0-.61.09-.9.12s-.61,0-.91,0a24,24,0,0,1-4-.35l-.12-.28a6.35,6.35,0,0,1,3.68-2.44,9.23,9.23,0,0,1,4.28.22,20.73,20.73,0,0,1,4,1.14A22.43,22.43,0,0,1,33,55.3Z"/><path class="cls-13" d="M17.05,51.85A5.43,5.43,0,0,1,17.63,48a4.83,4.83,0,0,1,1.24-1.46c.52-.38,1.06-.74,1.6-1.08a15.86,15.86,0,0,1,1.66-.92,12.88,12.88,0,0,1,1.79-.58,11.36,11.36,0,0,1,3.61-.28l0,.31a13.78,13.78,0,0,0-3.06,1.4,11.76,11.76,0,0,0-2.47,2,7.19,7.19,0,0,0-.93,1.26,6.16,6.16,0,0,1-1,1.19A15.36,15.36,0,0,1,17.34,52Z"/><path class="cls-15" d="M90.06,72.05a31.69,31.69,0,0,1,5.36,1,30.64,30.64,0,0,1,5.18,1.89,14.75,14.75,0,0,1,4.78,3,10.3,10.3,0,0,1,1.68,2.34A8.19,8.19,0,0,1,108,83l-.26.16c-1.71-1-3-2-4.4-2.93-.32-.26-.68-.48-1-.74s-.63-.55-1-.81a17.28,17.28,0,0,0-2-1.61,45.23,45.23,0,0,0-4.51-2.6A41.25,41.25,0,0,0,90,72.36Z"/><path class="cls-14" d="M106.59,82a6.94,6.94,0,0,1,1.91-3.7,9.56,9.56,0,0,1,3.51-2,15.25,15.25,0,0,1,3.91-1.08,11.18,11.18,0,0,1,4,.3l0,.31a12.24,12.24,0,0,0-3.56.89,18.91,18.91,0,0,0-3.1,1.76,11.46,11.46,0,0,0-1.34,1.17,7.45,7.45,0,0,1-1.42,1.07,13.47,13.47,0,0,1-3.61,1.48Z"/><path class="cls-15" d="M120.62,79.72a21.83,21.83,0,0,0-3.26.38,22.33,22.33,0,0,0-3,.8,6.57,6.57,0,0,0-1.35.68c-.23.1-.43.23-.65.33s-.46.15-.68.23a18.31,18.31,0,0,1-3.28.64l-.21-.22a4.8,4.8,0,0,1,2.1-3.19,6.79,6.79,0,0,1,3.56-.9,15.48,15.48,0,0,1,3.54.08,15.78,15.78,0,0,1,3.34.87Z"/><path class="cls-14" d="M107.79,81.2c-.09,0-.24-.06-.23,0l-.08-.05-.13-.06-.22-.13-.38-.26c-.23-.18-.46-.35-.66-.52a13.06,13.06,0,0,1-1.06-1,4.48,4.48,0,0,1-.75-1.12,6.1,6.1,0,0,0-.68-1.19,9.88,9.88,0,0,0-2-1.91,10.93,10.93,0,0,0-2.66-1.36l0-.31a9.37,9.37,0,0,1,3.27.26,10.68,10.68,0,0,1,1.6.6,12.46,12.46,0,0,1,1.47.92c.47.35,1,.7,1.39,1.09a3.91,3.91,0,0,1,1,1.42,5.47,5.47,0,0,1,.39,1.7,5.33,5.33,0,0,1,0,.89,3.54,3.54,0,0,1-.08.45l0,.22,0,.1,0,0s-.09,0-.14,0Z"/><path class="cls-13" d="M107.14,82.81a12.3,12.3,0,0,1-4.35-.11,8.69,8.69,0,0,1-1.93-.62,19.27,19.27,0,0,0-1.88-.8c-.64-.23-1.28-.44-1.93-.61a19,19,0,0,0-1.94-.49,5.36,5.36,0,0,0-3.81.28l-.22-.22A3.67,3.67,0,0,1,93,79a10.57,10.57,0,0,1,2.21-.39,21,21,0,0,1,4.36.22,13,13,0,0,1,4.22.89,9.28,9.28,0,0,1,3.49,2.78Z"/><path class="cls-13" d="M122.91,83.59A29.34,29.34,0,0,0,119,83a33.28,33.28,0,0,0-3.84-.17,10.52,10.52,0,0,0-1.86.24c-.31,0-.61.09-.9.12s-.61,0-.91,0a24,24,0,0,1-4-.35l-.12-.28a6.35,6.35,0,0,1,3.68-2.44,9.23,9.23,0,0,1,4.28.22,20.73,20.73,0,0,1,4,1.14A22.43,22.43,0,0,1,123,83.3Z"/><path class="cls-13" d="M107.05,79.85a5.43,5.43,0,0,1,.58-3.87,4.83,4.83,0,0,1,1.24-1.46c.52-.38,1.06-.74,1.6-1.08a15.86,15.86,0,0,1,1.66-.92,12.88,12.88,0,0,1,1.79-.58,11.36,11.36,0,0,1,3.61-.28l0,.31a13.78,13.78,0,0,0-3.06,1.4,11.76,11.76,0,0,0-2.47,2,7.19,7.19,0,0,0-.93,1.26,6.16,6.16,0,0,1-1,1.19A15.36,15.36,0,0,1,107.34,80Z"/><text class="cls-12" transform="translate(55.82 24.58) rotate(12.8)">Reserva<tspan x="0" y="9.15">Ecológica</tspan></text></g></g></svg>