<svg xmlns="http://www.w3.org/2000/svg" viewBox="0 0 59.09 44.9"><defs><style>.cls-1{fill:#6262c3;}.cls-2{font-size:8.06px;font-family:Arial-BoldMT, Arial;font-weight:700;}</style></defs><title>sala-nezahualcoyotl</title><g id="Capa_2" data-name="Capa 2"><g id="Capa_4" data-name="Capa 4"><path class="cls-1" d="M6.87,13.58H9.6c0,.11.06.15.05.17a13.32,13.32,0,0,0,0,8.53,29.06,29.06,0,0,0,4.53,8.82c.35.5.72,1,1.13,1.56H6.87Z"/><path class="cls-1" d="M34.55,32.66h-4a1.45,1.45,0,0,1,.1-.24A13,13,0,0,0,32,21.92a23.75,23.75,0,0,0-4-7.82l-.36-.52h6.88Z"/><path class="cls-1" d="M20.07,36.55l-.66-.77A43.85,43.85,0,0,1,13,26.06,18.84,18.84,0,0,1,11,17.76a7.83,7.83,0,0,1,5.15-7.59A17.84,17.84,0,0,1,23.41,9Z"/><path class="cls-1" d="M29.13,18.84A12.55,12.55,0,0,1,28,32.63c-.3-.84-.59-1.63-.84-2.43a15.86,15.86,0,0,1-1-6.1,6.7,6.7,0,0,1,2.55-4.94Z"/><text class="cls-2" transform="translate(0 41.86)">Nezahualcóyotl</text><text class="cls-2" transform="translate(12.43 6.91)">Sala</text></g></g></svg>