<svg xmlns="http://www.w3.org/2000/svg" viewBox="0 0 56.43 32"><defs><style>.cls-1{fill:#2f2e65;}.cls-2{fill:#7777e8;}</style></defs><title>universum</title><g id="Capa_2" data-name="Capa 2"><g id="Capa_4" data-name="Capa 4"><path class="cls-1" d="M20,19.26a50.12,50.12,0,0,1-7.5-.49c-.38-.06-.71-.15-.74-.61s.33-.74.94-.63a42.33,42.33,0,0,0,9.27.55c.8,0,1.6-.17,2.39-.17s1.33-.23,2-.23a3.52,3.52,0,0,0,1.3-.31.42.42,0,0,0,.27-.55.43.43,0,0,0-.52-.32l-2.35.27a42.89,42.89,0,0,1-8.17.06A50.1,50.1,0,0,1,8,15.29l-.11,0c-.41-.09-.82-.23-.68-.76s.64-.4,1-.34c1.05.2,2.09.47,3.14.69a47.09,47.09,0,0,0,14.41.77,10.23,10.23,0,0,0,1.82-.26c.27-.08.46-.18.42-.48s-.3-.39-.59-.36c-1.27.11-2.55.18-3.83.21a47.49,47.49,0,0,1-16-2.21l-.32-.1a.56.56,0,0,1-.39-.76.55.55,0,0,1,.75-.38c.54.15,1.07.34,1.61.5A46.8,46.8,0,0,0,25,13.5c.75,0,1.5-.1,2.25-.16.36,0,.73-.07.69-.54s-.4-.44-.77-.4a44.2,44.2,0,0,1-11.08-.26c-1.69-.26-3.37-.59-5-1-.27-.06-.56-.12-.64-.46s.28-.85.81-.72a51.77,51.77,0,0,0,11.9,1.41c.78,0,1.55-.09,2.34-.05a8.43,8.43,0,0,0,1.41-.23A25,25,0,0,0,37.63,7.32c.69-.44.72-.79.06-1.27a23.11,23.11,0,0,0-9.08-3.78,33.61,33.61,0,0,0-6.33-.61c-.71,0-1.07-.28-1.08-.79S21.59,0,22.28,0A51.1,51.1,0,0,1,38.44,2.74,76.68,76.68,0,0,1,48.1,6.62a2.46,2.46,0,0,1,1.55,2.22,2.57,2.57,0,0,1-1.32,2.5,50.29,50.29,0,0,1-9.41,4.45A55.7,55.7,0,0,1,20,19.26Z"/><path class="cls-2" d="M22.86,10.3a23.78,23.78,0,0,1-11.4-2.85,7,7,0,0,1-.63-.38c-.51-.34-.51-.69,0-1a20.4,20.4,0,0,1,4.72-2.11,22.87,22.87,0,0,1,5-1A26.33,26.33,0,0,1,33.27,4.74,18.32,18.32,0,0,1,35.72,6c.6.37.61.73,0,1.1a20.45,20.45,0,0,1-6.25,2.51A28.7,28.7,0,0,1,22.86,10.3Zm2.39-5.94a3.1,3.1,0,0,1,.07,4.34,8.27,8.27,0,0,0,2.45-.21A20.8,20.8,0,0,0,32.9,7c.2-.09.44-.17.44-.45s-.15-.28-.31-.36A22.29,22.29,0,0,0,25.25,4.36Zm-3.9.07a6.31,6.31,0,0,0-1.72.11,20.39,20.39,0,0,0-5.84,1.58c-.22.11-.51.16-.49.47s.3.35.52.44A16.52,16.52,0,0,0,17,8.1a22.22,22.22,0,0,0,4.4.63A3,3,0,0,1,21.35,4.43Z"/><path class="cls-1" d="M37.4,30.17c0-.13,0-.26,0-.39a1.05,1.05,0,0,1,1.41-1,.71.71,0,0,1,.36,1.27c-.22.23-.4.45-.25.73s.51.15.76.06a3.9,3.9,0,0,0,1.42-.79.74.74,0,0,0-.06-1.31,4.92,4.92,0,0,0-1.65-.7,1.53,1.53,0,0,1-1.19-2.22,3.75,3.75,0,0,1,1.89-2.42c1.07-.49,1.77,0,1.7,1.14,0,.59-.13,1.16-.21,1.74,0,.34-.23.59-.59.56s-.46-.35-.46-.66.06-.75.07-1.12c0-.12,0-.29-.13-.34s-.24.09-.33.17c-1,1-.81,1.94.43,2.55a5.64,5.64,0,0,1,1.72.93c.87.88.89,1.73-.08,2.49a4.19,4.19,0,0,1-3.46,1A1.49,1.49,0,0,1,37.4,30.17Z"/><path class="cls-1" d="M54.72,26.11c-.41.88-.82,1.76-1.22,2.64-.15.31-.27.67-.7.63s-.47-.4-.56-.7c-.13-.49-.24-1-.35-1.48a1.12,1.12,0,0,0-.36-.67c-.19,1-.37,1.91-.55,2.84,0,.13,0,.26-.08.39-.07.35-.24.63-.64.55s-.36-.44-.29-.73c.31-1.49.64-3,1-4.46,0-.16.07-.33.12-.49s.1-.45.36-.41.57,0,.68.4c.25,1,.57,1.9.86,2.84.24,0,.24-.19.3-.31.42-.84.83-1.68,1.26-2.52.18-.35.44-.65.88-.55s.51.46.54.83c.16,2.05.33,4.09.48,6.13,0,.37,0,.75-.44.84s-.73-.1-.77-.65c-.11-1.38-.19-2.77-.28-4.16,0-.32,0-.63-.08-.95Z"/><path class="cls-1" d="M32.82,28.36l2.74,2.35a2.75,2.75,0,0,0,.26.22.56.56,0,0,1,.14.84.53.53,0,0,1-.84.05c-.77-.63-1.52-1.29-2.28-1.93L32,29.14v1.64c0,.41-.16.67-.59.66s-.49-.33-.49-.67c0-.61,0-1.21,0-1.81,0-.2,0-.36-.28-.39s-.42-.1-.44-.36.17-.39.37-.51a1.74,1.74,0,0,0,.33-1.48c-.12-.15-.31-.11-.48-.12-.36,0-.63-.15-.64-.55s.29-.46.56-.49a8.72,8.72,0,0,1,4.2.53l.2.11c.36.29.84.52.79,1.08s-.51.71-.91.89C34,27.91,33.48,28.11,32.82,28.36Zm-.88-.88A8.24,8.24,0,0,0,33.87,27c.16-.09.35-.2.31-.42s-.21-.26-.37-.29c-.37-.07-.73-.14-1.1-.18-.77-.06-.77-.05-.77.73Z"/><path class="cls-1" d="M48,27.22c0-.75-.06-1.39-.11-2,0-.36,0-.66.47-.69a.63.63,0,0,1,.71.63c.07.86.17,1.73.2,2.59a11.42,11.42,0,0,1,.07,1.55,2.7,2.7,0,0,1-2.82,2.65,6.28,6.28,0,0,1-1.78-.2,1.46,1.46,0,0,1-1.17-1.92,37.6,37.6,0,0,1,1.59-4.09.53.53,0,0,1,.7-.32c.36.11.27.41.22.66a18.58,18.58,0,0,1-1,2.58l-.09.21c-.21.57-.48,1.17,0,1.7a1.78,1.78,0,0,0,1.85.32,1.5,1.5,0,0,0,1.15-1.39A13.83,13.83,0,0,0,48,27.22Z"/><path class="cls-1" d="M5.84,28.58a2.62,2.62,0,0,1-1.19,2.85,4.15,4.15,0,0,1-4,0,1.41,1.41,0,0,1-.57-1.74c.39-1.37,1-2.65,1.55-4a.53.53,0,0,1,.66-.29c.35.07.34.34.27.61a24.41,24.41,0,0,1-1,2.75c-.24.6-.54,1.24,0,1.78a1.81,1.81,0,0,0,2,.22,1.6,1.6,0,0,0,1-1.67c0-1.26-.11-2.52-.18-3.78,0-.39-.08-.78.47-.85s.72.26.76.83C5.67,26.36,5.75,27.4,5.84,28.58Z"/><path class="cls-1" d="M9.71,28,8,31a3.41,3.41,0,0,1-.51.73.52.52,0,0,1-.62.15c-.22-.1-.21-.33-.19-.55A1.72,1.72,0,0,1,7,30.62c.7-1.17,1.4-2.35,2.12-3.52.47-.77,1-.76,1.5,0s.76,1.25,1.22,2C12,28,12.17,27,12.35,26c.06-.31.1-.63.17-.94a.64.64,0,0,1,.76-.57c.46.06.41.43.36.75-.35,2-.7,4-1.06,5.93a2.72,2.72,0,0,1-.13.37c-.22.44-.47.48-.73.06-.43-.69-.81-1.4-1.21-2.11C10.26,29,10,28.56,9.71,28Z"/><path class="cls-1" d="M19.62,30.08c.26-.57.51-1.15.76-1.73.63-1.44,1.26-2.89,1.9-4.33a1.88,1.88,0,0,1,.24-.44.57.57,0,0,1,1,.45,3.75,3.75,0,0,1-.29.79c-.88,2-1.78,3.94-2.67,5.9a3,3,0,0,1-.64.92c-.38.36-.68.33-1-.11a2.4,2.4,0,0,1-.28-.61c-.48-1.53-.94-3.05-1.4-4.58a2.74,2.74,0,0,1-.08-.5c0-.22,0-.51.25-.48s.55-.19.73.17a4,4,0,0,1,.26.68l1.05,3.85Z"/><path class="cls-1" d="M26.2,28.21c-1.07,0-1.07,0-1.16.91s-.08.91.8,1.11,1.8.37,2.69.6c.39.1,1,.17.85.74s-.69.31-1.06.25c-1.42-.27-2.84-.56-4.25-.87-.62-.13-.74-.54-.29-1a.59.59,0,0,0,.18-.39c.1-1,.19-2.06.3-3.09,0-.24,0-.38-.24-.48a.38.38,0,0,1-.26-.4c0-.21.22-.29.4-.35.53-.16,1.09-.09,1.61-.2s1-.22,1.52-.29l.34-.05c.36,0,.81-.1.89.35s-.4.52-.74.6c-.69.17-1.39.31-2.09.43s-.4.6-.44.94.33.25.53.28.68,0,1,.06.57.07.57.43-.32.38-.58.41A3.6,3.6,0,0,1,26.2,28.21Z"/><path class="cls-1" d="M16.13,29.28c0,.58,0,1.16,0,1.74,0,.42-.14.79-.63.85s-.73-.27-.75-.81q0-1.77,0-3.54c0-.43.22-.86.73-.83s.65.44.65.9Z"/><path class="cls-1" d="M15.5,24.55a.63.63,0,0,1,.63.72.65.65,0,0,1-.66.68.7.7,0,1,1,0-1.4Z"/></g></g></svg>