<svg xmlns="http://www.w3.org/2000/svg" viewBox="0 0 116.69 94.03"><defs><style>.cls-1{fill:#9797f7;}.cls-2{fill:#7777e8;}.cls-3,.cls-4,.cls-6{fill:none;stroke-linecap:round;}.cls-3,.cls-6{stroke:#7777e8;stroke-linejoin:round;}.cls-3,.cls-4{stroke-width:0.65px;}.cls-4{stroke:#2f2e65;stroke-miterlimit:10;}.cls-5{fill:#2f2e65;}.cls-7{font-size:9.64px;fill:#fff;font-family:Arial-BoldMT, Arial;font-weight:700;}</style></defs><title>zona-deportiva</title><g id="Capa_2" data-name="Capa 2"><g id="Capa_4" data-name="Capa 4"><rect class="cls-1" x="58.38" y="44.76" width="27.81" height="47.87" transform="translate(-25.82 86.57) rotate(-53.87)"/><rect class="cls-1" x="10.93" y="25.42" width="34.95" height="56.54" rx="5.98" ry="5.98" transform="translate(37.12 -6.42) rotate(36.13)"/><rect class="cls-2" x="13.65" y="28.76" width="30.22" height="48.89" rx="5.98" ry="5.98" transform="translate(36.9 -6.72) rotate(36.13)"/><rect class="cls-1" x="15.63" y="31.28" width="26.75" height="43.29" rx="5.98" ry="5.98" transform="translate(36.79 -6.92) rotate(36.13)"/><rect class="cls-3" x="16.49" y="32.07" width="25.26" height="40.87" rx="5.98" ry="5.98" transform="translate(36.56 -7.07) rotate(36.13)"/><rect class="cls-3" x="32.13" y="35.53" width="13.94" height="7.79" rx="1.09" ry="1.09" transform="translate(30.77 -15.47) rotate(36.13)"/><rect class="cls-3" x="12.13" y="61.53" width="13.94" height="7.79" rx="1.09" ry="1.09" transform="translate(42.25 1.32) rotate(36.13)"/><rect class="cls-3" x="59.88" y="47.66" width="24.71" height="42.53" transform="translate(-26.03 86.62) rotate(-53.87)"/><rect class="cls-1" x="43.57" y="2.9" width="23.44" height="31.98" transform="translate(7.43 52.4) rotate(-53.87)"/><rect class="cls-1" x="74.62" y="18.02" width="33.1" height="44.85" rx="5.91" ry="5.91" transform="translate(4.74 90.23) rotate(-53.87)"/><polygon class="cls-3" points="63.55 69.01 82.31 45.55 82.1 52.84 63.55 75.48 63.55 69.01"/><line class="cls-4" x1="63.55" y1="80.33" x2="63.55" y2="68.04"/><line class="cls-4" x1="81.99" y1="58.02" x2="81.99" y2="45.73"/><path class="cls-5" d="M99.11,46.27,95.3,51.2a6.33,6.33,0,0,1-3,2.17,6,6,0,0,1-4.53-.15,5.5,5.5,0,0,1-3-3.15l-1.42-3.7C82.8,45,82.24,43.6,81.7,42.21c-.4-1-.79-2.09-1.22-3.12a7.65,7.65,0,0,1-.6-1.92A6.38,6.38,0,0,1,84.73,30a6.23,6.23,0,0,1,2.75,0c.52.12,1.06.15,1.59.22l2.47.31,3.61.44c1.27.15,2.53.33,3.8.45a5.84,5.84,0,0,1,2.3.72,5.62,5.62,0,0,1,2.6,3,6.16,6.16,0,0,1-.15,5,7.6,7.6,0,0,1-1,1.57C101.5,43.16,100.31,44.72,99.11,46.27Zm-6-4.88h0L94,40.23c.13-.16.11-.25-.06-.36l-2.84-1.81c-.16-.1-.17-.18-.05-.32.34-.42.67-.85,1-1.28.13-.18.2-.13.29,0a1.74,1.74,0,0,1,.22,1.42.22.22,0,0,0,.11.3l.51.3,2,1.25c.14.08.13.16,0,.29a7,7,0,0,0-.56.75c-.19.35-.16.6.12.8a.56.56,0,0,0,.8-.16c.47-.58.92-1.18,1.37-1.77a.3.3,0,0,0,0-.44c-.51-.64-1-1.26-1.51-1.94-.32-.48-.67-.94-1-1.4a7.18,7.18,0,0,1-1.1-1.75,2.63,2.63,0,0,0-.64-1,2.1,2.1,0,0,0-2.58.05l-.05,0a8.54,8.54,0,0,1-1.32,1.3,3,3,0,0,1-.62.46,2.7,2.7,0,0,0-.83.54,6.62,6.62,0,0,0-1.1,1.36,5.46,5.46,0,0,0-.52,1.22,5,5,0,0,1-.83,1.76c-.19.23-.27.53-.45.77a1.35,1.35,0,0,0-.13.62,1.81,1.81,0,0,0,1.59,2.11,6.8,6.8,0,0,1,1.17.26c.79.23,1.5.62,2.26.9s1.81.7,2.69,1.11a.34.34,0,0,0,.47-.08l1.38-1.8a.53.53,0,0,0,.14-.37.56.56,0,0,0-.36-.53A.58.58,0,0,0,93,43l-.6.77c-.07.09-.13.15-.24,0l-.43-.41L90,41.81a.31.31,0,0,0-.43-.05,1.66,1.66,0,0,1-1.41.09c-.13-.05-.17-.1-.08-.21l1.07-1.38c.07-.1.14-.09.22,0l1,.94,1.54,1.4c.14.12.22.1.33-.05C92.53,42.15,92.83,41.77,93.13,41.39ZM95.25,43c-.31.39-.62.79-.92,1.19a.68.68,0,0,0,0,1,.7.7,0,0,0,1-.16l1.86-2.41a.68.68,0,0,0,0-.9.64.64,0,0,0-1,.07Z"/><path class="cls-1" d="M93.13,41.39c-.3.38-.6.76-.89,1.15-.11.15-.19.17-.33.05l-1.54-1.4-1-.94c-.08-.08-.15-.09-.22,0l-1.07,1.38c-.09.11,0,.16.08.21a1.66,1.66,0,0,0,1.41-.09.31.31,0,0,1,.43.05l1.72,1.64.43.41c.11.1.17,0,.24,0L93,43a.58.58,0,0,1,.64-.2.56.56,0,0,1,.36.53.53.53,0,0,1-.14.37l-1.38,1.8a.34.34,0,0,1-.47.08c-.88-.41-1.78-.78-2.69-1.11s-1.47-.67-2.26-.9a6.8,6.8,0,0,0-1.17-.26,1.81,1.81,0,0,1-1.59-2.11,1.35,1.35,0,0,1,.13-.62c.18-.24.26-.54.45-.77a5,5,0,0,0,.83-1.76,5.46,5.46,0,0,1,.52-1.22,6.62,6.62,0,0,1,1.1-1.36,2.7,2.7,0,0,1,.83-.54,3,3,0,0,0,.62-.46,8.54,8.54,0,0,0,1.32-1.3l.05,0a2.1,2.1,0,0,1,2.58-.05,2.63,2.63,0,0,1,.64,1,7.18,7.18,0,0,0,1.1,1.75c.36.46.71.92,1,1.4.46.68,1,1.3,1.51,1.94a.3.3,0,0,1,0,.44c-.45.59-.9,1.19-1.37,1.77a.56.56,0,0,1-.8.16c-.28-.2-.31-.45-.12-.8a7,7,0,0,1,.56-.75c.09-.13.1-.21,0-.29l-2-1.25-.51-.3a.22.22,0,0,1-.11-.3,1.74,1.74,0,0,0-.22-1.42c-.09-.15-.16-.2-.29,0-.32.43-.65.86-1,1.28-.12.14-.11.22.05.32L94,39.87c.17.11.19.2.06.36l-.89,1.15Z"/><path class="cls-1" d="M95.25,43l1-1.25a.64.64,0,0,1,1-.07.68.68,0,0,1,0,.9L95.34,45a.7.7,0,0,1-1,.16.68.68,0,0,1,0-1C94.63,43.8,94.94,43.4,95.25,43Z"/><rect class="cls-5" x="68.81" y="19.85" width="4" height="11" transform="translate(28.57 -36.88) rotate(36.13)"/><rect class="cls-2" x="69.36" y="25.39" width="9.65" height="4.51" transform="translate(30.57 -38.43) rotate(36.13)"/><line class="cls-6" x1="38.81" y1="17.85" x2="60.81" y2="33.85"/><line class="cls-6" x1="40.81" y1="14.85" x2="62.81" y2="30.85"/><line class="cls-6" x1="42.81" y1="11.85" x2="64.81" y2="27.85"/><line class="cls-6" x1="44.81" y1="8.85" x2="66.81" y2="24.85"/><line class="cls-6" x1="46.81" y1="5.85" x2="68.81" y2="21.85"/><line class="cls-6" x1="48.81" y1="2.85" x2="70.81" y2="18.85"/><circle class="cls-3" cx="29.31" cy="53.35" r="3"/><line class="cls-3" x1="18.31" y1="45.35" x2="38.31" y2="60.35"/><text class="cls-7" transform="translate(51.45 62.63) rotate(-3.1)">Zona<tspan x="0" y="11.57">Deportiva</tspan></text></g></g></svg>