<svg xmlns="http://www.w3.org/2000/svg" viewBox="0 0 123 123"><defs><style>.cls-1{fill:#e6e6e6;stroke:#91075d;stroke-width:6px;}.cls-1,.cls-16,.cls-17{stroke-miterlimit:10;}.cls-2{fill:#bd1622;}.cls-3{fill:#fff;}.cls-4{fill:#e6e8cd;}.cls-5{fill:#5e66a7;}.cls-6{fill:#d48a3d;}.cls-7{fill:#ca8f89;}.cls-8{fill:#dccfd0;}.cls-9{fill:#4e3610;}.cls-10{fill:#7ebeea;}.cls-11{opacity:0.7;}.cls-12{fill:#ddf0f3;}.cls-13{fill:#363636;}.cls-14{fill:#bd9768;}.cls-15{fill:#f4d8ac;}.cls-16,.cls-17{fill:none;}.cls-16{stroke:#fff;stroke-width:0.32px;}.cls-17{stroke:#232046;stroke-width:0.34px;}.cls-18{fill:#2c285b;}.cls-19{fill:#deadab;}.cls-20{fill:#b3deb6;}.cls-21{fill:#a8a5c8;}.cls-22{fill:#302a7c;}.cls-23{fill:#151234;}.cls-24{fill:#e8f5ff;}.cls-25{fill:#eed08d;}</style></defs><title>Recurso 4</title><g id="Capa_2" data-name="Capa 2"><g id="Capa_1-2" data-name="Capa 1"><rect class="cls-1" x="3" y="3" width="117" height="117" rx="29.93" ry="29.93"/><rect class="cls-2" x="14" y="13" width="94" height="94" rx="24.05" ry="24.05"/><path class="cls-3" d="M79.49,31.59c-2.44,0-3.24,2.15-2.75,4.33.45,2,1.87,2.1,3.59,2.11,5.37,0,10.75,0,16.12,0a1,1,0,0,0,1-1V32.55a1,1,0,0,0-1-1h-17a1,1,0,0,0,0,1.92h17l-1-1v4.52l1-1H85.85a43.67,43.67,0,0,1-5.72,0c-.51-.07-.92.15-1.29-.21-.58-.57-.27-2.39.65-2.39A1,1,0,0,0,79.49,31.59Z"/><path class="cls-3" d="M79,37c-2.43,0-3.23,2.15-2.74,4.33.45,2,1.87,2.09,3.59,2.11,5.37,0,10.74,0,16.11,0a1,1,0,0,0,1-1V38a1,1,0,0,0-1-1H79a1,1,0,0,0,0,1.92h17l-1-1v4.52l1-1H85.31a43.52,43.52,0,0,1-5.71,0c-.51-.07-.93.16-1.3-.21-.57-.57-.26-2.38.65-2.38A1,1,0,0,0,79,37Z"/><path class="cls-3" d="M77.49,32.7H90.55c3.27,0,7.43.64,6.65-4.1-.55-3.33-5-2.34-7.48-2.34H77.49a1,1,0,0,0-1,1v4.52a1,1,0,0,0,1.93,0V27.22l-1,1H92.38c.76,0,2.35-.3,2.89.42a2.38,2.38,0,0,1-.4,2.17c-.21.16-1,0-1.26,0-1.94.13-3.94,0-5.89,0H77.49A1,1,0,0,0,77.49,32.7Z"/><path class="cls-3" d="M99,25.27c0-2,.2-3.86-2.22-4.33a23.64,23.64,0,0,0-4.29,0H79.26a1,1,0,0,0-1,1v4.52a1,1,0,0,0,1,1h11c2.41,0,7.38,1.08,8.61-1.62.51-1.12-1.15-2.1-1.66-1-.77,1.67-7.55.67-9.17.67H79.26l1,1V21.9l-1,1H89.38c1.93,0,3.94-.16,5.87,0C97,23,97,23.32,97,25.27A1,1,0,0,0,99,25.27Z"/><path class="cls-4" d="M77.89,34v1.55A1.54,1.54,0,0,0,79.48,37l16.59.07s-2.06-1.79,0-4.52H79.49A1.53,1.53,0,0,0,77.89,34Z"/><path class="cls-5" d="M96.45,32.15H83.72c-2.72,0-6.41-1-6.42,2.66s3.7,2.66,6.42,2.66H96.45a.4.4,0,0,0,0-.8H87.33c-2.17,0-9.22,1.33-9.22-1.86S84.82,33,87,33h9.49a.4.4,0,0,0,0-.8Z"/><path class="cls-4" d="M77.36,39.4v1.54a1.52,1.52,0,0,0,1.58,1.45l16.6.08s-2.06-1.79,0-4.52H79A1.52,1.52,0,0,0,77.36,39.4Z"/><path class="cls-6" d="M95.91,37.55H83.19c-2.72,0-6.42-1-6.42,2.66s3.7,2.66,6.42,2.66H95.91a.41.41,0,0,0,0-.81H86.8c-2.17,0-9.23,1.33-9.23-1.85s6.71-1.86,8.86-1.86h9.48a.4.4,0,0,0,0-.8Z"/><path class="cls-4" d="M96.05,28.67v1.54a1.52,1.52,0,0,1-1.59,1.45l-16.59.08s2.06-1.79,0-4.52H94.46A1.52,1.52,0,0,1,96.05,28.67Z"/><path class="cls-7" d="M77.49,27.62h9.12c2.17,0,9.23-1.33,9.23,1.86S89.13,31.33,87,31.33H77.49a.41.41,0,0,0,0,.81H90.22c2.72,0,6.42,1,6.42-2.66s-3.7-2.66-6.42-2.66H77.49a.4.4,0,0,0,0,.8Z"/><path class="cls-4" d="M97.81,23.35V24.9a1.53,1.53,0,0,1-1.58,1.45l-16.6.07s2.06-1.79,0-4.52H96.22A1.52,1.52,0,0,1,97.81,23.35Z"/><path class="cls-6" d="M79.26,22.3h9.11c2.17,0,9.23-1.32,9.23,1.86S90.89,26,88.75,26H79.26a.4.4,0,0,0,0,.8H92c2.72,0,6.42,1,6.42-2.66S94.7,21.5,92,21.5H79.26a.4.4,0,0,0,0,.8Z"/><path class="cls-3" d="M37.62,18.5l-.12-.63a1,1,0,0,0-1.18-.67l-1.2.22a1,1,0,0,0-.67,1.19q.13.93.6-.42a1,1,0,0,0-.58,1.41L35,20.71a1,1,0,0,0,1.09.44c-1,.39-.65-.74-1.36-.67-.26,0-.31.55-.44.57a17.13,17.13,0,0,0-3.72,1.83,16.13,16.13,0,0,0-7,11.32C22.15,45.07,31.68,52.94,42,51.93l-.49-1.79-.18.09a1,1,0,0,0-.45,1.09c.13.72-7.37,1.42-8.65,2.55a1,1,0,0,0,.68,1.65L47.23,56a1,1,0,0,0,.83-1.45c-1.6-2.08-2.87-1.91-4.87-3.18L43,53.14a25.88,25.88,0,0,0,10.22-4.68,20.5,20.5,0,0,0,5.32-6c1.15-2,1.35-5.51,2.55-7.21-.81-.19-.93-.26-.35-.22l1.18,0c1.16-.06,2.35,0,3.51.08a34.84,34.84,0,0,0,4.21.08c2.94-.33,5-3.58,2.87-6.32-1.76-2.28-5.26-.89-7.61-.55-.62.09-4.41,1.17-5,.71.92.74-.14-2.61-.33-2.92a9.34,9.34,0,0,0-.58-.82c-5.11-7.08-14.39-9.15-22.54-7.52-1.22.24-.7,2.1.51,1.86C45.37,18,56.57,21.09,59.1,30.3a1,1,0,0,0,1.18.67l5.09-.73c2.53-.37,4.16-1.67,4.2,1.24S68,33.29,65.39,33.24l-5.15-.1a1,1,0,0,0-1,1c-1.15,9-8.21,15.36-16.83,17.19a1,1,0,0,0-.23,1.76c1.36.85,3.17,1.18,4.18,2.48l.83-1.45L32.9,53.59l.68,1.64c2.06-1.82,5.48-.26,7.78-1.33a2.84,2.84,0,0,0,1.31-1.12c.65-.89.48-1.33-.2-1A1,1,0,0,0,42,50c-7.2.71-14.58-3-16.27-10.54s2.66-14.25,9.71-16.8a1,1,0,0,0,.7-.93c0-.25-.24.29.48-.13a1,1,0,0,0,.44-1.08l-.19-.6a1,1,0,0,0-1.18-.67c.77.15.93-.05.45-.62l-.57,1.42.28-.08a1,1,0,0,0,.68-1.19c-.07-.21-.74.31-.75.23C36,20.23,37.85,19.71,37.62,18.5Z"/><path class="cls-3" d="M56,38.19c-2,6.09-7.11,11.25-13.65,12.17a1,1,0,0,0-.71.93l0,.75,1.89-.26c.1.31,5.9-3,6.25-3.28a15.84,15.84,0,0,0,4.32-5.33c.89-1.77,1-3.61,1.64-5.43.49-1.48.75-2.47,2.15-2.74a1,1,0,0,0,.43-1.6l0,0L57.58,35h.06l-1-1A19.44,19.44,0,0,1,56,38.19a1,1,0,0,0,1.86.51,22.2,22.2,0,0,0,.74-4.65,1,1,0,0,0-1-1h-.06a1,1,0,0,0-.68,1.65l0,0,.42-1.61a2.72,2.72,0,0,1-1.33,0,1,1,0,0,0-.93.71C53.62,41.23,50.16,48.06,42.21,50a1,1,0,0,0-.7.93,5.15,5.15,0,0,0,.13,1.42A1,1,0,0,0,43.53,52c.09-.55,0-.51-.25.12.32,0,.63-.12.94-.19a8.06,8.06,0,0,0,2.22-.74,19.78,19.78,0,0,0,4.37-2.46A20,20,0,0,0,57.87,38.7C58.26,37.52,56.4,37,56,38.19Z"/><path class="cls-3" d="M57.23,29.43c-1,0-1.73-2.77-2.51-3.71a9.25,9.25,0,0,0-4.89-3.08c-3.9-1.06-7.44-2.9-11.66-2.46l1,1,0-.55a1,1,0,0,0-1-1c-1.4-.09-.3.43-.38,0l-.67,1.18C45,18.89,54,22.7,56.31,30.65a1,1,0,0,0,1.85-.51C55.52,21.16,45.5,16.77,36.65,19A1,1,0,0,0,36,20.13l.13.66a1,1,0,0,0,.92.7l1.19.07-1-1,0,.55a1,1,0,0,0,1,1c3.62-.38,5.89,1,9.13,2.14,1.33.45,2.44.17,3.8.9A8.37,8.37,0,0,1,55,30.76a1,1,0,0,0,.92.71,7.21,7.21,0,0,1,1.3-.11C58.47,31.31,58.47,29.38,57.23,29.43Z"/><path class="cls-8" d="M41.8,51.06s.41,1.54-.49,1.86-7.08.46-7.74,1l-.67.59,14.33.5s-1.75-2.38-2.64-2.18-2.1-.63-2.08-1a10.15,10.15,0,0,0-.06-1.13Z"/><polygon class="cls-8" points="35.38 18.35 36.58 18.13 37.02 20.53 38.21 20.6 38.15 21.49 35.14 22.2 35.2 21.31 36.12 20.77 35.38 18.35"/><path class="cls-9" d="M39.8,21.05l1.55.09.24.05a14.76,14.76,0,0,1,4.64,1.36,15.08,15.08,0,0,1,7,6.87,14.2,14.2,0,0,1,1.51,5.37c0,.47.05.94.08,1.41l-.1,1.54c0,.08,0,.16-.05.24a14.54,14.54,0,0,1-.81,3.26,15,15,0,0,1-5.66,7.21,15.15,15.15,0,0,1-11.69,2.41,15.16,15.16,0,0,1-11-8.91,14.83,14.83,0,0,1,.72-13,15.29,15.29,0,0,1,6-6,15,15,0,0,1,6.1-1.82C38.84,21.09,39.32,21.07,39.8,21.05Zm-6.59,5.2a4.41,4.41,0,0,0,.29-.4.3.3,0,0,0,0-.22s-.12-.06-.18-.08-.19,0-.24-.09a4.39,4.39,0,0,1-.27-.47.18.18,0,0,1,0-.16c.24-.21.42-.51.79-.52a.1.1,0,0,0,.08-.06c.11-.18.28-.34.21-.6s0-.32.23-.36.18-.09.28-.11a.45.45,0,0,0,.38-.53c0-.24-.11-.33-.33-.25a14.72,14.72,0,0,0-6.81,5,14.22,14.22,0,0,0-2.88,10.09A14,14,0,0,0,27.1,44a14.57,14.57,0,0,0,7.49,5.87,13.6,13.6,0,0,0,3.51.77c.8.07,1.6.06,2.37.08.06-.33.31-.56.21-.81s-.36-.16-.45-.28a6,6,0,0,0-1.52-1.5.74.74,0,0,1-.41-.84.81.81,0,0,1,.56-.7.51.51,0,0,0,.43-.53c0-.22,0-.44,0-.7a4,4,0,0,0-.5,0,1.37,1.37,0,0,1-.78-.15,3.82,3.82,0,0,0-.46-.21.41.41,0,0,1-.26-.27,2.18,2.18,0,0,0-.28-.62,2.62,2.62,0,0,0-1-.79l-1.26-.55a2.14,2.14,0,0,1-.89-.59,2.06,2.06,0,0,0-.77-.63c-.22-.08-.29-.29-.38-.47s0-.22.07-.33a.32.32,0,0,0,0-.14,4,4,0,0,0-.2-.67,5.28,5.28,0,0,1-.41-1.39,4.05,4.05,0,0,0-.12-.47l-.1,0-.08,0c.12.59,0,1.23.5,1.72a.93.93,0,0,1-.69-.66c-.2-.75-.37-1.5-.54-2.25a1.59,1.59,0,0,1-.05-.53c.05-.41.13-.81.19-1.22a4,4,0,0,1,.94-1.92c.18-.21.33-.38.22-.67a.48.48,0,0,1,0-.17,4.67,4.67,0,0,1,.33-1.6,3,3,0,0,0,.32-1.39c0-.34-.09-.67-.46-.83s-.64-.32-1-.46-.27-.31-.31-.54c.45.31.45.31.63.31.08-.17.16-.35.25-.52a.58.58,0,0,1,.78-.33.28.28,0,0,0,.39-.18c.12-.28.22-.31.53-.24a.66.66,0,0,0,.24,0,3.32,3.32,0,0,1,.63,0,.32.32,0,0,1,.3.34c0,.2,0,.41,0,.62a.65.65,0,0,0,.08.27,10.08,10.08,0,0,0,1.86,1.89c.09-.2.11-.35-.07-.46a.46.46,0,0,1-.24-.41.47.47,0,0,0-.11-.21c-.06-.08-.14-.14-.21-.22a1.77,1.77,0,0,1,.23-.19.49.49,0,0,1,.65.13c.06.1.11.22.21.27a.58.58,0,0,1,.33.47c0,.18,0,.37,0,.56A1.61,1.61,0,0,0,38,30c.39-.12.29-.45.42-.67h.28a2.69,2.69,0,0,1,0,.48c0,.27.15.33.33.36a1,1,0,0,0,.33-.05l-.57-.72a1.11,1.11,0,0,0,.18-.12.35.35,0,0,1,.48-.09c.31.17.63.35,1,.51a.85.85,0,0,1,.43.5.64.64,0,0,0,.29.35,1,1,0,0,1,.57.63l-.3.61s-.07.11-.1.11a1.79,1.79,0,0,1-.46,0c-.18-.05-.34-.15-.52-.21s-.35-.1-.59-.16c.35-.2.64-.39.56-.8s-.47-.44-.83-.59l.27.33c-.13.12-.24.25-.38.36s-.57.42-.84.65a1.47,1.47,0,0,0-.58,1.1.48.48,0,0,0,.37.56c.19.06.38.15.58.22a.22.22,0,0,1,.17.26,1.12,1.12,0,0,0,.47.91l.35-1.3A.61.61,0,0,1,39.8,33c0-.33,0-.67,0-1a.18.18,0,0,1,.11-.13.35.35,0,0,1,.39,0c.23.16.56.18.71.45a.55.55,0,0,0,.46.3.9.9,0,0,1,.44.11,3.89,3.89,0,0,1,1.12,1.13.6.6,0,0,1,.05.69c-.14.21-.37.21-.57.27s-.5.13-.73.23a2.3,2.3,0,0,0-.42.35l.07.08.48-.28a.3.3,0,0,1,.42.14c0,.27.08.3.36.27s.34,0,.37.3l-1,.59c-.29-.16-.36-.13-.6.17s-.21.55-.55.62c0,0,0,.05-.05.07a2.12,2.12,0,0,0-.51,1.22.38.38,0,0,1-.19.35,5.27,5.27,0,0,0-.6.41,1.91,1.91,0,0,0-.43.47.8.8,0,0,0,0,.74,3,3,0,0,1,.13.59c-.33.14-.33.14-.49-.13s-.2-.32-.29-.48a1.14,1.14,0,0,0-1.23-.41,1.06,1.06,0,0,1-.47,0c-.17,0-.32-.16-.48-.16a1.07,1.07,0,0,0-.68.12,1.25,1.25,0,0,0-.57,1c0,.22-.05.5.06.65a1.29,1.29,0,0,0,.81.59.51.51,0,0,0,.41-.13.75.75,0,0,1,.56-.31c.16,0,.39.22.35.38a4.57,4.57,0,0,1-.22.62c-.1.22-.05.32.18.35a5,5,0,0,1,.77.17c.35.12.43.3.34.65a1.48,1.48,0,0,0-.1.27.51.51,0,0,0,0,.33c.12.14.28.33.45.36.43.09.92.34,1.3-.15a.45.45,0,0,1,.13-.1.85.85,0,0,1,1-.11.54.54,0,0,0,.61,0,.45.45,0,0,1,.26,0,4.71,4.71,0,0,0,1.35-.06.55.55,0,0,1,.31,0c.29.11.55.26.84.36a4.38,4.38,0,0,0,1.48.2.42.42,0,0,1,.27.14c.15.17.28.36.43.54a.3.3,0,0,0,.2.1,7.61,7.61,0,0,0,2-.33.53.53,0,0,1,.37,0,1.91,1.91,0,0,1,.36.3c-.23.29-.45.58-.68.86a1.82,1.82,0,0,0-.39,1,14.87,14.87,0,0,0,3.73-4,13.52,13.52,0,0,0,2-5.09.5.5,0,0,0-.23.16c-.16.21-.31.43-.48.64a.24.24,0,0,1-.15.09,1.29,1.29,0,0,1-1-.85,5.66,5.66,0,0,1-.52-3.19A2.47,2.47,0,0,0,51.51,34c0-.06,0-.14,0-.2a.78.78,0,0,1,.13-.83.67.67,0,0,0,.08-.56,4.41,4.41,0,0,0-.17.52c0,.18-.18.25-.3.35s-.29,0-.42-.09a.91.91,0,0,1-.19-.13.32.32,0,0,1-.1-.21.41.41,0,0,0-.16-.34.47.47,0,0,1,0-.73c.27-.26.22-.53-.13-.64-.12,0-.26-.05-.38-.08a.44.44,0,0,1-.18-.12c-.16-.2-.07-.42,0-.64a1.29,1.29,0,0,0-.47-1.09.67.67,0,0,1-.26-.45c0-.12,0-.24,0-.37a1.59,1.59,0,0,0-.19-.73,1.61,1.61,0,0,1-.37-.89.21.21,0,0,0-.11-.15l-.76-.44c-.1-.07-.16-.08-.22,0l.17.24-.31.23c.62.19.85.85,1.47,1.07-.31.14-.63.17-.69.51a1.93,1.93,0,0,1-.33-.09,1.11,1.11,0,0,1-.76-.62,1.37,1.37,0,0,0-.61-.69c-.27-.14-.52-.32-.79-.46s-.38-.42-.53-.64a1.85,1.85,0,0,1,1.12-.34c0-.22-.07-.35-.29-.35-.17.26-.41.09-.64.13l.08-.32a2.36,2.36,0,0,1-.33-.25,5.55,5.55,0,0,0-.42-.42l-.91-.7c-.26-.19-.26-.19-.48,0a.63.63,0,0,1-.63.11,1.53,1.53,0,0,0-1.32,0,.63.63,0,0,1-.27.06,5.21,5.21,0,0,1-.88-.06c-.26,0-.56-.09-.53-.47-.28,0-.55-.13-.77.11,0,0-.13,0-.2,0l-1,.08c0,.21,0,.39-.19.43a2.9,2.9,0,0,1-.59.09c-.26,0-.34.12-.32.37,0,.05-.05.14-.09.15a2.83,2.83,0,0,1-.56.13c-.39,0-.39,0-.43.42a.48.48,0,0,1-.07.21l-.9.74A1.16,1.16,0,0,1,33.21,26.25ZM51.6,29.58c-.08.3-.08.3-.35.29l-.32,0c0,.14,0,.25,0,.36a2.51,2.51,0,0,1,.1.44,1.15,1.15,0,0,0,.18.75c.07.11.1.23.17.34a3.19,3.19,0,0,0,.26.38l.06,0a2.51,2.51,0,0,0,0-.27c0-.26,0-.52.05-.77.06-.51.06-.51.56-.39a1,1,0,0,0-.19-.86,4.6,4.6,0,0,1-.32-.53c.23,0,.35-.05.35-.18a1.71,1.71,0,0,0-.1-.75,8.36,8.36,0,0,0-.65-1,2.42,2.42,0,0,1,0,.4.78.78,0,0,0,.37.93s.07.17.06.24a.28.28,0,0,1-.14.2,2.84,2.84,0,0,1-.42.05l-.34.09Z"/><path class="cls-10" d="M33.21,26.25a1.16,1.16,0,0,0,.95-.37l.9-.74a.48.48,0,0,0,.07-.21c0-.39,0-.38.43-.42a2.83,2.83,0,0,0,.56-.13s.09-.1.09-.15c0-.25.06-.34.32-.37a2.9,2.9,0,0,0,.59-.09c.21,0,.21-.22.19-.43l1-.08c.07,0,.17,0,.2,0,.22-.24.49-.12.77-.11,0,.38.27.43.53.47a5.21,5.21,0,0,0,.88.06.63.63,0,0,0,.27-.06,1.53,1.53,0,0,1,1.32,0,.63.63,0,0,0,.63-.11c.22-.22.22-.22.48,0l.91.7a5.55,5.55,0,0,1,.42.42,2.36,2.36,0,0,0,.33.25l-.08.32c.23,0,.47.13.64-.13.22,0,.3.13.29.35a1.85,1.85,0,0,0-1.12.34c.15.22.24.5.53.64s.52.32.79.46a1.37,1.37,0,0,1,.61.69,1.11,1.11,0,0,0,.76.62,1.93,1.93,0,0,0,.33.09c.06-.34.38-.37.69-.51-.62-.22-.85-.88-1.47-1.07l.31-.23-.17-.24c.06-.12.12-.11.22,0l.76.44a.21.21,0,0,1,.11.15,1.61,1.61,0,0,0,.37.89,1.59,1.59,0,0,1,.19.73c0,.13,0,.25,0,.37a.67.67,0,0,0,.26.45,1.29,1.29,0,0,1,.47,1.09c0,.22-.11.44,0,.64a.44.44,0,0,0,.18.12c.12,0,.26,0,.38.08.35.11.4.38.13.64a.47.47,0,0,0,0,.73.41.41,0,0,1,.16.34.32.32,0,0,0,.1.21.91.91,0,0,0,.19.13c.13.07.23.27.42.09s.26-.17.3-.35a4.41,4.41,0,0,1,.17-.52.67.67,0,0,1-.08.56.78.78,0,0,0-.13.83c0,.06,0,.14,0,.2a2.47,2.47,0,0,1,.19,1.56,5.66,5.66,0,0,0,.52,3.19,1.29,1.29,0,0,0,1,.85.24.24,0,0,0,.15-.09c.17-.21.32-.43.48-.64a.5.5,0,0,1,.23-.16,13.52,13.52,0,0,1-2,5.09,14.87,14.87,0,0,1-3.73,4,1.82,1.82,0,0,1,.39-1c.23-.28.45-.57.68-.86a1.91,1.91,0,0,0-.36-.3.53.53,0,0,0-.37,0,7.61,7.61,0,0,1-2,.33.3.3,0,0,1-.2-.1c-.15-.18-.28-.37-.43-.54a.42.42,0,0,0-.27-.14,4.38,4.38,0,0,1-1.48-.2c-.29-.1-.55-.25-.84-.36a.55.55,0,0,0-.31,0,4.71,4.71,0,0,1-1.35.06.45.45,0,0,0-.26,0,.54.54,0,0,1-.61,0,.85.85,0,0,0-1,.11.45.45,0,0,0-.13.1c-.38.49-.87.24-1.3.15-.17,0-.33-.22-.45-.36a.51.51,0,0,1,0-.33,1.48,1.48,0,0,1,.1-.27c.09-.35,0-.53-.34-.65a5,5,0,0,0-.77-.17c-.23,0-.28-.13-.18-.35a4.57,4.57,0,0,0,.22-.62c0-.16-.19-.42-.35-.38a.75.75,0,0,0-.56.31.51.51,0,0,1-.41.13,1.29,1.29,0,0,1-.81-.59c-.11-.15-.06-.43-.06-.65a1.25,1.25,0,0,1,.57-1,1.07,1.07,0,0,1,.68-.12c.16,0,.31.13.48.16a1.06,1.06,0,0,0,.47,0,1.14,1.14,0,0,1,1.23.41c.09.16.19.32.29.48s.16.27.49.13a3,3,0,0,0-.13-.59.8.8,0,0,1,0-.74,1.91,1.91,0,0,1,.43-.47,5.27,5.27,0,0,1,.6-.41.38.38,0,0,0,.19-.35,2.12,2.12,0,0,1,.51-1.22s0-.06.05-.07c.34-.07.38-.41.55-.62s.31-.33.6-.17l1-.59c0-.32,0-.33-.37-.3s-.31,0-.36-.27a.3.3,0,0,0-.42-.14l-.48.28-.07-.08A2.3,2.3,0,0,1,41.8,35c.23-.1.48-.15.73-.23s.43-.06.57-.27a.6.6,0,0,0-.05-.69,3.89,3.89,0,0,0-1.12-1.13.9.9,0,0,0-.44-.11.55.55,0,0,1-.46-.3c-.15-.27-.48-.29-.71-.45a.35.35,0,0,0-.39,0,.18.18,0,0,0-.11.13c0,.33,0,.67,0,1a.61.61,0,0,0,.12.23l-.35,1.3a1.12,1.12,0,0,1-.47-.91.22.22,0,0,0-.17-.26c-.2-.07-.39-.16-.58-.22a.48.48,0,0,1-.37-.56,1.47,1.47,0,0,1,.58-1.1c.27-.23.57-.43.84-.65s.25-.24.38-.36l-.27-.33c.36.15.75.16.83.59s-.21.6-.56.8c.24.06.42.1.59.16s.34.16.52.21a1.79,1.79,0,0,0,.46,0s.08-.06.1-.11l.3-.61a1,1,0,0,0-.57-.63.64.64,0,0,1-.29-.35.85.85,0,0,0-.43-.5c-.32-.16-.64-.34-1-.51a.35.35,0,0,0-.48.09,1.11,1.11,0,0,1-.18.12l.57.72a1,1,0,0,1-.33.05c-.18,0-.36-.09-.33-.36a2.69,2.69,0,0,0,0-.48h-.28c-.13.22,0,.55-.42.67a1.61,1.61,0,0,1-.09-.29c0-.19,0-.38,0-.56a.58.58,0,0,0-.33-.47c-.1-.05-.15-.17-.21-.27a.49.49,0,0,0-.65-.13,1.77,1.77,0,0,0-.23.19c.07.08.15.14.21.22a.47.47,0,0,1,.11.21.46.46,0,0,0,.24.41c.18.11.16.26.07.46a10.08,10.08,0,0,1-1.86-1.89.65.65,0,0,1-.08-.27c0-.21,0-.42,0-.62a.32.32,0,0,0-.3-.34,3.32,3.32,0,0,0-.63,0,.66.66,0,0,1-.24,0c-.31-.07-.41,0-.53.24a.28.28,0,0,1-.39.18.58.58,0,0,0-.78.33c-.09.17-.17.35-.25.52-.18,0-.18,0-.63-.31,0,.23.05.44.31.54s.63.32,1,.46.43.49.46.83a3,3,0,0,1-.32,1.39,4.67,4.67,0,0,0-.33,1.6.48.48,0,0,0,0,.17c.11.29,0,.46-.22.67a4,4,0,0,0-.94,1.92c-.06.41-.14.81-.19,1.22a1.59,1.59,0,0,0,.05.53c.17.75.34,1.5.54,2.25a.93.93,0,0,0,.69.66c-.46-.49-.38-1.13-.5-1.72l.08,0,.1,0a4.05,4.05,0,0,1,.12.47,5.28,5.28,0,0,0,.41,1.39,4,4,0,0,1,.2.67.32.32,0,0,1,0,.14c0,.11-.1.25-.07.33s.16.39.38.47a2.06,2.06,0,0,1,.77.63,2.14,2.14,0,0,0,.89.59l1.26.55a2.62,2.62,0,0,1,1,.79,2.18,2.18,0,0,1,.28.62.41.41,0,0,0,.26.27,3.82,3.82,0,0,1,.46.21,1.37,1.37,0,0,0,.78.15,4,4,0,0,1,.5,0c0,.26,0,.48,0,.7a.51.51,0,0,1-.43.53.81.81,0,0,0-.56.7.74.74,0,0,0,.41.84,6,6,0,0,1,1.52,1.5c.09.12.27.17.45.28s-.15.48-.21.81c-.77,0-1.57,0-2.37-.08a13.6,13.6,0,0,1-3.51-.77A14.57,14.57,0,0,1,27.1,44a14,14,0,0,1-2.27-6.5,14.22,14.22,0,0,1,2.88-10.09,14.72,14.72,0,0,1,6.81-5c.22-.08.32,0,.33.25a.45.45,0,0,1-.38.53c-.1,0-.18.09-.28.11s-.29.16-.23.36-.1.42-.21.6a.1.1,0,0,1-.08.06c-.37,0-.55.31-.79.52a.18.18,0,0,0,0,.16,4.39,4.39,0,0,0,.27.47c0,.05.16.06.24.09s.17,0,.18.08a.3.3,0,0,1,0,.22A4.41,4.41,0,0,1,33.21,26.25Zm6.23,1.05c.17.26,0,.47-.09.68a.26.26,0,0,0,0,.34l.57.58c.2-.34.17-.72.5-.94,0,.08.05.14.06.2a.94.94,0,0,0,.5.69,6.35,6.35,0,0,1,1.14.93.71.71,0,0,1,.24.53,1.14,1.14,0,0,0,0,.41.49.49,0,0,0,.15.26c.13.09.24.16.23.34a.2.2,0,0,0,.08.14l.58.4a.25.25,0,0,0,.16.05l1.16-.29a4,4,0,0,0-.5-.26.55.55,0,0,1-.27-.45c0-.39.1-.79.14-1.18a.55.55,0,0,1,.21-.39.44.44,0,0,0,.19-.22.71.71,0,0,0-.2-.75,3.92,3.92,0,0,0-1.18-.92,2.79,2.79,0,0,1-.72-.39,1.25,1.25,0,0,0-1-.19.9.9,0,0,0-.71.36c0,.07-.19.08-.31.12l0-.24A1.24,1.24,0,0,0,39.44,27.3Zm8.1,1.42c.15.46.31.89.44,1.33a.84.84,0,0,0,.81.53l-.5-.69.05,0,.47.26.51.24c0-.19.06-.33.08-.48a.29.29,0,0,0-.17-.35c-.23-.12-.47-.23-.7-.37A2,2,0,0,1,48,28.8C47.83,28.61,47.69,28.61,47.54,28.72Zm-2.6.43c0,.38,0,.78.53.9a1.55,1.55,0,0,0,.62-.91.3.3,0,0,0,0-.16.53.53,0,0,0-.78-.12A4.65,4.65,0,0,1,44.94,29.15ZM40.5,42.56A3.08,3.08,0,0,0,40,42.3c-.47-.14-1-.25-1.42-.41a.72.72,0,0,0-.63.1l.23.06a2.87,2.87,0,0,1,1.5.71c.18.17.4.06.6,0S40.41,42.66,40.5,42.56Zm3.83-7.11a3.31,3.31,0,0,0-1.06-1.19.68.68,0,0,0,0,.76A.85.85,0,0,0,44.33,35.45Zm-2.4,7.68-.31-.21s-.09-.05-.09-.07c0-.28-.22-.24-.4-.24s-.27,0-.41.06-.17,0-.19.14,0,.16.13.22A1.88,1.88,0,0,0,41.93,43.13Z"/><path class="cls-10" d="M51.6,29.58,51,29.27l.34-.09a2.84,2.84,0,0,0,.42-.05.28.28,0,0,0,.14-.2c0-.07,0-.21-.06-.24a.78.78,0,0,1-.37-.93,2.42,2.42,0,0,0,0-.4,8.36,8.36,0,0,1,.65,1,1.71,1.71,0,0,1,.1.75c0,.13-.12.23-.35.18a4.6,4.6,0,0,0,.32.53,1,1,0,0,1,.19.86c-.5-.12-.5-.12-.56.39,0,.25,0,.51-.05.77a2.51,2.51,0,0,1,0,.27l-.06,0a3.19,3.19,0,0,1-.26-.38c-.07-.11-.1-.23-.17-.34a1.15,1.15,0,0,1-.18-.75,2.51,2.51,0,0,0-.1-.44c0-.11,0-.22,0-.36l.32,0C51.52,29.88,51.52,29.88,51.6,29.58Z"/><path class="cls-9" d="M39.44,27.3a1.24,1.24,0,0,1,1-.19l0,.24c.12,0,.26-.05.31-.12a.9.9,0,0,1,.71-.36,1.25,1.25,0,0,1,1,.19,2.79,2.79,0,0,0,.72.39,3.92,3.92,0,0,1,1.18.92.71.71,0,0,1,.2.75.44.44,0,0,1-.19.22.55.55,0,0,0-.21.39c0,.39-.09.79-.14,1.18a.55.55,0,0,0,.27.45,4,4,0,0,1,.5.26l-1.16.29a.25.25,0,0,1-.16-.05l-.58-.4a.2.2,0,0,1-.08-.14c0-.18-.1-.25-.23-.34a.49.49,0,0,1-.15-.26,1.14,1.14,0,0,1,0-.41.71.71,0,0,0-.24-.53A6.35,6.35,0,0,0,41,28.85a.94.94,0,0,1-.5-.69c0-.06,0-.12-.06-.2-.33.22-.3.6-.5.94l-.57-.58a.26.26,0,0,1,0-.34C39.46,27.77,39.61,27.56,39.44,27.3Z"/><path class="cls-9" d="M47.54,28.72c.15-.11.29-.11.45.08a2,2,0,0,0,.54.36c.23.14.47.25.7.37a.29.29,0,0,1,.17.35c0,.15,0,.29-.08.48l-.51-.24-.47-.26-.05,0,.5.69a.84.84,0,0,1-.81-.53C47.85,29.61,47.69,29.18,47.54,28.72Z"/><path class="cls-9" d="M44.94,29.15a4.65,4.65,0,0,0,.38-.29.53.53,0,0,1,.78.12.3.3,0,0,1,0,.16,1.55,1.55,0,0,1-.62.91C45,29.93,44.94,29.53,44.94,29.15Z"/><path class="cls-9" d="M40.5,42.56c-.09.1-.16.23-.23.24s-.42.13-.6,0a2.87,2.87,0,0,0-1.5-.71L37.94,42a.72.72,0,0,1,.63-.1c.47.16,1,.27,1.42.41A3.08,3.08,0,0,1,40.5,42.56Z"/><path class="cls-9" d="M44.33,35.45a.85.85,0,0,1-1-.43.68.68,0,0,1,0-.76A3.31,3.31,0,0,1,44.33,35.45Z"/><path class="cls-9" d="M41.93,43.13a1.88,1.88,0,0,1-1.27-.1c-.1-.06-.14-.11-.13-.22s.09-.14.19-.14.27-.05.41-.06.38,0,.4.24c0,0,.06,0,.09.07Z"/><path class="cls-9" d="M42.61,51.29l0,1S53.79,50.3,58.3,40.79s0-14.79,0-14.79-7.88-11.22-23-6.88l.51,1.1s9-3.74,18.28,4.21a14.24,14.24,0,0,1,2.85,14A18.3,18.3,0,0,1,42.61,51.29Z"/><g class="cls-11"><ellipse class="cls-12" cx="47.48" cy="33.01" rx="8.37" ry="7.91" transform="translate(-7.99 49.33) rotate(-51.2)"/></g><path class="cls-13" d="M53.16,38.38a2.69,2.69,0,0,0,.16-.29,10.77,10.77,0,0,0-.07-10.17s-3.73-7-10.29-3A10.75,10.75,0,0,0,39,34.3a8.84,8.84,0,0,0,2.81,6A7.34,7.34,0,0,0,53.16,38.38Zm-13.1-4.25a9.15,9.15,0,0,1,3.35-8c5.6-3.37,8.77,2.55,8.77,2.55a9.17,9.17,0,0,1,.06,8.67A6.76,6.76,0,0,1,49,40.54,5.74,5.74,0,0,1,43.35,40,7.55,7.55,0,0,1,40.06,34.13Z"/><path d="M46.85,23.84c4.52.27,7.94,4.64,7.63,9.75a9.32,9.32,0,0,1-5.68,8.3c3.89-.53,7-4.15,7.32-8.71.31-5.12-3.11-9.49-7.64-9.76a7.39,7.39,0,0,0-3.07.48A6.89,6.89,0,0,1,46.85,23.84Z"/><path d="M46.24,41.07a6.09,6.09,0,0,0,2.52-.38,5.14,5.14,0,0,1-.55.06c-3.81.2-7.08-3.18-7.31-7.56-.22-4,2.25-7.53,5.63-8.18-3.57.17-6.55,3.43-6.8,7.61C39.46,37.05,42.38,40.84,46.24,41.07Z"/><path class="cls-3" d="M85.89,58.39c-1.59.31-4.06,1-2.75,3.32s4.38.45,6-.31l-1.32-.34c1.08,1.57.67,4.54.72,6.42a1,1,0,0,0,.71.93c-1.55-.65.27.79.55.87a2.59,2.59,0,0,0,2-.11c1.58-.93,1.23-3.7,1.47-5.27l-1.76.23c1,1.35,3.42,5.49,5.31,2.36,1.69-2.78-5.51-7.7-2.21-9.25s2.37,7,5.31,7.77c3.74,1,2.28-3.84,2-5.49l-1.41,1.09c1.32.86,3.18,3,4.92,2.45a2.35,2.35,0,0,0,1.4-1.26c.15-.37.19-2.37-.15-1.34a1,1,0,0,0-.25-.94l-1.46-1.37c-.62-.6-1.22-1.19-1.81-1.82-1.12-1.2-1-.4-.74-.87.81-1.58,3.89-1,3.27-3.67-.9-3.94-5.32.4-6.92,1.16l1.31,1.32c1.15-2.48-.33-6.27-3.71-4.76s-1.68,5.18,1,5.94V53.6c-1.64.63-3.34-1.5-4.72-.9s-.91,3.31-2.48,4.12l1.32,1.32c1.2-2.47-.26-6.32-3.68-4.8s-1.7,5.14,1,5.94l-.23-1.76c-.85.37-1.77.58-2.65.87-1.17.39-.67,2.25.51,1.86s2.1-.63,3.11-1.06c.81-.35.49-1.55-.23-1.76l.54-.26a1,1,0,0,0,1.32,1.31c1.42-.73,1.68-3.71,2.24-4,.29-.17,3.24,1.47,4.49,1a1,1,0,0,0,0-1.85l.52-.3a1,1,0,0,0,1.32,1.31c1-.47,1.91-1.32,2.92-1.73,1.53-.6-1.56,1.08-2,1.26a1,1,0,0,0-.44,1.09,7.49,7.49,0,0,0,2.26,3.24c.52.53,2.67,2.8,2.45,1.94s.21.62-.76.3a14.1,14.1,0,0,1-2.7-1.77c-.76-.49-1.56.32-1.42,1.09.12.62,1,2.52.46,2.88s-1.27-4.36-1.68-5.17c-1-2.06-2.15-1.77-4.36-2.44a1,1,0,0,0-1.08.44c-1,2-2,2.79-1.13,4.91.36.89,3.27,3.8,3,4.66s-2-2-2.09-2.16c-.43-.56-1.62-.69-1.76.23-.11.73,0,2.66-.48,3.2-.88,1-.24,0-1.18,0,1.25,0,.09,1.92.68-.16A9.07,9.07,0,0,0,90.38,64a7.46,7.46,0,0,0-.9-3.86,1,1,0,0,0-1.32-.35c-.94.44-3.93.94-1.76.51C87.62,60,87.1,58.15,85.89,58.39Z"/><path class="cls-14" d="M94.45,54.17h0a.14.14,0,0,0,0-.06A1.07,1.07,0,0,0,93,53.57a1.09,1.09,0,0,0-.56,1.35.19.19,0,0,0,0,.08,10.8,10.8,0,0,1-1.24,2.37,2.59,2.59,0,0,1-.54.28,2.16,2.16,0,1,0-1.62.71l-.5.21c-.13.06-1.84.55-2.38.75a3.43,3.43,0,0,1-.71.14,1.22,1.22,0,0,0-.92,0,1.24,1.24,0,0,0,.84,2.32,17.62,17.62,0,0,0,3.29-1.24s.15.1.48,1.07a12.36,12.36,0,0,1,.3,3.16c0,.43,0,1.77.07,2.37a1,1,0,0,0,0,.3h0a1,1,0,0,0,.09.32,1.23,1.23,0,0,0,2.27-1l.48-3.19s.35.44,1.06,1.49c.16.25.29.43.39.56a1.46,1.46,0,0,0,.07.19,1.23,1.23,0,0,0,2.25-1s0,0,0-.05a20.43,20.43,0,0,0-1.84-2.73,12.84,12.84,0,0,1-1.59-2.8c-.13-.32.92-1.84,1.31-2.6C94.87,55,94.45,54.17,94.45,54.17Z"/><path class="cls-15" d="M92.49,55.05h0l0,0a1.06,1.06,0,0,1,1.91-.94l.07,0a10.38,10.38,0,0,0,2.6.65,2.39,2.39,0,0,0,.57-.21,2.17,2.17,0,1,1,1.6-.75l.49-.23c.13-.06,1.64-1,2.15-1.28a3,3,0,0,0,.57-.44,1.28,1.28,0,0,1,.64-.66,1.24,1.24,0,0,1,1.17,2.17A17.62,17.62,0,0,1,101.13,55s0,.18.48,1.07a12.54,12.54,0,0,0,2.16,2.33L105.5,60a1.45,1.45,0,0,1,.22.21h0a1.67,1.67,0,0,1,.18.28,1.24,1.24,0,0,1-2.24,1.06L101,59.78s.1.55.41,1.78c.08.29.13.5.16.66a1.51,1.51,0,0,1,.09.18,1.23,1.23,0,0,1-2.25,1s0,0,0,0a21,21,0,0,1-.82-3.19,13.25,13.25,0,0,0-1-3.05c-.16-.31-2-.53-2.82-.74C92.81,55.89,92.49,55.05,92.49,55.05Z"/><line class="cls-16" x1="86.65" y1="50.94" x2="89.75" y2="52.13"/><line class="cls-16" x1="89.26" y1="47.85" x2="90.62" y2="50.88"/><line class="cls-16" x1="93.3" y1="47.51" x2="92.12" y2="50.61"/><path class="cls-3" d="M22.6,71.72C26,73,29,72.33,32.09,70.6c2.17-1.24,4.24-2.56,6.47-3.73.86-.45,2.4-1.09,2.91-2,2.4-4.31-8.11-2.63-9.88-2.84-3.65-.44-6.37-.13-9.46,2.06A40,40,0,0,1,17.77,67c-1.14.6-2.67,1.1-3.53,2.13C10.5,73.6,21.37,72,23,71.72c.87-.14.5-1.45-.36-1.32-.42.07-7.43,1.93-6.42-1,.38-1.12,4.21-1.78,5.13-2.36,1.09-.68,1.42-1.8,2.72-2.64,3.16-2,4.62-.27,8.57-.44.88,0,3.73-1,4.85-.54,1.32-.42,1.84.14,1.55,1.67a16.56,16.56,0,0,1-2.5,1.23c-4.43,2-8.37,6-13.54,4.1C22.13,70.1,21.78,71.42,22.6,71.72Z"/><path class="cls-3" d="M43.4,59.73l.41,1.06a.69.69,0,0,0,1.34-.18l.08-1.14-.34.59a2,2,0,0,0,.7-.77l-.41.31,1-.39A.69.69,0,0,0,46,57.87l-1-.1.59.34a1.63,1.63,0,0,0-1.07-.88l.41.31-.38-.87c-.3-.7-1.2-.23-1.27.35l-.11.94.34-.59a1.57,1.57,0,0,0-.79,1.14l.47-.48-.94.39a.69.69,0,0,0,.18,1.34l1.07.09-.48-.2a2.38,2.38,0,0,0,.88.55c.83.3,1.19-1,.36-1.31-.31-.12-.41-.34-.76-.41l-.28,0-.79-.07.18,1.34.77-.31c.39-.16.46-.31.67-.64a2.12,2.12,0,0,0,.5-.92c0-.28.06-.56.1-.84l-1.28.34a6.12,6.12,0,0,0,.34.78c.17.3.47.43.7.66a2.42,2.42,0,0,0,1.61.44l-.18-1.35-.74.3a1.8,1.8,0,0,0-.82.63,1.28,1.28,0,0,0-.41.89c0,.3-.05.6-.07.9l1.34-.18-.4-1.07C44.41,58.55,43.09,58.9,43.4,59.73Z"/><path class="cls-3" d="M33.92,75.27l.07-.86-.34.59a1.7,1.7,0,0,0,.58-.64l-.4.31.75-.29A.69.69,0,0,0,34.4,73L33.63,73l.59.34a1.35,1.35,0,0,0-.91-.74l.41.31-.29-.66c-.3-.7-1.2-.23-1.27.35l-.08.71.34-.59a1.36,1.36,0,0,0-.68,1l.48-.48-.72.29a.69.69,0,0,0,.18,1.34l.81.07-.48-.2a2.07,2.07,0,0,0,.74.47l-.47-.48.3.81c.31.81,1.63.46,1.32-.37l-.23-.6a1.2,1.2,0,0,0-.55-.68,1.57,1.57,0,0,0-.84-.33l-.6,0,.18,1.34.59-.24a1,1,0,0,0,.62-.6c.16-.26.34-.38.38-.74,0-.21,0-.42.08-.63l-1.27.34a6.14,6.14,0,0,0,.25.59c.06.11,0,.07.14.21a.64.64,0,0,0,.3.17s.09,0,.09.12a1.2,1.2,0,0,0,.73.35l.63.06-.18-1.34-.56.22a1.55,1.55,0,0,0-.69.53,1.16,1.16,0,0,0-.36.78c0,.23,0,.46,0,.68C32.49,76.15,33.86,76.15,33.92,75.27Z"/><path class="cls-3" d="M21.61,77.51l.05-.66-.34.59a1.62,1.62,0,0,0,.5-.54l-.41.31L22,77a.69.69,0,0,0-.18-1.34l-.59-.06.59.34a1.27,1.27,0,0,0-.79-.64l.41.32-.22-.51a.68.68,0,0,0-.77-.31.73.73,0,0,0-.5.66l-.06.54.34-.59a1.25,1.25,0,0,0-.59.83l.47-.48-.54.23a.69.69,0,0,0,.18,1.34l.62,0-.49-.2a1.7,1.7,0,0,0,.64.39L20,77.08l.24.61c.3.82,1.62.46,1.31-.36l-.18-.48a1.1,1.1,0,0,0-.53-.61,2,2,0,0,0-1.13-.3l.18,1.34.48-.19c.06,0,.19-.07.23-.1.19-.12.21-.28.29-.41a1.37,1.37,0,0,0,.33-.67l.06-.47L20,75.78c.06.14.11.28.18.41a1.39,1.39,0,0,0,.42.42c.25.19.32.31.67.35l.51.05-.18-1.34-.45.17a1.17,1.17,0,0,0-.55.43,1.06,1.06,0,0,0-.35.73c0,.17,0,.34,0,.51C20.18,78.39,21.54,78.38,21.61,77.51Z"/><path class="cls-3" d="M23.4,51.16l.33.86a.69.69,0,0,0,1.34-.18l.07-.92-.34.59a1.78,1.78,0,0,0,.61-.67l-.41.31.81-.32a.68.68,0,0,0-.18-1.34l-.82-.08.59.34a1.44,1.44,0,0,0-.95-.77l.41.31-.31-.7c-.3-.71-1.2-.24-1.27.34l-.09.76.34-.59a1.45,1.45,0,0,0-.7,1l.48-.47-.77.31a.69.69,0,0,0,.18,1.34l.87.08-.48-.2a2,2,0,0,0,.77.48c.83.3,1.18-1,.36-1.32-.25-.09-.35-.28-.65-.33l-.23,0-.64,0,.18,1.34.63-.26a1.05,1.05,0,0,0,.63-.61c.16-.28.36-.4.41-.78,0-.22.05-.45.08-.68l-1.27.34a5.11,5.11,0,0,0,.27.64c.06.11,0,.07.14.21a.75.75,0,0,0,.3.18c.08,0,.12,0,.13.14a1.1,1.1,0,0,0,.74.35l.67.07-.18-1.34-.6.23a1.61,1.61,0,0,0-.71.55,1.23,1.23,0,0,0-.38.81c0,.25,0,.49-.05.73l1.34-.18-.33-.86C24.41,50,23.09,50.34,23.4,51.16Z"/><path class="cls-3" d="M20,62.14l.33.86a.69.69,0,0,0,1.34-.18l.06-.92-.33.59a2,2,0,0,0,.61-.67l-.41.31.81-.32a.69.69,0,0,0-.18-1.34l-.83-.08.59.34A1.42,1.42,0,0,0,21,60l.4.31-.3-.7c-.3-.71-1.2-.24-1.27.34l-.09.76.34-.59a1.45,1.45,0,0,0-.7,1l.47-.47-.77.31a.69.69,0,0,0,.19,1.34l.86.08-.48-.2a2.17,2.17,0,0,0,.78.48c.82.3,1.18-1,.36-1.32-.26-.09-.36-.28-.66-.33L20,61l-.64-.05.18,1.34.63-.26a1.05,1.05,0,0,0,.63-.61c.16-.28.36-.4.4-.78,0-.22.06-.45.08-.68L20,60.25c.09.21.16.44.27.64a.5.5,0,0,0,.14.21.92.92,0,0,0,.3.18c.08,0,.12,0,.13.14a1.15,1.15,0,0,0,.74.35l.68.07L22,60.5l-.6.23a1.7,1.7,0,0,0-.72.55,1.23,1.23,0,0,0-.38.81c0,.25,0,.49-.05.73l1.34-.18-.32-.86C21,61,19.68,61.32,20,62.14Z"/><ellipse class="cls-17" cx="27.68" cy="67.17" rx="9.66" ry="2.74" transform="matrix(0.97, -0.26, 0.26, 0.97, -16.3, 9.35)"/><ellipse class="cls-17" cx="27.68" cy="67.17" rx="11.46" ry="2.74" transform="translate(-16.3 9.35) rotate(-14.86)"/><ellipse class="cls-17" cx="27.68" cy="67.17" rx="14.08" ry="2.74" transform="translate(-16.3 9.35) rotate(-14.86)"/><ellipse class="cls-18" cx="27.51" cy="67.04" rx="6.95" ry="4.52" transform="translate(-16.27 9.3) rotate(-14.86)"/><path class="cls-18" d="M43.36,58.69a.88.88,0,0,1,.47-.73l.11-.94.38.87a.87.87,0,0,1,.66.56l1,.1L45,59a1.16,1.16,0,0,1-.45.52l-.09,1.14-.4-1.07a1.15,1.15,0,0,1-.58-.37l-1.07-.1Z"/><path class="cls-18" d="M32.4,73.82a.66.66,0,0,1,.36-.55l.08-.71.29.65a.68.68,0,0,1,.5.43l.77.08-.76.29a.8.8,0,0,1-.34.4l-.06.86-.3-.8a.92.92,0,0,1-.45-.29l-.81-.07Z"/><path class="cls-18" d="M20.29,76.4a.5.5,0,0,1,.27-.42l.06-.54.22.5a.51.51,0,0,1,.38.33l.59,0-.58.23a.64.64,0,0,1-.26.3l0,.66-.23-.61a.77.77,0,0,1-.33-.22l-.62-.06Z"/><path class="cls-18" d="M23.49,50.29a.73.73,0,0,1,.38-.6l.09-.76.31.71a.72.72,0,0,1,.54.45l.82.08-.81.32a.88.88,0,0,1-.37.43l-.06.92L24.06,51a1,1,0,0,1-.47-.31l-.87-.07Z"/><path class="cls-18" d="M20.07,61.27a.74.74,0,0,1,.39-.6l.09-.76.3.71a.69.69,0,0,1,.54.45l.83.08-.81.32a.88.88,0,0,1-.37.43l-.07.92L20.65,62a1,1,0,0,1-.48-.31l-.86-.07Z"/><path class="cls-3" d="M63.36,91.33a2.59,2.59,0,0,0-.71-1.07c-1.37-1.36-.83,0-1.45.31A1,1,0,0,0,61,88.81c-.79-.31-2,2.17.74.71a1,1,0,0,0,0-1.67c-1.72-1.1.32-5-3.63-4.38-3,.44-1.32,3.09-3,4.45a1,1,0,0,0,0,1.36c.65.58,1.21.28,2.08.8l.23-1.76-1.08.35a1,1,0,0,0-.23,1.76l.34.26V89c.16-.1-.71,1.79-.83.26,0-.61-.2,1.19-.1-.3,0-.74.7-1.4.84-2,.34-1.57.2-4-1.08-5.16-3.33-3.14-7.67.91-6.85,4.69l1.42-1.09c-1.19-.82-.82-.17-.26-1.75a4.08,4.08,0,0,0,.29-3c-.69-2.59-2.12-2.23-4.33-2.49a2.67,2.67,0,0,0-1.14.57L44.6,78a4.94,4.94,0,0,1-1.84-1.22c-.48-.56-.29,0-.27.3-.09-1.21.64-1.07.78-1.9.33-1.92-.42-4-2.51-4.39-2.34-.4-3.63,1.5-3.62,3.63,0,1,.92,1.83.89,2.76,0-1.51-.46.49-1.31.4-1.94-.19.73.36-.33-.68-.58-.56-.65-1.12-1.35-1.61a5.19,5.19,0,0,0-3.71-.71c-4.53.93-2.06,5.77-4.66,7.89a1,1,0,0,0,0,1.36c1.26,1.12,2.41.59,3.65,1.34l.23-1.76-2,.65a1,1,0,0,0-.23,1.76l.62.47V84.6c-2.06,1.29-4.36,1.7-5,4.39-.43,1.93,0,4.33-.05,6.32a1,1,0,0,0,1,1H39.11A1,1,0,0,0,40,95.06l0,0-.93,1.22h5.7L43.87,95v0a1,1,0,0,0,.93,1.22H60.06A1,1,0,0,0,61,95.05L61,95,60,96.21h2.5a1,1,0,0,0,1-1c0-1.15,0-2.29,0-3.43a1,1,0,0,0-1.92,0,8.36,8.36,0,0,1,0,2.12c-.43,1.48.56.35-1.53.35a1,1,0,0,0-.93,1.21l0,.06.93-1.21H44.79l.92,1.21v0a1,1,0,0,0-.93-1.22h-5.7a1,1,0,0,0-.92,1.22l0,0,.92-1.22H31.16a40.55,40.55,0,0,1-4.41,0c-1.24-.14-.2,1.41-.85-.1a10.5,10.5,0,0,1,0-4c.42-2.23,2.15-2.86,4-4a1,1,0,0,0,0-1.67l-.62-.46-.23,1.76,2-.66a1,1,0,0,0,.23-1.76c-.35-.21-.72-.28-1-.46-1.5-.87-1,1.18-1.24-.33,0-.07.36-.72.36-.92l.13-1q-.6-5,5.61-1.57a1,1,0,0,0,1.18.68c.9-.33,3-1.21,3.46-2.1.51-1.12-1.13-2.83-.63-3.47.68-.89,2-.1,2.07.61s-.8,1.5-.61,2.29c.35,1.42,3,2.38,4,3a1,1,0,0,0,1.16-.15c.67-.56,2.14,1.94,2.16,2.67s-.87,1.61-.71,2.42S48.2,86.59,48.85,87s1.58-.33,1.42-1.09c-.21-1,3.54-2,4.13-.2A9.14,9.14,0,0,1,53.83,88c-.52,2.1-.23,1.53.89,3a1,1,0,0,0,1.31.35,6.77,6.77,0,0,0,1.37-.69,1,1,0,0,0,0-1.66l-.33-.26-.23,1.76,1.07-.35a1,1,0,0,0,.23-1.76.81.81,0,0,0-1.22.4,15.25,15.25,0,0,1,.46-1.51c3.11-.82,1.7,1.14,3.36,2.21V87.85c-.69.37-1.47.07-2.06.64a1,1,0,0,0,0,1.37c.42.49,1.21.58,1.78.8l-.23-1.76-.41.21a.92.92,0,0,0-.48.83c.07,1.28,1.82,1.26,2.36,2.36S63.9,92.44,63.36,91.33Z"/><path class="cls-3" d="M48.57,91.51l0-.13-1.18,1.18.17.06-.23-1.76-.12.07a1,1,0,0,0,1,1.66l.12-.07A1,1,0,0,0,48,90.76l-.17-.06a1,1,0,0,0-1.18,1.19l0,.13a1,1,0,0,0,1.18.67A1,1,0,0,0,48.57,91.51Z"/><path class="cls-3" d="M46.17,85.31v-.06a1,1,0,0,0-1.92,0v.06a1,1,0,0,0,1.92,0v-.06a1,1,0,0,0-1.92,0v.06A1,1,0,0,0,46.17,85.31Z"/><path class="cls-3" d="M41.64,94a2.27,2.27,0,0,1-.19-1.83,1,1,0,0,0-.35-1.32,1.91,1.91,0,0,0-2.43,0,1,1,0,0,0-.35,1.32c.4.58,0,1.42-.2,2.05H40a19.09,19.09,0,0,1-1.11-4.88c0-.48-.41-1-1-1h0l.49,1.79L38.6,90l-1.31-.35a11.89,11.89,0,0,0,1.91,2.17,1,1,0,0,0,1.36,0l2.12-2L41,89.12a28.5,28.5,0,0,1-1.15,5.06,1,1,0,0,0,1.86.51A32.19,32.19,0,0,0,43,89.12c.1-.88-1.1-1.21-1.65-.69l-2.11,2h1.36A10.8,10.8,0,0,1,39,88.67a1,1,0,0,0-1.32-.35l-.23.12a1,1,0,0,0,.49,1.79h0l-1-1a21.55,21.55,0,0,0,1.18,5.39,1,1,0,0,0,1.86,0c.3-1.23.79-2.38,0-3.53l-.34,1.31c.38-.27.07-.25.49,0l-.34-1.32A4,4,0,0,0,40,94.92,1,1,0,0,0,41.64,94Z"/><path class="cls-19" d="M45.49,80.37c-.84,0,.34,7.85-.86,8.15s-8.2-.69-9.12-.69c-1.76,0-2.57-5.26-.57-7.46a1.79,1.79,0,0,1,.57-1.1,2,2,0,0,1,.79-.42,2.35,2.35,0,0,0,.44-.17l1.38-.83c.05,0,.11-.11.1-.16a.23.23,0,0,1,.18-.24c.17,0,.34-.12.52-.16s.13-.07.11-.16a1.42,1.42,0,0,0-.07-.22,5.66,5.66,0,0,1-.51-1.37.14.14,0,0,0,0-.09c-.3-.19-.28-.51-.35-.8a.19.19,0,0,1,0-.18c.11-.09.08-.18.06-.29a2.13,2.13,0,0,1,.74-2.12,2.06,2.06,0,0,1,1.72-.35,2.28,2.28,0,0,1,1.08.44,1.46,1.46,0,0,1,.5,1,3,3,0,0,1,0,1.12.24.24,0,0,0,.05.16.73.73,0,0,1-.2.94.19.19,0,0,0-.09.14,4.32,4.32,0,0,1-.41,1.32.44.44,0,0,0-.06.16c0,.2,0,.28.19.34s.26.08.38.14a.91.91,0,0,1,.23.21c.08.09.13.22.22.28a7.41,7.41,0,0,0,1.58.88,2.06,2.06,0,0,1,1.21,1A3.3,3.3,0,0,1,45.49,80.37Z"/><path class="cls-20" d="M52.71,89c-1,0-2.36,2.42-3.75,2.76s-3.08-1.31-4.14-1.31c-2,0-2.32-1.77-4.37-1.77.08-.51.29-.61.67-1a2.34,2.34,0,0,1,.92-.49,2.25,2.25,0,0,0,.51-.2c.54-.31,1.07-.64,1.6-1,.06,0,.13-.13.12-.19s.07-.23.21-.27a6,6,0,0,1,.6-.19c.12,0,.15-.09.13-.19a1.14,1.14,0,0,0-.09-.26,6.45,6.45,0,0,1-.58-1.59.3.3,0,0,0,0-.1c-.34-.22-.33-.59-.41-.93a.26.26,0,0,1,0-.21c.13-.1.09-.21.07-.34a2.51,2.51,0,0,1,.86-2.46,2.41,2.41,0,0,1,2-.4,2.64,2.64,0,0,1,1.25.51,1.71,1.71,0,0,1,.58,1.13,3.78,3.78,0,0,1,0,1.3c0,.05,0,.13,0,.18a.83.83,0,0,1-.24,1.09.28.28,0,0,0-.09.16,4.87,4.87,0,0,1-.49,1.54,1.27,1.27,0,0,0-.06.18c-.06.24,0,.33.22.4a3.29,3.29,0,0,1,.44.16,1.27,1.27,0,0,1,.27.25c.09.1.15.25.26.32a8,8,0,0,0,1.83,1,2.38,2.38,0,0,1,1.4,1.2A4,4,0,0,1,52.71,89Z"/><path class="cls-21" d="M29.46,85.44,28.84,85l2-.65a.45.45,0,0,0-.56-.34,3.2,3.2,0,0,1-2.68-.66l-.22-.19a4.23,4.23,0,0,0,.59-.48,2.72,2.72,0,0,0,.59-1.88,7.39,7.39,0,0,1,.71-3.59,3,3,0,0,1,2.35-1.69,4.62,4.62,0,0,1,2.77.46,2.78,2.78,0,0,1,1.2,1.42,7.28,7.28,0,0,1,.59,2.8c0,.38,0,.76,0,1.13a2,2,0,0,0,1,1.84l.22.14a4.11,4.11,0,0,1-.49.27,6.66,6.66,0,0,1-2.46.41c-.08,0-.17,0-.23,0a.54.54,0,0,0-.23.22s.1.18.18.21c.71.26,1.42.5,2.14.75l.17.07-.76.38v.09c.31.18.62.36.94.51s.87.38,1.3.59c1,.46.93,1.21,1.19,2.24,0,0-1.59-.15-1.59,1,0,1.8,1.61,5.25,1.61,5.29H24.92c0-.11,0-6.32.06-6.43a3.23,3.23,0,0,1,1.7-2c.79-.4,1.6-.77,2.41-1.16Z"/><path class="cls-21" d="M56.92,89.86l-.34-.26,1.07-.35a.24.24,0,0,0-.3-.19,1.71,1.71,0,0,1-1.46-.36l-.12-.1a2.13,2.13,0,0,0,.32-.26,1.53,1.53,0,0,0,.32-1,4,4,0,0,1,.39-2,1.63,1.63,0,0,1,1.28-.92,2.56,2.56,0,0,1,1.51.25,1.55,1.55,0,0,1,.66.77A4,4,0,0,1,60.57,87c0,.21,0,.42,0,.62a1.11,1.11,0,0,0,.53,1l.12.07a2.52,2.52,0,0,1-.27.15,3.59,3.59,0,0,1-1.34.22h-.13a.3.3,0,0,0-.12.13s0,.09.1.11l1.16.41.1,0-.42.21v0a5.21,5.21,0,0,0,.52.28l.71.32a1.8,1.8,0,0,1,1,1.23s0,3.39,0,3.43h-8.1c0-.06,0-3.45,0-3.51a1.82,1.82,0,0,1,.93-1.12L56.72,90Z"/><path class="cls-22" d="M60.06,95.31H44.79a5.62,5.62,0,0,1,.83-2.54,2.81,2.81,0,0,1,1.14-.61,2.67,2.67,0,0,0,.63-.25c.68-.39,1.34-.79,2-1.2a.3.3,0,0,0,.14-.23.3.3,0,0,1,.26-.34c.25-.08.49-.18.74-.24s.2-.11.17-.23a1.21,1.21,0,0,0-.11-.32,7.93,7.93,0,0,1-.73-2,.16.16,0,0,0,0-.11c-.43-.28-.41-.75-.52-1.17a.29.29,0,0,1,.07-.26c.16-.13.11-.26.09-.42a3.09,3.09,0,0,1,1.06-3.06A3,3,0,0,1,53,81.83a3.25,3.25,0,0,1,1.56.63,2.08,2.08,0,0,1,.73,1.41,4.64,4.64,0,0,1,0,1.62.29.29,0,0,0,.07.23,1,1,0,0,1-.3,1.35.35.35,0,0,0-.12.21,6.14,6.14,0,0,1-.6,1.92.58.58,0,0,0-.08.22c-.08.29,0,.41.28.5a3.5,3.5,0,0,1,.54.2,1.21,1.21,0,0,1,.33.31c.12.13.19.31.33.4a10,10,0,0,0,2.28,1.27,3,3,0,0,1,1.75,1.5C59.92,93.82,60,95,60.06,95.31Z"/><path class="cls-23" d="M48.14,95.26H31.37a21.54,21.54,0,0,1,.83-3.65,1.16,1.16,0,0,1,.78-.77l4.76-1.55.16,0a19,19,0,0,0,1.15,5.14c.09-.37.17-.75.29-1.11a1.66,1.66,0,0,0-.19-1.69c.62-.46.77-.46,1.47,0-.1.19-.2.39-.29.6a.52.52,0,0,0,0,.27c.14.6.3,1.2.45,1.8a.42.42,0,0,0,.08.14A28.33,28.33,0,0,0,42,89.12l-2.12,2c-.52-.57-1-1.12-1.55-1.67a.55.55,0,0,1-.19-.67,2.5,2.5,0,0,0,0-.29A1.74,1.74,0,0,0,37.93,87a3.43,3.43,0,0,1-.48-1.15c-.07-.36-.4-.53-.48-.86s-.15-.42-.18-.63a.44.44,0,0,1,.06-.38c.17-.14.14-.31.14-.49s0-.57,0-.86a1.35,1.35,0,0,1,.18-.9.64.64,0,0,0,.13-.32c0-.39.31-.57.54-.8a3,3,0,0,1,2.52-.58,4.31,4.31,0,0,1,2,.91c.28.17.21.49.21.76a.88.88,0,0,0,.06.27,1.89,1.89,0,0,1,.18,1.15.87.87,0,0,0,0,.88,1,1,0,0,1-.35,1.22.31.31,0,0,0-.11.18c-.21.65-.44,1.3-.61,2a2.81,2.81,0,0,0,0,.82,1.14,1.14,0,0,0,1,1.16c1.27.36,2.48,1,3.75,1.31,1,.28,1.26,1,1.36,1.86Z"/><path class="cls-3" d="M56.9,60.59c-1,.92-2.53,1.07-3.81,1.51a.72.72,0,0,0-.5.5c-.53,3.42,2.1,6.09,5.46,5.16a.73.73,0,0,0,.32-1.2c-1.22-1.21,1.36-3.37,2.64-3.72a5.79,5.79,0,0,0,.27-.8q.22-1.74,0,2.74c-.08.48-.73,1.45-.55,2.07.82,2.77,5.85,1.42,7.44.31a.73.73,0,0,0,.26-1c-.09-.13-.57-.5-.62-.6s-.78,0-.89-.13c-1-1.3-.51-2.73-.84-4s-1.32-1.94-1.66-2.92c0-.05-.66-.31-.66-.33.32-1.06,2.82-.13,3.21.19.93.77,1,2.09,1.66,3.07a7.87,7.87,0,0,0,1.23,1.47c.6.53,1.74.78,2.27,1.37,1.2.35,1.52.81,1,1.38a1.3,1.3,0,0,0-.27.43c.5,1.22,1.33,3,3.39,2.05,3.33-1.53-.52-5.81-2-7s-.25.54-.13.63c.64.49,1.76.55,2.46,1.06s1.21,1.71,2.07,2.21c.68.39,1.94.92,2.62.17,1.31-1.43-1.56-4.07-2.53-4.87C77,58.9,72.8,58,72.7,55.11c-.09-2.62,1.08-.37,2.42-1.85,2.85-3.14-4.15-5-6-4.79-2.61.25-1.81,1.26-3.26,2.33,1-.76-1.28.26-1.51.37a59.67,59.67,0,0,0-5.82,2.92C55.21,56,52.87,59,57,61.72c.78.5,1.49-.74.72-1.24-4.83-3.14,6.78-7.88,9-8.8A.75.75,0,0,0,67.3,51q7.58,1.5,4.9,1.14a.57.57,0,0,0-.29,0c0,.08-.5.19-.49.33S71,53.71,71,54c-.21,2.74,1.69,4.35,3.75,5.61a19.37,19.37,0,0,1,3.71,2.48c.38.37,2.32,2.28.42,1.22-.67-.38-1-1.34-1.69-1.79-.86-.6-3.41-1.83-4.54-1-.33.23-.54.82-.15,1.12.83.64,4.46,4.17,3.07,5.21-1.55,1.15-.76-1.1-.84-1.25-1.25-2.18-3.75-3-5.13-5.26-.9-1.46-.72-3.78-2.77-4.16-1.17-.21-3.86,1.1-4.16,2.47a.75.75,0,0,0,.5.88c3,1.21,0,4.63,1.35,6.52.17.25,1.68,1.12,1.56.76q-.32-.94-1.83.18-3,.21-1.6-1.79c-.21-.9.43-1.52.06-2.51a2.38,2.38,0,0,0-1.91-1.78.73.73,0,0,0-.91.69c0,.43-3.88,1.74-4.6,2.49a.72.72,0,0,0-.18.7c.4,1.25,1.3,1.89,2.24,2.83l.31-1.2q-2.34.78-3.29-3.21a3.25,3.25,0,0,0,1.45-.29c.65-.49,1.44-.71,2.08-1.28S57.59,60,56.9,60.59Z"/><path class="cls-9" d="M57.4,60.94s-4.59-2.75,0-5.51a72.15,72.15,0,0,1,9.19-4.59s0-1.84,2.76-1.84,5.51.92,5.51,2.76-1.84.91-2.76.91,0,2.76,0,2.76a3.27,3.27,0,0,0,1.84,2.76c1.84.92,4.59,2.75,4.59,2.75s4.6,4.6.92,3.68C79,64.49,77.1,62,76.69,61.86c-3.22-1.47-3.67-.92-3.67-.92s3.67,2.76,3.67,4.6-.91,1.83-.91,1.83-3.68,0-1.84-1.83c0,0,.92-.92-2.76-2.76s-2.29-6.89-5.05-6-2.76,1.84-2.76,1.84a2.84,2.84,0,0,1,1.84,3.67c-.92,2.76,0,3.68.92,3.68s2.76,0,.92.91-6.43.92-5.51-.91.92-4.6-.92-4.6a1.8,1.8,0,0,1-1.84,1.84c-1.84,0-3.67.92-2.76,1.84l1.84,1.83s-2.75.92-3.67-.91-1.84-3.68,0-3.68A5.07,5.07,0,0,0,57.4,60.94Z"/><path class="cls-3" d="M97.12,90.12a10.06,10.06,0,0,0-4.74-5.19,7.15,7.15,0,0,0-2.78-.48c-.93,0-1,1.13-.06.09,3.19-3.57,1.23-6.61,1.71-10.76a1,1,0,0,0-.48-.83c-3.4-2.45-12.33.92-14,4.64-.9,2,.6,3,1.69,4.62,2,2.93,4.47,4.3,8,3.77l-1.18-.67.45,1.1.67-1.19c-1.8.7-2.71,2.58-3,4.38s-.75,6.3.8,7.6c3.44,2.88,13.35-2.3,14-6.17a1,1,0,0,0-.24-.94c-.6-.48-.88-.42-1.7-.45a1,1,0,0,0,0,1.93c-.8,0-3.67,2.64-4.83,3.14s-3.72,1.57-4.86,1.18c-1.54-.53-1.3-1.78-1.36-3.88,0-1.43.13-4.3,1.75-4.93.44-.17.89-.67.67-1.18l-.45-1.1A1,1,0,0,0,86,84.13a6.46,6.46,0,0,1-6.87-4.81c0-.16-.46-.33-.46-.39-.14-1.22,1.19-1.93,2.17-2.55A15.83,15.83,0,0,1,83.57,75c1-.39,5-.59,5.43-1.1a1,1,0,0,0-.25.94c.9,2.48,2.19,7.08-1,8.56a1,1,0,0,0-.45,1.09l.46,1.1a1,1,0,0,0,.92.7c3.44-.16,5.46,1.89,6.81,4.77C96,92.21,97.65,91.24,97.12,90.12Z"/><path class="cls-9" d="M85.07,94.54s-1.83,1.1-.15,2c2,1.08,6.71-.84,6.71-.84s5.76-2.38,5.67-4.91c0,0-.33-.82-3.51.81A49.84,49.84,0,0,1,85.07,94.54Z"/><path class="cls-9" d="M79,79.74s-2.07.51-1.5-1.3c.69-2.21,5.35-4.14,5.35-4.14s5.75-2.37,7.48-.52c0,0,.34.82-3.06,1.9A49.59,49.59,0,0,0,79,79.74Z"/><path class="cls-24" d="M78.07,79.14s2.39,7.36,8.21,5.92l.46,1.09s-3.95,1.31-1.88,9.44c0,0,5.86,1.75,11.74-4.21,0,0-2.17-6.8-7.95-6l-.45-1.1s4.94-2,1.15-10.42C89.35,73.84,81.05,74.71,78.07,79.14Z"/><path class="cls-25" d="M83.69,84.2s-.89-.59.2-1,4.82-2.31,5.33-1.87-1.08,2-1.08,2-.83.34-.37,1.43l.45,1.1-.55.23a2.35,2.35,0,0,0-1.34-1.7C85.17,83.91,85.12,84.57,83.69,84.2Z"/><path class="cls-25" d="M85.84,94.86s-1.42-4.22.11-5.18a26.71,26.71,0,0,1,4.66-1.92s2.85-.86,4.66,3.53c0,0-.09,1.32-4.2,3A7.77,7.77,0,0,1,85.84,94.86Z"/></g></g></svg>