<svg xmlns="http://www.w3.org/2000/svg" viewBox="0 0 123 123"><defs><style>.cls-1{fill:#e6e6e6;stroke:#91075d;stroke-width:6px;}.cls-1,.cls-20,.cls-21{stroke-miterlimit:10;}.cls-2{fill:#272c4f;}.cls-3{opacity:0.7;}.cls-4{font-size:20.35px;fill:#e1edd5;}.cls-17,.cls-4,.cls-7{font-family:BaskOldFace, Baskerville Old Face;}.cls-5{fill:#fff;}.cls-6{fill:#1c1c6b;}.cls-7{font-size:16.55px;fill:#efdad8;}.cls-8{fill:#dfb7b6;}.cls-9{fill:#b5acaa;}.cls-10{fill:#d7d7d7;}.cls-11{fill:#121e9d;}.cls-12{fill:#bcf6e3;}.cls-13{fill:#528cf9;}.cls-14{fill:#080ec6;}.cls-15{fill:#9daf9f;}.cls-16{fill:#e5eae5;}.cls-17{font-size:15.04px;fill:#949ecd;}.cls-18{fill:#806cfa;}.cls-19{fill:#6b53c9;}.cls-20,.cls-21{fill:none;stroke-width:0.22px;}.cls-20{stroke:#b0b0b0;}.cls-21{stroke:#1f1152;}</style></defs><title>Recurso 2</title><g id="Capa_2" data-name="Capa 2"><g id="Capa_1-2" data-name="Capa 1"><rect class="cls-1" x="3" y="3" width="117" height="117" rx="29.93" ry="29.93"/><rect class="cls-2" x="15" y="15" width="92" height="92" rx="23.53" ry="23.53"/><g class="cls-3"><text class="cls-4" transform="translate(31.03 40.26) rotate(16.99)">π</text></g><g class="cls-3"><path class="cls-5" d="M44,34.29l-.32,1,.82-.46L41.53,34a.63.63,0,0,0-.65.17,14.21,14.21,0,0,0-2.43,5.35c-.59,2-.4,3.09,1.82,3.2l-.64-.84-.1.33.64-.48c-.43,0-1.94.4-2.26.16-.52-.39.18-2,.36-2.63A8,8,0,0,1,41,34.82c.41-.32.14-1-.3-1.11l-3.35-1a.68.68,0,0,0-.82.46,41.24,41.24,0,0,1-2.36,6.31c-.66,1.28-.35.53.21-.31a15.68,15.68,0,0,0,1.09-1.91,35.05,35.05,0,0,0,1.58-4,.66.66,0,0,0-.46-.81,4.52,4.52,0,0,0-4.14.8l.91.23-.15-.33-.24.91c1.09-.78,1.91-1.65,3.37-1.44a12.92,12.92,0,0,1,2.09.64l6,1.84c.82.25,1.17-1,.36-1.29l-7.07-2.16a5.81,5.81,0,0,0-2.52-.49,7.85,7.85,0,0,0-2.89,1.75.68.68,0,0,0-.24.91l.16.34a.66.66,0,0,0,.91.23,3.25,3.25,0,0,1,3.11-.66l-.47-.82A24.34,24.34,0,0,1,33,38.8c-.73,1.09-1.23,2-.15,3a.68.68,0,0,0,.65.17c1.78-.57,2.27-2.78,2.91-4.38.54-1.33,1-2.69,1.4-4L37,34l3.36,1-.29-1.12c-2.07,1.66-2.79,3.7-3.44,6.21-.24.9-.43,2.47.62,3,.75.38,2.13,0,2.93-.07a.71.71,0,0,0,.64-.49l.1-.33a.67.67,0,0,0-.64-.85c-1.26-.06-.61-1.27-.39-2s.4-1.57.7-2.3a5,5,0,0,1,1.11-1.82c-.49.32-.41-.05.12.2a16.11,16.11,0,0,0,2.3.7.67.67,0,0,0,.81-.46l.32-1C45.49,33.82,44.21,33.47,44,34.29Z"/></g><path class="cls-5" d="M63.46,59.84h.11l-.67-.67v4c0,1.27-.14,2.7,1.46,2.94l-.49-.64v.1l.67-.67h-2.7l.66.67v-.1l-.66.67c1.58-.18,1.62-1.33,1.62-2.64V59.86a.66.66,0,0,0-.66-.66,2.42,2.42,0,0,1-.76,0l.49.64v-.09l-.67.67a3.2,3.2,0,0,0,1.93-.67c.69-.5,0-1.65-.67-1.15a2.24,2.24,0,0,1-1.26.49.67.67,0,0,0-.66.66v.09a.67.67,0,0,0,.49.64,4.57,4.57,0,0,0,1.11.05l-.67-.67c0,.57.35,4.85-.29,4.93a.68.68,0,0,0-.67.66v.1a.67.67,0,0,0,.67.66h2.7a.67.67,0,0,0,.66-.66v-.1a.67.67,0,0,0-.48-.64c-.59-.09-.48-.45-.49-.94s0-1.18,0-1.77V59.17a.67.67,0,0,0-.66-.66h-.11A.67.67,0,0,0,63.46,59.84Z"/><path class="cls-6" d="M63.46,59.17h.11V64.3a2.35,2.35,0,0,0,.06.58.74.74,0,0,0,.19.34,1.27,1.27,0,0,0,.72.23v.1h-2.7v-.1a1.61,1.61,0,0,0,.47-.08.61.61,0,0,0,.28-.18.71.71,0,0,0,.16-.31,2.48,2.48,0,0,0,0-.56V59.86l-.38,0a2.83,2.83,0,0,1-.56,0v-.09H62a1.91,1.91,0,0,0,.68-.12,3.11,3.11,0,0,0,.71-.38Z"/><path class="cls-5" d="M77.93,72.55h1.82l-.67-.66V72l.49-.64c-1.4.35-.59,1.66-.12,2.44a.68.68,0,0,0,1,.14c.57-.74,1.77-2.09.27-2.58l.48.64v-.1l-.66.66h1.23l-.66-.66V72l.49-.64a4.16,4.16,0,0,0-2,1.77.68.68,0,0,0-.11.8c.56.87,1.12,2.19,2.19,2.48l-.49-.64v.1l.67-.67H80l.66.67v-.1l-.48.64c1.54-.31.52-1.78,0-2.56a.68.68,0,0,0-1-.14c-.66.82-1.85,2.17-.21,2.7l-.48-.64v.1l.66-.67H77.85l.66.67v-.1L78,76.4c.91-.25,1.46-1.2,2-1.9a.68.68,0,0,0,.1-.81c-.56-.84-1.06-2-2.05-2.34l.49.64v-.1a.67.67,0,0,0-1.33,0V72a.68.68,0,0,0,.49.64c.5.19,1,1.31,1.26,1.74l.1-.81c-.34.42-.9,1.41-1.44,1.56a.68.68,0,0,0-.49.64v.1a.67.67,0,0,0,.67.66h1.31a.67.67,0,0,0,.66-.66v-.1a.68.68,0,0,0-.48-.64c0,.28.11.37.19.27l0-.07c.07,0,.16-.19.2-.24l.35-.44-1-.13.39.61a.67.67,0,0,0,.11.18l.08.12c.41-.29.48-.39.19-.3a.67.67,0,0,0-.49.64v.1a.67.67,0,0,0,.67.66h1.88a.67.67,0,0,0,.66-.66v-.1a.67.67,0,0,0-.49-.64c-.57-.16-1.09-1.4-1.39-1.87l-.1.81c.37-.47.81-1.26,1.4-1.43a.68.68,0,0,0,.49-.64v-.1a.68.68,0,0,0-.67-.67H80.59a.68.68,0,0,0-.67.67V72a.68.68,0,0,0,.49.64c-.2-.07-.14-.37-.34-.3a1.25,1.25,0,0,0-.18.24l-.33.42,1,.13a4.55,4.55,0,0,1-.56-1l-.06.51h0a.67.67,0,0,0,.48-.64v-.1a.67.67,0,0,0-.66-.67H77.93A.67.67,0,0,0,77.93,72.55Z"/><path class="cls-6" d="M77.93,71.89h1.82V72a.47.47,0,0,0-.26.1.25.25,0,0,0-.09.2.49.49,0,0,0,0,.18,3.15,3.15,0,0,0,.18.33l.12.19.28.47.56-.72a1.72,1.72,0,0,0,.21-.29.38.38,0,0,0,.06-.19q0-.23-.27-.27v-.1h1.23V72a1.3,1.3,0,0,0-.52.24,2.81,2.81,0,0,0-.53.55l-.64.81.94,1.47a2.28,2.28,0,0,0,.41.5,1.05,1.05,0,0,0,.2.14l.24.06v.1H80v-.1l.24-.06a.24.24,0,0,0,.14-.22.86.86,0,0,0-.18-.4l-.1-.16-.48-.75-.61.76c-.11.14-.18.24-.22.3a.41.41,0,0,0-.06.2q0,.25.39.33v.1H77.85v-.1l.21-.06.2-.12a3.69,3.69,0,0,0,.49-.52l.83-1-.87-1.32a3.31,3.31,0,0,0-.41-.52.82.82,0,0,0-.37-.2Z"/><path class="cls-5" d="M44.91,60.59h-5l.66.66v-.76l-.66.67h5a.68.68,0,0,0,.67-.67V55.76l-.67.67h.77L45,55.76v4.73a.68.68,0,0,0,.67.67h5L50,60.49v.76l.66-.66h-5a.67.67,0,0,0-.67.66V66l.67-.67h-.77l.67.67V61.25a.67.67,0,0,0-1.33,0V66a.67.67,0,0,0,.66.66h.77a.67.67,0,0,0,.66-.66V61.25l-.66.67h5a.68.68,0,0,0,.67-.67v-.76a.67.67,0,0,0-.67-.66h-5l.66.66V55.76a.67.67,0,0,0-.66-.66h-.77a.67.67,0,0,0-.66.66v4.73l.66-.66h-5a.67.67,0,0,0-.67.66v.76a.68.68,0,0,0,.67.67h5A.67.67,0,0,0,44.91,60.59Z"/><path class="cls-6" d="M44.91,61.25h-5v-.76h5V55.76h.77v4.73h5v.76h-5V66h-.77Z"/><path class="cls-5" d="M54.84,71.46c1.47.22,1.59,4,.17,4s-1.28-3.73.18-4c.84-.14.48-1.42-.35-1.29-1.48.23-2.21,2.19-2.15,3.52s.83,3.22,2.32,3.22,2.22-1.88,2.31-3.07c.11-1.36-.59-3.43-2.13-3.67C54.35,70,54,71.33,54.84,71.46Z"/><path class="cls-5" d="M54.84,70.27c-1.39.54-1.58,2.34-1.5,3.66.06.95.36,2.9,1.68,2.89s1.6-1.94,1.67-2.89c.08-1.32-.11-3.13-1.5-3.66-.8-.31-1.15,1-.35,1.28s.27,3.85.17,3.82c-.31-.1-.35-1.63-.35-1.84,0-.39,0-1.78.53-2C56,71.24,55.64,70,54.84,70.27Z"/><path class="cls-6" d="M55,70.81a1.06,1.06,0,0,1,.76.37,2.3,2.3,0,0,1,.35.47,5.23,5.23,0,0,1,.29.58,3.26,3.26,0,0,1,0,2.6,4.6,4.6,0,0,1-.29.59,2.52,2.52,0,0,1-.35.46,1,1,0,0,1-.76.37,1.06,1.06,0,0,1-.76-.37,3.05,3.05,0,0,1-.34-.46,3.39,3.39,0,0,1-.29-3.19,3.92,3.92,0,0,1,.29-.58,2.73,2.73,0,0,1,.34-.47A1.08,1.08,0,0,1,55,70.81Zm0,.1a.48.48,0,0,0-.3.12,1,1,0,0,0-.27.32,2,2,0,0,0-.17.43,5.44,5.44,0,0,0-.15.54,5.7,5.7,0,0,0,0,2.42,4.26,4.26,0,0,0,.15.54,2,2,0,0,0,.17.43,1.14,1.14,0,0,0,.27.33.56.56,0,0,0,.31.11.48.48,0,0,0,.3-.12,1,1,0,0,0,.27-.32,4.85,4.85,0,0,0,.32-1,5.7,5.7,0,0,0,0-2.42,5.44,5.44,0,0,0-.15-.54,4.29,4.29,0,0,0-.17-.43,1,1,0,0,0-.27-.32A.48.48,0,0,0,55,70.91Z"/><path class="cls-5" d="M91,89.24a2,2,0,0,1-1.16,1.07q-1.59,1.62-2.61-1.45l2-2.25a3.15,3.15,0,0,1,2.22,1.7.67.67,0,0,0,1.15,0c.19-.29.38-.59.58-.88,1.42-1.44,2.56-1,3.39,1.28.11,3.56-3.44,2-4.43.53-.47-.71-1.62,0-1.14.67.94,1.42,2.25,2.66,4.09,2.32a3.56,3.56,0,0,0,2.81-3.52,3.38,3.38,0,0,0-2.65-3.37c-1.88-.37-2.87.89-3.8,2.3h1.15c-1-1.4-2.21-2.67-4.06-2.28a3.56,3.56,0,0,0-2.64,3.5,3.3,3.3,0,0,0,2.4,3.22c1.82.44,2.94-.81,3.84-2.17C92.61,89.2,91.46,88.53,91,89.24Z"/><path class="cls-5" d="M91.86,88.85c-.72-1.11-1.54-2.29-3-2.46a2.33,2.33,0,0,0-2.59,2.4,2.41,2.41,0,0,0,2.24,2.35,3.29,3.29,0,0,0,3.31-1.62c.49-.71-.67-1.38-1.15-.67a1.9,1.9,0,0,1-1.65,1c-.67,0-1.41-.26-1.42-1.06,0-1.06,1-1.32,1.78-.83a4.86,4.86,0,0,1,1.29,1.56C91.18,90.23,92.33,89.57,91.86,88.85Z"/><path class="cls-5" d="M91.66,88.65c.76,1.16,1.72,2.44,3.22,2.56a2.4,2.4,0,0,0,2.58-2.46,2.47,2.47,0,0,0-2.23-2.42A3.43,3.43,0,0,0,91.66,88c-.47.72.68,1.38,1.15.67a2,2,0,0,1,1.79-1c.74,0,1.52.28,1.53,1.14,0,1.14-1.1,1.36-1.91.86A5.14,5.14,0,0,1,92.81,88C92.35,87.26,91.2,87.93,91.66,88.65Z"/><text class="cls-7" transform="translate(86.37 94.31)">∞</text><path class="cls-5" d="M88.34,36.55c-2.72-2.44-5.55-4.76-8.33-7.14-1.43-1.23-2.87-2.44-4.29-3.68-.57-.49-1-1.19-1.79-1.13a.67.67,0,0,0-.64.49c-.39,2.13.21,4.65.38,6.8a42.15,42.15,0,0,0,.62,6.75.67.67,0,0,0,.64.49c2.59.18,5.4-.37,8-.58,1.56-.12,4,.21,5.39-.65a.67.67,0,0,0,.3-.75l-.11-.3c-.29-.8-1.58-.46-1.28.35-.32-.86-8.26.34-9.7.46-.3,0-2,.35-2.16.17a20.51,20.51,0,0,1-.1-2.58l-.45-5.6a13.43,13.43,0,0,1-.22-2.8c.12-.68-.33-.51.61.19,1.49,1.12,2.87,2.46,4.29,3.68,2.63,2.25,5.32,4.46,7.9,6.77C88,38.06,89,37.13,88.34,36.55Z"/><path class="cls-5" d="M85.82,37.2c-.16-2-1.94-2.06-1.81,0l.67-.67-1.28.1.66.67c-.16-2-2-2.1-1.81,0l.66-.67-1.23.1.67.67a2.1,2.1,0,0,0-.5-1.48.68.68,0,0,0-1,.13c-.38.55-.31.65-.26,1.38l.66-.66L80,37l.67.66c-.16-2-2-2.09-1.81,0l.66-.66-1.27.1.66.67c-.16-2-2-2.09-1.81,0l.67-.66-1.24.1.66.66c-.19-2-2-2.11-1.8,0l.66-.66-.68,0L76,38q-.48-6-.95-11.9l-1.14.47,12.78,11,.47-1.13-2,.16c-.84.07-.85,1.4,0,1.33l2-.16c.53,0,.95-.73.47-1.14L74.84,25.62c-.4-.34-1.18-.15-1.13.47q.47,6,1,11.9a.67.67,0,0,0,.67.66l.68,0a.68.68,0,0,0,.67-.67l-.86,0a.68.68,0,0,0,.67.67l1.24-.1a.68.68,0,0,0,.66-.67l-.85,0a.68.68,0,0,0,.67.66l1.27-.1a.68.68,0,0,0,.67-.67c.11-.92-.18-.93-.85,0a.67.67,0,0,0,.66.67l1.24-.1a.69.69,0,0,0,.67-.67l.08-.71-1,.14.11.54a.67.67,0,0,0,.66.66l1.23-.1a.67.67,0,0,0,.67-.66c.11-.94-.17-1-.85,0a.67.67,0,0,0,.67.66l1.28-.1a.67.67,0,0,0,.66-.66l-.85,0C84.56,38.05,85.89,38.06,85.82,37.2Z"/><path class="cls-5" d="M76.69,35.38a1,1,0,0,0,1,.82A18.44,18.44,0,0,0,80.4,36c.52,0,1.26-.09,1.43-.71s-.58-1.18-1-1.56c-.65-.57-1.31-1.13-2-1.7-.44-.38-1-1-1.61-1s-.8.74-.78,1.3c0,.95.17,1.91.23,2.86s1.38.86,1.33,0c0-.53-.08-1.06-.13-1.59,0-.34-.28-1.29-.08-1.57l-.57.33c.16,0,.66.57.79.68l.82.7.81.7c.19.16.86.57.9.82l.18-.65c-.22.2-1.29.11-1.58.14l-.79.06-.31,0c-.4,0-.42,0-.07.17C77.82,34.18,76.54,34.54,76.69,35.38Z"/><path class="cls-5" d="M80.27,34.17l-2.45.19.66.67-.19-2.43-1.14.47L79.8,35.3c.65.55,1.59-.39.94-.94l-2.65-2.23c-.4-.33-1.18-.15-1.13.47L77.15,35a.67.67,0,0,0,.67.66l2.45-.19C81.11,35.43,81.12,34.1,80.27,34.17Z"/><path class="cls-8" d="M74.17,25.25l.65.58,12.88,11a.83.83,0,0,1,.17.15c.06.1.14.22.11.3s-.17.15-.27.18a3.57,3.57,0,0,1-.47,0l-11.87,1c-.49,0-.5,0-.54-.44l-1-12.32a1.87,1.87,0,0,1,.09-.46Zm11,12,2-.16L74.37,26.09l1,11.9.68-.06c0-.25,0-.47-.06-.7s0-.33.21-.31.23.16.26.28a5.19,5.19,0,0,1,.07.7l1.24-.1-.06-.69c0-.18,0-.34.23-.35s.24.14.25.3l.06.7,1.27-.11c0-.24,0-.45,0-.67s0-.34.2-.35.27.14.28.32,0,.44,0,.67l1.24-.1a4.47,4.47,0,0,1,0-.72c0-.11.14-.22.22-.32.08.09.21.17.23.27a6,6,0,0,1,.07.74l1.23-.1c0-.24,0-.46,0-.69s0-.33.22-.35.25.14.26.31l.06.69,1.28-.1a4.51,4.51,0,0,1-.05-.72c0-.11.11-.29.21-.31s.25.09.26.27S85.13,37,85.15,37.2Z"/><path class="cls-8" d="M77.21,33.61c0-.53-.1-1.06-.12-1.59a.36.36,0,0,1,.13-.31.39.39,0,0,1,.33.08q1.76,1.49,3.49,3c.08.08.18.25.15.31a.45.45,0,0,1-.32.19l-3.15.26c-.26,0-.37-.07-.39-.34C77.3,34.67,77.25,34.14,77.21,33.61Zm3.06,1.22L77.62,32.6l.2,2.43Z"/><path class="cls-5" d="M96.27,58.6C93.2,54.53,90.33,50.18,87,46.33c-2.28-2.64-5.86-1-9.17-.57-1.68.2-9.17-.22-9.37,2.17-.1,1.29,2.84,4.48,3.51,5.53l4,6.18L77.09,59l-7.5-11.68a.69.69,0,0,0-.75-.31l-.08,0a.67.67,0,0,0-.49.64c0,3.34-.3,6,2.15,8.58,2.24,2.37,5,4.42,7.46,6.58a.68.68,0,0,0,.94,0c.12-.1-1.5.44-.27.36.26,0,.53-.07.8-.09a60.26,60.26,0,0,0,7-1.37c1.9-.37,9.17-.5,10-2.6.3-.8-1-1.14-1.28-.35.1-.27-1.53.21-2.3.36L87,60.24,81.55,61.3c-1,.18-2.76.32-2.56.65a.68.68,0,0,0-1-.14c.58-.49,1.11.32.17-.57-.46-.42-.93-.82-1.4-1.23l-3.79-3.34a14.71,14.71,0,0,1-1.77-1.57c-2.88-3.6-.08-4.26-1.56-6.94-.15-.27-1.17-.44-1,.1s.54.7.7,1.09a28.72,28.72,0,0,0,2.59,4l4,6.26c.46.72,1.61,0,1.15-.67-2.24-3.48-4.21-7.51-6.86-10.68-.81-1-.36-.37-.69-.2a7.8,7.8,0,0,1,2.06-.25l8.14-1c1.42-.17,4.14-1,5.52-.66-.11,0-.23,0,.43.58a14.39,14.39,0,0,1,1.63,2.16l7.8,10.33C95.63,59.94,96.79,59.28,96.27,58.6Z"/><path class="cls-9" d="M95.62,58.93,85.54,45.59a.2.2,0,0,0-.18-.07L69.17,47.46a.2.2,0,0,0-.15.3l9.42,14.68a.2.2,0,0,0,.2.09L95.5,59.24A.19.19,0,0,0,95.62,58.93Z"/><polygon class="cls-10" points="86.16 49.37 84.52 47.09 71.89 48.71 73.2 51.02 86.16 49.37"/><polygon class="cls-10" points="92.91 58.6 91.93 57.45 79.56 59.76 80.35 61.13 92.91 58.6"/><polygon class="cls-10" points="87.92 52.21 86.93 50.92 84.97 51.22 85.89 52.44 87.92 52.21"/><polygon class="cls-10" points="84.41 52.73 83.42 51.44 81.46 51.73 82.38 52.96 84.41 52.73"/><polygon class="cls-10" points="80.86 53.31 79.88 52.02 77.92 52.31 78.83 53.54 80.86 53.31"/><polygon class="cls-10" points="77.53 53.73 76.54 52.44 74.58 52.73 75.5 53.96 77.53 53.73"/><polygon class="cls-10" points="90 54.51 89 53.19 86.99 53.48 87.93 54.74 90 54.51"/><polygon class="cls-10" points="86.41 55.04 85.4 53.72 83.39 54.02 84.33 55.27 86.41 55.04"/><polygon class="cls-10" points="82.79 55.63 81.78 54.31 79.77 54.61 80.71 55.86 82.79 55.63"/><polygon class="cls-10" points="80.94 58.46 78.37 54.74 76.36 55.04 78.92 58.79 80.94 58.46"/><polygon class="cls-10" points="91.51 56.68 90.5 55.36 88.5 55.66 89.53 57.05 91.51 56.68"/><polygon class="cls-10" points="87.92 57.22 86.91 55.9 84.9 56.19 86 57.65 87.92 57.22"/><polygon class="cls-10" points="84.3 57.8 83.29 56.48 81.28 56.78 82.33 58.19 84.3 57.8"/><path class="cls-9" d="M68.86,47.65v4a5.14,5.14,0,0,0,1.75,3.88l7.66,6.77a0,0,0,0,0,.07-.06l-9.4-14.66S68.86,47.6,68.86,47.65Z"/><polygon class="cls-11" points="49.54 42.48 48.84 45.02 50.53 42.64 49.54 42.48"/><path class="cls-5" d="M48.9,42.31l-.7,2.54a.67.67,0,0,0,1.21.51L51.1,43a.66.66,0,0,0-.39-1l-1-.16a.7.7,0,0,0-.82.47.68.68,0,0,0,.46.82l1,.15-.4-1-1.69,2.39,1.22.51.7-2.54A.66.66,0,0,0,48.9,42.31Z"/><ellipse class="cls-12" cx="52.33" cy="37.81" rx="1.64" ry="1.22" transform="translate(-6.29 64.87) rotate(-60.63)"/><path class="cls-5" d="M52.82,38.08c-.16.26-.55.75-.93.6s-.21-.86-.06-1.13.54-.72.89-.62.24.87.1,1.15c-.39.76.76,1.43,1.15.67.5-1,.55-2.38-.56-3a2.36,2.36,0,0,0-2.23,4c1.06.61,2.23-.16,2.79-1.07C54.42,38,53.27,37.35,52.82,38.08Z"/><ellipse class="cls-13" cx="52.72" cy="38.04" rx="1.64" ry="1.22" transform="translate(-6.29 65.32) rotate(-60.63)"/><path class="cls-5" d="M53.21,38.3c-.16.26-.55.75-.93.61s-.21-.87-.05-1.14.53-.72.89-.62.24.87.09,1.15c-.39.76.76,1.43,1.15.67.5-1,.56-2.38-.56-3a2.36,2.36,0,0,0-2.22,4c1.06.61,2.22-.16,2.78-1.07C54.81,38.24,53.66,37.57,53.21,38.3Z"/><ellipse class="cls-14" cx="52.91" cy="38.03" rx="0.39" ry="0.29" transform="translate(-6.19 65.48) rotate(-60.63)"/><path class="cls-5" d="M52.58,37.84l-.06.16c-.31.8,1,1.14,1.28.35a1,1,0,1,0-1.75-.72A1,1,0,0,0,52.46,39a1,1,0,0,0,1.27-.47C54.24,37.82,53.09,37.15,52.58,37.84Z"/><polygon class="cls-11" points="62.73 45.77 61.81 48.23 61.84 45.31 62.73 45.77"/><path class="cls-5" d="M62.08,45.59l-.91,2.47,1.3.17,0-2.92-1,.58.89.45c.76.39,1.43-.76.67-1.15l-.89-.45a.67.67,0,0,0-1,.57l0,2.92a.67.67,0,0,0,1.31.18l.92-2.47C63.67,45.14,62.38,44.8,62.08,45.59Z"/><polygon class="cls-15" points="50.06 43.08 62.56 24.19 63.49 24.42 63.24 45.82 62.37 46.11 62.35 26.13 50.93 43.08 50.06 43.08"/><path class="cls-5" d="M50.63,43.41,60.71,28.19c.69-1,1.42-2.05,2.06-3.11.44-.73,0-.48.06-.26.09,2.84-.07,5.72-.11,8.57L62.6,43.82a8.56,8.56,0,0,0,0,1.6c.12.56.14,0,.05-.09.84,1.29.4-.35.4-1.3l0-17.9a.67.67,0,0,0-1.24-.34l-6,8.84-3.77,5.6a9.74,9.74,0,0,1-1.28,1.9c-.82.72.22.29-.71.28a.67.67,0,0,0,0,1.33c2.63,0,4.43-4.75,5.7-6.64l7.16-10.64-1.24-.33,0,20a.67.67,0,0,0,.84.64l.88-.28a.71.71,0,0,0,.49-.65l.25-21.4a.67.67,0,0,0-.49-.64l-.93-.23a.69.69,0,0,0-.75.31L49.48,42.74C49,43.46,50.16,44.12,50.63,43.41Z"/><polygon class="cls-16" points="49.1 42.6 61.73 24.28 62.66 24.5 62.37 46.18 60.91 45.88 61.9 25.53 50.1 43.17 49.1 42.6"/><path class="cls-5" d="M49.67,42.93,59.86,28.16c.68-1,1.46-2,2.07-3,.41-.7.06-.48.06-.26.09,3.05-.08,6.12-.12,9.17a103.58,103.58,0,0,0-.14,10.42c.1,1.1.24,2.21.09.91-.07-.66-.22,1.09-.22.06,0-.47,0-1,.07-1.43l.89-18.49a.67.67,0,0,0-1.24-.34l-6.14,9.18-3.9,5.84a10.62,10.62,0,0,1-1.37,2c-.82.71.54.34-.48-.24a.67.67,0,0,0-.67,1.15l1,.57a.67.67,0,0,0,.91-.23l11.8-17.65-1.24-.33-1,20.35a.67.67,0,0,0,.49.64l1.46.3a.68.68,0,0,0,.84-.64l.29-21.68a.68.68,0,0,0-.49-.64l-.93-.22a.67.67,0,0,0-.75.3L48.52,42.26C48,43,49.19,43.63,49.67,42.93Z"/><ellipse class="cls-12" cx="62.71" cy="42.64" rx="1.64" ry="1.22" transform="translate(16.21 102.54) rotate(-86.39)"/><path class="cls-5" d="M63.27,42.71c0,.29-.22,1-.64.9s-.5-.75-.47-1,.22-1,.63-.9.48.73.48,1.05a.67.67,0,0,0,1.33,0c0-1.06-.56-2.34-1.78-2.38a2.17,2.17,0,0,0-2,2.23,2.13,2.13,0,0,0,1.69,2.37c1.28.11,2-1.12,2.08-2.22C64.69,41.86,63.36,41.87,63.27,42.71Z"/><ellipse class="cls-13" cx="63.16" cy="42.66" rx="1.64" ry="1.22" transform="translate(16.61 103.01) rotate(-86.39)"/><path class="cls-5" d="M63.72,42.74c0,.29-.22,1-.64.9s-.5-.75-.47-1,.22-1,.63-.9.48.73.48,1.05a.67.67,0,0,0,1.33,0c0-1.06-.56-2.35-1.78-2.38A2.36,2.36,0,0,0,63,45c1.28.11,2-1.12,2.08-2.22C65.14,41.89,63.81,41.9,63.72,42.74Z"/><ellipse class="cls-14" cx="63.33" cy="42.58" rx="0.39" ry="0.29" transform="translate(16.85 103.1) rotate(-86.39)"/><path class="cls-5" d="M63,42.42l0,.18c0,.85,1.38.85,1.33,0a1,1,0,0,0-.93-1.07,1,1,0,0,0-1,.94,1,1,0,1,0,1.87.3C64.41,41.94,63.13,41.58,63,42.42Z"/><path class="cls-13" d="M55.2,31.06l.68-.26a5.64,5.64,0,0,0,4.19,2.86,11.49,11.49,0,0,0,4.38-.21l.09.83a12,12,0,0,1-6.19-.38A5.47,5.47,0,0,1,55.2,31.06Z"/><path class="cls-5" d="M55.37,31.71l.69-.27-.75-.31c1.69,3.2,6.08,4,9.32,3l-.84-.64.09.83.49-.64c-2.78.57-7.39.2-8.53-2.75-.31-.79-1.6-.45-1.29.35,1.49,3.83,6.68,4.4,10.17,3.68a.65.65,0,0,0,.49-.64l-.09-.83a.67.67,0,0,0-.84-.64c-2.68.86-6.41.31-7.83-2.35a.66.66,0,0,0-.75-.3l-.68.26C54.23,30.73,54.57,32,55.37,31.71Z"/><path class="cls-13" d="M61.05,25.19l.56-1.48.7-.07,1-2.83s.87-.29.89.49l-.86,2.87.55.33-.37,1.34-1,0Z"/><path class="cls-5" d="M61.69,25.37l.56-1.48-.64.48.7-.07a.7.7,0,0,0,.64-.49L64,21l-.47.47c.28-.08,0,0,.13-.17s0-.19-.07-.1l0,.12a3.85,3.85,0,0,0-.29,1L62.7,24a.67.67,0,0,0,.3.75l.56.33-.31-.75-.37,1.33.64-.49h-.67c-.37,0-.05,0-.33-.07-.44-.17-.86-.36-1.29-.54-.79-.32-1.14,1-.36,1.29.46.18.93.44,1.4.58a5.19,5.19,0,0,0,1.25.08.68.68,0,0,0,.64-.48l.37-1.34a.68.68,0,0,0-.3-.75l-.56-.33.31.75c.3-1,1.76-3.89-.07-4.23-.84-.16-1.17.28-1.41,1l-.83,2.35.64-.49-.7.08a.71.71,0,0,0-.65.48L60.41,25C60.11,25.82,61.39,26.17,61.69,25.37Z"/><polygon class="cls-11" points="49.45 42.48 48.75 45.02 50.44 42.64 49.45 42.48"/><ellipse class="cls-12" cx="52.23" cy="37.81" rx="1.64" ry="1.22" transform="translate(-6.34 64.79) rotate(-60.63)"/><ellipse class="cls-13" cx="52.63" cy="38.04" rx="1.64" ry="1.22" transform="translate(-6.33 65.24) rotate(-60.63)"/><ellipse class="cls-14" cx="52.81" cy="38.03" rx="0.39" ry="0.29" transform="translate(-6.23 65.4) rotate(-60.63)"/><polygon class="cls-11" points="62.63 45.77 61.72 48.23 61.74 45.31 62.63 45.77"/><polygon class="cls-15" points="49.97 43.08 62.47 24.19 63.4 24.42 63.15 45.82 62.27 46.11 62.26 26.13 50.84 43.08 49.97 43.08"/><polygon class="cls-16" points="49.01 42.6 61.64 24.28 62.57 24.5 62.28 46.18 60.82 45.88 61.8 25.53 50.01 43.17 49.01 42.6"/><ellipse class="cls-12" cx="62.62" cy="42.64" rx="1.64" ry="1.22" transform="translate(16.13 102.45) rotate(-86.39)"/><ellipse class="cls-13" cx="63.07" cy="42.66" rx="1.64" ry="1.22" transform="translate(16.52 102.92) rotate(-86.39)"/><ellipse class="cls-14" cx="63.24" cy="42.58" rx="0.39" ry="0.29" transform="translate(16.76 103.01) rotate(-86.39)"/><path class="cls-13" d="M55.1,31.06l.69-.26A5.64,5.64,0,0,0,60,33.66a11.49,11.49,0,0,0,4.38-.21l.09.83a12,12,0,0,1-6.19-.38A5.51,5.51,0,0,1,55.1,31.06Z"/><path class="cls-13" d="M61,25.19l.55-1.48.71-.07,1-2.83s.88-.29.9.49l-.86,2.87.55.33-.37,1.34-1,0Z"/><path class="cls-5" d="M22,54.79l7-3.35-.91-.24,1,2.17.24-.91c.33-.16-.53-.89-.9-1a2.71,2.71,0,0,0-1.86.17,26.07,26.07,0,0,0-3.71,1.74c-.5.23-.36.88,0,1.14l2.89,2.14a15.57,15.57,0,0,0,1.74,1.28c.84.46.32.29.31.14a59,59,0,0,1-.37,7.27.68.68,0,0,0,1,.58c1.19-.57,2.42-1.09,3.58-1.71a4.1,4.1,0,0,0,1.63-1.3c.18-.26.74-2.37.42-2.22l-1-.39c.25.88.55,1.76.76,2.65,0,0,.75-.45-.09-.23a6.93,6.93,0,0,0-1.2.57l-5.43,2.6,1,.57L28.4,62c.05-.93.5-2.68.08-3.57s-2-1.51-2.63-2L22,53.64c-.69-.5-1.35.65-.67,1.15l2.87,2.09,2.3,1.67c.27.2,1.11,1,.88.5s-.2.8-.21,1L27,62.59l-.2,3.83a.68.68,0,0,0,1,.58L35,63.6a.69.69,0,0,0,.31-.76l-.85-2.94a.67.67,0,0,0-1-.39l-.26.12a.66.66,0,0,0-.33.57c.24,2.81-3.09,3.6-5,4.53l1,.57.21-4c0-.93.5-2.66.16-3.55s-1.37-1.26-2-1.72l-3.61-2.66v1.14c1.33-.63,4-2.58,5.41-.85a.67.67,0,0,0,.81.11l.25-.12a.69.69,0,0,0,.24-.91l-1-2.17a.67.67,0,0,0-.91-.24l-7,3.35C20.56,54,21.24,55.16,22,54.79Z"/><g class="cls-3"><text class="cls-17" transform="translate(25.2 63.74) rotate(-25.57)">∑</text></g><path class="cls-5" d="M37.64,87.69l7-3.35-.91-.24,1,2.17.24-.91c.33-.16-.53-.89-.9-1a2.68,2.68,0,0,0-1.87.16,27.78,27.78,0,0,0-3.71,1.74.68.68,0,0,0,0,1.15l2.89,2.13a16.55,16.55,0,0,0,1.74,1.28c.84.46.33.3.32.15a61.15,61.15,0,0,1-.37,7.27.67.67,0,0,0,1,.57c1.19-.57,2.42-1.09,3.57-1.71a4.12,4.12,0,0,0,1.64-1.3c.18-.26.73-2.37.41-2.21l-1-.4c.25.88.54,1.76.76,2.65,0,0,.75-.45-.09-.23a6.93,6.93,0,0,0-1.2.57l-5.43,2.6,1,.57L44,94.89c0-.93.5-2.68.07-3.57s-2-1.51-2.62-2l-3.85-2.81c-.69-.5-1.36.65-.67,1.15l2.87,2.09,2.29,1.67c.28.2,1.11,1,.88.51s-.19.79-.2,1l-.13,2.52-.2,3.83a.67.67,0,0,0,1,.58l7.11-3.4a.67.67,0,0,0,.3-.75l-.84-2.94a.68.68,0,0,0-1-.4l-.25.12a.64.64,0,0,0-.33.57c.24,2.81-3.09,3.6-5,4.53l1,.58.2-4c.05-.92.5-2.66.17-3.54s-1.37-1.27-2-1.72l-3.61-2.67v1.15c1.33-.64,4-2.59,5.41-.85a.68.68,0,0,0,.81.1l.25-.12a.68.68,0,0,0,.24-.91l-1-2.17a.69.69,0,0,0-.91-.24l-7,3.35C36.2,86.91,36.87,88.06,37.64,87.69Z"/><g class="cls-3"><text class="cls-17" transform="translate(40.83 96.64) rotate(-25.57)">∑</text></g><path class="cls-5" d="M77.6,85.84a18.92,18.92,0,0,1-4.44-7C72.85,78,73.05,77,72,76.64s-1.25.59-1.89,1.11c.27-.23-.24.29-.59.56A13.65,13.65,0,0,1,67,79.47a12.56,12.56,0,0,1-2.76,1.28c-.45.08-.91-.23-1-.19-1.13.41-1.08.37-1.57,1.47-.14.31.29.51.14,1s-1.62,2.65-1.1,2.18c-.62.56-1.5,0-1.64,1.28s.86,1,1.46,1.66c.14.15-.57-.68,0,.27a23.27,23.27,0,0,1,1.12,2.3c.73,1.49,2.58,3.89,2.71,5.53,0-.67-.88.16-.62.95.31,1,1.19,1.68,2.21,1.05.67-.41.7-1.89.24-1.26.73-1,3.62-1.78,4.73-2.32s2-1,3.08-1.51.86-.2.5-.19c.77,0,1.37.76,2.11-.21.43-.55.18-.77.24-1.25.1-.78-.3-2,.13-3.08.24-.59,1-1.09.79-2.31-.14-.84-1.42-.48-1.28.36l-.21.42a.66.66,0,0,0-.46.47c-.16.88-1.17,3.52-.56,4.38a.69.69,0,0,0-.91-.23l-8.91,4.36a.66.66,0,0,0-.3.75l.28.16a.67.67,0,0,0,.24-.9l-4.3-8.79a.69.69,0,0,0-.75-.31l0-.22a.7.7,0,0,0,.75-.31l1.88-3.19a.67.67,0,0,0,0-.67c.3.51,7.1-3,7.86-3.4a.66.66,0,0,0,.33-.58c.18,1.49,1.83,3.49,2.54,4.82a10,10,0,0,0,2.64,3.53C77.31,87.32,78.26,86.39,77.6,85.84Z"/><path class="cls-18" d="M60.12,86.83l4.9,10a.35.35,0,0,0,.46.12l7.14-3.5c2-1,3-1,3.65-2.88.68-2.16.9-3.6-.1-5.47l-4-7.38a.35.35,0,0,0-.46-.12c-2.6,1.21-5.61,2.18-8,3.72-1.75,1.13-2.54,3.34-3.61,5.15a.33.33,0,0,0,.57.33c1-1.6,1.76-3.69,3.18-4.82,1.95-1.53,5.07-2.31,7.31-3.38,1.09-.52.28-.53.74,0A21.44,21.44,0,0,1,74,82.46c1.06,2,2.35,3.48,2.07,5.51-.38,2.84-.2,3.19-2.61,4.37s-5,2.55-7.52,3.68c-1,.46-.13.51-.55,0a17.65,17.65,0,0,1-1.75-3.57l-2.93-6C60.5,86.11,59.93,86.45,60.12,86.83Z"/><path class="cls-18" d="M76.23,86.38l-4.35,2-3.11,1.45c-.35.16-1.26.8-1.68.78.72,0,.09-.61-.21-1.27l-1.39-3.08-2-4.48c-.17-.38-.75,0-.57.34l4,9a.35.35,0,0,0,.46.12L76.57,87c.39-.18.05-.75-.34-.57Z"/><path class="cls-18" d="M65.63,96.78,67.55,91c.13-.41-.51-.58-.64-.18L65,96.6c-.14.41.5.58.64.18Z"/><path class="cls-18" d="M75.73,91.51,72,84.22c-.35-.67-1.33-1.93-1.39-2.71,0,.25.58-1.24.66-1.48l.64-1.7c.15-.4-.49-.58-.64-.18-.35.94-1.3,2.47-1.29,3.46a6.41,6.41,0,0,0,1,2.14l4.13,8.1c.2.38.77,0,.58-.34Z"/><path class="cls-18" d="M60.68,86.85l9.6-4.91c.38-.19,0-.77-.34-.57l-9.6,4.9c-.38.2,0,.77.34.58Z"/><circle class="cls-19" cx="70" cy="81.76" r="0.82"/><circle class="cls-19" cx="60.49" cy="86.68" r="0.82"/><circle class="cls-19" cx="63.11" cy="82.03" r="0.82"/><circle class="cls-19" cx="71.53" cy="78.04" r="0.82"/><circle class="cls-19" cx="75.46" cy="91.86" r="0.82"/><circle class="cls-19" cx="65.2" cy="97.04" r="0.82"/><circle class="cls-19" cx="67.16" cy="91.36" r="0.82"/><circle class="cls-19" cx="76.43" cy="86.74" r="0.82"/><path class="cls-5" d="M93.37,70.28h6.52l-.67-.67v.47l.67-.67H93.37l.66.67v-.47a.67.67,0,0,0-1.33,0v.47a.67.67,0,0,0,.67.66h6.52a.67.67,0,0,0,.66-.66v-.47a.67.67,0,0,0-.66-.66H93.37A.67.67,0,0,0,93.37,70.28Z"/><path class="cls-5" d="M96.63,67.85c-.08,0,0-.06,0-.08s.07.07,0,.08c.84-.07.85-1.4,0-1.33a1.33,1.33,0,0,0-1.3,1.29,1.3,1.3,0,0,0,2.59,0,1.33,1.33,0,0,0-1.29-1.29C95.78,66.45,95.78,67.78,96.63,67.85Z"/><path class="cls-5" d="M96.63,71.92c-.08,0,0-.07,0-.08s.07.07,0,.08c.84-.08.85-1.41,0-1.33a1.29,1.29,0,1,0,0,2.58,1.31,1.31,0,0,0,1.29-1.29,1.32,1.32,0,0,0-1.29-1.29C95.78,70.51,95.78,71.84,96.63,71.92Z"/><path class="cls-6" d="M93.37,69.61h6.52v.47H93.37Zm3.26-2.42a.6.6,0,0,1,.44.18.58.58,0,0,1,.19.44.6.6,0,0,1-.19.45.6.6,0,0,1-.44.18.61.61,0,0,1-.45-.18.63.63,0,0,1-.18-.45.6.6,0,0,1,.18-.44A.61.61,0,0,1,96.63,67.19Zm0,4.06a.58.58,0,0,1,.44.19.56.56,0,0,1,.19.44.58.58,0,0,1-.19.44.6.6,0,0,1-.44.18.61.61,0,0,1-.45-.18.6.6,0,0,1-.18-.44.63.63,0,0,1,.63-.63Z"/><path class="cls-5" d="M26.69,80.43a1.5,1.5,0,0,0,.77-.22A.67.67,0,0,0,27,79l-.44.13a.67.67,0,0,0,.36,1.29l.43-.13-.51-1.22c-.22.11-.05,0-.1,0C25.84,79,25.84,80.37,26.69,80.43Z"/><path class="cls-5" d="M35.43,76.51a2.67,2.67,0,0,1-1.92-.94l.11.81a3.72,3.72,0,0,1,1.23-1.84.67.67,0,0,0-.51-1.22L25.9,75.25c-.76.18-.54,1.26.18,1.31,1.67.12,2.07,1.55.71,2.5-.58.41-.25,1.44.51,1.22,1.36-.41,2.77-.69,4.09-1s2.8-1,4.21-1.44c.82-.24.47-1.53-.35-1.28L27,79l.51,1.22a5.09,5.09,0,0,0,1.7-2.74.64.64,0,0,0-.17-.65,4.47,4.47,0,0,0-2.91-1.59l.18,1.31,8.43-1.94-.51-1.21a4.8,4.8,0,0,0-1.71,2.32.68.68,0,0,0,.1.81,4.2,4.2,0,0,0,2.86,1.31A.66.66,0,0,0,35.43,76.51Z"/><path class="cls-5" d="M35.6,77.81a3,3,0,0,0,.81-.26c.69-.3.2-1.42-.52-1.21l-.64.19c-.82.24-.47,1.53.35,1.28l.65-.19-.51-1.22a2.09,2.09,0,0,1-.49.13C34.41,76.66,34.77,77.94,35.6,77.81Z"/><path class="cls-5" d="M35.14,73.22a1.68,1.68,0,0,0-1,.17c-.72.3-.19,1.37.51,1.21l.45-.1c.83-.19.48-1.47-.36-1.28l-.44.1.51,1.22c.06,0,0,0-.07,0A.69.69,0,0,0,35.6,74,.67.67,0,0,0,35.14,73.22Z"/><path class="cls-5" d="M26.08,75.23a3.31,3.31,0,0,0-.83.17.67.67,0,0,0,.35,1.29l.66-.15c.83-.19.48-1.48-.36-1.29l-.65.15.35,1.29a2,2,0,0,1,.48-.13C26.92,76.48,26.93,75.15,26.08,75.23Z"/><line class="cls-20" x1="25.84" y1="75.98" x2="27.06" y2="79.67"/><line class="cls-20" x1="26.74" y1="75.93" x2="27.71" y2="79"/><line class="cls-20" x1="28.91" y1="75.85" x2="29.67" y2="78.15"/><line class="cls-20" x1="29.49" y1="75.01" x2="30.65" y2="78.56"/><line class="cls-20" x1="30.19" y1="74.75" x2="31.44" y2="78.52"/><line class="cls-20" x1="31.23" y1="75.02" x2="32.17" y2="78.05"/><line class="cls-20" x1="32.21" y1="75.43" x2="32.64" y2="77.2"/><line class="cls-20" x1="33.76" y1="74.71" x2="34.55" y2="77.08"/><line class="cls-20" x1="34.7" y1="73.9" x2="35.6" y2="77.09"/><path class="cls-21" d="M26.69,79.76s1.23.2,2.08-3.39,4.61,0,4.61,0a2.46,2.46,0,0,0,2.69.64"/><path class="cls-21" d="M35,73.86s-1.22-.27-2.29,3.25-4.61-.26-4.61-.26a2.43,2.43,0,0,0-2.64-.8"/></g></g></svg>