<svg xmlns="http://www.w3.org/2000/svg" viewBox="0 0 123 123"><defs><style>.cls-1{fill:#e6e6e6;stroke:#91075d;stroke-width:6px;}.cls-1,.cls-12,.cls-13,.cls-49,.cls-67{stroke-miterlimit:10;}.cls-2{fill:#f29100;}.cls-3{fill:#8e4d00;}.cls-4{fill:#fff;}.cls-5{fill:#636363;}.cls-6{fill:#d9be71;}.cls-7{fill:#c68e29;}.cls-8{fill:#a98427;}.cls-9{fill:#be8692;}.cls-10{fill:#efcc7f;}.cls-11{fill:#232322;}.cls-12,.cls-13,.cls-24,.cls-28,.cls-67{fill:none;}.cls-12,.cls-13{stroke:#ce662b;}.cls-12{stroke-width:0.17px;}.cls-13{stroke-width:0.14px;}.cls-14{fill:#b78647;}.cls-15{fill:#f3d432;}.cls-16{fill:#db310b;}.cls-17{fill:#a60000;}.cls-18{fill:#467c6b;}.cls-19{fill:#4a7eaf;}.cls-20{opacity:0.85;}.cls-21{fill:#e04c2b;}.cls-22{opacity:0.7;}.cls-23{fill:#f5da4d;}.cls-24{stroke:#f5da4d;}.cls-24,.cls-28{stroke-width:0;}.cls-25,.cls-43{opacity:0.8;}.cls-26{fill:#b22222;}.cls-27{fill:#628fba;}.cls-28{stroke:#628fba;}.cls-29{fill:#5f8d7f;}.cls-30{fill:#bb4919;}.cls-31{fill:#3a0014;}.cls-32{fill:#6bbce6;}.cls-33{fill:#1b132b;}.cls-34{fill:#d51e2c;}.cls-35{fill:#c22d36;}.cls-36{fill:#9e9e9a;}.cls-37{fill:#4d3b52;}.cls-38{fill:#e8a239;}.cls-39{fill:#a8b5e5;}.cls-40{fill:#885073;}.cls-41{fill:#e69898;}.cls-42{font-size:3.36px;}.cls-42,.cls-47{fill:#2c285b;}.cls-42,.cls-47,.cls-56{font-family:BaskOldFace, Baskerville Old Face;}.cls-43{fill:#1e1a33;}.cls-44{fill:#4a77b7;}.cls-45{fill:#cecfde;}.cls-46{opacity:0.5;}.cls-47{font-size:2.24px;}.cls-48{fill:#f1ce30;}.cls-49{fill:#fcfcfc;stroke:#000;stroke-width:0.09px;}.cls-50{fill:#579ae4;}.cls-51{fill:#0000c8;}.cls-52{fill:#b7bdbb;}.cls-53{fill:#f0c82f;}.cls-54{fill:#eaabc8;}.cls-55{fill:#da1876;}.cls-56{font-size:5.64px;fill:#efdad8;}.cls-57{fill:#bcdf6b;}.cls-58{fill:#82bd2c;}.cls-59{fill:#897abd;}.cls-60{fill:#c3bbdd;}.cls-61{fill:#a59acd;}.cls-62{fill:#ababab;}.cls-63{fill:#e54332;}.cls-64{fill:#ffbb30;}.cls-65{fill:#00b6cb;}.cls-66{fill:#09455f;}.cls-67{stroke:#fff;stroke-width:0.28px;}</style></defs><title>Recurso 5</title><g id="Capa_2" data-name="Capa 2"><g id="Capa_1-2" data-name="Capa 1"><rect class="cls-1" x="3" y="3" width="117" height="117" rx="29.93" ry="29.93"/><path class="cls-2" d="M84,14H38.05a24.05,24.05,0,0,0-24,24V84a23.91,23.91,0,0,0,6.08,16L99.92,20.08A23.91,23.91,0,0,0,84,14Z"/><path class="cls-3" d="M99.92,20.08,20.08,99.92a24,24,0,0,0,18,8.08H84a24.05,24.05,0,0,0,24-24V38.05A24,24,0,0,0,99.92,20.08Z"/><path class="cls-4" d="M87.4,29.79a6.21,6.21,0,0,0-.67-1.21c-.64-.9-1.11-1-1.29-2-.12-.69.18-1.52.09-2.25-.07-.54-.36-1.24-.48-1.77-.4-1.72-.36-5.12-2.21-6.1a.45.45,0,0,0-.54.06l-.21.25a.46.46,0,0,0-.07.54l.16.4.54-.54-.35-.07a.45.45,0,0,0-.5.21l0,0a.47.47,0,0,0,.06.54,4.2,4.2,0,0,1,1,4.35l.81-.11c-.57-.85-.53-2.34-1.84-2.36A1.39,1.39,0,0,0,80.48,21c-.09.64.58,2,1.11,1.36-.36.44-2.14.35-2.7.39-1.17.08-2.31,0-3.48,0a.46.46,0,0,0-.44.44v.07a.45.45,0,0,0,.33.43l.49.14-.19-.74-.37.39a.47.47,0,0,0-.07.54l.11.21a.45.45,0,0,0,.7.09c.56-.44,3.88,0,4.38.14.69.26,2.39-.66.68,1.81-.25.36-1.42.69-1.85.84a29.83,29.83,0,0,0-4.75,1.71A1.24,1.24,0,0,0,73.6,30a.43.43,0,0,0,.32.43c1.18.38,2.76-.59,3.86-.93a11.46,11.46,0,0,1,2.79-.72c1.11,0,.58,0,1.5.58,1.08.72,4.93,3,5.33.7.09-.55-.76-.79-.86-.23s-1.92-.39-2.23-.49c-1-.31-1.68-.31-2.25-1.48a.48.48,0,0,0-.51-.2,28.15,28.15,0,0,0-5.08,1.16c-1.18.42-1.87.95-.19.37,1.51-.52,3-1.11,4.42-1.76.72-.33,2.09-.63,2.38-1.59.48-1.52-1.36-2.14-2.56-2.27-1.37-.16-3.94-.83-5.19.15l.7.09.19-.06A.45.45,0,0,0,76,23c-.46.63-.31.87.47.7a5.78,5.78,0,0,0,1.71-.08c.81,0,1.6,0,2.41-.12a3.56,3.56,0,0,0,1.91-.53.45.45,0,0,0,0-.63c-.37-.34-.56-1.2.41.24a.45.45,0,0,0,.81-.1A6.69,6.69,0,0,0,84,20a5.13,5.13,0,0,0-.52-1.84c-.63-.5.19.07-.94-.14a.44.44,0,0,0,.54-.54c-.07-.27-.38-.89-.62-.15-.06.19.78,1.18,1,1.67a27.75,27.75,0,0,1,.74,4.15,8.3,8.3,0,0,1,.53,2.59,7.48,7.48,0,0,0-.26,1.3c.17,1.3,1.62,1.71,2.15,3C86.75,30.55,87.61,30.32,87.4,29.79Z"/><path class="cls-4" d="M83.83,28.47c.18.11.08-.18,0-.29a.52.52,0,0,0-.35-.28,1.29,1.29,0,0,0-.48,0,.88.88,0,0,1-.72-.23l.21.5v0l-.43.32c.29,0,.8-.13,1,.05a4.72,4.72,0,0,1,.59.67l.32-.76H83.6c-.57,0-.56.85,0,.88h.45a.45.45,0,0,0,.31-.76c-.26-.28-.51-.7-.86-.87a2.88,2.88,0,0,0-1.4-.1.45.45,0,0,0-.43.32v.05a.46.46,0,0,0,.21.5,1.73,1.73,0,0,0,.74.37,1.4,1.4,0,0,0,.41,0c.06,0,.36,0,.21-.05l-.2-.27c0,.13,0,.29,0,.43a.69.69,0,0,0,.3.33C83.87,29.54,84.31,28.77,83.83,28.47Z"/><path class="cls-5" d="M83.31,22.33a3.56,3.56,0,0,1,.17-.68.79.79,0,0,0,0-.56,1.17,1.17,0,0,1,0-.67.65.65,0,0,0,0-.33,5.74,5.74,0,0,1-.19-.82,2.89,2.89,0,0,0-.28-.92.87.87,0,0,0-.2-.23l-.62-.57,0-.05.35.06c.05-.23-.19-.35-.2-.5l.21-.25h0c0,.2.19.25.32.34a1.14,1.14,0,0,1,.45.63c.17.48.35.94.54,1.41a3,3,0,0,1,.24,1.07,5.39,5.39,0,0,0,.13.77,4.52,4.52,0,0,1,0,1.22,1,1,0,0,0,.2.74,3.71,3.71,0,0,1,.54,2.71c0,.24,0,.48-.07.72a.29.29,0,0,1-.07.17c-.12.12-.09.27-.12.41s.08.4.26.54a6.5,6.5,0,0,1,.75.62,6.7,6.7,0,0,1,1,1.53,1.8,1.8,0,0,1,.08.21.57.57,0,0,1-.62.75,1.63,1.63,0,0,1-.8-.27,2.78,2.78,0,0,0-.49-.24c-.32-.15-.64-.34-1-.47s-.64-.18-1-.27a1.2,1.2,0,0,1-.27-.08,3,3,0,0,1-1-.82,3.27,3.27,0,0,1-.23-.46,5.43,5.43,0,0,0-.63.08c-.4.11-.78.25-1.17.35s-.61.08-.92.14a1.15,1.15,0,0,0-.44.15,2.27,2.27,0,0,1-.85.26c-.36.06-.72.11-1.08.18a1.12,1.12,0,0,0-.61.33,1.62,1.62,0,0,1-.8.35,4.59,4.59,0,0,0-.69.22A.44.44,0,0,1,74,30a.26.26,0,0,1,0-.37,1.67,1.67,0,0,1,1-.53,3.32,3.32,0,0,0,1.08-.34q.89-.41,1.77-.84a2.27,2.27,0,0,1,.92-.23,2,2,0,0,0,1-.29,7.67,7.67,0,0,1,2-.9.83.83,0,0,0,.53-.4,3.19,3.19,0,0,1,.32-.43.43.43,0,0,0,0-.63c-.22-.22-.47-.41-.69-.63a1,1,0,0,0-.85-.32,3.41,3.41,0,0,1-1.3-.18,2.41,2.41,0,0,0-.85,0,7.26,7.26,0,0,1-1.74-.14.67.67,0,0,0-.24,0c-.15,0-.3.07-.45.08a.51.51,0,0,1-.27-.06.29.29,0,0,0-.32,0l-.3.24-.1-.22.36-.39-.49-.14v-.07h.38c.47,0,.93.08,1.4.08s.67-.08,1-.1.92,0,1.37,0,.7-.08,1-.11a.69.69,0,0,0,.41-.15.67.67,0,0,1,.57-.12,1.92,1.92,0,0,0,.48,0c.05,0,.09-.08.13-.12s-.08-.1-.13-.12a3.68,3.68,0,0,1-.49-.23.76.76,0,0,1-.26-.3,5.81,5.81,0,0,1-.31-.61,2.34,2.34,0,0,1-.09-.24.54.54,0,0,1,.23-.63,1.42,1.42,0,0,1,.64-.31.75.75,0,0,1,.86.57c0,.23.08.47.12.71a.35.35,0,0,0,0,.11ZM82.1,28v0a2.48,2.48,0,0,1,.26.19.66.66,0,0,0,.56.12,2.33,2.33,0,0,1,.38,0c.18,0,.2,0,.19.2a.5.5,0,0,0,0,.21.23.23,0,0,0,.12.12,3.38,3.38,0,0,0,.45,0c-.19-.22-.39-.41-.55-.63a.51.51,0,0,0-.28-.2A4.2,4.2,0,0,0,82.1,28Z"/><path class="cls-4" d="M79.68,82.84c-3.23-1.27-7.38,5.25-9.34,7.4l-6.6,7.26a31.29,31.29,0,0,0-2.12,2.34,3.2,3.2,0,0,0-.25.27c-.82,1.32.27-.25.67-.25a1,1,0,0,0-1,1c0,1.22,0,0,0,0-.23.65-.47,1.3-.7,2l1.66-.44h0a1,1,0,0,0-1.67.44c-.13.39-.27.77-.41,1.16-.31.89.75,1.45,1.47,1.12l1.1-.52a1,1,0,0,0,.2-1.56h0l-.2,1.57a3.81,3.81,0,0,1,.79-.38l.55-.25c.85-.26.72-.43-.4-.52a1,1,0,0,0,1.21.16c1.12-.56,2.2-2.36,3-3.26l6.92-7.61c2-2.26,7.37-6.21,5.73-9.42-.58-1.14-2.3-.13-1.71,1,.75,1.47-5.84,7.45-6.68,8.38l-5.67,6.23A13.72,13.72,0,0,0,64.32,101c0,.07-.69.65-.68.75.14,1.22-2.93-3.45,1.14.26a1,1,0,0,0-1.2-.16l-2.14,1a1,1,0,0,0-.2,1.56h0l.2-1.57-1.11.52,1.46,1.12c.14-.38.28-.76.41-1.15l-1.66.44h0a1,1,0,0,0,1.67-.43l.79-2.22a1,1,0,0,0-.25-1l.27.69-1,1c.73,0,.56-.48,1-.77s-.43.63-.14.32a5.32,5.32,0,0,1,.55-.61c2.11-1.68,3.86-4.25,5.68-6.25,1-1.14,8-10.57,10-9.78C80.34,85.23,80.86,83.31,79.68,82.84Z"/><rect class="cls-6" x="68.3" y="84.64" width="2.78" height="19.71" transform="translate(81.68 -22.31) rotate(42.27)"/><rect class="cls-7" x="75.25" y="86.39" width="2.78" height="0.93" transform="translate(78.34 -28.96) rotate(42.27)"/><rect class="cls-8" x="75.87" y="85.7" width="2.78" height="0.93" transform="translate(78.04 -29.56) rotate(42.27)"/><path class="cls-9" d="M79.41,83.8a1.34,1.34,0,0,0-1.88,0l-1,1.08,2.06,1.87,1-1.08A1.34,1.34,0,0,0,79.41,83.8Z"/><polygon class="cls-10" points="64.1 102.7 64.13 102.69 64.11 102.66 64.16 102.28 64.23 101.83 63.79 101.94 63.46 102.02 63.51 101.69 63.57 101.23 63.13 101.34 62.82 101.42 62.86 101.1 62.92 100.64 62.48 100.75 62.1 100.84 62.07 100.82 62.06 100.85 62.04 100.86 62.05 100.87 61.46 102.53 60.85 104.23 62.49 103.46 64.08 102.71 64.09 102.73 64.1 102.7"/><polygon class="cls-11" points="61.73 103.52 61.95 103.72 61.19 104.08 60.84 104.24 60.97 103.88 61.25 103.09 61.73 103.52"/><line class="cls-12" x1="62.93" y1="100.64" x2="75.68" y2="86.61"/><line class="cls-12" x1="63.57" y1="101.23" x2="76.32" y2="87.2"/><line class="cls-12" x1="64.22" y1="101.82" x2="76.97" y2="87.79"/><path class="cls-4" d="M74.24,33.91c1,1.21-4.56,9.42-5.08,10.37-1.13,2-2.28,4.08-3.38,6.14-.5.94-.19,0-.23.49,0,.29-.37.45-.23.84l.57-1,.62.08a.85.85,0,0,0-1,.13L64,52.16a.83.83,0,0,0,.17,1.29h0L64,52.16l-.8.63,1.41.58c0-.33.07-.67.11-1l-1.24.71h0a.83.83,0,0,0,1.24-.71l.21-1.94a.82.82,0,0,0-.41-.72c1.11.61-.26,1.38.83.13a13.3,13.3,0,0,0,1.22-2.22l3.49-6.33c.42-.77,3.3-7.35,4.54-7.17,1,.15,1.49-1.44.44-1.59-3-.43-4.33,4.15-5.55,6.37l-4.18,7.59c-.56,1-1.86,2.53-2,3.71a.87.87,0,0,0,.38.93c-.8-.44-.52.53-.6,1.24l1.24-.71h0a.84.84,0,0,0-1.24.72c0,.33-.07.67-.11,1-.08.8.92,1,1.41.59l.8-.63A.84.84,0,0,0,65,52h0l.17,1.29c.3-.23,1.4-1.45.89-1-.15.13-.26.22.29,0a.85.85,0,0,0,.58-1c.13.38-.79,1.51,0,.43a18.05,18.05,0,0,0,1.21-2.2l4.46-8.1c1.22-2.22,4.76-6.39,2.79-8.7C74.71,31.93,73.55,33.1,74.24,33.91Z"/><rect class="cls-6" x="67.89" y="35.65" width="2.31" height="16.34" transform="translate(108.39 115.5) rotate(-151.16)"/><rect class="cls-7" x="72.01" y="35.93" width="2.31" height="0.77" transform="translate(119.74 103.43) rotate(-151.16)"/><rect class="cls-8" x="72.39" y="35.26" width="2.31" height="0.77" transform="translate(120.77 102.34) rotate(-151.16)"/><path class="cls-9" d="M74.82,33.32a1.11,1.11,0,0,1,.5,1.48l-.58,1.06-2-1.11.58-1.06A1.11,1.11,0,0,1,74.82,33.32Z"/><polygon class="cls-10" points="64.11 50.41 64.11 50.38 64.14 50.39 64.42 50.24 64.76 50.07 64.79 50.45 64.81 50.72 65.06 50.6 65.4 50.42 65.44 50.8 65.46 51.07 65.7 50.95 66.04 50.77 66.08 51.15 66.11 51.48 66.13 51.49 66.11 51.51 66.11 51.53 66.09 51.52 64.96 52.43 63.78 53.37 63.95 51.87 64.11 50.43 64.09 50.42 64.11 50.41"/><polygon class="cls-11" points="64.1 52.48 63.89 52.37 63.81 53.06 63.78 53.37 64.03 53.18 64.57 52.74 64.1 52.48"/><line class="cls-13" x1="66.04" y1="50.78" x2="73.62" y2="37.01"/><line class="cls-13" x1="65.4" y1="50.42" x2="72.98" y2="36.66"/><line class="cls-13" x1="64.77" y1="50.07" x2="72.34" y2="36.31"/><path class="cls-4" d="M36.45,26c-3.5-6.8-12.12-4.36-15.75,1.08-3.34,5,1.49,10.47,5.08,13.78,2.45,2.26,7.23,6.9,10.68,3.25a2.75,2.75,0,0,0,.64-2.51c-.46-3.19-2.2-4.3-.47-7.77,1.5-3,1.19-4.61-.18-7.83-.42-1-1.84-.13-1.42.84,1.35,3.16,1.08,4.2-.34,7.06a6.39,6.39,0,0,0-.23,5.29c.56,1.62,1.76,3.67-.6,4.37a3.71,3.71,0,0,1-2.67-.42,18.05,18.05,0,0,1-3.05-2.39c-2.79-2.38-6.8-5.92-6.95-9.88-.11-2.89,2.87-5.47,5.24-6.64,3.35-1.66,6.89-.72,8.6,2.61C35.51,27.82,36.94,27,36.45,26Z"/><path class="cls-14" d="M31,44c-.49-.38-14.5-9.94-9.55-16.49s12-6.23,14.33-1.08,1,5.17-.52,8.22,1.27,5.88,1.14,7.87S32.19,45,31,44Z"/><circle class="cls-15" cx="30.07" cy="25.37" r="1.53"/><circle class="cls-16" cx="33.9" cy="32.16" r="1.53"/><circle class="cls-17" cx="33.64" cy="27.34" r="1.53"/><circle class="cls-18" cx="25.9" cy="26.18" r="1.53"/><circle class="cls-19" cx="23.5" cy="29.76" r="1.53"/><path class="cls-4" d="M39.32,72c-3.35,1-6.63,4.1-9.47,6.09l1.24.71a7.15,7.15,0,0,0-1.19-4.09.79.79,0,0,0-.8-.21A5.61,5.61,0,0,0,27,75.58l1.24.71q0-.81,0-1.62c0-.9-1.43-1.16-1.62-.22-.05.28-.5,1.8-.14,1.52l1.22.49,0-.23c-.16-.76-1.47-.8-1.59,0-.05.27-.92.84-1.05,1l1.38.37c-.49-1.63-2.05-3.17-2-4.34a.83.83,0,0,0-.6-.8c-.11,0-.68-.21-.3.15-.56-.52-1.67,0-1.38.8v0l.8-1a18.9,18.9,0,0,0-2.12.16.84.84,0,0,0-.71,1.24l1.59,3a12.41,12.41,0,0,0,1,1.85c.95,1.19-.11,1.13.76.21h1.16l-1.27-1.3a.83.83,0,0,0-1.4.58c0,.52.42,1.75-.4,2a.83.83,0,0,0,0,1.59c1.47.53,2.72,1.28,4.16,1.86l-.57-1L25,83.3c-.13.86,1,1.51,1.51.63a1.28,1.28,0,0,1,1,.11.84.84,0,0,0,.81-1.38l-.18-.18-.8,1.38,1.18.42a.8.8,0,0,0,.93-.37c1.36-3,2.67-4,5.2-5.94,1.65-1.27,4.71-2.86,5.68-4.77a.84.84,0,0,0-.3-1.13l0,0a.83.83,0,0,0-.83,1.43l.05,0-.3-1.13c-1.09,2.17-5.14,4.23-7,5.66a18.76,18.76,0,0,0-2.17,1.53c-.6.65-.36.84-.89,2s.08,1.15-1,.75c-.81-.29-1.35.82-.8,1.38l.17.18.8-1.38q-.8-.14-1.56-.33a.84.84,0,0,0-.94.38l-.34.6,1.51.64.11-.68a.86.86,0,0,0-.58-1c-1.45-.59-2.68-1.32-4.16-1.86v1.59A5.32,5.32,0,0,0,23.51,81a.86.86,0,0,0,.38-.93l-.32-2-1.41.59L23.43,80a.83.83,0,0,0,1.16,0h0a.86.86,0,0,0,.13-1l-3.17-6.11-.72,1.24A18.9,18.9,0,0,1,23,74a.84.84,0,0,0,.79-1v0l-1.38.81c.76.7.3-.18.44-.44a.86.86,0,0,0,.13,1A8.28,8.28,0,0,1,24.84,78a.84.84,0,0,0,1.38.37c.58-.51,1.34-.87,1.47-1.68H26.1l0,.23a.84.84,0,0,0,1.22.5c.76-.58.71-1.62.89-2.51l-1.62-.22q0,.81,0,1.62a.83.83,0,0,0,1.24.72c1.4-1,1.46.16,1.57,1.75,0,.57.69,1.1,1.24.71,2.7-1.89,5.89-5,9.08-5.92C40.77,73.25,40.34,71.65,39.32,72Z"/><path class="cls-4" d="M24.14,78.14A2.85,2.85,0,0,0,24.37,76c-.28-.79-.78-.82-1.44-1.15L23.22,76,24,74.53l-1.51-.2.64,1.8a2.94,2.94,0,0,1,.25.68c0-.6-.27.59-.29.69a3.71,3.71,0,0,0,0,.94l1-.79,0,0c-.23-1-1.82-.59-1.59.44a1.45,1.45,0,0,0,1.13,1.1.83.83,0,0,0,1.05-.8c-.09-.72.37-1.37.25-2a3.62,3.62,0,0,0-.22-.63l-.67-1.87a.84.84,0,0,0-1.51-.2l-.78,1.46a.84.84,0,0,0,.29,1.13c.15.07.66.17.74.28.2.27-.17.88-.28,1.14C22.14,78.68,23.74,79.11,24.14,78.14Z"/><g class="cls-20"><path class="cls-21" d="M25.39,80.79l0-.05a.17.17,0,0,1,0,.05S25.37,80.8,25.39,80.79Z"/><path class="cls-21" d="M25.32,80.69h0Z"/><path class="cls-21" d="M25.23,80.64s0,0,0,0S25.26,80.64,25.23,80.64Z"/><path class="cls-21" d="M25.26,80.72s0,0,0,0h0l0,0A.09.09,0,0,1,25.26,80.72Z"/><path class="cls-21" d="M25.26,80.72l0,0Z"/><path class="cls-21" d="M24.9,81s.08-.08,0-.08-.13,0-.16,0,0-.12,0-.12-.28,0-.23,0a3.1,3.1,0,0,0,.26.18l.29.08a.09.09,0,0,1,0,.06l0-.11C25.13,81,25,81,24.9,81Z"/><path class="cls-21" d="M25.64,81.16h-.05c0-.1,0-.11-.09-.12l0,.06s.05,0,.05,0a.16.16,0,0,0,.07.17S25.64,81.18,25.64,81.16Z"/><path class="cls-21" d="M25.62,81.26l0,0h0Z"/><path class="cls-21" d="M25,80.55a1.72,1.72,0,0,1-.23-.32s-.06,0-.05,0l0,0,0-.05h0s0,0-.05,0l0,0,0,0s0,0,0-.05a.08.08,0,0,1,0,0s0,0,0,0l0,0h0L24.64,80h0s-.06,0,0-.09v0h0l0-.09h-.1l0-.06h-.07l-.07.09c0,.06.14,0,0,.06.09-.08-.09,0,0-.06l.07-.09s0-.06,0-.12,0,.06,0,.12h.07l0,.06h.1l-.07-.18a4.16,4.16,0,0,1-.28-1.13,1.57,1.57,0,0,1,.15-.61c.19-.36.1-.72.59-1,.17-.12.23-.43.28-.58-.13-.28-.69-.39-.73-.39-.5,0-.29.15-.66.31.22-.12.24.24-.14.3-.59.06-.34.64-.51,1a1,1,0,0,0-.06.32,2.65,2.65,0,0,0,.31,1.8c.07.16.24.23.36.32s.06.19.11.26a.59.59,0,0,0,.26.21,2.4,2.4,0,0,1-.24-.22c-.05-.07.18,0,.24,0s-.07.11,0,.11.1,0,.16.07-.07.08-.05.08.23,0,.23,0v.11s0,0,0,0h0l.1-.1v0l-.1.1a2.75,2.75,0,0,1,.34.1h0a.16.16,0,0,1-.05-.18s0,.06-.06,0l0-.06c.06,0,.12,0,.08.13h0s0,.05-.06.07l0,0A.45.45,0,0,0,25,80.55Z"/><path class="cls-21" d="M24.65,80.1h0l0-.09C24.58,80.07,24.62,80.08,24.65,80.1Z"/></g><g class="cls-22"><path class="cls-23" d="M23,80.86a1.22,1.22,0,0,0,.34-.3c.19-.23.52-.25.67-.5s.55-.46.75-.77a4.73,4.73,0,0,1,1.26-1.51c.52-.35,1-.69,1.52-1,.25-.16.5-.31.77-.45a4.11,4.11,0,0,1,.38-.18.18.18,0,0,1,.13,0c.09,0,.11.16.08.21l0,0h0l0,.1.15.47c.16.45.17,1.39.36,1.81-.06-.56-.05-1.13-.09-1.69a8.65,8.65,0,0,1,.11,3.69,12.63,12.63,0,0,0,.17-3.41c0-.56-.16-1.18-.23-1.62a.83.83,0,0,0-.16-.4.41.41,0,0,0-.38-.09c-.23,0-.6.2-.87.27l.5-.27a1.42,1.42,0,0,1,.54-.2.45.45,0,0,1,.47.28c.08.19.14.39.2.56a9.19,9.19,0,0,1,.3,2.21,16,16,0,0,1-.61,4.21,2.66,2.66,0,0,0-.07.61,30.61,30.61,0,0,0,.78-4.2A9.35,9.35,0,0,0,30,76.51a5.22,5.22,0,0,0-.34-1.21.66.66,0,0,0-.47-.42,1.08,1.08,0,0,0-.63.12l-1,.52c-.28.15-.56.31-.83.48a11.73,11.73,0,0,0-1.59,1.16c-.29.23-.56.47-.83.73-.54.53-1,1.07-1.43,1.53-.2.2-.48.44-.72.66a1.36,1.36,0,0,0-.51.7,5,5,0,0,0,.54-.2.69.69,0,0,1-.16.22.65.65,0,0,0,.22-.11.33.33,0,0,0-.1.17.67.67,0,0,0,.25-.22s.15-.25.2-.26c-.07.16-.19.34-.26.5l.15-.07c0,.08-.15.15-.16.22s.23-.15.35-.23a1,1,0,0,0,.28-.2,2.89,2.89,0,0,0-.27.37.42.42,0,0,0,.18-.11s0,0,0,0l.09-.05,0,0v0"/><path class="cls-23" d="M22.35,80.12a3,3,0,0,1,.33-.21"/><path class="cls-24" d="M28.77,75.06a1.05,1.05,0,0,1,.35-.08.46.46,0,0,1,.38.16,1.42,1.42,0,0,1,.27.49,8.23,8.23,0,0,1,.57,2.72A10.53,10.53,0,0,1,30,81.48c-.28,1-.62,1.84-.37,2.31"/><path class="cls-24" d="M29.89,77.77a13.59,13.59,0,0,1,0,1.55,21,21,0,0,1-.42,3.21"/></g><g class="cls-25"><path class="cls-26" d="M25.52,78.51s-.06,0-.07,0-.08,0-.07,0l0,0S25.52,78.48,25.52,78.51Z"/><path class="cls-26" d="M23.73,78.1h-.05s0,0,0,0A0,0,0,0,1,23.73,78.1Z"/><path class="cls-26" d="M24.06,78.51s0,0,0,0a.25.25,0,0,1-.2,0s0,0,0,0a.25.25,0,0,1,.19,0C24.09,78.48,24,78.52,24.06,78.51Z"/><path class="cls-26" d="M23.14,78.26h0s-.06,0-.07,0l0,0s0,0,0,0,0,.08,0,.13H23s0,0,0,.06-.09,0-.15,0-.08,0-.11,0,0,0-.08.06v0s-.06,0-.06,0-.05,0-.07,0,0,.07,0,.12a.34.34,0,0,1-.12,0s-.09,0-.09-.07,0-.08.11-.08,0,0-.07,0,0,0,0,.06,0-.06,0-.11h0c.05,0,0-.12,0-.14a.52.52,0,0,1,.26-.12s.11,0,.15,0,0,0,0,0,0,0,.07-.06.19,0,.26,0,0,.06.1,0,0,0,.05,0S23.14,78.25,23.14,78.26Z"/><path class="cls-26" d="M23.21,78.92s0,0-.06,0-.06,0-.07,0a.13.13,0,0,1,.09,0C23.23,78.87,23.21,78.91,23.21,78.92Z"/><path class="cls-26" d="M22.45,78.76a.05.05,0,0,1,0,0c-.05,0-.09,0-.12,0s0,0,0-.07S22.46,78.72,22.45,78.76Z"/><path class="cls-26" d="M24,79.33s-.07,0-.12.07-.09,0-.15,0a0,0,0,0,1,0,0c.09,0,.07-.09.16-.07S24,79.32,24,79.33Z"/><path class="cls-26" d="M23.33,79.19a.15.15,0,0,1-.08,0s0,0,0,0a.08.08,0,0,1,.08,0S23.32,79.17,23.33,79.19Z"/><path class="cls-26" d="M23,79.12s0,0-.05,0,0,0,0,0l.05,0S23,79.1,23,79.12Z"/><path class="cls-26" d="M23.21,79.26l-.08,0s-.05,0,0,0,.05,0,.08,0S23.22,79.24,23.21,79.26Z"/><path class="cls-26" d="M22.84,79.19s0,0,0,.06a.17.17,0,0,0-.08.06s-.08,0-.12,0-.06-.1,0-.14.14,0,.16,0S22.81,79.19,22.84,79.19Z"/><path class="cls-26" d="M22.12,79l0,.07c-.06,0-.16,0-.19,0s0-.09-.07-.08a.07.07,0,0,1,0-.1c.11,0,.15.08.25,0S22.09,79,22.12,79Z"/><path class="cls-26" d="M23.14,79.33a.18.18,0,0,1-.07,0l-.07,0s0,0,.07-.06S23.14,79.31,23.14,79.33Z"/><path class="cls-26" d="M23.12,79.47c-.07,0-.06,0-.1,0a.05.05,0,0,1,0,0,.14.14,0,0,1,.09,0S23.11,79.45,23.12,79.47Z"/><path class="cls-26" d="M23.62,79.66s-.05,0-.07,0,0,0,0,0S23.63,79.62,23.62,79.66Z"/><path class="cls-26" d="M22.69,79.74s-.06,0-.06,0l.05,0S22.7,79.73,22.69,79.74Z"/><path class="cls-26" d="M26.18,79.53h0Z"/><path class="cls-26" d="M23.87,80.4c-.05,0-.17.07-.12.1s0,.08.06.11-.07,0,0,.06,0,0,0,0-.12,0-.15.1l-.22.07s0,0,0,0-.07-.05-.1-.07h0c-.06,0,0,0,0-.08s-.05,0-.06,0,.1-.06.07-.08h-.06s.07,0,.09,0a.06.06,0,0,0,0,0c.07,0,.1-.09.17-.09s.08,0,.11,0l0,0a.25.25,0,0,1,.14,0h0C23.76,80.47,23.82,80.41,23.87,80.4Z"/><path class="cls-26" d="M23.76,80.42h0l0,0Z"/><path class="cls-26" d="M23.46,80.47h0S23.45,80.46,23.46,80.47Z"/><path class="cls-26" d="M21.27,79.53c-.05,0,0,0,0,0S21.3,79.52,21.27,79.53Z"/><path class="cls-26" d="M23.35,80.54h0S23.35,80.54,23.35,80.54Z"/><path class="cls-26" d="M23.86,80.62s0,0,0,0S23.86,80.62,23.86,80.62Z"/><path class="cls-26" d="M23.94,80.69h0v0Z"/><path class="cls-26" d="M23.67,80.81h0Z"/><path class="cls-26" d="M23.64,81c.05,0,0,0,.06.06s-.07,0-.06,0,0,0,0,0a.13.13,0,0,0-.09,0v0c-.05,0-.12,0-.09-.08s.06,0,.09-.08S23.64,81,23.64,81Z"/><path class="cls-26" d="M22.78,81.08s0,0,0,0S22.75,81.06,22.78,81.08Z"/><path class="cls-26" d="M23.94,81s0,0,0,0,0,0,0,0Z"/><path class="cls-26" d="M23.71,81.82c.05,0,.09,0,.17,0s-.06,0-.07,0,0,.1,0,.11l-.12.15a.1.1,0,0,0-.1,0h0s0,0-.1,0h0s0,0,0,0,0,0,0,0,0-.1,0-.14S23.69,81.77,23.71,81.82Z"/><path class="cls-26" d="M23.43,81.94s0,0,0,0,0,0,0,0Z"/><polygon class="cls-26" points="23.86 81.92 23.86 81.91 23.88 81.9 23.86 81.92"/><polygon class="cls-26" points="23.66 82.14 23.65 82.13 23.66 82.13 23.66 82.14"/><path class="cls-26" d="M23.86,82.17s0,0,0,0S23.85,82.19,23.86,82.17Z"/><path class="cls-26" d="M23.69,82.3l0,0c0,.06.06,0,.09,0s.09.06.13.1v0c0,.07,0,.09,0,.14s0,0,0,.06a.07.07,0,0,1,.08,0h0s-.06,0-.07.07,0,0,0,0h0s0,.07,0,.09a.37.37,0,0,0-.19.09v0s0,0,0,0-.09-.05-.16,0,0-.07-.06-.12h0c-.05-.08.05-.19,0-.28s.08-.07.14-.07l0,0S23.64,82.31,23.69,82.3Z"/><path class="cls-26" d="M24,82.28h0Z"/><path class="cls-26" d="M24,82.29l0,0Z"/><polygon class="cls-26" points="21.6 82.81 21.61 82.81 21.6 82.85 21.6 82.85 21.6 82.81"/><path class="cls-26" d="M22,82.85s0,0,0,0S21.94,82.84,22,82.85Z"/><path class="cls-26" d="M24.18,82.4h0Z"/><path class="cls-26" d="M24.1,82.56s0,0-.05,0S24.1,82.53,24.1,82.56Z"/><polygon class="cls-26" points="24 82.62 23.98 82.61 24 82.61 24 82.62"/><path class="cls-26" d="M24.36,82.46s0,0,0,0S24.35,82.44,24.36,82.46Z"/><polygon class="cls-26" points="24.18 82.58 24.16 82.58 24.17 82.57 24.18 82.58"/><path class="cls-26" d="M24,83.23s0,0,0,.08-.06,0,0,.06-.09,0-.07-.09S23.94,83.2,24,83.23Z"/><path class="cls-26" d="M24.22,83.18c0-.05,0,0,0-.05s.07,0,.13,0,0,.06,0,0,0,.11,0,.18-.09,0-.09.08-.07,0-.09,0a.76.76,0,0,1-.06-.16s.08-.08,0-.11S24.21,83.18,24.22,83.18Z"/><path class="cls-26" d="M22.09,84.11v.1s-.06,0-.1,0-.09-.07-.07-.14,0,0,0,0S22.05,84.1,22.09,84.11Z"/><polygon class="cls-26" points="24.49 83.19 24.47 83.19 24.48 83.18 24.49 83.19"/><path class="cls-26" d="M23.16,84.09v0s-.06.07-.12,0,0,0,0-.06,0-.06,0-.06S23.14,84.05,23.16,84.09Z"/><path class="cls-26" d="M23.63,84s.07,0,.1,0,0,.05,0,.1-.1,0-.15.06a.36.36,0,0,1,0-.15Z"/><path class="cls-26" d="M25.39,82.79h0v0A0,0,0,0,1,25.39,82.79Z"/><path class="cls-26" d="M22.58,84.53s0,.09,0,.1-.07,0-.09,0a.07.07,0,0,1,0-.1S22.57,84.49,22.58,84.53Z"/><path class="cls-26" d="M25,83.42v0Z"/><path class="cls-26" d="M24.72,83.72s0,0-.06,0,0-.06,0-.08S24.74,83.67,24.72,83.72Z"/><path class="cls-26" d="M22.49,80.15a.25.25,0,0,0,.1,0s-.05,0,0,0,.05.09.15.09a.21.21,0,0,0-.11,0,.06.06,0,0,0,0,.07s0,0,0,0,.06.09.05.13,0-.08-.1-.07-.05.08-.07.1,0,0,0,0-.13,0-.13.07a.67.67,0,0,1-.33-.08.88.88,0,0,1,0-.17h0a.21.21,0,0,0,.1-.18s0,0,.08,0,0,0,.07-.06l.25,0C22.36,80.14,22.52,80.12,22.49,80.15Z"/><path class="cls-26" d="M25.6,82.94a0,0,0,0,0,0,0l.08-.1v0l.13,0c.06,0,.06.17.11.21s0,0,0,0,0,.07,0,0,0,.07-.06.09v0s-.06,0-.08.07,0,0,0,0-.1,0-.14,0v0s0-.08,0,0v0s0-.12-.07-.17S25.57,83,25.6,82.94Z"/><path class="cls-26" d="M24.48,84a0,0,0,0,1,0,0s0,0-.05,0S24.47,84,24.48,84Z"/><path class="cls-26" d="M24.65,83.86s0,0,0,0,0,0,0,0S24.65,83.86,24.65,83.86Z"/><path class="cls-4" d="M25.28,83.56h0Z"/><path class="cls-26" d="M25.37,83.53s0,0,0,0S25.36,83.52,25.37,83.53Z"/><polygon class="cls-4" points="25.9 83.04 25.9 83.04 25.91 83.06 25.91 83.07 25.9 83.04"/><polygon class="cls-26" points="25.61 83.43 25.6 83.37 25.61 83.41 25.61 83.43"/><path class="cls-26" d="M26,83s0,0,0,0S26,83,26,83Z"/><path class="cls-26" d="M26,83.14h0Z"/><path class="cls-26" d="M25.91,83.27s0,0,0,0,0,0-.06,0S25.9,83.25,25.91,83.27Z"/><path class="cls-26" d="M27.14,82.7c0,.06.1,0,.12,0s0,0,0,0,0,.12.06.1l0,0a0,0,0,0,0,0,.05s0,0,0,0a.35.35,0,0,1,0,.12h0a.14.14,0,0,1-.07.08l0,0c0-.08-.12,0-.14-.1s0,0,0-.07a.1.1,0,0,1,0-.09A.34.34,0,0,1,27.14,82.7Z"/><path class="cls-26" d="M24.73,84.41s0,0,0,.06,0,0,0,0A0,0,0,0,1,24.73,84.41Z"/><path class="cls-26" d="M26.29,83h0Z"/><path class="cls-26" d="M25.38,84h0S25.38,84,25.38,84Z"/><path class="cls-26" d="M25.43,84.05h0v0Z"/><path class="cls-26" d="M25.36,84.19l0,0s0,.05-.08.09-.05,0-.06-.06a.15.15,0,0,1,0-.08S25.39,84.12,25.36,84.19Z"/><polygon class="cls-26" points="27.33 82.67 27.32 82.67 27.33 82.67 27.33 82.67"/><polygon class="cls-26" points="25.37 84.17 25.37 84.16 25.38 84.16 25.37 84.17"/><polygon class="cls-26" points="28.11 80.69 28.09 80.7 28.1 80.69 28.11 80.69"/><path class="cls-26" d="M25.27,84.32h0Z"/><path class="cls-26" d="M27.3,82.79h0Z"/><polygon class="cls-26" points="27.38 82.74 27.36 82.74 27.37 82.74 27.38 82.74"/><path class="cls-26" d="M27.42,82.73s0,0,0,0S27.41,82.73,27.42,82.73Z"/><path class="cls-26" d="M27.28,83s0,0,0,0A0,0,0,0,1,27.28,83Z"/><path class="cls-26" d="M27.24,83.12s0,0,0,0S27.24,83.08,27.24,83.12Z"/><path class="cls-26" d="M27.38,82.87l0,0Z"/><polygon class="cls-26" points="27.3 83 27.29 83.03 27.28 83.02 27.3 83 27.3 83"/><path class="cls-26" d="M25.47,84.44s0,0,0,0S25.46,84.43,25.47,84.44Z"/><path class="cls-26" d="M25.53,84.4s0,0,0,0S25.53,84.38,25.53,84.4Z"/><path class="cls-26" d="M25.46,84.55s0,0,0,0S25.46,84.52,25.46,84.55Z"/><path class="cls-26" d="M25.35,84.88s-.05.07-.08,0A.13.13,0,0,1,25.35,84.88Z"/><path class="cls-26" d="M25.32,84.94s0,0,0,0Z"/><polygon class="cls-26" points="25.35 84.92 25.34 84.93 25.35 84.92 25.35 84.92"/><polygon class="cls-26" points="25.36 84.96 25.33 84.97 25.35 84.95 25.36 84.96"/><path class="cls-26" d="M25.54,85s0,0,0,0S25.53,85,25.54,85Z"/><path class="cls-26" d="M27.68,83.25v0s-.05,0-.06,0S27.67,83.24,27.68,83.25Z"/><path class="cls-26" d="M27.1,84.24s0,0,0,0S27.11,84.2,27.1,84.24Z"/><polygon class="cls-26" points="27.44 83.94 27.42 83.92 27.45 83.92 27.44 83.94"/></g><g class="cls-25"><path class="cls-26" d="M23.12,80.77s.06,0,.08,0,.07.05.06.09l0,0S23.12,80.82,23.12,80.77Z"/><path class="cls-26" d="M24.93,81.52H25s0,0,0,0S24.93,81.53,24.93,81.52Z"/><path class="cls-26" d="M24.59,80.94s0,0,.05-.07a.19.19,0,0,1,.19.08s0,0,0,0-.13,0-.19,0S24.65,80.93,24.59,80.94Z"/><path class="cls-26" d="M25.51,81.3h0s.06,0,.07,0l-.06,0s0,0,.05,0,0-.09,0-.16h.06s0,0,0-.06.08,0,.14,0a.36.36,0,0,1,.11,0L26,81v0S26,81,26,81s.06,0,.07,0,0-.07,0-.12l.12,0s.08.06.08.08,0,.08-.1.08a.09.09,0,0,0,.06,0s0,0,.05,0a.47.47,0,0,1,.05.1h0c-.05,0,0,.12,0,.15a.56.56,0,0,1-.25.14s-.11,0-.14,0,0,0,0,0,0,0-.06.06-.19,0-.26,0,0-.08-.11-.06,0,0,0,0S25.51,81.32,25.51,81.3Z"/><path class="cls-26" d="M25.46,80.49s.05,0,.07,0,0,0,0,.06,0,0-.09,0S25.46,80.51,25.46,80.49Z"/><path class="cls-26" d="M26.2,80.75s0,0,0,0,.09,0,.11,0,0,0,0,.07S26.19,80.8,26.2,80.75Z"/><path class="cls-26" d="M24.76,79.85c0-.06.07,0,.13-.06s.09,0,.14,0,0,0,0,0-.09.09-.18,0S24.78,79.87,24.76,79.85Z"/><path class="cls-26" d="M25.37,80.16a.1.1,0,0,1,.09,0s0,0,0,0a.07.07,0,0,1-.08,0S25.38,80.18,25.37,80.16Z"/><path class="cls-26" d="M25.74,80.29h.05s0,0,0,0h-.05S25.74,80.32,25.74,80.29Z"/><path class="cls-26" d="M25.5,80.09h.08s.05,0,0,.07h-.07S25.49,80.11,25.5,80.09Z"/><path class="cls-26" d="M25.86,80.23a0,0,0,0,0,0-.06c.05,0,.07,0,.1,0s.07,0,.12,0,0,.11,0,.15-.15,0-.16,0S25.89,80.24,25.86,80.23Z"/><path class="cls-26" d="M26.55,80.52l0-.08c.06,0,.16,0,.19,0s0,.09.06.09,0,.07,0,.1-.14-.1-.24-.05S26.59,80.54,26.55,80.52Z"/><path class="cls-26" d="M25.59,80a.18.18,0,0,1,.07,0s.05,0,.07,0a.16.16,0,0,1-.09.06S25.57,80.05,25.59,80Z"/><path class="cls-26" d="M25.63,79.86c.07,0,.05,0,.09.06s0,0,0,0a.11.11,0,0,1-.08,0S25.63,79.89,25.63,79.86Z"/><path class="cls-26" d="M25.17,79.53s0,0,.07,0,0,0,0,0S25.15,79.57,25.17,79.53Z"/><path class="cls-26" d="M26.1,79.65s.07,0,.06,0l-.05,0S26.08,79.66,26.1,79.65Z"/><path class="cls-26" d="M22.49,78.23h0Z"/><path class="cls-26" d="M25.08,78.59c.05,0,.18,0,.14-.08s0-.1,0-.15.07,0,.06-.06h0s.13,0,.18-.06h.23s0,0,0,0,.05.07.07.11h0c.06,0,0,.08,0,.11s.05,0,.06,0-.11,0-.09.06l.06,0s-.07,0-.1,0,0,0,0,0-.11.07-.19.05-.08,0-.11,0l0,0a.25.25,0,0,1-.15,0h0C25.2,78.54,25.13,78.59,25.08,78.59Z"/><path class="cls-26" d="M25.19,78.6h0S25.18,78.6,25.19,78.6Z"/><path class="cls-26" d="M25.5,78.64a0,0,0,0,1,0,0S25.51,78.65,25.5,78.64Z"/><path class="cls-26" d="M27.46,80.12c.05,0,0,0,0,0S27.43,80.12,27.46,80.12Z"/><path class="cls-26" d="M25.61,78.6h0Z"/><path class="cls-26" d="M25.14,78.33s0,0,0,0A0,0,0,0,1,25.14,78.33Z"/><path class="cls-26" d="M25.07,78.21h0v0A0,0,0,0,1,25.07,78.21Z"/><path class="cls-26" d="M25.37,78.18h0v0Z"/><path class="cls-26" d="M25.47,78c-.06,0,0-.06,0-.09s.07,0,.06,0,0,0,0,0,.07,0,.1,0v0c.05,0,.11.07.07.12s-.08,0-.12,0S25.46,78,25.47,78Z"/><path class="cls-26" d="M26.31,78.2a0,0,0,0,1,0,0S26.33,78.23,26.31,78.2Z"/><path class="cls-26" d="M25.17,77.82s0,0,0,0,0,0,0,0Z"/><path class="cls-26" d="M25.69,77.1c-.07,0-.09-.06-.18,0s.08,0,.08,0,.05-.08,0-.12l.18-.08a.09.09,0,0,0,.09,0h0s0,.07.09.07h0s0,0-.06,0,0,0,0,0-.08.07-.08.12S25.68,77.17,25.69,77.1Z"/><path class="cls-26" d="M26,77.12s0,0,0,0,0,0,0,0S26,77.13,26,77.12Z"/><polygon class="cls-26" points="25.58 76.93 25.58 76.94 25.56 76.93 25.58 76.93"/><polygon class="cls-26" points="25.87 76.83 25.87 76.84 25.86 76.84 25.87 76.83"/><path class="cls-26" d="M25.7,76.69s.05,0,.06,0Z"/><path class="cls-26" d="M25.92,76.67l-.05,0s-.06,0-.1,0,0-.11-.06-.16h0c.06,0,0-.09.06-.14s0,0,.05,0a.06.06,0,0,1-.06-.06l0,0s.06,0,.09,0a0,0,0,0,1,0,0,0,0,0,0,1,0,0c.05,0,.06,0,.06-.07a.33.33,0,0,0,.2,0l0,0s0,0,0,.06.06.08.14.08,0,.08,0,.14h0c0,.1-.14.15-.17.23s-.1,0-.16,0l0,0S26,76.68,25.92,76.67Z"/><path class="cls-26" d="M25.67,76.54h0Z"/><path class="cls-26" d="M25.62,76.5h0Z"/><polygon class="cls-26" points="28 77 28 77 28.02 76.97 28.02 76.97 28 77"/><path class="cls-26" d="M27.7,76.88h0S27.71,76.89,27.7,76.88Z"/><path class="cls-26" d="M25.54,76.3h0Z"/><path class="cls-26" d="M25.69,76.21s0,0,0,.05S25.67,76.24,25.69,76.21Z"/><polygon class="cls-26" points="25.8 76.22 25.81 76.23 25.8 76.23 25.8 76.22"/><path class="cls-26" d="M25.41,76.14s0,0,0,0S25.4,76.16,25.41,76.14Z"/><polygon class="cls-26" points="25.63 76.14 25.65 76.16 25.64 76.16 25.63 76.14"/><path class="cls-26" d="M26.15,75.71s0,0,0-.07.06,0,.07,0,.06.07,0,.12A.08.08,0,0,1,26.15,75.71Z"/><path class="cls-26" d="M25.93,75.61s0,0-.06,0,0-.07-.12-.08,0-.06,0,0,.07-.09.13-.13.08,0,.12,0,0,.07.08,0a1,1,0,0,1,0,.17s-.11,0-.1.07S25.94,75.62,25.93,75.61Z"/><path class="cls-26" d="M28.19,75.85l0-.08c.05,0,.05,0,.1,0s0,.09,0,.14h-.07C28.2,75.93,28.22,75.87,28.19,75.85Z"/><polygon class="cls-26" points="25.71 75.44 25.73 75.45 25.71 75.45 25.71 75.44"/><path class="cls-26" d="M27.31,75.44l0,0s.09,0,.11,0,0,0,0,.07-.05,0-.07,0S27.3,75.48,27.31,75.44Z"/><path class="cls-26" d="M26.86,75.3s-.06,0-.09,0,0-.06,0-.09.09,0,.15,0a.55.55,0,0,1-.1.11Z"/><path class="cls-26" d="M24.72,75.15h0v0S24.72,75.15,24.72,75.15Z"/><path class="cls-26" d="M28,75.35s0-.08.07-.06.05,0,.06,0,0,.06-.08.07S28,75.38,28,75.35Z"/><path class="cls-26" d="M25.44,74.92l0,0Z"/><path class="cls-26" d="M25.83,74.85s.07,0,.06,0,0,0-.06.05S25.79,74.88,25.83,74.85Z"/><path class="cls-26" d="M26.38,79.25l-.1,0s0,0,0,0,0-.11-.13-.13.06,0,.1,0a.08.08,0,0,0,0-.08s0,0,.05,0,0-.11,0-.16,0,.1.07.11.07-.07.1-.1,0,0,0,0,.13,0,.14,0,.22.1.31.16,0,.12,0,.18h0a.24.24,0,0,0-.13.16s0,0-.07,0-.06,0-.09,0a1.06,1.06,0,0,0-.25,0C26.5,79.3,26.34,79.28,26.38,79.25Z"/><path class="cls-26" d="M24.63,74.87s0,0,0,0l-.13,0,0,0-.13-.07c0-.08.05-.18,0-.26s0,0,.06,0,.07,0,0,0a.45.45,0,0,0,.11,0v0s.06,0,.12,0,0,0,0,0,.1,0,.11.12l0,0s0,.08,0,.09h0a1.8,1.8,0,0,1-.05.19C24.8,74.83,24.71,74.84,24.63,74.87Z"/><path class="cls-26" d="M26.18,74.8l0,0s0,0,0,0S26.18,74.82,26.18,74.8Z"/><path class="cls-26" d="M26,74.78s0,0,0,0,0,0,0,0S26,74.79,26,74.78Z"/><path class="cls-4" d="M25.28,74.6h0Z"/><path class="cls-26" d="M25.18,74.56s0,0,0,0Z"/><polygon class="cls-4" points="24.44 74.57 24.43 74.57 24.44 74.55 24.45 74.55 24.44 74.57"/><polygon class="cls-26" points="24.93 74.47 24.89 74.53 24.91 74.49 24.93 74.47"/><path class="cls-26" d="M24.35,74.53s0,0,0,0S24.36,74.53,24.35,74.53Z"/><path class="cls-26" d="M24.45,74.45v0Z"/><path class="cls-26" d="M24.56,74.38s0,0,0,0,0,0,.05,0S24.56,74.4,24.56,74.38Z"/><path class="cls-26" d="M23.16,74c0-.06-.09,0-.08-.11s0,0,0,0,.06-.09,0-.12h0s0,0,0-.06,0,0,0,0a.2.2,0,0,1,.1-.08h0a.22.22,0,0,1,.11,0s0,0,0,0,.12.06.08.17,0,.05,0,.08a.09.09,0,0,1-.05.08A.35.35,0,0,1,23.16,74Z"/><path class="cls-26" d="M26.24,74.29s0,0,.05,0,0,0,0,.06S26.25,74.3,26.24,74.29Z"/><path class="cls-26" d="M24.07,74.32h0Z"/><path class="cls-26" d="M25.46,74.17h0v0A0,0,0,0,1,25.46,74.17Z"/><path class="cls-26" d="M25.45,74.1h0v0A0,0,0,0,1,25.45,74.1Z"/><path class="cls-26" d="M25.59,74l0-.05c.06,0,.07,0,.13,0s0,0,0,.09-.05,0-.07,0S25.53,74.07,25.59,74Z"/><polygon class="cls-26" points="22.97 73.87 22.98 73.87 22.98 73.87 22.97 73.87"/><polygon class="cls-26" points="25.57 74.05 25.57 74.05 25.55 74.05 25.57 74.05"/><polygon class="cls-26" points="21.24 75.08 21.25 75.08 21.24 75.08 21.24 75.08"/><path class="cls-26" d="M25.75,74v0Z"/><path class="cls-26" d="M23.07,73.78l0,0Z"/><polygon class="cls-26" points="22.98 73.78 22.99 73.78 22.98 73.78 22.98 73.78"/><path class="cls-26" d="M22.93,73.76s0,0,0,0S22.94,73.76,22.93,73.76Z"/><path class="cls-26" d="M23.21,73.61s0,0,0,0Z"/><path class="cls-26" d="M23.31,73.55s0,0,0,0S23.28,73.59,23.31,73.55Z"/><path class="cls-26" d="M23.05,73.66l0,0Z"/><polygon class="cls-26" points="23.19 73.61 23.21 73.6 23.21 73.61 23.19 73.62 23.19 73.61"/><path class="cls-26" d="M25.65,73.76c0-.05.07,0,0,0S25.65,73.77,25.65,73.76Z"/><path class="cls-26" d="M25.57,73.74s0,0,0,0S25.56,73.76,25.57,73.74Z"/><path class="cls-26" d="M25.72,73.67s0,0,0,0S25.71,73.7,25.72,73.67Z"/><path class="cls-26" d="M26,73.48s.09,0,.09,0A.08.08,0,0,1,26,73.48Z"/><path class="cls-26" d="M26.08,73.46s0,0,0,0Z"/><polygon class="cls-26" points="26.04 73.45 26.06 73.46 26.05 73.45 26.04 73.45"/><polygon class="cls-26" points="26.06 73.42 26.09 73.43 26.06 73.43 26.06 73.42"/><path class="cls-26" d="M25.91,73.28s0,0,0,0S25.92,73.29,25.91,73.28Z"/><path class="cls-26" d="M23,73.15v0s.06,0,.06,0S23,73.17,23,73.15Z"/><path class="cls-26" d="M24.06,72.7s0,0,0,0S24,72.73,24.06,72.7Z"/><polygon class="cls-26" points="23.56 72.72 23.57 72.75 23.55 72.73 23.56 72.72"/></g><g class="cls-22"><path class="cls-27" d="M26.6,82.32a.27.27,0,0,0,.1-.19c0-.14.28-.13.28-.29s.23-.28.24-.47a2.31,2.31,0,0,1,.1-1A15.1,15.1,0,0,1,28,78.86a2.14,2.14,0,0,0,.32-1c0-.25.14-.74-.08-1a1.31,1.31,0,0,1-.15.84,5.67,5.67,0,0,0-.17-1.83A3.18,3.18,0,0,1,27,79.05c.5-1.08,1.18-2.63.39-3.78a1.13,1.13,0,0,0-.24-.25c1,1.12.29,2.64-.25,3.75a7.15,7.15,0,0,0-.58,1.52l-.16.37-.29.68a.89.89,0,0,0,0,.9c.08,0,.11-.14.18-.17a.56.56,0,0,1,0,.17s.07,0,.07-.08a.22.22,0,0,0,0,.13s0-.12,0-.17,0-.17,0-.18.05.24.08.37l.06,0s0,.11,0,.17.07-.12.11-.17.08-.07.09-.12a.42.42,0,0,0,0,.25s0,0,.06-.07,0,0,0,0,0,0,0,0l0,0,0,0"/><path class="cls-27" d="M25.8,81.73a.29.29,0,0,1,.11-.11"/><path class="cls-28" d="M27,78.72a6.53,6.53,0,0,0,.32-1.66,2.54,2.54,0,0,0-.82-2.36"/><path class="cls-28" d="M27.72,77.37a2.7,2.7,0,0,0,0-.73,2.42,2.42,0,0,0-.58-1.43"/></g><g class="cls-22"><polygon class="cls-4" points="27.15 79.62 27.15 79.61 27.15 79.62 27.15 79.62"/><polygon class="cls-4" points="27.14 79.64 27.15 79.63 27.15 79.63 27.14 79.64"/><path class="cls-27" d="M27.45,80.07v0h0v0Z"/><path class="cls-27" d="M27.45,80.11h0v0S27.46,80.09,27.45,80.11Z"/><path class="cls-27" d="M27,76.79a0,0,0,0,1,0,0h0Z"/><polygon class="cls-27" points="27.42 78.93 27.42 78.93 27.42 78.94 27.42 78.94 27.42 78.93"/><path class="cls-27" d="M27,76.84Z"/><path class="cls-27" d="M27.42,79.06h0a.07.07,0,0,1,0,0Z"/><path class="cls-27" d="M27,77h0v0A.1.1,0,0,1,27,77Z"/><path class="cls-27" d="M27,76.44h0s0,0,0,.07v-.08Z"/><path class="cls-27" d="M27.06,81.06h0s0,0,0,0l0,.06h0s0,0,0,0a.23.23,0,0,1,0,0s0,0,0,0Z"/><path class="cls-27" d="M27,76.62v0Z"/><path class="cls-27" d="M27.05,76.7h0v0Z"/><path class="cls-4" d="M27.05,76.69h0Z"/><path class="cls-27" d="M27.06,76.71Z"/><polygon class="cls-27" points="27.21 77.21 27.21 77.22 27.21 77.21 27.21 77.21"/><path class="cls-27" d="M27.28,77.73h0v0Z"/><path class="cls-27" d="M27.37,77.89v0Z"/><path class="cls-27" d="M27.4,77.91v0Z"/><path class="cls-27" d="M27.38,77.91h0Z"/><path class="cls-27" d="M27.34,78v0h0Z"/><polygon class="cls-27" points="27.11 77.1 27.1 77.09 27.1 77.09 27.11 77.1"/><path class="cls-27" d="M27.13,77.19v0a.14.14,0,0,1,0-.06h0v0Z"/><path class="cls-27" d="M27.4,78v0Z"/><path class="cls-27" d="M27.37,78.1h0v0Z"/><path class="cls-27" d="M27.39,78.11Z"/><path class="cls-27" d="M27.38,78.12v0s0,0,0,0Z"/><path class="cls-27" d="M27.18,77.37v0h0a.65.65,0,0,1,0,.11h0v0l0,0h0v0Z"/><path class="cls-27" d="M27.18,77.46a.43.43,0,0,1,0,0v0A.24.24,0,0,1,27.18,77.46Z"/><polygon class="cls-4" points="27.17 77.44 27.17 77.43 27.17 77.42 27.17 77.43 27.17 77.44"/><path class="cls-27" d="M27.33,79.77h0a.43.43,0,0,1,0-.11v0A.59.59,0,0,1,27.33,79.77Z"/><polygon class="cls-27" points="27.19 77.52 27.19 77.51 27.19 77.52 27.19 77.52"/><path class="cls-27" d="M27.22,77.61v0h0v0Z"/><path class="cls-4" d="M27.21,77.59h0s0,0,0,0S27.2,77.58,27.21,77.59Z"/><path class="cls-27" d="M27.22,77.66l0,.06h0l0,0v0Z"/><polygon class="cls-4" points="27.23 77.68 27.23 77.69 27.23 77.68 27.23 77.68"/><path class="cls-27" d="M27.19,77.87h0a.28.28,0,0,1,0,0v0Z"/><path class="cls-27" d="M27.52,78.13s0,0,0,0V78A.36.36,0,0,1,27.52,78.13Z"/><path class="cls-27" d="M27.34,78.37h0v0h0A.23.23,0,0,1,27.34,78.37Z"/><polygon class="cls-4" points="27.3 78.12 27.3 78.11 27.3 78.11 27.3 78.12"/><path class="cls-27" d="M27.36,78.64h0s0,0,0,0v0h0v0Z"/><polygon class="cls-27" points="27.51 78.31 27.51 78.3 27.51 78.31 27.51 78.31"/><path class="cls-27" d="M27.5,78.32h0v0Z"/><path class="cls-27" d="M27.5,78.33s0,0,0,0h0v0h0v0h0Z"/><path class="cls-27" d="M27.52,78.38Z"/><path class="cls-27" d="M27.42,78.57s0,.06,0,.09,0,0,0,0v-.07Z"/><path class="cls-27" d="M27.36,78.85v0h0v0h0Z"/><path class="cls-27" d="M27.48,78.68v0h0v0Z"/><path class="cls-27" d="M27.35,78.89h0v0Z"/><path class="cls-27" d="M27.57,78.69v0Z"/><path class="cls-27" d="M27.54,78.74h0v.11a0,0,0,0,0,0,0v0h0v0S27.53,78.71,27.54,78.74Z"/><path class="cls-27" d="M27.47,78.78h0s0,0,0,0v0h0v0h0v0a0,0,0,0,1,0,0v0Z"/><path class="cls-27" d="M27.3,79h0v0Z"/><polygon class="cls-4" points="27.47 78.8 27.47 78.8 27.47 78.8 27.47 78.8"/><path class="cls-4" d="M27.47,78.81h0Z"/><path class="cls-27" d="M27.11,80.56h0s0,0,0,0a.46.46,0,0,1,0,.09h0l0,.07h0s0-.08,0-.1l0-.08v0h0v0h0Z"/><path class="cls-27" d="M27.35,79.07v0h0Z"/><path class="cls-27" d="M27.53,78.91v0h0a.07.07,0,0,1,0,0Z"/><polygon class="cls-4" points="27.53 78.92 27.52 78.91 27.53 78.91 27.53 78.92"/><path class="cls-27" d="M27.33,79.21h0v0h0v0Z"/><polygon class="cls-4" points="27.33 79.22 27.33 79.23 27.33 79.22 27.33 79.22 27.33 79.21 27.33 79.22 27.33 79.22"/><path class="cls-27" d="M27.32,79.45v0h0v0Z"/><path class="cls-27" d="M27.26,79.47h0v0Z"/><path class="cls-27" d="M27.53,79.16v.08a0,0,0,0,1,0,0v0s0,0,0,0Z"/><polygon class="cls-27" points="27.48 79.19 27.48 79.19 27.48 79.19 27.48 79.19 27.48 79.19 27.48 79.18 27.48 79.19"/><path class="cls-27" d="M27.29,79.51h0s0,0,0,.06v0h0v0h0v0Z"/><path class="cls-27" d="M27.48,79.24h0v0h0v0h0Z"/><polygon class="cls-27" points="27.41 79.6 27.41 79.6 27.41 79.6 27.41 79.59 27.41 79.6"/><path class="cls-27" d="M27.29,79.78h0Z"/><path class="cls-27" d="M27.38,79.9Z"/><path class="cls-27" d="M27.37,79.92h0v0h0v0h0v0Z"/><polygon class="cls-4" points="27.37 79.93 27.37 79.93 27.37 79.94 27.37 79.93"/><path class="cls-27" d="M27.18,80.31h0v0h0s0,0,0,0h0v0h0Z"/><path class="cls-27" d="M27.3,80.12a.09.09,0,0,1,0,0v0h0Z"/><path class="cls-4" d="M27.3,80.14h0s0,0,0,0,0,0,0,0Z"/><polygon class="cls-27" points="27.3 80.14 27.3 80.14 27.3 80.14 27.3 80.13 27.3 80.13 27.3 80.14 27.3 80.13 27.3 80.14"/><path class="cls-27" d="M27.2,80.19h0v0h0Z"/><path class="cls-27" d="M27.29,80.23h0s0,0,0,0h0v0Z"/><path class="cls-27" d="M26.73,81.52s0,0,0,0,0,0,0,0v0h0s0,0,0,.05,0,0,0,0l0,0h0l0,.05s0,0,0,0l0,0a.07.07,0,0,1,0,0s0,0,0,0h0v0h0l0-.07h0v0s0,0,0,0v0h0l0,0s0,0,0,0l0,0A0,0,0,0,0,26.73,81.52Z"/><path class="cls-27" d="M27.25,80.36h0v0h0s0,0,0,0,0,0,0,0v0Z"/><path class="cls-27" d="M27.19,80.54v0h0s0,0,0,0a.34.34,0,0,1,0-.1h0A.31.31,0,0,1,27.19,80.54Z"/><path class="cls-27" d="M26.41,82.4h0v0h0v0h0l0,0a.09.09,0,0,1,0,.05v0h0v0l0,0s0,0,0,0l0,0h0s0,0,0,0h0v0h0l0,0h0v0S26.41,82.42,26.41,82.4Z"/><path class="cls-27" d="M27,81h0s0,0,0,.06l0,0v0l0,0h0v0Z"/><polygon class="cls-4" points="27.15 80.56 27.15 80.56 27.15 80.57 27.15 80.57 27.15 80.56"/><path class="cls-27" d="M27.12,80.72h0Z"/><path class="cls-27" d="M27.08,80.81h0s0,0,0,0l0,.06a.08.08,0,0,1,0,.05.1.1,0,0,1,0,0v0h0s0,0,0,0h0v0h0Z"/><path class="cls-27" d="M26.82,81.5s0,0,0,0v0h0a.14.14,0,0,1,0,0s0,0,0,0,0,0,0,0v0h0s0,0,0,0v0h0s0,0,0,0h0S26.81,81.51,26.82,81.5Z"/><polygon class="cls-4" points="26.8 81.52 26.8 81.5 26.8 81.51 26.8 81.52"/><path class="cls-27" d="M26.56,81.91h0l0,0h0v0h0v0Z"/><polygon class="cls-4" points="26.56 81.91 26.56 81.91 26.55 81.92 26.55 81.92 26.56 81.91"/><path class="cls-27" d="M26.45,81.94h0v0S26.46,81.92,26.45,81.94Z"/><path class="cls-27" d="M26.44,82.25h0l0,0h0v0Z"/><polygon class="cls-27" points="26.41 82.32 26.41 82.31 26.42 82.3 26.41 82.32"/><path class="cls-27" d="M26.48,82v0h0v0s0,0,0,0Z"/><path class="cls-4" d="M26.47,82.05Z"/><path class="cls-27" d="M26.32,82.3v0h0v0h0a.59.59,0,0,1,0,.08h0v0h0v0h0l0,0h0Z"/><path class="cls-27" d="M26.34,82.38h0s0,0,0,0h0l0,0a.08.08,0,0,1,0,0h0l0,0v0h0s0,0,0,0,0,0,0,0v0h0s0,0,0,0a.08.08,0,0,1,0,0s0,0,0,0h0s0,0,0,0v0s0,0,0,0v0h0Z"/><path class="cls-27" d="M26.06,82.81h0s0,0,0,0l0,0h0l0,.05v0h0s0,0,0,0h0v0s0,0,0,0h0l0,0h0v0h0a0,0,0,0,0,0,0h0v0S26.06,82.8,26.06,82.81Z"/><path class="cls-27" d="M26.23,82.71h0v0S26.24,82.7,26.23,82.71Z"/><path class="cls-27" d="M26.23,82.86h0Z"/><path class="cls-27" d="M26,82.93l0,0h0s0,0,0,0Z"/><path class="cls-27" d="M26.06,83h0l0,0v0s0,0,0,0v0h0a0,0,0,0,0,0,0h0s0,0,0,0h0Z"/><path class="cls-27" d="M26,83v0h0l0,0s0,0,0,0,0,0,0,0h0s0,0,0,0v0h0v0h0S26,83.05,26,83Z"/><path class="cls-27" d="M25.87,83.27s0,0,0,0h0s0,0,0,0h0v0h0s0,0,0,0h0l0,0s0,0,0,0,0,0,0,0v0h0a0,0,0,0,1,0,0h0s0,0,0,0h0v0h0s0,0,0,0h0v0h0l0,0v0s0,0,0,0h0v0h0a0,0,0,0,0,0,0s0,0,0,0h0v0h0Z"/><path class="cls-27" d="M26.66,81.94l0,0a.08.08,0,0,1,0,0h0v0s0,0,0,0Z"/><path class="cls-27" d="M26.62,82v0Z"/><polygon class="cls-27" points="26.6 82.05 26.61 82.03 26.61 82.03 26.61 82.02 26.61 82.02 26.6 82.05"/><path class="cls-27" d="M26.59,82.08h0v0h0l0,.06,0,0h0v0s0,0,0,0h0v0s0,0,0,0,0,0,0,0h0s0,0,0,0v0S26.58,82.08,26.59,82.08Z"/><path class="cls-27" d="M26.6,82.06h0Z"/><polygon class="cls-27" points="26.53 82.16 26.53 82.15 26.54 82.15 26.53 82.16"/></g><g class="cls-25"><path class="cls-29" d="M25.48,83.19a5.83,5.83,0,0,1-.9-.94A2,2,0,0,1,24,80.94s0-.09,0-.13a1.29,1.29,0,0,1,.22-.57,5.26,5.26,0,0,0-.22.57.49.49,0,0,0,0,.13,1.28,1.28,0,0,0,.14.62,1.2,1.2,0,0,1,0-.63.75.75,0,0,1,.12-.28,2,2,0,0,1,.18-.44,2.24,2.24,0,0,0,.33-1,.87.87,0,0,0-.2-.58,1.25,1.25,0,0,0-.47-.29,1,1,0,0,1-.37-.18.26.26,0,0,1,0-.37c-.12.18.07.38.23.44a1.68,1.68,0,0,1,.67.31,1.5,1.5,0,0,1,0,1.71l.05-.07a2.25,2.25,0,0,0,.3-.86,1,1,0,0,0-.46-1l-.24-.12a2.5,2.5,0,0,1,.24.12,1,1,0,0,1,.54.89,2,2,0,0,1-.14.61,1.54,1.54,0,0,1-.24.35l-.11.21,0,.07h0a1.16,1.16,0,0,0,.32-.34,1.68,1.68,0,0,0,.36-1,1.19,1.19,0,0,0-.75-1.2.31.31,0,0,0-.15-.07c-.09,0-.43,0-.34-.19s.08-.09.06-.13,0,0-.05,0v0c0-.11.19-.41.11-.57s.38-.55.28-.6c-.32-.06-.06,0-.18-.4,0,0-.2-.14-.25-.22a.58.58,0,0,0-.26-.28h-.17c-.13,0-.18,0-.21,0l-.07,0a.22.22,0,0,0-.07-.06,1.31,1.31,0,0,1,0-.28,4,4,0,0,0,.19-.4,1.65,1.65,0,0,1,.41-.53,1.58,1.58,0,0,1,.16-.6.54.54,0,0,0,.07-.33.25.25,0,0,0-.22-.2c-.38,0-.39-.22-.85-.32a1.47,1.47,0,0,1-.33,0c-.09,0-.32.09-.46.08l0-.08h-.21s0,0,0-.06,0-.11,0-.15a3,3,0,0,0-.43-.07,3.33,3.33,0,0,0-.4.16.36.36,0,0,1,0,.1l-.12.07c0,.08,0,.17,0,.22,0,.22-.11.45,0,.65s.24.07.35.17,0,.1,0,.18.15.08.1.16h.06v.1l.51.14c.07,0,.21,0,.21,0s0,0,0,0a.33.33,0,0,1,.05-.12s0,0,0,0l.17-.25c0,.08-.07.22.34-.08.06,0,.26,0,.25,0a3.47,3.47,0,0,1-.16.41.69.69,0,0,1,0,.1l-.15.27-.15.28c-.12.23-.14.36-.22.53l-.1.25c0,.07.11.11.16.15l.41.21.25.11c.1,0,.21,0,.19.07a1.39,1.39,0,0,1,.06,1,1.69,1.69,0,0,0-.13.54.61.61,0,0,0,.21.57,1.26,1.26,0,0,0,.58.28l.32.08a.4.4,0,0,1,.16.07.39.39,0,0,1,.14.29c.09.55-.52,1-.57,1.82a2.51,2.51,0,0,0,.67,1.52,3,3,0,0,0,.67.69A1.55,1.55,0,0,0,25.48,83.19Z"/></g><path class="cls-30" d="M31.08,79.59s-.44.79-2.16.9a5.34,5.34,0,0,0-2.65.79s2.61-2.5,3.73-2.39S31.08,79.59,31.08,79.59Z"/><path class="cls-31" d="M31,79.7s9.34-7,8.54-6.94-9.44,6.11-9.44,6.11a1.63,1.63,0,0,1,.58.4A2.09,2.09,0,0,1,31,79.7Z"/><path class="cls-4" d="M49.28,41c-2.09-2-8.3-2.41-7.78,1.88.47,3.81,7,4.65,8.5,1.2H48.58c.34.55,1.39.54,1.51-.2L51.5,35a.86.86,0,0,0-.58-1L50,33.72a.83.83,0,0,0-1,.58L47.9,41.39c-.16,1,1.43,1.48,1.6.43l1.11-7.08-1,.57.88.23-.57-1L48.5,43.46l1.51-.2h0a.83.83,0,0,0-1.42,0,2.49,2.49,0,0,1-2.53,1.37c-.66,0-2.64-.56-2.77-1.47-.2-1.47,1.17-2.14,2.37-2.07a4,4,0,0,1,2.47,1.1C48.89,42.92,50.06,41.75,49.28,41Z"/><path class="cls-32" d="M49.36,43.23l1.34-8.49-.88-.22L48.7,41.61a4.32,4.32,0,0,0-2.41-1.27c-1.94-.35-3.71.49-4,1.88s1.11,2.8,3,3.15,3.55-.41,3.92-1.69h0c0-.05,0-.11.05-.17A2.45,2.45,0,0,0,49.36,43.23Z"/><circle class="cls-33" cx="44.77" cy="41.79" r="0.38"/><circle class="cls-33" cx="46.88" cy="42.17" r="0.38"/><path class="cls-33" d="M44.4,43.32l2.08,0s-.34.75-.95.78S44.42,43.93,44.4,43.32Z"/><path class="cls-34" d="M44.79,43.85a1.32,1.32,0,0,1,.93-.21c.6.06.27.33.27.33S45.15,44.43,44.79,43.85Z"/><path class="cls-4" d="M49,57.69a5.2,5.2,0,0,1,3.31-1.47c1.5-.08,4.18.63,3.26,3.11-1,2.74-6.13,2.59-7.2.13a.68.68,0,0,0-1.15,0h0l1.21.16-1.74-11.1-.47.82,1.1-.28-.81-.46,1.38,8.8c.14.84,1.41.48,1.28-.35l-1.38-8.8a.67.67,0,0,0-.82-.46l-1.1.27a.69.69,0,0,0-.46.82c.58,3.69,1.16,7.4,1.75,11.09.09.59.94.61,1.21.16H47.21c1.73,4,9.45,3.07,9.9-1.4.49-4.91-6.7-4.21-9.06-2C47.43,57.34,48.37,58.28,49,57.69Z"/><path class="cls-32" d="M47.7,59.23,46,48.7l1.1-.28,1.38,8.8a5.29,5.29,0,0,1,3-1.56c2.41-.44,4.61.6,4.93,2.32s-1.38,3.48-3.78,3.92-4.42-.51-4.87-2.1h0c0-.07,0-.14-.05-.22A1.87,1.87,0,0,1,47.7,59.23Z"/><circle class="cls-33" cx="53.4" cy="57.45" r="0.47"/><circle class="cls-33" cx="50.79" cy="57.92" r="0.47"/><path class="cls-33" d="M53.86,59.35l-2.58,0s.41.93,1.17,1S53.83,60.1,53.86,59.35Z"/><path class="cls-34" d="M53.38,60a1.62,1.62,0,0,0-1.16-.26c-.75.07-.34.41-.34.41S52.92,60.73,53.38,60Z"/><path class="cls-4" d="M65.31,34.39h0c.34.55,1.39.54,1.51-.2C67.39,30.61,68,27,68.51,23.42l-1.51.2a36,36,0,0,0,3,3.88.84.84,0,0,0-.16-1.29l-.62-.47a.85.85,0,0,0-1,.13c-3.19,2.51,1.73,6.57,3.86,3,1.57-2.64-1.19-4.12-2.24-6.16-1-1.88-.81-2.32-2.88-2.84a.84.84,0,0,0-1,.58L64.36,30.74l1.38-.36C63,27.74,54.49,26.94,55.08,32.74c.53,5.26,9.61,6.32,11.65,1.65.42-1-1-1.81-1.42-.83a4,4,0,0,1-4,2.16c-1.09,0-4.09-.87-4.34-2.32l1-3a5.08,5.08,0,0,1,2.79-.58,6,6,0,0,1,3.84,1.7A.83.83,0,0,0,66,31.18L67.57,20.9l-1,.58c1.14.29,1.2.67,1.72,1.69a15.71,15.71,0,0,1,.81,1.36l.63.74c-1.33,1.07-1.56,1.85-.68,2.36l-.16-1.3c-1.19,1.25-.45,3.85,1.57,3,3.16-1.35-1.35-5.42-2-6.53-.34-.56-1.39-.54-1.51.19-.56,3.59-1.12,7.19-1.7,10.77l1.51-.19h0C66.17,32.65,64.75,33.48,65.31,34.39Z"/><path class="cls-35" d="M70.31,24.69a6.25,6.25,0,0,1-1.7-3.08c-.06-.37-.55-.6-.55-.6l-1.28-.32L65.16,31a6.31,6.31,0,0,0-3.5-1.83c-2.8-.51-5.38.71-5.75,2.72s1.61,4.06,4.42,4.58S65.49,35.83,66,34h0a1.83,1.83,0,0,0,.06-.25,1.72,1.72,0,0,0,0-.39l1.6-10.12a9.36,9.36,0,0,0,1.43,2,7.73,7.73,0,0,1,1.21,1.32,1.64,1.64,0,0,1,.28,1.35.93.93,0,0,1-.51.67.85.85,0,0,1-1.1-.46c-.24-.62.43-1.19.43-1.19l-.62-.46c-1.23.61-1.15,2.07.08,2.84s2.46-.3,2.77-1.54S71.23,25.61,70.31,24.69Z"/><path d="M57.91,31.92c0-.56.38-1.13,1-1.05a1.12,1.12,0,0,1,.85,1.1c0,.06.11.06.11,0a1.22,1.22,0,0,0-1-1.21c-.67-.05-1,.56-1.07,1.16,0,.07.1.07.1,0Z"/><path d="M61.81,32.45c0-.56.38-1.13,1-1.05a1.12,1.12,0,0,1,.85,1.1c0,.06.11.06.11,0a1.22,1.22,0,0,0-1-1.21,1.09,1.09,0,0,0-1.07,1.16c0,.07.1.07.1,0Z"/><path class="cls-33" d="M58.92,34l3,0s-.49,1.09-1.37,1.12S59,34.89,58.92,34Z"/><path class="cls-4" d="M38.62,50v-.33a.75.75,0,0,0-.73-.73H36a.75.75,0,0,0-.73.73V50l.73-.73h-.86l.73.73v-.33a.74.74,0,0,0-.73-.73H33.33a.75.75,0,0,0-.73.73V50l.73-.73H31.61a.74.74,0,0,0-.73.73V66a.75.75,0,0,0,.73.73h2.46A.74.74,0,0,0,34.8,66V59.23l-.73.73h.37l-.73-.73V66a.75.75,0,0,0,.73.73H36.9a.74.74,0,0,0,.73-.73V59.23L36.9,60h.37l-.73-.73V66a.75.75,0,0,0,.73.73h2.46a.74.74,0,0,0,.73-.73V50a.73.73,0,0,0-.73-.73H37.89a.73.73,0,0,0,0,1.46h1.84L39,50V66l.73-.73H37.27L38,66V59.23a.73.73,0,0,0-.73-.73H36.9a.74.74,0,0,0-.73.73V66l.73-.73H34.44l.73.73V59.23a.73.73,0,0,0-.73-.73h-.37a.74.74,0,0,0-.73.73V66l.73-.73H31.61l.73.73V50l-.73.73h1.72a.74.74,0,0,0,.73-.73v-.33l-.73.73h1.85l-.73-.73V50a.75.75,0,0,0,.73.73H36a.74.74,0,0,0,.73-.73v-.33l-.73.73h1.85l-.73-.73V50A.73.73,0,0,0,38.62,50Z"/><path class="cls-4" d="M21,48.9H19.18a.75.75,0,0,0-.73.73V50l.73-.73H17.46a.74.74,0,0,0-.73.73V66a.75.75,0,0,0,.73.73h2.46a.74.74,0,0,0,.73-.73V59.23l-.73.73h.37l-.73-.73V66a.75.75,0,0,0,.73.73h2.46a.74.74,0,0,0,.73-.73V50a.73.73,0,0,0-.73-.73H21l.73.73v-.33a.73.73,0,0,0-1.46,0V50a.74.74,0,0,0,.73.73h1.72L22,50V66l.73-.73H20.29L21,66V59.23a.73.73,0,0,0-.73-.73h-.37a.74.74,0,0,0-.73.73V66l.73-.73H17.46l.73.73V50l-.73.73h1.72a.74.74,0,0,0,.73-.73v-.33l-.73.73H21A.73.73,0,0,0,21,48.9Z"/><path class="cls-4" d="M29.27,48.9H27.43a.74.74,0,0,0-.73.73V50l.73-.73h-.86l.73.73v-.33a.75.75,0,0,0-.73-.73H24.72a.75.75,0,0,0-.73.73V50l.73-.73h-1.6a.74.74,0,0,0-.73.73V66a.75.75,0,0,0,.73.73h2.46a.74.74,0,0,0,.73-.73V59.23l-.73.73H26l-.73-.73V66a.75.75,0,0,0,.73.73h2.46a.74.74,0,0,0,.73-.73V59.23l-.73.73h.37l-.73-.73V66a.75.75,0,0,0,.73.73h2.46A.74.74,0,0,0,32,66V50a.73.73,0,0,0-.73-.73h-2L30,50v-.33a.73.73,0,0,0-1.46,0V50a.75.75,0,0,0,.73.73h2L30.51,50V66l.73-.73H28.78l.73.73V59.23a.73.73,0,0,0-.73-.73h-.37a.74.74,0,0,0-.73.73V66l.73-.73H26l.73.73V59.23A.73.73,0,0,0,26,58.5h-.37a.74.74,0,0,0-.73.73V66l.73-.73H23.12l.73.73V50l-.73.73h1.6a.74.74,0,0,0,.73-.73v-.33l-.73.73h1.85l-.73-.73V50a.74.74,0,0,0,.73.73h.86a.75.75,0,0,0,.73-.73v-.33l-.73.73h1.84A.73.73,0,0,0,29.27,48.9Z"/><rect class="cls-36" x="17.46" y="49.96" width="2.46" height="16.04"/><rect class="cls-36" x="20.29" y="49.96" width="2.46" height="16.04"/><rect class="cls-36" x="23.12" y="49.96" width="2.46" height="16.04"/><rect class="cls-36" x="25.95" y="49.96" width="2.46" height="16.04"/><rect class="cls-36" x="28.78" y="49.96" width="2.46" height="16.04"/><rect class="cls-36" x="31.61" y="49.96" width="2.46" height="16.04"/><rect class="cls-36" x="34.44" y="49.96" width="2.46" height="16.04"/><rect class="cls-36" x="37.27" y="49.96" width="2.46" height="16.04"/><rect class="cls-37" x="19.18" y="49.63" width="1.85" height="9.6"/><rect class="cls-37" x="24.72" y="49.63" width="1.85" height="9.6"/><rect class="cls-37" x="27.43" y="49.63" width="1.85" height="9.6"/><rect class="cls-37" x="33.33" y="49.63" width="1.85" height="9.6"/><rect class="cls-37" x="36.04" y="49.63" width="1.85" height="9.6"/><path class="cls-4" d="M54.56,23.56c-.72.11-1,.94-1.42,1.05s-1.21-.93-1.06-1.51c.24-1,2.32-2,.67-3a1.68,1.68,0,0,0-1.48-.12c-.82.33-.66,1-1.49.72-.27-.08-.3-.5-.73-.53s-.77.55-1.14.85h.8c-.52-.43-2-4.09-3.16-1.66-.31.65,0,1.69.11,2.36.13,1.38.2.52-.67.83-2,.72.27,2,.51,2.54.64,1.36-2.11,1.33-2.19,2.64-.09,1.52,1.63,1.24,2.48.82.21-.1,1.68-1.34,1.66-1.34s.68.61,1.09.62.33-.69.23-.25-.45.32-.43.92a1.52,1.52,0,0,0,1.19,1.36,1.5,1.5,0,0,0,1.61-.5c.51-.65-.27-2.14.12-2.51.1-.1,1.45.38,2,.06.34-.21.52-.65.74-.79a.91.91,0,0,0,.47,0c1.09-.54,2.12-2,.38-2.51-.7-.21-1,.89-.3,1.1l-.53.42c.31-.08.34-.12.1-.13.13-.06-.3,0-.38.06-.82.42-.6.66-1.86.67-.29,0-.48-.33-.79-.21-.87.35-.75.7-1,1.48-.06.15.15,1.39-.37.8.21.24,0-1.09.06-1a.58.58,0,0,0-.4-.4c-.35-.06-1.14.27-1,.29s-.34-.53-.63-.57c-.55-.07-4,2.34-1.87,1.21a1.79,1.79,0,0,0,.93-2.13,1.42,1.42,0,0,0-.32-.93,5.46,5.46,0,0,1-.94-.54,1.67,1.67,0,0,0,.65.22,6.34,6.34,0,0,0,.61-.21.56.56,0,0,0,.29-.49c-.05-.66-.58-1.74-.25-2.27.17-.29-.45-.74.47,0,.25.21.33.6.63.85a.59.59,0,0,0,.8,0c.67-.54-.22-.29.44.17a1.3,1.3,0,0,0,1,.32c.6-.08,1.15-1.13,1.35-.64s-.51.74-.6,1.32c0,.19,0,.38,0,.55a1.89,1.89,0,0,0,.26.46l-.24.61a1.7,1.7,0,0,0,.5,1.15,2,2,0,0,0,1.56.38c.86-.19,1.11-1.34,1.89-1.45S55.28,23.46,54.56,23.56Z"/><path class="cls-4" d="M44.66,21.8a1.28,1.28,0,0,0-1.75.41,1.3,1.3,0,0,0,.49,1.73c.58.38,1.54.28,1.49-.61,0-.08,0-.38-.08-.18,0-.14.19-.23.25-.38a.86.86,0,0,0-.28-.88c-.5-.53-1.3.27-.8.8-.1-.1.18-.41,0-.28a.62.62,0,0,0-.17.25.82.82,0,0,0-.07.57l0,.13.34-.34s-.15-.09-.17-.14.07-.17.18-.1C44.7,23.2,45.27,22.21,44.66,21.8Z"/><path class="cls-4" d="M45.78,20.39a.92.92,0,1,0,0,.15c0-.73-1.11-.73-1.14,0,.05-.14.13-.21.25-.2.12.45,0,.57-.23.36C44.83,21.41,45.93,21.11,45.78,20.39Z"/><path class="cls-4" d="M48.8,18.73a1.19,1.19,0,0,0,.1-1.51A1,1,0,0,0,47.43,17c-.94.83.16,2.63,1.25,1.79.57-.44,0-1.43-.57-1-.21.16.18.08.06.05l-.2,0c.1,0-.07.16,0,.06C47.52,18.48,48.32,19.29,48.8,18.73Z"/><path class="cls-4" d="M54.09,23.57c.22-.38.28-.91-.18-1.15a.92.92,0,0,0-1.13.4c-.6.91.53,1.6,1.22.86.5-.53-.3-1.34-.8-.8l.38.12.17.4c0,.07,0,.1-.12.08l-.4-.17L53.11,23A.57.57,0,0,0,54.09,23.57Z"/><path class="cls-4" d="M51.92,27.69c.2,1.13,2.18.93,1.87-.27a1,1,0,0,0-1.89.12c-.07.73,1.07.72,1.14,0,0,.16-.22.34-.29.29.16-.07.22-.23.18-.5a.1.1,0,0,1,.09.06C52.9,26.67,51.8,27,51.92,27.69Z"/><path class="cls-4" d="M55.56,26.24h0l-.29-1.06a.86.86,0,0,0,.1,1.58,1.88,1.88,0,0,0,1.71-.39A.9.9,0,0,0,56.87,25a1.42,1.42,0,0,0-1.71.28c-.55.49.26,1.29.8.8.22-.19.36,0,.3-.35s.1-.07,0-.11a1,1,0,0,0-.22.05h-.22c-.2,0-.17.14.1.48a.57.57,0,0,0-.29-1.06h0C54.83,25.15,54.83,26.28,55.56,26.24Z"/><path class="cls-4" d="M46.08,29.09c-.08.64.33,1.27,1,1.15a1.5,1.5,0,0,0,1.15-1.37,1,1,0,0,0-.92-1.09,1.37,1.37,0,0,0-1.24,1.16c-.16.71.93,1,1.1.3a3.26,3.26,0,0,1,.15-.32s-.29-.13-.22-.15-.13.28-.13.3a.21.21,0,0,1-.1.06H47l.23.17,0-.2c0-.3-.29-.56-.57-.57A.59.59,0,0,0,46.08,29.09Z"/><path class="cls-4" d="M50.3,19.75a1.1,1.1,0,0,0-.84-1.32,1.17,1.17,0,0,0-1.2,1c-.13.58,0,1.41.71,1.56s1.19-.47,1.31-1.06-1-1-1.1-.3c0,0-.06.17-.06.2s0,0,0,0l.27.11a.5.5,0,0,1,0-.12s0-.24,0-.23c0-.16.07.09,0-.05s-.17,0-.19.2C49.08,20.48,50.22,20.47,50.3,19.75Z"/><path class="cls-4" d="M50.5,18.19a.88.88,0,1,0-1.73-.29,1,1,0,0,0,.63,1.27,1,1,0,0,0,1.08-.83c.17-.71-.93-1-1.09-.31-.06.23.69.23.49.13a.12.12,0,0,0-.12.08c-.28-.28-.41-.29-.4,0C49.3,18.91,50.44,18.91,50.5,18.19Z"/><path class="cls-4" d="M42.25,28.47c.34,1.7,3.75.41,3-.83-.61-1-3.05-.63-3,.68,0,.73,1.17.73,1.13,0,0-.11,0,0,0,0a2.82,2.82,0,0,1,.3-.09c.22,0,.48.09.66.05,0,0,0,0,0,0a.31.31,0,0,1-.11-.18l0-.28c-.1-.09.31,0,0,0-.06,0-.19.1-.24.12a2,2,0,0,1-.47.14.49.49,0,0,0-.17,0l-.08,0c.12.17.16.19.11.05C43.2,27.45,42.1,27.75,42.25,28.47Z"/><path class="cls-38" d="M54.71,24.11a.93.93,0,0,0-.83.36,7.19,7.19,0,0,1-.52.83,1.22,1.22,0,0,1-1.15.22.94.94,0,0,1-.76-.79,1.11,1.11,0,0,1,.25-.6c.06-.1.11-.18.06-.29s-.26-.34-.35-.55.11-.43.27-.59.46-.46.67-.72c.34-.41.72-1.06.12-1.43a1.13,1.13,0,0,0-.91-.12,1.34,1.34,0,0,0-.61.49,4.09,4.09,0,0,1-.58.66.62.62,0,0,1-.78,0,2.1,2.1,0,0,1-.31-.68c-.05-.13-.13-.29-.3-.25a.52.52,0,0,0-.24.2c-.09.11-.26.52-.43.5s-.43-.46-.51-.67-.15-.5-.25-.74a1.37,1.37,0,0,0-.72-.79.65.65,0,0,0-.79.41,1.86,1.86,0,0,0,.12,1.09,2.41,2.41,0,0,0,.08.25,1.55,1.55,0,0,1,0,.21,2.32,2.32,0,0,1-.05.53,1.43,1.43,0,0,0,0,.65c.06.18.16.36.23.54s.05.43-.23.44a1.5,1.5,0,0,1-.58-.21.55.55,0,0,0-.79.21c-.21.32,0,.65.27.84s.73.29,1,.53-.35.6-.21.88c0,.1.15.17.21.27a.39.39,0,0,1-.07.55,1.79,1.79,0,0,1-.86.52c-.72.09-1.68.42-1.23,1.2s3-1,3.18-1.24a.7.7,0,0,1,.45-.26c.17,0,.25.16.31.28s.22.46.45.36.47-.65.81-.37-.12.82-.22,1.06a1,1,0,0,0,.13,1,1.05,1.05,0,0,0,1.59,0c.28-.44.06-1.13,0-1.6a2.32,2.32,0,0,1,0-.87.82.82,0,0,1,.24-.37c.23-.22.47-.11.7,0a1.65,1.65,0,0,0,.74.36,1.17,1.17,0,0,0,.84-.26c.21-.18.35-.43.55-.62A.44.44,0,0,1,54,25.5l0,0h.09a.24.24,0,0,0,.23,0s0,0,0,0a1.13,1.13,0,0,0,.57-.32.79.79,0,0,0,.26-.66C55.22,24.24,54.94,24.14,54.71,24.11Z"/><path class="cls-38" d="M44.38,22.29a.65.65,0,0,0-.78,0c-.47.32-.32.85.09,1.14.15.1.43.25.58.1s-.05-.41,0-.58S44.76,22.64,44.38,22.29Z"/><path class="cls-38" d="M45.23,20.54a.35.35,0,0,0-.7,0C44.47,21,45.27,21.05,45.23,20.54Z"/><path class="cls-38" d="M48.4,18.33c.46-.43-.14-1.39-.66-.81C47.38,17.93,47.9,18.79,48.4,18.33Z"/><path class="cls-38" d="M53.6,23.28c.25-.33,0-.54-.29-.21l0,0C53,23.51,53.37,23.58,53.6,23.28Z"/><path class="cls-38" d="M52.47,27.54c0,.32.6.51.75.2S52.47,27,52.47,27.54Z"/><path class="cls-38" d="M55.56,25.67h0a.34.34,0,0,0-.21.29c0,.38.57.29.81.24C57.48,26,56.39,24.85,55.56,25.67Z"/><path class="cls-38" d="M46.65,29.09c-.16.86.67.7.94.11C48.05,28.16,46.85,28,46.65,29.09Z"/><path class="cls-38" d="M49.73,19.75c.16-1.13-1-.94-.93.15C48.88,20.77,49.64,20.39,49.73,19.75Z"/><path class="cls-38" d="M49.93,18.19c.11-.76-.68-.63-.62.1S49.87,18.61,49.93,18.19Z"/><path class="cls-38" d="M42.79,28.32c.09.73,1.43.26,1.81,0C45.44,27.61,42.68,27.38,42.79,28.32Z"/><path class="cls-39" d="M66.87,87.83l1.49.35L68.23,87a2.5,2.5,0,0,0,.86-1.8c0-1.76-2.24-3.2-5-3.2s-5,1.44-5,3.2,2.24,3.21,5,3.21A7,7,0,0,0,66.87,87.83Z"/><path class="cls-4" d="M66.72,88.37l1.49.35a.56.56,0,0,0,.71-.54,2.8,2.8,0,0,1,0-1.15c.14-.41.56-.74.67-1.22a2.9,2.9,0,0,0-.83-2.7c-1.87-2-5.46-2.13-7.81-1-1.92.89-3.25,3-1.77,4.9,1.77,2.26,5.4,2.34,7.86,1.41.67-.25.38-1.33-.3-1.08a6.53,6.53,0,0,1-6-.44c-2.78-2,.66-4.12,2.76-4.29,1.56-.14,5.14.4,5.08,2.61,0,.64-.78,1.2-.85,1.86a5.62,5.62,0,0,0,.12,1.15l.71-.54L67,87.29C66.32,87.13,66,88.21,66.72,88.37Z"/><path class="cls-40" d="M64.07,82c2.78,0,5,1.44,5,3.2a2.5,2.5,0,0,1-.86,1.8l.13,1.21-1.49-.35a7,7,0,0,1-2.8.55c-2.77,0-5-1.44-5-3.21S61.3,82,64.07,82Z"/><path class="cls-39" d="M90.65,62.88c-7.47,0-13.53,3.87-13.53,8.64a6.67,6.67,0,0,0,2.31,4.83l-.34,3.28,4-.94a19.34,19.34,0,0,0,7.54,1.46c7.47,0,13.53-3.86,13.53-8.63S98.12,62.88,90.65,62.88Z"/><path class="cls-4" d="M90.65,62.32c-4.83.18-11.22,1.54-13.44,6.47a6.52,6.52,0,0,0,0,5.45c.13.29,1.57,2.12,1.65,2.45a11,11,0,0,1-.31,2.94.56.56,0,0,0,.7.54,12.05,12.05,0,0,1,5.07-.43c2.73.38,5.1,1.12,7.93.91,4-.28,8.59-1.7,11.06-5.05,6-8.2-6.45-13-12.64-13.28-.72,0-.72,1.09,0,1.12,3.86.14,8.2.94,11,3.84,3.21,3.31,1.76,7.56-1.75,9.86A17.67,17.67,0,0,1,89,79.53c-2-.16-4.2-1.39-6.15-1.36-.83,0-3,1.26-3.69.87.92.54.89-1.91.82-2.76,0-.13-.14-.22-.15-.32-2.06-1.79-2.66-3.7-1.8-5.76a4.39,4.39,0,0,1,1.59-2.92c2.82-2.9,7.18-3.7,11-3.84C91.37,63.41,91.37,62.29,90.65,62.32Z"/><path class="cls-41" d="M90.65,62.88c-7.47,0-13.53,3.87-13.53,8.64a6.67,6.67,0,0,0,2.31,4.83l-.34,3.28,4-.94a19.34,19.34,0,0,0,7.54,1.46c7.47,0,13.53-3.86,13.53-8.63S98.12,62.88,90.65,62.88Z"/><text class="cls-42" transform="translate(87.48 49.94)">V</text><circle class="cls-39" cx="98.91" cy="35.61" r="2.12"/><path class="cls-4" d="M98.91,38.29a2.68,2.68,0,1,0-2.68-2.79,2.72,2.72,0,0,0,2.68,2.79c.71,0,.71-1.08,0-1.12a1.56,1.56,0,0,1,0-3.12c2,0,2,3,0,3.12C98.19,37.21,98.18,38.33,98.91,38.29Z"/><circle class="cls-39" cx="87" cy="38.31" r="2.7"/><path class="cls-4" d="M90.26,38.31a3.26,3.26,0,1,0-3.41,3.25,3.31,3.31,0,0,0,3.41-3.25c0-.72-1.08-.72-1.12,0-.15,2.74-4.28,2.77-4.28,0s4.13-2.74,4.28,0C89.18,39,90.3,39,90.26,38.31Z"/><path class="cls-39" d="M89.37,42.64a4.2,4.2,0,0,0,.9,3.23l1.11,1.54a1.6,1.6,0,0,1,.29,1c0,1,0,2,0,3a.91.91,0,0,0,.38.77,3.94,3.94,0,0,0,1.58.66,9.14,9.14,0,0,0,3,.29,4.27,4.27,0,0,0,.93-.19.57.57,0,0,0,.42-.6c0-.38,0-.76.05-1.16.34.09.65.2,1,.26,1.06.2,1.56-.39,1.54-1.4a6,6,0,0,1,.06-.74c.06-.48.14-1,.2-1.44,0-.21.09-.34.34-.36a1.19,1.19,0,0,0,.48-.13A.71.71,0,0,0,102,46.3c-.28-.51-.58-1-.87-1.54a1.75,1.75,0,0,1-.2-.47,1.12,1.12,0,0,1,0-.63,1.69,1.69,0,0,0,.2-.49,1.28,1.28,0,0,0,.64.17,1.24,1.24,0,1,0-.89-2.09,4.77,4.77,0,0,0-3.33-3,7.76,7.76,0,0,0-3.64-.17A1.63,1.63,0,0,0,94,37.5a1.53,1.53,0,1,0-2.22,1.37A5,5,0,0,0,89.37,42.64Z"/><path class="cls-4" d="M88.81,42.64c-.12,2.69,1.94,4.14,2.29,6.76.2,1.51-.34,2.54,1,3.49,2.34,1.63,6.3,1.55,6.44-1.69l-.71.54c3.56.93,2.74-1.47,4-3.86.53-1,.75-.45.62-1.73,0-.54-1.15-1.64-.91-2.27,0-.05.93-.05,1-.22,1.23-1.66.92-2.34-.75-3.33-2.61-1.53-4.36-3.22-8-2.8l.53.71c.94-4.67-6.66-2.29-3,1l.11-.88a6.28,6.28,0,0,0-2.66,4.11c-.16.7.92,1,1.08.3a4.86,4.86,0,0,1,2.14-3.44.57.57,0,0,0,.12-.88l1.17-.53c-.07.32.15.75.54.71,2.68-.31,5.16.21,6.48,2.88a.58.58,0,0,0,.77.2l.12.9a.58.58,0,0,0-.69.39c-.61,1.51.61,2.6.28,4-.06.23-.51.41-.6.69-.38,1.14.33,3.56-2.08,2.93a.57.57,0,0,0-.71.54c-.71,1.25-1.64,1.67-2.77,1.26a2.43,2.43,0,0,1-2.46-2c-.19-.69.15-1.48,0-2.18-.5-2.13-2.39-3.18-2.28-5.6C90,41.92,88.84,41.92,88.81,42.64Z"/><circle class="cls-43" cx="101.74" cy="42.11" r="1.24"/><circle class="cls-43" cx="98.91" cy="35.61" r="2.12"/><circle class="cls-43" cx="92.46" cy="37.5" r="1.53"/><circle class="cls-43" cx="87" cy="38.31" r="2.7"/><path class="cls-44" d="M98,52.36a.57.57,0,0,1-.42.6,4.27,4.27,0,0,1-.93.19,9.14,9.14,0,0,1-3-.29A3.94,3.94,0,0,1,92,52.2a.91.91,0,0,1-.38-.77c0-1,0-2,0-3a1.6,1.6,0,0,0-.29-1l-1.11-1.54a4.2,4.2,0,0,1-.9-3.23,5,5,0,0,1,3.21-4.17,7.61,7.61,0,0,1,4.94-.21,4.79,4.79,0,0,1,3.39,3.16,2.52,2.52,0,0,1,0,2.24,1.12,1.12,0,0,0,0,.63,1.75,1.75,0,0,0,.2.47c.29.52.59,1,.87,1.54a.71.71,0,0,1-.36,1.09,1.19,1.19,0,0,1-.48.13c-.25,0-.32.15-.34.36-.06.48-.14,1-.2,1.44a6,6,0,0,0-.06.74c0,1-.48,1.6-1.54,1.4-.32-.06-.63-.17-1-.26C98,51.6,98,52,98,52.36Z"/><path class="cls-45" d="M91.82,41.34a1.48,1.48,0,0,0,.14-.25,2.11,2.11,0,0,1,1.74-1.34.68.68,0,0,0,.25-.09,1.93,1.93,0,0,1,1.9-.2.57.57,0,0,0,.26,0,1.71,1.71,0,0,1,1.66.63,1.48,1.48,0,0,0,.29.27,1.85,1.85,0,0,1,.8,2,1.6,1.6,0,0,1-1.61,1.23c-.11,0-.17,0-.18.16a.87.87,0,0,1-.45.68,1.7,1.7,0,0,1-.8.21.78.78,0,0,0-.72.41,1.24,1.24,0,0,1-1.34.62,4.13,4.13,0,0,0-.49-.07A1.67,1.67,0,0,1,91.8,44a.39.39,0,0,0-.06-.17,2.07,2.07,0,0,1-.36-1.21A2.15,2.15,0,0,1,91.82,41.34ZM97,43.1a.31.31,0,0,0,.18.07,1.21,1.21,0,0,0,1.17-.57,1.15,1.15,0,0,0,0-1.37A7.79,7.79,0,0,0,97,40a1.08,1.08,0,0,0-.92-.12.69.69,0,0,1-.35,0,1.56,1.56,0,0,0-1.61.15.86.86,0,0,1-.3.12,1.8,1.8,0,0,0-1.55,1.19.72.72,0,0,1-.14.24,1.8,1.8,0,0,0-.32,1.61,1,1,0,0,0,1.46.7.38.38,0,0,1,.52.13,1.45,1.45,0,0,0,1.68.26,1.37,1.37,0,0,1,.23,0,2.51,2.51,0,0,0,.55-.07.59.59,0,0,0,.2-1,2.23,2.23,0,0,0-.33-.2.43.43,0,0,1-.18-.2.56.56,0,0,0-.83-.37.39.39,0,0,1-.28,0,.77.77,0,0,0-1,0l-.07.05a.2.2,0,1,1-.26-.29c.21-.14.44-.27.7-.42a.45.45,0,0,0-.23-.4.88.88,0,0,0-.91,0c-.28.16-.29.43-.28.71a.52.52,0,0,1-.11.29c-.11.14-.23.28-.14.47A.42.42,0,0,0,93,43c.26,0,.51-.09.77-.13A1.32,1.32,0,0,1,95,43.2a.69.69,0,0,0,.13.11c.13.1.25.12.35,0s.18-.19.3-.11.1.22,0,.34a.58.58,0,0,1-.83.19.91.91,0,0,1-.19-.13,1.16,1.16,0,0,0-1.26-.29,1.72,1.72,0,0,1-.81,0,.77.77,0,0,1-.44-1.24.61.61,0,0,0,.11-.28,1,1,0,0,1,1.2-1,.36.36,0,0,0,.38-.17,1.2,1.2,0,0,1,1.29-.5s.1,0,.13.06a1.11,1.11,0,0,0,.86.24.88.88,0,0,1,.76.51.19.19,0,0,0,.22.12.82.82,0,1,1,0,1.63.31.31,0,0,1-.2,0,.26.26,0,0,1-.1-.2s.08-.12.14-.15.12,0,.18,0a.43.43,0,0,0,.39-.32.41.41,0,0,0-.69-.39,2.21,2.21,0,0,0-.61,1Zm-.27-1.85s0-.12,0-.16a.63.63,0,0,0-.64-.33.47.47,0,0,0-.17,0,.41.41,0,0,1-.5-.17.6.6,0,0,0-.46-.15.82.82,0,0,0-.68.46,1.29,1.29,0,0,1,.42.76.51.51,0,0,0,.41.22,1.1,1.1,0,0,1,1,.21C96.3,41.82,96.51,41.54,96.71,41.25Zm-2.43,3.46a1.44,1.44,0,0,1-.47-.21.85.85,0,0,0-.78-.18,3.67,3.67,0,0,1-.8,0,1.16,1.16,0,0,0,.6.75,2.57,2.57,0,0,0,1.37.22.7.7,0,0,0,.55-.41Z"/><g class="cls-46"><path class="cls-45" d="M96.42,42.49l.56.61a.31.31,0,0,0,.18.07,1.21,1.21,0,0,0,1.17-.57,1.15,1.15,0,0,0,0-1.37A7.79,7.79,0,0,0,97,40a1.08,1.08,0,0,0-.92-.12.69.69,0,0,1-.35,0,1.56,1.56,0,0,0-1.61.15.86.86,0,0,1-.3.12,1.8,1.8,0,0,0-1.55,1.19.72.72,0,0,1-.14.24,1.8,1.8,0,0,0-.32,1.61,1,1,0,0,0,1.46.7.38.38,0,0,1,.52.13,1.45,1.45,0,0,0,1.68.26,1.37,1.37,0,0,1,.23,0,2.51,2.51,0,0,0,.55-.07.59.59,0,0,0,.2-1,2.23,2.23,0,0,0-.33-.2.43.43,0,0,1-.18-.2.56.56,0,0,0-.83-.37.39.39,0,0,1-.28,0,.77.77,0,0,0-1,0l-.07.05a.2.2,0,1,1-.26-.29c.21-.14.44-.27.7-.42a.45.45,0,0,0-.23-.4.88.88,0,0,0-.91,0c-.28.16-.29.43-.28.71a.52.52,0,0,1-.11.29c-.11.14-.23.28-.14.47A.42.42,0,0,0,93,43c.26,0,.51-.09.77-.13A1.32,1.32,0,0,1,95,43.2a.69.69,0,0,0,.13.11c.13.1.25.12.35,0s.18-.19.3-.11.1.22,0,.34a.58.58,0,0,1-.83.19.91.91,0,0,1-.19-.13,1.16,1.16,0,0,0-1.26-.29,1.72,1.72,0,0,1-.81,0,.77.77,0,0,1-.44-1.24.61.61,0,0,0,.11-.28,1,1,0,0,1,1.2-1,.36.36,0,0,0,.38-.17,1.2,1.2,0,0,1,1.29-.5s.1,0,.13.06a1.11,1.11,0,0,0,.86.24.88.88,0,0,1,.76.51.19.19,0,0,0,.22.12.82.82,0,1,1,0,1.63.31.31,0,0,1-.2,0,.26.26,0,0,1-.1-.2s.08-.12.14-.15.12,0,.18,0a.43.43,0,0,0,.39-.32.41.41,0,0,0-.69-.39A2.21,2.21,0,0,0,96.42,42.49Z"/><path class="cls-45" d="M96.08,42.11c.22-.29.43-.57.63-.86,0,0,0-.12,0-.16a.63.63,0,0,0-.64-.33.47.47,0,0,0-.17,0,.41.41,0,0,1-.5-.17.6.6,0,0,0-.46-.15.82.82,0,0,0-.68.46,1.29,1.29,0,0,1,.42.76.51.51,0,0,0,.41.22A1.1,1.1,0,0,1,96.08,42.11Z"/><path class="cls-45" d="M94.75,44.84l-.47-.13a1.44,1.44,0,0,1-.47-.21.85.85,0,0,0-.78-.18,3.67,3.67,0,0,1-.8,0,1.16,1.16,0,0,0,.6.75,2.57,2.57,0,0,0,1.37.22A.7.7,0,0,0,94.75,44.84Z"/></g><text class="cls-42" transform="translate(87.57 50.03)">V</text><text class="cls-42" transform="translate(37.34 99.1)">f</text><text class="cls-47" transform="translate(43.12 97.03)">p</text><path class="cls-39" d="M39.32,88.53a.69.69,0,0,0-.27-.63.7.7,0,0,0-1,0l-1.44,1.32.09.36,2.08,2,.13-.14,1.42-1.56a.8.8,0,0,0-.11-1.09.68.68,0,0,0-1,0v0Zm-1.26.73L38,89.18l.17-.16a.3.3,0,0,1,.43,0l-.38.37.38-.37-.38.37h0Zm.6.54h0l.48.46h0L38.89,90l.2-.18a.33.33,0,0,1,.48,0l-.43.43h0Zm.91,0-.43.43.43-.43a.31.31,0,0,0,.09-.29A.31.31,0,0,1,39.57,89.83Z"/><path class="cls-4" d="M39.88,88.53a1.32,1.32,0,0,0-2.2-1c-.5.41-1,.88-1.44,1.32a.54.54,0,0,0-.14.54,2.6,2.6,0,0,0,1,1.31L38.42,92a.57.57,0,0,0,.79,0c.51-.56,1.07-1.11,1.54-1.7a1.36,1.36,0,0,0-1.92-1.91l.94.54a.92.92,0,0,1,.09-.23c.28-.67-.8-1-1.08-.3a1.7,1.7,0,0,0-.09.24.56.56,0,0,0,.93.54c.26-.21.33.28.31.36s-.12.12-.16.17a4.84,4.84,0,0,1-.57.63l-.78.87h.79L38,90c-.23-.23-.46-.46-.7-.68l-.17-.16c-.06,0,.24.27.1.12s-.05-.19-.06-.24l-.15.54.78-.71c.09-.09,1-1,.95-.38A.56.56,0,0,0,39.88,88.53Z"/><path class="cls-4" d="M38.46,88.86l-.08-.07v.79l.09-.08c.12-.1.07-.1-.17,0l-.11-.88-.38.38c-.51.5.28,1.29.79.79l.38-.38-.79-.79-.38.38c-.47.46.13,1.15.68.88h0A.56.56,0,0,0,38.6,89l-.14-.14c-.52-.5-1.31.29-.79.79l.14.14.11-.88h0l.68.88.38-.38c.52-.5-.27-1.29-.79-.79l-.38.38.79.79.38-.38a.56.56,0,0,0-.11-.88,1,1,0,0,0-1.28.26.57.57,0,0,0,0,.79l.08.07C38.19,90.15,39,89.36,38.46,88.86Z"/><path class="cls-4" d="M39.05,90.19h-.79l.48.46a.57.57,0,0,0,.68.09h0a.56.56,0,0,0,.11-.88l-.24-.23v.79s.06-.08.09-.09c.22-.1-.15,0-.1,0l-.11-.87-.43.42h.79l-.48-.46c-.52-.5-1.31.29-.79.79l.48.46a.56.56,0,0,0,.79,0l.43-.42a.57.57,0,0,0-.11-.88c-.52-.34-1-.1-1.35.28a.56.56,0,0,0,0,.79l.24.23.11-.87h0l.68.08-.48-.46a.57.57,0,0,0-.79,0h0C37.77,89.92,38.56,90.72,39.05,90.19Z"/><path class="cls-4" d="M39.17,89.44l-.43.42.79.79c.33-.32.7-.6.69-1.11H39.09c-.43.58.54,1.14,1,.57a.92.92,0,0,0,.17-.58.56.56,0,0,0-1.12,0s.1-.15,0,0l-.14.14-.22.21c-.51.5.28,1.3.79.79l.43-.42A.56.56,0,0,0,39.17,89.44Z"/><path class="cls-39" d="M34.47,95.44a.72.72,0,0,0,.25.2h0a.47.47,0,0,0,.53-.06.48.48,0,0,0,.09-.56h0a.92.92,0,0,0-.18-.23l0,0a.84.84,0,0,0-.48-.61s.08-1.23-.88-1.35a1.2,1.2,0,0,0-1.35,1A1.11,1.11,0,0,0,33.8,95S34.21,95.57,34.47,95.44Z"/><path class="cls-4" d="M34.08,95.84a1.4,1.4,0,0,0,.36.28l-.12-.87h0a.57.57,0,0,0,.12.88,1,1,0,0,0,1.38-1.39.56.56,0,0,0-.88-.11h0l.88.11a2.69,2.69,0,0,0-.26-.33v.79c.46-.5,0-1.28-.57-1.52l.28.48a1.9,1.9,0,0,0-.76-1.69,1.71,1.71,0,0,0-2.33.6,1.65,1.65,0,0,0,1.63,2.49l-.48-.28c.32.43.72.83,1.3.7s.41-1.22-.3-1.07c.19,0,.22,0,.11,0a1,1,0,0,1-.14-.15c-.06-.08-.07-.08,0,0a.48.48,0,0,0-.2-.2c-.26-.16-.59,0-.84-.15S33.11,94.1,33,94s0-.18,0,0c.09-.36.35-.75.79-.6s.36.51.34.79a.55.55,0,0,0,.28.49.31.31,0,0,1,.22.27l.15-.54,0,0a.56.56,0,0,0,0,.79l.09.11a.57.57,0,0,0,.88.11h0l-.88-.12c-.06-.07,0-.12.15-.14l.11.88h0a.57.57,0,0,0-.12-.88.35.35,0,0,1-.13-.11C34.38,94.51,33.59,95.31,34.08,95.84Z"/><polygon class="cls-39" points="45.94 90.35 45.2 90.21 44.84 90.22 43.66 92.19 44.02 92.33 44.77 92.5 44.92 92.1 45.7 92.22 45.16 92.14 45.17 92.38 45.71 92.59 45.71 92.59 45.71 92.59 45.75 92.6 45.75 92.59 46.37 92.72 45.94 90.35"/><path class="cls-4" d="M46.09,89.81c-.63-.12-1.4-.38-1.81.26s-.74,1.23-1.1,1.84a.56.56,0,0,0,.33.82,6.33,6.33,0,0,0,1.11.31.59.59,0,0,0,.69-.39l.15-.4-.68.39.77.12.3-1.08-.54-.08a.56.56,0,0,0-.7.54v.24a.59.59,0,0,0,.41.54l.57.22c.45.18.75-.32.69-.68h0l-.69.68.62.13a.57.57,0,0,0,.69-.69l-.43-2.37c-.13-.71-1.2-.41-1.08.3l.43,2.37.69-.69-.62-.12a.57.57,0,0,0-.69.68h0l.69-.69-.58-.22.41.54v-.24l-.7.54.53.08c.7.11,1-1,.3-1.08l-.78-.12a.57.57,0,0,0-.68.39l-.16.4.69-.39a6.71,6.71,0,0,1-1.11-.3l.33.82,1.18-2-.48.27h.27c.17,0-.17,0,.08,0l.6.11C46.5,91,46.8,89.94,46.09,89.81Z"/><path class="cls-39" d="M51.38,87.68h0a.5.5,0,0,0-.18-.31c-.51-.45-1.07.34-1.07.34a14.91,14.91,0,0,0-1.59,2.55h0s-.75,1.56-1.92,3.49a5.86,5.86,0,0,1-1.26-.12,4.46,4.46,0,0,0-2.57.08,3.22,3.22,0,0,0-2.47-.22,6.88,6.88,0,0,1-2.52.15l-4,6.18a3.46,3.46,0,0,1,.82,1.3,1.76,1.76,0,0,1-.21.26c-.6.6-.19.69.23.81s2.32.21,3.13.31.72-.11,1.15-.1a4.51,4.51,0,0,1,1.13.27s5.19.12,6,.09.71.15,1.34-1.29a41.76,41.76,0,0,0,2-6.11c.07-.54-.31-.62-.64-.59a4.17,4.17,0,0,1-.5-1.27l1.36-2.3h0l0-.08a.38.38,0,0,0,.55.37c.56-.18-.14-.82.27-1.13S52.47,88.21,51.38,87.68Z"/><path class="cls-4" d="M50.9,87.4h1c-1.33-2.41-3.39,1.85-3.72,2.46-1.3,2.44-2,3.31-4.76,3.13-1.19-.07-3.86.36-5.43.11a.61.61,0,0,0-.64.25l-4,6.19a.55.55,0,0,0,.09.67c.62.68.68.65.21,1.34a.56.56,0,0,0,0,.56c.84,1.27,3.5.85,4.79,1,1.86.15,3.79.23,5.71.25s2.82.31,3.7-1.56,2.53-5.1,1.87-7a.57.57,0,0,0-.39-.39c-1.15-.2,1-3.27.77-2.91l-1-.13.1.29a.57.57,0,0,0,.39.39L50,92a.58.58,0,0,0,.63-.26A11.79,11.79,0,0,0,52,89.38c.36-.89.51-1.36-.17-2.09-.5-.53-1.29.26-.79.79s-.85,1.58-1.07,2.06c-.4.87.07.38.23.83a.56.56,0,0,0-1-.13c-1.2,1.82-1.51,2.26-.91,4.21.22.7.37.44.26,1.49a13.51,13.51,0,0,1-1.7,4.84c-1.14,1.42-4.46.94-6.32.74-.66-.07-1.32-.17-2-.21s-1.1,0-1.65-.06-2.13.09-1.79-.34a.58.58,0,0,0,.09-.67c-.2-.41-.69-1.76-.78-.81,0-.38.67-1,.88-1.36A34.69,34.69,0,0,1,38,94.34c.65-.73-.68.13.16-.11A14.84,14.84,0,0,1,42,94.07c1.51,0,3.07.18,4.64.24A.55.55,0,0,0,47.1,94c.64-1.09,1.27-2.18,1.83-3.31-.06.12-.28.34-.1,0,.09-.17,1.94-3,2.07-2.77a.56.56,0,0,0,1,0h0C52.17,87.32,51.21,86.75,50.9,87.4Z"/><path class="cls-48" d="M48.25,94.86s1.21-.43,1.09.5a41.76,41.76,0,0,1-2,6.11c-.63,1.44-.58,1.25-1.34,1.29s-6-.09-6-.09a4.51,4.51,0,0,0-1.13-.27c-.43,0-.33.2-1.15.1s-2.72-.19-3.13-.31-.83-.21-.23-.81,3.79-6.22,3.79-6.22Z"/><path class="cls-49" d="M48.9,95a3.31,3.31,0,0,1-.7-1.54,5.33,5.33,0,0,1-2.84.14,4.46,4.46,0,0,0-2.57.08,3.22,3.22,0,0,0-2.47-.22,6.88,6.88,0,0,1-2.52.15l-4,6.18a3.12,3.12,0,0,1,.92,1.83l3.6.24a2.51,2.51,0,0,1,1.57.24,28.51,28.51,0,0,0,6.68-.06S48.71,96.38,48.9,95Z"/><path d="M48,93.91c-.29,1.06-.67,2.09-1,3.14s-.75,2.07-1.19,3.07c.29-1.06.68-2.09,1-3.13S47.6,94.92,48,93.91Z"/><path d="M42.62,94.15c-.43,1.07-.94,2.09-1.41,3.14s-1,2-1.58,3c.42-1.07.94-2.09,1.41-3.13S42.05,95.15,42.62,94.15Z"/><path d="M48,95.12c-.2.81-.49,1.58-.74,2.37S46.7,99,46.35,99.8c.2-.81.49-1.58.74-2.37S47.65,95.87,48,95.12Z"/><path d="M48.42,94.73c-.2.81-.5,1.58-.74,2.37s-.56,1.56-.91,2.31c.2-.81.49-1.58.73-2.37S48.07,95.48,48.42,94.73Z"/><path d="M48,96.68c-.2.8-.49,1.58-.73,2.37s-.56,1.55-.91,2.31c.19-.81.49-1.58.73-2.37S47.69,97.43,48,96.68Z"/><path class="cls-50" d="M40.25,88.79h0a.68.68,0,0,0-1,0v0l.09-.2a.69.69,0,0,0-.27-.63h0a.7.7,0,0,0-1,0l-1.44,1.32,2.3,2.22,1.42-1.56A.8.8,0,0,0,40.25,88.79Zm-2,.6L37.78,89l.41-.38a.28.28,0,0,1,.4,0,.29.29,0,0,1,0,.41Zm1.36.44-.43.43-.48-.46.45-.44a.33.33,0,0,1,.46,0h0A.32.32,0,0,1,39.57,89.83Z"/><polygon class="cls-51" points="36.64 89.22 36.73 89.58 38.81 91.58 38.94 91.44 36.64 89.22"/><path class="cls-51" d="M38.59,88.61h0a.28.28,0,0,0-.4,0l-.41.38.43.41h0L38,89.18l.17-.16a.3.3,0,0,1,.43,0l-.38.37.38-.37A.29.29,0,0,0,38.59,88.61Z"/><path class="cls-51" d="M39.57,89.37h0a.33.33,0,0,0-.46,0l-.45.44.48.46h0L38.89,90l.2-.18a.33.33,0,0,1,.48,0l-.43.43.43-.43A.32.32,0,0,0,39.57,89.37Z"/><path class="cls-52" d="M35.1,94.76l-.63.68a.51.51,0,0,0,.77.1C35.64,95.16,35.1,94.76,35.1,94.76Z"/><path d="M35.34,95l-.62.62a.47.47,0,0,0,.53-.06A.48.48,0,0,0,35.34,95Z"/><path class="cls-53" d="M34.7,94.16s.08-1.23-.88-1.35a1.2,1.2,0,0,0-1.35,1A1.11,1.11,0,0,0,33.8,95s.44.62.7.43a6.27,6.27,0,0,0,.68-.66A.84.84,0,0,0,34.7,94.16Z"/><polygon class="cls-54" points="46.37 92.72 45.71 92.59 45.7 92.22 44.92 92.1 44.77 92.5 44.02 92.33 45.2 90.21 45.94 90.35 46.37 92.72"/><polygon class="cls-55" points="45.62 91.72 45.09 91.64 45.5 90.8 45.62 91.72"/><polygon class="cls-55" points="45.2 90.21 44.84 90.22 43.66 92.19 44.02 92.33 45.2 90.21"/><polygon class="cls-55" points="45.75 92.6 45.17 92.38 45.16 92.14 45.7 92.22 45.75 92.6"/><text class="cls-56" transform="translate(42.28 87.05)">L</text><text class="cls-42" transform="translate(37.43 99.19)">f</text><text class="cls-47" transform="translate(43.21 97.12)">p</text><polygon class="cls-57" points="39.86 95.74 39.94 95.52 40.38 95.08 40.53 95.08 39.86 95.74"/><polygon class="cls-57" points="39.86 94.56 39.94 94.41 40.23 94.11 40.75 94.66 41.28 94.09 41.6 94.43 41.65 94.56 41.47 94.63 41.34 94.44 40.85 94.92 40.16 94.26 39.86 94.56"/><polygon class="cls-57" points="41.05 95 41.57 95.52 41.65 95.74 41.5 95.74 40.9 95.15 41.05 95"/><polygon class="cls-58" points="39.86 94.56 40.46 95.15 39.86 95.74 40.16 96.04 40.75 95.45 41.35 96.04 41.65 95.74 41.05 95.15 41.65 94.56 41.35 94.26 40.79 94.81 40.2 94.22 39.86 94.56"/><path class="cls-59" d="M49.61,91.09a.39.39,0,0,0,.55.4c.56-.18-.14-.82.27-1.13s2-2.15,1-2.68C51.38,87.68,50.23,90.1,49.61,91.09Z"/><path class="cls-60" d="M48.54,90.26S47.7,92,46.4,94.1a1.14,1.14,0,0,1,1,.82s1.84-3.14,2.19-3.72C49.56,91.2,49.6,90.11,48.54,90.26Z"/><path class="cls-61" d="M48.51,90.32s1,.7,1,1a21.12,21.12,0,0,0,1.79-3.12s.32-.52-.06-.85-1.07.34-1.07.34A15.57,15.57,0,0,0,48.51,90.32Z"/><path class="cls-62" d="M46.4,94.1l-.2,1.05.43.22.74-.45S47.4,93.79,46.4,94.1Z"/><path d="M46.24,95l-.1.45s-.08.33.21.12a2.67,2.67,0,0,0,.41-.33S46.52,94.8,46.24,95Z"/><path class="cls-39" d="M74.05,60.7H68.21A1.32,1.32,0,0,0,66.89,62v2.85a1.3,1.3,0,0,0,.34.87L66.1,67.42,68,66.17h6a1.32,1.32,0,0,0,1.32-1.31V62A1.32,1.32,0,0,0,74.05,60.7Z"/><path class="cls-4" d="M74.05,60.14h-4c-1,0-2.37-.23-3.17.56s-.6,2.63-.56,3.72c0,.23.33,1.49.37,1.09,0,.47-.81,1.22-1.08,1.63s.31,1.06.77.76c1.19-.78,1.56-1.16,2.88-1.16a42.17,42.17,0,0,0,4.77,0c1.72-.2,1.89-1.49,1.89-2.94s.19-3.33-1.73-3.64c-.71-.11-1,1-.3,1.08,1.38.23,1.33,4,.12,4.38a11.79,11.79,0,0,1-3.25,0,13.31,13.31,0,0,0-2.75,0,7.94,7.94,0,0,0-2.2,1.33l.77.76L67.71,66a.54.54,0,0,0,0-.56,5.09,5.09,0,0,1-.26-2.85c.18-1.2.76-1.35,1.82-1.35h4.78A.56.56,0,0,0,74.05,60.14Z"/><path class="cls-39" d="M74.05,60.7H68.21A1.32,1.32,0,0,0,66.89,62v2.85a1.3,1.3,0,0,0,.34.87L66.1,67.42,68,66.17h6a1.32,1.32,0,0,0,1.32-1.31V62A1.32,1.32,0,0,0,74.05,60.7Z"/><path class="cls-63" d="M96,93.92a8,8,0,1,0-8,8A8,8,0,0,0,96,93.92Z"/><polygon class="cls-64" points="88 87.6 88.91 90.95 91.49 88.63 90.44 91.94 93.87 91.37 91.19 93.59 94.39 94.97 90.94 95.39 92.88 98.27 89.75 96.76 89.82 100.23 88 97.27 86.19 100.23 86.26 96.76 83.13 98.27 85.07 95.39 81.62 94.97 84.81 93.59 82.14 91.37 85.57 91.94 84.52 88.63 87.1 90.95 88 87.6"/><path class="cls-65" d="M93.92,93.92S91.27,96.59,88,96.59s-5.92-2.67-5.92-2.67,2.65-2.68,5.92-2.68S93.92,93.92,93.92,93.92Z"/><path class="cls-4" d="M90.5,93.92A2.5,2.5,0,1,0,88,96.41,2.5,2.5,0,0,0,90.5,93.92Z"/><path class="cls-64" d="M88,95.78a1.76,1.76,0,0,1-1.26-.52,2.18,2.18,0,0,1,0-3.08,2.66,2.66,0,0,1,3.76,0,.23.23,0,0,1-.33.33,2.2,2.2,0,0,0-3.1,0,1.71,1.71,0,0,0,0,2.42,1.33,1.33,0,0,0,1.87,0,1,1,0,0,0,0-1.43.79.79,0,0,0-.54-.22.76.76,0,0,0-.54.22.58.58,0,0,0,0,.8.42.42,0,0,0,.57,0,.27.27,0,0,0,0-.39.24.24,0,0,1,0-.33.22.22,0,0,1,.33,0,.73.73,0,0,1,.22.52.75.75,0,0,1-.22.53.88.88,0,0,1-1.23,0,1,1,0,0,1-.3-.73,1,1,0,0,1,.3-.73,1.23,1.23,0,0,1,.87-.36,1.24,1.24,0,0,1,.87.36,1.48,1.48,0,0,1,0,2.09A1.79,1.79,0,0,1,88,95.78Z"/><path class="cls-66" d="M93.92,93.92S91.27,91.24,88,91.24s-5.92,2.68-5.92,2.68a15,15,0,0,1,11.84,0Z"/><path class="cls-67" d="M87.87,85.92a8,8,0,1,0,8,8A8,8,0,0,0,87.87,85.92Z"/></g></g></svg>