<svg xmlns="http://www.w3.org/2000/svg" viewBox="0 0 123 123"><defs><style>.cls-1{fill:#e6e6e6;stroke:#91075d;stroke-width:6px;}.cls-1,.cls-13,.cls-14,.cls-15{stroke-miterlimit:10;}.cls-2{fill:#2dab66;}.cls-3{fill:#fff;}.cls-4{fill:#e4e4e4;}.cls-5{fill:#16184a;}.cls-6{fill:#1f1152;}.cls-7{fill:#deddd7;}.cls-8{fill:#5fa1f9;}.cls-9{fill:#e9cb44;}.cls-10{fill:#d2d1ca;}.cls-11{fill:#3f5924;}.cls-12{fill:#3d3324;opacity:0.7;}.cls-13,.cls-14,.cls-15{fill:none;}.cls-13{stroke:#b0b0b0;}.cls-13,.cls-14{stroke-width:0.39px;}.cls-14{stroke:#68b8c9;}.cls-15{stroke:#ebde56;stroke-width:0.33px;}</style></defs><title>Recurso 3</title><g id="Capa_2" data-name="Capa 2"><g id="Capa_1-2" data-name="Capa 1"><rect class="cls-1" x="3" y="3" width="117" height="117" rx="29.93" ry="29.93"/><rect class="cls-2" x="15" y="15" width="94" height="94" rx="24.05" ry="24.05"/><path class="cls-3" d="M28.09,55.43c.15,3-4.62,13.1,1.56,13.6,1.41.12,3.17-.75,4.51-1.1s3.61-.44,4.83-1.36c1.47-1.11,1.42-2.91.73-4.45-1.88-4.22-6.26-6.58-7.13-11.47-.27-1.48.48-3.68-1.34-4.18-.82-.23-4.94.66-5.42,1.8-.29.69.12.81.24,1.42.1.45.68,1,.87,1.41a36.44,36.44,0,0,1,1.18,4.54.79.79,0,0,0,1.52-.42c-.27-1-1.85-4.64-1.62-5.64.17-.74.43-.64,1.14-1,1.73-.91,1.2-.45,1.5.8.56,2.27.93,4.52,2.2,6.47s4.91,4.49,5.28,6.6c.53,3.06-5,4.87-7.29,4.72-1.53-.09-.69,1-2-.85-1.22-1.73-.44-3.58-.09-5.56.3-1.68,1-3.63.94-5.31C29.62,54.42,28,54.41,28.09,55.43Z"/><path class="cls-3" d="M29.73,48.15a1.37,1.37,0,0,0,.47-1.81,1.32,1.32,0,0,0-2.27,1.34,1.36,1.36,0,0,0,1.8.47A.8.8,0,0,0,30,47.07a.82.82,0,0,0-1.08-.29c.39,0,.47.14.25.46-.39,0-.47-.13-.25-.46a.81.81,0,0,0-.28,1.08A.78.78,0,0,0,29.73,48.15Z"/><path class="cls-3" d="M27.69,46.46a1.21,1.21,0,1,0-.34.21.82.82,0,0,0,.55-1,.8.8,0,0,0-1-.55l.18.05.2.35-.06.18-.34.2-.18,0-.21-.35.06-.18C25.8,46,26.92,47.11,27.69,46.46Z"/><path class="cls-3" d="M27.3,43.81A1.2,1.2,0,1,0,27,44a.81.81,0,0,0,.55-1,.79.79,0,0,0-1-.55l.2.06.21.35-.06.2-.35.2-.2-.06-.21-.34.06-.21C25.41,43.35,26.53,44.46,27.3,43.81Z"/><path class="cls-3" d="M22.49,44.05a1.37,1.37,0,0,0-2.72-.29,1.39,1.39,0,0,0,1.06,1.54,1.4,1.4,0,0,0,1.64-1,.79.79,0,0,0-1.53-.41c0-.15.42-.1.33.15s-.05.18-.18.1a.47.47,0,0,1-.17,0C20.88,45.06,22.45,45.06,22.49,44.05Z"/><path class="cls-4" d="M27.33,65.8c0-.21,0-.44-.06-.66a6.11,6.11,0,0,1,.08-1.36q.78-4.06,1.54-8.13a.41.41,0,0,0,0-.22c-.4-1.51-.8-3-1.18-4.54a2.86,2.86,0,0,0-.95-1.6.62.62,0,0,1-.16-.81.36.36,0,0,1,.18-.12l4.37-1.12a.34.34,0,0,1,.4.21.62.62,0,0,1,.06.56,2.62,2.62,0,0,0-.15,1.35,10.19,10.19,0,0,0,.33,1.32,1.21,1.21,0,0,0,0,.18c.19.72.39,1.44.58,2.16.13.46.25.92.38,1.38a.65.65,0,0,0,.12.25l5,6.23A8.46,8.46,0,0,1,38.82,62a4.16,4.16,0,0,1,.62,2,2,2,0,0,1-.85,1.83l-.31.17-7.22,1.85c-.3,0-.59.14-.89.22-.1,0-.67.14-.73.14A2,2,0,0,1,27.72,67c-.08-.15-.14-.31-.21-.46Z"/><path class="cls-5" d="M34.89,58.29l.28.34-.92.24c-.18.05-.27.21-.26.45s.2.51.39.51a.42.42,0,0,0,.16,0l1.07-.28s0,0,.06,0,.22,0,.32.12c.3.39.61.76.93,1.16l-.83.21a.51.51,0,0,0-.15.07.52.52,0,0,0-.11.53.48.48,0,0,0,.37.38h.07c.42-.11.85-.2,1.27-.34,0,0,.06,0,.1,0a4.57,4.57,0,0,1,.92,1.43c.33.85.16,1.63-.41,1.93a1.72,1.72,0,0,1-.43.16l-8,2a1.27,1.27,0,0,1-.58.07,1.47,1.47,0,0,1-1-1.07,4,4,0,0,1-.13-2c.27-1.49.56-3,.84-4.47v0c.51-.12,1-.26,1.51-.37.9-.19,1.79-.45,2.69-.65Z"/><circle class="cls-6" cx="29.07" cy="47.01" r="0.53"/><circle class="cls-6" cx="26.92" cy="45.54" r="0.43"/><circle class="cls-6" cx="26.53" cy="42.9" r="0.41"/><circle class="cls-6" cx="21.13" cy="43.96" r="0.59"/><path class="cls-3" d="M35.79,88.77c-.49,1.6-.27,3.54-.4,5.21-.15,1.93.24,3.86-1.42,5.2s-.47.75-2.11.32a13,13,0,0,1-2.53-1.39c-1.88-1-2.44-.89-2.86-3.09-.49-2.63,1.26-2.92,3.11-4.31,1-.77,2.17-1.45,3.11-2.31,1.7-1.55,2.39-3.61,3.62-5.53.63-1,.07-1.83,1.6-.41.67.62.78.49.84,1.23.07.91-2.37,4-2.88,4.9s.84,1.63,1.32.77c.61-1.09,1.14-2.28,1.84-3.31.39-.58,1.2-1.2,1.51-1.78.23-.43.61-.52.57-1.08-.11-1.48-3.4-3.13-4.53-3.18-1.93-.09-1.74,2.22-2.38,3.58-2.06,4.4-6.65,5.52-9.45,9-1,1.28-1.5,3-.4,4.35.79,1,2.47,1.49,3.57,2.1,1.31.71,3,2,4.45,2.39,6,1.46,4.09-9.69,4.89-12.31C37.56,88.23,36.08,87.83,35.79,88.77Z"/><path class="cls-3" d="M38.68,81s-.21.43-.42.15c-.17-.08-.17-.17,0-.25a.43.43,0,0,0,.15-.18.76.76,0,0,0-1,.28.78.78,0,0,0,.27,1,1.27,1.27,0,1,0-.27-.27.79.79,0,0,0,1,.27A.76.76,0,0,0,38.68,81Z"/><path class="cls-3" d="M41.12,80.07l-.27-.27a.77.77,0,0,0-.78,1.32,1.17,1.17,0,1,0-.27-.27.79.79,0,0,0,1.05.27A.78.78,0,0,0,41.12,80.07Z"/><path class="cls-3" d="M42.13,77.68l-.27-.28a.77.77,0,0,0-.78,1.32,1.16,1.16,0,1,0-.27-.27.78.78,0,0,0,1,.27A.77.77,0,0,0,42.13,77.68Z"/><path class="cls-3" d="M46.74,80.22s-.35.1-.31-.15,0-.18.14-.13.17,0,.2.08a.77.77,0,0,0-1.53,0,1.36,1.36,0,0,0,1.27,1.39,1.34,1.34,0,0,0,1.37-1.18,1.32,1.32,0,0,0-2.61-.41C45.06,80.78,46.53,81.19,46.74,80.22Z"/><path class="cls-4" d="M35.15,99.69c-.11.13-.2.27-.31.39a1.93,1.93,0,0,1-1.93.81s-.56-.27-.65-.31c-.27-.14-.51-.3-.79-.42l-6.33-3.47-.25-.24a1.94,1.94,0,0,1-.35-1.92,4.11,4.11,0,0,1,1.07-1.75,8.94,8.94,0,0,1,1.09-.88l6.23-4.62a.61.61,0,0,0,.18-.21l.69-1.21L34.86,84c0-.06.07-.11.1-.16a11.68,11.68,0,0,0,.62-1.16,2.64,2.64,0,0,0,.18-1.31.64.64,0,0,1,.19-.51.34.34,0,0,1,.43-.09l3.83,2.1a.4.4,0,0,1,.14.15.61.61,0,0,1-.35.73A2.79,2.79,0,0,0,38.73,85c-.72,1.33-1.46,2.65-2.2,4a.52.52,0,0,0-.07.21l-.51,8a6.08,6.08,0,0,1-.25,1.3c-.06.2-.16.4-.22.6Z"/><path class="cls-5" d="M30.21,90.21l-.36.26.81.44c.16.09.21.26.13.49a.49.49,0,0,1-.49.38l-.14,0-.94-.52s0,0,0,0-.2-.07-.33,0l-1.15.86.72.4a.26.26,0,0,1,.13.1.49.49,0,0,1,0,.52.47.47,0,0,1-.44.26H28c-.37-.2-.76-.39-1.11-.62,0,0-.06,0-.1,0a4.13,4.13,0,0,0-1.21,1.12,1.41,1.41,0,0,0-.09,1.9,2.26,2.26,0,0,0,.37.26l7,3.82a1.28,1.28,0,0,0,.53.21,1.44,1.44,0,0,0,1.2-.77,3.87,3.87,0,0,0,.59-1.81c.11-1.47.19-2.93.29-4.4,0,0,0,0,0,0-.44-.22-.87-.47-1.32-.7-.8-.4-1.57-.86-2.37-1.26Z"/><circle class="cls-6" cx="38.38" cy="81.03" r="0.51"/><circle class="cls-6" cx="40.75" cy="80.17" r="0.41"/><circle class="cls-6" cx="41.75" cy="77.78" r="0.4"/><circle class="cls-6" cx="46.57" cy="80.08" r="0.57"/><path class="cls-3" d="M92.43,89.82a4.38,4.38,0,0,1,2.89-4.13.85.85,0,0,0,.43-.75c0-1.72.13-3.5,0-5.21-.1-1-.51-1.55-.51-2.3l-.88.87,4.48,0-.88-.88c0,.8-.38,1.25-.48,2.31a50.32,50.32,0,0,0,0,5.21.85.85,0,0,0,.44.75c2.91,1.37,4,3.87,2.32,6.33a4.29,4.29,0,0,1-7.81-2.18c-.06-1.12-1.82-1.13-1.75,0,.49,8.55,13.22,6.91,11.77-1.74a.86.86,0,0,0-.61-.61c.76.23-2.12-2.85-2.16-2.9-.72-.81,0,1-.45-.47a8,8,0,0,1,0-2.19,13.49,13.49,0,0,1,0-2.2c0-.12.11-1.14,0-.44.12-.69.5-.94.5-1.87a.9.9,0,0,0-.88-.88l-4.48,0a.89.89,0,0,0-.88.88A3.34,3.34,0,0,0,94,79a22.24,22.24,0,0,1,0,4.24c0,.34.19,1.29,0,1.58.32-.51-1.74.82-1.88,1a6,6,0,0,0-1.44,4C90.71,91,92.47,91,92.43,89.82Z"/><path class="cls-3" d="M98.7,69.68c-.12.06-.24-.1-.12-.18s.23.1.12.18a.9.9,0,0,0,.31-1.2.88.88,0,0,0-1.2-.31A1.64,1.64,0,1,0,99.46,71a1.66,1.66,0,0,0,.6-2.24,1.69,1.69,0,0,0-2.25-.6.88.88,0,0,0-.31,1.2A.9.9,0,0,0,98.7,69.68Z"/><path class="cls-3" d="M86.43,60.52a.11.11,0,0,1,.12.18.11.11,0,0,1-.12-.18.9.9,0,0,0-.32,1.2.89.89,0,0,0,1.2.31,1.65,1.65,0,1,0-2.25-.6,1.69,1.69,0,0,0,2.25.6.87.87,0,0,0-.88-1.51Z"/><path class="cls-3" d="M95.34,68.56a.2.2,0,0,1-.18-.35.2.2,0,1,1,.18.35c-.93.62-.06,2.14.89,1.51a1.95,1.95,0,1,0-2.69-.77,2,2,0,0,0,2.69.77C97.24,69.58,96.35,68.06,95.34,68.56Z"/><path class="cls-3" d="M96.63,73a.5.5,0,0,1,.88-.48c.32.57-.54,1-.88.48-.61-1-2.12-.07-1.52.88a2.26,2.26,0,1,0,.83-3.08,2.29,2.29,0,0,0-.83,3.08C95.63,74.84,97.14,74,96.63,73Z"/><path class="cls-3" d="M92.55,52.88v.42l-.31.32H91.8l-.32-.32,0,0v-.45l.31-.31h.43c-1-.6-1.84.91-.89,1.51a1.19,1.19,0,1,0-.31-.31.89.89,0,0,0,1.2.31A.88.88,0,0,0,92.55,52.88Z"/><path class="cls-3" d="M83.29,70.31a3.35,3.35,0,0,1,.55.8l1.52-.88-.69-1a.89.89,0,0,0-1.2-.31.88.88,0,0,0-.32,1.2l.69,1a.88.88,0,0,0,1.52-.88,5,5,0,0,0-.83-1.16C83.74,68.26,82.51,69.5,83.29,70.31Z"/><path class="cls-3" d="M102.12,61.44s0,0,0,0l-1.24,1.24.22.19c.84.75,2.09-.49,1.24-1.24l-.22-.19a.88.88,0,0,0-1.24,1.24,1.29,1.29,0,0,0,.4.33.91.91,0,0,0,1.2-.32A.89.89,0,0,0,102.12,61.44Z"/><path class="cls-3" d="M102.65,60.89a.23.23,0,0,1,.15.12L104,59.77l-.33-.26a.91.91,0,0,0-1.24,0,.89.89,0,0,0,0,1.24l.33.26A.91.91,0,0,0,104,61a.89.89,0,0,0,0-1.24,3.25,3.25,0,0,0-.5-.4C102.57,58.78,101.69,60.3,102.65,60.89Z"/><path class="cls-7" d="M94.87,84.94l0-6-.5-.5v-1l4.48,0v1l-.5.5,0,6a5.09,5.09,0,1,1-3.49,0Z"/><path class="cls-8" d="M101.6,88.31s-.27-.14-1,.14-1,.65-1.83.38-1.66-.73-1.84-.36-1.84,0-1.84,0-.28-.64-.92,0-1.74.47-1.83.1-.58-.09-.58-.09a4.66,4.66,0,0,0,1.79,5.21,5.1,5.1,0,0,0,6.13.14A5.16,5.16,0,0,0,101.6,88.31Z"/><circle class="cls-8" cx="98.64" cy="69.59" r="0.77"/><circle class="cls-8" cx="86.49" cy="60.61" r="0.77"/><circle class="cls-8" cx="95.25" cy="68.39" r="1.07"/><circle class="cls-8" cx="97.07" cy="72.71" r="1.38"/><circle class="cls-8" cx="92.02" cy="53.08" r="0.32"/><path class="cls-3" d="M45.42,40.12A4,4,0,0,1,49.79,40a.77.77,0,0,0,.8,0c1.24-1,2.53-1.85,3.71-2.86.93-.79.91-1.27,1.4-1.64l-1.09-.29,2.48,3.21.28-1.09c-.7.55-1.47.58-2.28,1.2l-3.37,2.6a.82.82,0,0,0-.36.9c.65,3-1.28,5.68-4.46,4.94a3.93,3.93,0,0,1-1.48-6.8c.79-.65-.34-1.77-1.12-1.12-5.82,4.82,2.38,13.3,7.72,7.52a.78.78,0,0,0,.2-.77,8.89,8.89,0,0,0,.87-2.06,6.44,6.44,0,0,0-.2-2.14l-.37.9c1.12-.87,2.23-1.77,3.37-2.6.93-.67,1.32-.45,2.28-1.2.31-.23.58-.71.29-1.08L56,34.36c-.23-.3-.71-.57-1.08-.28a4.56,4.56,0,0,0-.94.75c-.12.17-.34,1-.06.63s-.67.48-.91.66l-1.88,1.45c-.27.21-.84.86-1.18.91.18,0-.85-.54-1.2-.61A5.45,5.45,0,0,0,44.3,39C43.51,39.64,44.64,40.76,45.42,40.12Z"/><path class="cls-3" d="M63.17,33.61s0-.17.16-.13-.09.17,0,.21c1,.31,1.39-1.22.42-1.53a1.48,1.48,0,1,0,.19.08C63.07,31.76,62.27,33.13,63.17,33.61Z"/><path class="cls-3" d="M63.23,19.85s0,.16-.16.12.09-.16,0-.2c-1-.31-1.39,1.22-.42,1.53a1.48,1.48,0,1,0-.19-.08C63.33,21.7,64.13,20.33,63.23,19.85Z"/><path class="cls-3" d="M62.33,30.68c-.23-.12-.23-.5.05-.37s0,.37-.24.29c-1-.34-1.38,1.19-.42,1.53a1.76,1.76,0,1,0-.19-.08C62.44,32.51,63.24,31.14,62.33,30.68Z"/><path class="cls-3" d="M59.73,34.06c.12-.25.31-.45.61-.35a.46.46,0,0,1,.27.61.45.45,0,0,1-.59.24c-.31-.13-.31-.43-.21-.69.35-1-1.18-1.38-1.53-.42a2,2,0,1,0,.08-.19C57.92,34.17,59.28,35,59.73,34.06Z"/><path class="cls-3" d="M72,19.93l0-.11-.2.35v0l-.4.11h0l-.35-.2h0l-.11-.4h0l.21-.35v0l.4-.11h0l.35.2h0l.11.4v-.11a.81.81,0,0,0-.8-.79.79.79,0,0,0-.79.79,1.12,1.12,0,0,0,1.05,1.11,1.08,1.08,0,0,0,.28-2.13,1.1,1.1,0,0,0-1.3.81C70.18,20.48,71.71,20.9,72,19.93Z"/><path class="cls-3" d="M54.38,22.81a2.76,2.76,0,0,1-.24.85l1.45.61.32-1c.31-1-1.22-1.39-1.53-.42l-.32,1c-.26.85,1.06,1.44,1.45.62a4.43,4.43,0,0,0,.4-1.23.81.81,0,0,0-.55-1A.8.8,0,0,0,54.38,22.81Z"/><path class="cls-3" d="M71.05,31.49l0,.16-1.56-.21,0,.26c-.08,1,1.51,1,1.59,0l0-.26a.8.8,0,0,0-1.56-.21,1.42,1.42,0,0,0,0,.68C69.76,32.9,71.29,32.48,71.05,31.49Z"/><path class="cls-3" d="M71.75,31.58a1.21,1.21,0,0,1,0,.38h1.59v-.38a.8.8,0,0,0-1.59,0V32a.8.8,0,0,0,.79.79.81.81,0,0,0,.8-.79,2.41,2.41,0,0,0,0-.38.81.81,0,0,0-.79-.79A.8.8,0,0,0,71.75,31.58Z"/><path class="cls-7" d="M50.19,39.27l4.31-3.33.09-.63.71-.55L57.77,38l-.71.55-.63-.08-4.31,3.32a4.61,4.61,0,1,1-1.93-2.49Z"/><path class="cls-8" d="M51.46,46s-.05-.27-.65-.65-1-.36-1.28-1.11-.39-1.59-.75-1.51-1-1.32-1-1.32.31-.55-.5-.66-1.3-1-1.08-1.26-.26-.47-.26-.47a4.21,4.21,0,0,0-2.76,4.14,4.6,4.6,0,0,0,3.26,4.49A4.68,4.68,0,0,0,51.46,46Z"/><circle class="cls-8" cx="63.3" cy="33.56" r="0.69"/><circle class="cls-8" cx="63.1" cy="19.9" r="0.69"/><circle class="cls-8" cx="62.31" cy="30.47" r="0.97"/><circle class="cls-8" cx="60.19" cy="34.14" r="1.25"/><circle class="cls-8" cx="71.54" cy="19.75" r="0.29"/><path class="cls-3" d="M59.6,81.75a1.3,1.3,0,0,0-.37-2.57,1.31,1.31,0,0,0-1.17,1.32,1.35,1.35,0,0,0,1.33,1.28c1,.06,1-1.52,0-1.58.35,0,.26.74-.12.44-.2,0-.22-.14-.07-.27s.15-.2,0-.14a.8.8,0,0,0-.55,1A.82.82,0,0,0,59.6,81.75Z"/><path class="cls-3" d="M53.72,83.44c.86,1.57.67,1.28,0,3.53l-2.31,8c-.75,2.57-3.34,7.91.79,9.1s4.77-4.69,5.52-7.25L59.41,91l.82-2.8c.52-1.82,0-1.45,1.4-1.7a.77.77,0,0,0,.55-.55l.52-1.8a.8.8,0,0,0-.55-1L55,81.08a.8.8,0,0,0-1,.55l-.34,1.2a.79.79,0,0,0,1.52.42c.35-1.21-.94-.86.23-.4S58,83.6,59.27,84c.65.19,2.48,1,2.09.36-.63-1-.27.76-.62.91.57-.24-.73,0-.9,0a.77.77,0,0,0-.55.55L57,93.61c-.58,2-1,4.13-1.76,6.07-.18.44-.18,1.22-.47,1.61-1.77,2.32-3.24.45-3.12-1.54.23-3.53,2.22-7.62,3.21-11,.77-2.65,1.52-3.69.21-6.09C54.59,81.75,53.23,82.55,53.72,83.44Z"/><path class="cls-3" d="M49.47,68.57a1.15,1.15,0,1,0,1.38,1.11,1.19,1.19,0,0,0-1.18-1.14.8.8,0,0,0-.78.79.81.81,0,0,0,.78.79h.12l-.4-.11-.13-.22.11-.4.23-.13.39.11.14.22L50,70l-.14.09C50.88,69.88,50.46,68.36,49.47,68.57Z"/><path class="cls-3" d="M60.3,76.53a1.68,1.68,0,1,0-3.36.09,1.68,1.68,0,0,0,3.36-.09.79.79,0,0,0-1.58,0c0,.19-.18.17-.21.09s.21-.17.21-.09a.82.82,0,0,0,.79.78C59.9,77.31,60.36,77,60.3,76.53Z"/><path class="cls-3" d="M47,59.3a2.53,2.53,0,0,0-2.39,2.56A2.48,2.48,0,1,0,47,59.3a.79.79,0,0,0,0,1.57c1.13,0,1.35,1.68.17,1.8a.9.9,0,0,1-.17-1.8C48,60.77,48,59.19,47,59.3Z"/><path class="cls-3" d="M59,68.84a1.73,1.73,0,0,0-1.64,1.73A1.69,1.69,0,1,0,59,68.84a.79.79,0,0,0,0,1.58c.19,0,.17.19.09.21s-.17-.2-.09-.21a.79.79,0,0,0,0-1.58Z"/><circle class="cls-9" cx="59.37" cy="80.47" r="0.52"/><path class="cls-10" d="M60.05,86l-4.53,15.59a2.51,2.51,0,0,1-3.1,1.71h0a2.5,2.5,0,0,1-1.7-3.1l4.53-15.59L54.4,83l.35-1.2,7.19,2.09-.52,1.8Z"/><path class="cls-9" d="M52.42,103.28h0a2.51,2.51,0,0,0,3.1-1.71l3.13-10.79L54,89.28l-3.26,10.9A2.5,2.5,0,0,0,52.42,103.28Z"/><circle class="cls-9" cx="49.69" cy="69.7" r="0.37"/><circle class="cls-9" cx="58.62" cy="76.57" r="0.9"/><circle class="cls-9" cx="47.09" cy="61.77" r="1.69"/><circle class="cls-9" cx="59.01" cy="70.53" r="0.9"/><path class="cls-3" d="M78.84,30.62c.7,1.35,2,1.81,2.67,2.89,1.14,1.77.11,6.81-1.54,7.31-.83.25-2.78-.6-3.52-.62a8.69,8.69,0,0,0-2.71.52c-1.68.36-3.77.13-4.22,2.26-.6,2.81,3.66,4.14,5.47,5.14s13.55,9.34,12.94,2.2a10.5,10.5,0,0,0-6-8.14l.35,1.32c1.74-2,4.38-5.24,7.17-4.58,1.09.26,1.84,1.35,2.91,1.79,3.24,1.36,6.83.06,10.05-.69a.8.8,0,0,0,.35-1.32c-3.78-3.79-8.46-8.48-13.37-3.34a.79.79,0,0,0,.56,1.34c1.42.18,2.89.29,4.29.61.62.13,3.15,1.42,2.61.27s-4.3-1.26-5.62-1.35c-4-.25-6.38,1.47-9.34,4l1.32.35c-.11-.34,1.38-5.25,1.24-6.44-.37-3.29-2.18-6.36-2.86-9.59l-1.44.61a22.07,22.07,0,0,1,3.43,8.08.79.79,0,0,0,1.32.35c4.74-5.48-1.16-9.78-5.42-12.8-.53-.38-1.15.14-1.19.68-.27,3.23-.53,5.88.49,9,.31,1,1.83.55,1.52-.42-.94-2.89-.68-5.64-.43-8.59l-1.19.68c2.74,1.95,9.41,5.34,5.1,10.32l1.32.35a22.66,22.66,0,0,0-3.59-8.46.79.79,0,0,0-1.44.61C80.8,28.46,83,32,83,35.66c0,1.64-1.75,3.85-1.28,5.3A.8.8,0,0,0,83,41.3c4-3.34,6.46-3.58,11.47-3,1.39.16,2.76.43,4.15.56a.83.83,0,0,0,.77-.58l0-.21a.81.81,0,0,0-.55-1,44.44,44.44,0,0,0-9-2l.56,1.34,7.76-.12c.47.44.91.89,1.34,1.37a22.26,22.26,0,0,1,2,2.09l.35-1.32c-3.51.82-8.48,2.94-11.19-1.18A.83.83,0,0,0,89.9,37c-3.85.53-6.23,2.62-8.75,5.43a.8.8,0,0,0,.35,1.32L83.59,46a.8.8,0,0,0,.57.76l1,2.1a.77.77,0,0,0,.21.76l-2.64,1.07-1.55-.87a31.64,31.64,0,0,1-3.89-2.16c-1.5-.83-5.91-2.7-4.23-4.85.7-.91,5.79-.87,6.92,0a.81.81,0,0,0,1.24-.16c1.26-2.31,3.22-5.87,2.31-8.65-.67-2-2.24-2-3.37-4.17C79.74,28.93,78.38,29.72,78.84,30.62Z"/><path class="cls-11" d="M90.11,37.71a4.9,4.9,0,0,0,3.81,2.65c2.91.62,5.55-.57,8.27-1.11-.54-.54-1.09-1.07-1.6-1.62a12,12,0,0,0-3.89-3.26,5.48,5.48,0,0,0-5.77.51,7.51,7.51,0,0,0-1,1c1.58.21,3.06.31,4.5.63s2.83.86,4.24,1.3l-.06.21c-.16,0-.32,0-.48-.05-2.31-.32-4.62-.62-6.92-1a7.89,7.89,0,0,0-6,1.43c-1,.7-1.89,1.53-2.82,2.3,0,0,0,0,0-.08l.21-.47a10.14,10.14,0,0,0,.65-7.68c-.83-2.44-1.58-4.9-2.35-7.36a3.13,3.13,0,0,1-.1-.44A19.29,19.29,0,0,1,84.33,33a5.2,5.2,0,0,0,1.07-1.47,5.66,5.66,0,0,0-1.59-6.6c-1.49-1.28-3.16-2.34-4.74-3.49-.11,1.35-.23,2.66-.32,4a10.51,10.51,0,0,0,.78,4.83,4.29,4.29,0,0,0,2.38,2.6A1.26,1.26,0,0,1,82.79,34a11.19,11.19,0,0,1-1.29,6.57c-.26.57-.6,1.11-.91,1.68l1.12.69C83.93,40.42,86.27,37.89,90.11,37.71Z"/><path class="cls-12" d="M77.92,41.62a.76.76,0,0,1-.64-.09A2.32,2.32,0,0,0,75.1,41a13.35,13.35,0,0,0-2,1,2,2,0,0,0-2.73.73c-.5,1-.1,1.9,1.12,2.57,4.15,2.31,8.3,4.59,12.43,6.93a2.51,2.51,0,0,0,2.1.21,1.62,1.62,0,0,0,.72-2.76A6.72,6.72,0,0,0,86,49c.64-1.83.3-2.48-1.6-3.07.17-.77.28-1.6-.54-2.07a22.7,22.7,0,0,0-2.12-1l-1.12-.69A2.1,2.1,0,0,0,77.92,41.62Z"/><path class="cls-3" d="M80.32,72.16a6.69,6.69,0,0,0-.75-2c-.42-.76-1.76-.25-1.44.61l.67,1.79c.35,1,1.87.54,1.52-.42l-.67-1.79-1.44.6a5.88,5.88,0,0,1,.59,1.61C79,73.58,80.52,73.16,80.32,72.16Z"/><path class="cls-3" d="M89.38,96.71a2.82,2.82,0,0,0-.56-1.61c-.46-.71-1.77-.28-1.44.6l.45,1.22c.35.94,1.88.54,1.52-.42l-.45-1.22-1.44.61a2.58,2.58,0,0,1,.33.69c0,.17,0-.06,0,.06a.08.08,0,0,1,0,.07C87.74,97.72,89.32,97.72,89.38,96.71Z"/><path class="cls-3" d="M83.73,81.36l-3.41-9.2c-.29-.77-1.61-.74-1.55.21.08,1.4-.27,5.09-2,5.68s-4.55-1.5-5.52-2.88c-.48-.69-1.71-.3-1.44.61C71,79.69,72,83.65,73,87.54s2.82,7.92,4,11.86a.79.79,0,0,0,1.55-.21c0-6,5.37-7.82,9.08-3.14.49.61,1.59,0,1.32-.77l-2.69-7.23c-.94-2.54-.85-5-2.68-7-.67-.77-1.78.35-1.12,1.11,1.15,1.31,2.1,5.86,2.77,7.67l2.2,5.91,1.32-.76c-1.75-2.21-4.68-3-7.27-3.73a.79.79,0,0,0-.77.2c-2,2.46-3.72,4.41-3.74,7.78L78.47,99l-7.1-23.62L69.93,76c1.59,2.25,4.16,3.25,6.67,4.16a.82.82,0,0,0,.89-.37c1.75-2.36,3-4.27,2.85-7.39l-1.54.21,3.41,9.2C82.56,82.72,84.08,82.31,83.73,81.36Z"/><path class="cls-3" d="M69.45,74.33A2.93,2.93,0,0,0,69.93,76a.79.79,0,0,0,1.44-.61L71,74.12c-.29-1-1.82-.56-1.52.41l.37,1.25,1.44-.61a2,2,0,0,1-.27-.71c0,.11,0-.09,0-.13a.79.79,0,0,0-.79-.79A.8.8,0,0,0,69.45,74.33Z"/><line class="cls-13" x1="78" y1="99.85" x2="88.26" y2="95.68"/><line class="cls-13" x1="77.68" y1="97.29" x2="86.23" y2="93.96"/><line class="cls-13" x1="77.06" y1="91.15" x2="83.42" y2="88.55"/><line class="cls-13" x1="74.55" y1="89.66" x2="84.4" y2="85.69"/><line class="cls-13" x1="73.68" y1="87.71" x2="84.15" y2="83.44"/><line class="cls-13" x1="74.25" y1="84.71" x2="82.67" y2="81.45"/><line class="cls-13" x1="75.24" y1="81.86" x2="80.16" y2="80.3"/><line class="cls-13" x1="72.89" y1="77.58" x2="79.46" y2="74.88"/><line class="cls-13" x1="70.39" y1="75.06" x2="79.29" y2="71.91"/><path class="cls-14" d="M88.59,96.71s.31-3.54-10-5.28-1-13.09-1-13.09,3.58-3.79,1.3-7.76"/><path class="cls-14" d="M70.24,74.33s-.53,3.51,9.68,5.9.13,13.13.13,13.13-3.81,3.55-1.79,7.66"/><path class="cls-15" d="M68.43,45.8s-2.52.93-.39,8.54-8.63,4.84-8.63,4.84S55.69,58,53.7,60.78"/></g></g></svg>