<svg xmlns="http://www.w3.org/2000/svg" xmlns:xlink="http://www.w3.org/1999/xlink" viewBox="0 0 1366 768"><defs><style>.cls-1{fill:url(#Degradado_sin_nombre_6);}.cls-2{fill:#c16c57;}.cls-3{fill:#c97363;}.cls-4{fill:#e1bbb0;}.cls-5{fill:#cb867a;}.cls-6{fill:#be6b5e;}.cls-7{fill:#ce7872;}.cls-8{fill:#d6ab9f;}.cls-9{fill:#c6cfb4;}.cls-10{fill:#b7bfa5;}.cls-11{fill:#a76161;}.cls-12{fill:#d2787f;}.cls-13{fill:#c25a63;}.cls-14{fill:#b43247;}.cls-15{fill:#deada5;}.cls-16{fill:#cc8679;}.cls-17{fill:#c98779;}.cls-18{fill:#c1665b;}.cls-19{fill:#dd998e;}.cls-20{fill:#d17871;}.cls-21{fill:#e2bab1;}.cls-22{fill:#c3776b;}.cls-23{fill:#c06b5d;}.cls-24{fill:#ce8578;}.cls-25{fill:#d68f85;}.cls-26{fill:#89bf95;}.cls-27{fill:#dce9f9;}.cls-28{fill:#fff;}.cls-29{fill:#3bad4c;}.cls-30{fill:#1f49b6;}.cls-31{fill:#b2363c;}.cls-32{fill:#eeb500;}</style><linearGradient id="Degradado_sin_nombre_6" x1="149.5" y1="917.5" x2="1216.5" y2="-149.5" gradientUnits="userSpaceOnUse"><stop offset="0" stop-color="#e59dcd"/><stop offset="1" stop-color="#b5d4eb"/></linearGradient></defs><g id="Capa_2" data-name="Capa 2"><g id="Capa_2-2" data-name="Capa 2"><rect class="cls-1" width="1366" height="768"/><path class="cls-2" d="M652.77,599.76l-150.7-90.92a6.66,6.66,0,0,0-.57,2.69v11.33a8.29,8.29,0,0,0,4,7.1l149.41,90.4a8,8,0,0,0,2.75,1V600.93A8.38,8.38,0,0,1,652.77,599.76Z"/><path class="cls-3" d="M820.2,508.69,661.29,599.85a8.34,8.34,0,0,1-3.63,1.08v20.45a7.93,7.93,0,0,0,5.43-1L816.36,530a8.29,8.29,0,0,0,4.08-7.14V510.52A7,7,0,0,0,820.2,508.69Z"/><path class="cls-4" d="M661.29,599.85,820.2,508.69a7.29,7.29,0,0,0-3.32-4.45L666.23,414.36a6.45,6.45,0,0,0-6.56,0l-154.86,91.4a6.74,6.74,0,0,0-2.74,3.1l150.7,90.92A8.39,8.39,0,0,0,661.29,599.85Z"/><path class="cls-5" d="M578.46,462.3a3,3,0,0,0-3.06,0l-59.23,35.28a2.92,2.92,0,0,0-.74.66l24.37,14.21a4.14,4.14,0,0,0,2.06.58,4.22,4.22,0,0,0,2.1-.52l61.6-33.7Z"/><path class="cls-6" d="M539.8,512.44l-24.37-14.21a2.94,2.94,0,0,0-.7,1.87v3.71a2.2,2.2,0,0,0,1.06,1.87l23,13.82a4.8,4.8,0,0,0,3,.64V513A4.14,4.14,0,0,1,539.8,512.44Z"/><path class="cls-7" d="M605.56,478.8,544,512.5a4.22,4.22,0,0,1-2.1.52v7.12a4.77,4.77,0,0,0,1.77-.57l63.74-35.7v-4Z"/><polygon class="cls-8" points="550.47 520.92 554.44 523.57 558.41 520.92 554.44 518.28 550.47 520.92"/><polygon class="cls-8" points="557.08 516.96 561.05 519.6 565.02 516.96 561.05 514.31 557.08 516.96"/><polygon class="cls-8" points="563.7 512.99 567.67 515.63 571.64 512.99 567.67 510.34 563.7 512.99"/><polygon class="cls-8" points="570.32 509.01 574.29 511.66 578.26 509.01 574.29 506.37 570.32 509.01"/><polygon class="cls-8" points="576.93 505.05 580.9 507.69 584.87 505.05 580.9 502.4 576.93 505.05"/><polygon class="cls-8" points="583.55 501.07 587.52 503.72 591.49 501.07 587.52 498.43 583.55 501.07"/><polygon class="cls-8" points="590.17 497.1 594.14 499.75 598.11 497.1 594.14 494.46 590.17 497.1"/><polygon class="cls-8" points="555.76 526.22 559.73 528.87 563.7 526.22 559.73 523.57 555.76 526.22"/><polygon class="cls-8" points="562.38 522.25 566.35 524.89 570.32 522.25 566.35 519.6 562.38 522.25"/><polygon class="cls-8" points="568.99 518.28 572.96 520.92 576.93 518.28 572.96 515.63 568.99 518.28"/><polygon class="cls-8" points="575.61 514.31 579.58 516.96 583.55 514.31 579.58 511.66 575.61 514.31"/><polygon class="cls-8" points="582.23 510.34 586.2 512.99 590.17 510.34 586.2 507.69 582.23 510.34"/><polygon class="cls-8" points="588.84 506.37 592.81 509.01 596.78 506.37 592.81 503.72 588.84 506.37"/><polygon class="cls-8" points="595.46 502.4 599.43 505.05 603.4 502.4 599.43 499.75 595.46 502.4"/><rect class="cls-9" x="572.96" y="527.54" width="1.32" height="1.32"/><rect class="cls-10" x="574.29" y="527.54" width="1.32" height="1.32" transform="translate(1149.9 1056.41) rotate(-180)"/><rect class="cls-9" x="574.29" y="526.22" width="1.32" height="1.32" transform="translate(1149.9 1053.76) rotate(-180)"/><rect class="cls-10" x="575.61" y="526.22" width="1.32" height="1.32"/><rect class="cls-9" x="575.61" y="527.54" width="1.32" height="1.32"/><rect class="cls-9" x="576.93" y="526.22" width="1.32" height="1.32" transform="translate(1155.19 1053.76) rotate(-180)"/><rect class="cls-10" x="574.29" y="528.87" width="1.32" height="1.32"/><rect class="cls-10" x="575.61" y="530.19" width="1.32" height="1.32" transform="translate(1152.54 1061.7) rotate(-180)"/><rect class="cls-9" x="575.61" y="528.87" width="1.32" height="1.32" transform="translate(1152.54 1059.05) rotate(-180)"/><path class="cls-11" d="M575.81,528.87h-.73a.34.34,0,0,1-.31-.47l.21-.48v-6.16h.84v6.1l.25.61A.29.29,0,0,1,575.81,528.87Z"/><polygon class="cls-12" points="571.64 520.92 575.4 523.01 579.58 520.92 575.4 519.25 571.64 520.92"/><polygon class="cls-13" points="571.64 520.92 571.64 521.76 575.4 523.85 575.4 523.01 571.64 520.92"/><polygon class="cls-14" points="575.4 523.01 575.4 523.85 579.58 521.76 579.58 520.92 575.4 523.01"/><polygon class="cls-12" points="572.89 520.02 575.66 521.56 578.74 520.02 575.66 518.79 572.89 520.02"/><polygon class="cls-13" points="572.89 520.02 572.89 520.64 575.66 522.18 575.66 521.56 572.89 520.02"/><polygon class="cls-14" points="575.66 521.56 575.66 522.18 578.74 520.64 578.74 520.02 575.66 521.56"/><polygon class="cls-12" points="574.15 519.28 575.73 520.15 577.49 519.28 575.73 518.57 574.15 519.28"/><polygon class="cls-13" points="574.15 519.28 574.15 519.63 575.73 520.51 575.73 520.15 574.15 519.28"/><polygon class="cls-14" points="575.73 520.15 575.73 520.51 577.49 519.63 577.49 519.28 575.73 520.15"/><rect class="cls-9" x="566.35" y="534.16" width="1.32" height="1.32"/><rect class="cls-10" x="567.67" y="534.16" width="1.32" height="1.32" transform="translate(1136.66 1069.64) rotate(-180)"/><rect class="cls-9" x="567.67" y="532.84" width="1.32" height="1.32" transform="translate(1136.66 1067) rotate(-180)"/><rect class="cls-10" x="568.99" y="532.84" width="1.32" height="1.32"/><rect class="cls-9" x="568.99" y="534.16" width="1.32" height="1.32"/><rect class="cls-9" x="570.32" y="532.84" width="1.32" height="1.32" transform="translate(1141.96 1067) rotate(-180)"/><rect class="cls-10" x="567.67" y="535.48" width="1.32" height="1.32"/><rect class="cls-10" x="568.99" y="536.81" width="1.32" height="1.32" transform="translate(1139.31 1074.94) rotate(-180)"/><rect class="cls-9" x="568.99" y="535.48" width="1.32" height="1.32" transform="translate(1139.31 1072.29) rotate(-180)"/><path class="cls-11" d="M569.19,535.48h-.73a.33.33,0,0,1-.3-.47l.21-.48v-6.15h.83v6.09l.26.62A.29.29,0,0,1,569.19,535.48Z"/><polygon class="cls-12" points="565.02 527.54 568.78 529.63 572.96 527.54 568.78 525.87 565.02 527.54"/><polygon class="cls-13" points="565.02 527.54 565.02 528.38 568.78 530.47 568.78 529.63 565.02 527.54"/><polygon class="cls-14" points="568.78 529.63 568.78 530.47 572.96 528.38 572.96 527.54 568.78 529.63"/><polygon class="cls-12" points="566.28 526.64 569.05 528.18 572.13 526.64 569.05 525.41 566.28 526.64"/><polygon class="cls-13" points="566.28 526.64 566.28 527.26 569.05 528.8 569.05 528.18 566.28 526.64"/><polygon class="cls-14" points="569.05 528.18 569.05 528.8 572.13 527.26 572.13 526.64 569.05 528.18"/><polygon class="cls-12" points="567.53 525.89 569.11 526.77 570.87 525.89 569.11 525.19 567.53 525.89"/><polygon class="cls-13" points="567.53 525.89 567.53 526.25 569.11 527.12 569.11 526.77 567.53 525.89"/><polygon class="cls-14" points="569.11 526.77 569.11 527.12 570.87 526.25 570.87 525.89 569.11 526.77"/><polygon class="cls-15" points="656.34 445.49 651.04 448.14 655.01 449.46 661.63 446.81 656.34 445.49"/><polygon class="cls-15" points="649.72 449.46 644.43 452.11 648.4 453.43 655.01 450.79 649.72 449.46"/><polygon class="cls-15" points="643.1 453.43 637.81 456.08 641.78 457.4 648.4 454.76 643.1 453.43"/><polygon class="cls-15" points="636.49 457.4 631.19 460.05 635.16 461.37 641.78 458.73 636.49 457.4"/><polygon class="cls-15" points="629.87 461.37 624.58 464.02 628.55 465.34 635.16 462.7 629.87 461.37"/><polygon class="cls-15" points="623.25 465.34 617.96 467.99 621.93 469.31 628.55 466.67 623.25 465.34"/><polygon class="cls-15" points="616.63 469.31 611.34 471.96 615.31 473.28 621.93 470.64 616.63 469.31"/><polygon class="cls-15" points="660.97 450.12 655.67 452.77 659.64 454.09 666.26 451.45 660.97 450.12"/><polygon class="cls-15" points="654.35 454.09 649.06 456.74 653.03 458.06 659.64 455.42 654.35 454.09"/><polygon class="cls-15" points="647.74 458.06 642.44 460.71 646.41 462.03 653.03 459.39 647.74 458.06"/><polygon class="cls-15" points="641.12 462.03 635.82 464.68 639.79 466 646.41 463.36 641.12 462.03"/><polygon class="cls-15" points="634.5 466 629.21 468.65 633.18 469.98 639.79 467.33 634.5 466"/><polygon class="cls-15" points="627.88 469.98 622.59 472.62 626.56 473.94 633.18 471.3 627.88 469.98"/><polygon class="cls-15" points="621.27 473.94 615.97 476.59 619.94 477.92 626.56 475.27 621.27 473.94"/><polygon class="cls-15" points="665.6 454.76 660.31 457.4 664.28 458.73 670.89 456.08 665.6 454.76"/><polygon class="cls-15" points="658.98 458.73 653.69 461.37 657.66 462.7 664.28 460.05 658.98 458.73"/><polygon class="cls-15" points="652.37 462.7 647.07 465.34 651.04 466.67 657.66 464.02 652.37 462.7"/><polygon class="cls-15" points="645.75 466.67 640.46 469.31 644.43 470.64 651.04 467.99 645.75 466.67"/><polygon class="cls-15" points="639.13 470.64 633.84 473.28 637.81 474.61 644.43 471.96 639.13 470.64"/><polygon class="cls-15" points="632.52 474.61 627.22 477.25 631.19 478.58 637.81 475.93 632.52 474.61"/><polygon class="cls-15" points="625.9 478.58 620.61 481.22 624.58 482.55 631.19 479.9 625.9 478.58"/><polygon class="cls-15" points="670.23 459.39 664.94 462.03 668.91 463.36 675.53 460.71 670.23 459.39"/><polygon class="cls-15" points="663.62 463.36 658.32 466 662.29 467.33 668.91 464.68 663.62 463.36"/><polygon class="cls-15" points="657 467.33 651.71 469.98 655.67 471.3 662.29 468.65 657 467.33"/><polygon class="cls-15" points="650.38 471.3 645.09 473.94 649.06 475.27 655.67 472.62 650.38 471.3"/><polygon class="cls-15" points="643.76 475.27 638.47 477.92 642.44 479.24 649.06 476.59 643.76 475.27"/><polygon class="cls-15" points="637.15 479.24 631.85 481.88 635.82 483.21 642.44 480.56 637.15 479.24"/><polygon class="cls-15" points="630.53 483.21 625.24 485.86 629.21 487.18 635.82 484.53 630.53 483.21"/><polygon class="cls-16" points="611.34 426.96 595.46 437.55 611.34 447.02 629.87 437.55 611.34 426.96"/><polygon class="cls-17" points="611.34 475.21 595.46 466.26 595.46 470.23 611.34 479.18 611.34 475.21"/><polygon class="cls-18" points="611.34 471.24 595.46 462.29 595.46 466.26 611.34 475.21 611.34 471.24"/><polygon class="cls-18" points="611.34 479.18 595.46 470.23 595.46 474.2 611.34 483.15 611.34 479.18"/><polygon class="cls-18" points="611.34 487.12 595.46 478.17 595.46 482.14 611.34 491.09 611.34 487.12"/><polygon class="cls-17" points="611.34 483.15 595.46 474.2 595.46 478.17 611.34 487.12 611.34 483.15"/><polygon class="cls-17" points="611.34 491.09 595.46 482.14 595.46 486.11 611.34 495.06 611.34 491.09"/><polygon class="cls-17" points="611.34 451.39 595.46 442.44 595.46 446.41 611.34 455.36 611.34 451.39"/><polygon class="cls-17" points="611.34 467.27 595.46 458.32 595.46 462.29 611.34 471.24 611.34 467.27"/><polygon class="cls-18" points="611.34 447.02 595.46 437.55 595.46 442.44 611.34 451.39 611.34 447.02"/><polygon class="cls-17" points="611.34 459.33 595.46 450.38 595.46 454.35 611.34 463.3 611.34 459.33"/><polygon class="cls-18" points="611.34 463.3 595.46 454.35 595.46 458.32 611.34 467.27 611.34 463.3"/><polygon class="cls-18" points="611.34 455.36 595.46 446.41 595.46 450.38 611.34 459.33 611.34 455.36"/><polygon class="cls-18" points="595.46 486.11 595.46 490.49 611.34 499.75 611.34 495.06 595.46 486.11"/><polygon class="cls-19" points="611.34 463.3 629.87 452.99 629.87 449.02 611.34 459.33 611.34 463.3"/><polygon class="cls-20" points="611.34 467.27 629.87 456.96 629.87 452.99 611.34 463.3 611.34 467.27"/><polygon class="cls-19" points="611.34 471.24 629.87 460.93 629.87 456.96 611.34 467.27 611.34 471.24"/><polygon class="cls-20" points="611.34 475.21 629.87 464.9 629.87 460.93 611.34 471.24 611.34 475.21"/><polygon class="cls-20" points="629.87 441.08 629.87 437.55 611.34 447.02 611.34 451.39 629.87 441.08"/><polygon class="cls-20" points="611.34 455.36 611.34 459.33 629.87 449.02 629.87 445.05 611.34 455.36"/><polygon class="cls-19" points="611.34 455.36 629.87 445.05 629.87 441.08 611.34 451.39 611.34 455.36"/><polygon class="cls-20" points="611.34 491.09 629.87 480.79 629.87 476.81 611.34 487.12 611.34 491.09"/><polygon class="cls-19" points="611.34 495.06 629.87 484.75 629.87 480.79 611.34 491.09 611.34 495.06"/><polygon class="cls-20" points="611.34 499.75 629.87 490.49 629.87 484.75 611.34 495.06 611.34 499.75"/><polygon class="cls-19" points="611.34 487.12 629.87 476.81 629.87 472.85 611.34 483.15 611.34 487.12"/><polygon class="cls-20" points="611.34 479.18 611.34 483.15 616.63 480.21 616.63 476.24 611.34 479.18"/><polygon class="cls-20" points="623.91 476.16 629.87 472.85 629.87 468.88 623.91 472.19 623.91 476.16"/><polygon class="cls-19" points="616.63 472.26 611.34 475.21 611.34 479.18 616.63 476.24 616.63 472.26"/><polygon class="cls-21" points="616.63 472.26 616.63 476.24 616.63 480.21 623.91 476.16 623.91 472.19 623.91 468.22 616.63 472.26"/><polygon class="cls-19" points="623.91 468.22 623.91 472.19 629.87 468.88 629.87 464.9 623.91 468.22"/><rect class="cls-10" x="692.07" y="474.61" width="9.26" height="1.32"/><rect class="cls-10" x="702.66" y="474.61" width="9.26" height="1.32"/><rect class="cls-10" x="701.33" y="479.9" width="9.26" height="1.32"/><rect class="cls-9" x="700.01" y="467.99" width="9.26" height="1.32"/><rect class="cls-10" x="701.33" y="477.25" width="9.26" height="1.32"/><rect class="cls-10" x="694.72" y="469.31" width="9.26" height="1.32"/><rect class="cls-9" x="697.36" y="475.93" width="9.26" height="1.32"/><rect class="cls-9" x="696.04" y="481.22" width="9.26" height="1.32"/><rect class="cls-9" x="697.36" y="478.58" width="9.26" height="1.32"/><rect class="cls-9" x="701.33" y="470.64" width="9.26" height="1.32"/><rect class="cls-9" x="686.78" y="470.64" width="9.26" height="1.32"/><rect class="cls-9" x="693.39" y="473.28" width="9.26" height="1.32"/><rect class="cls-9" x="707.95" y="473.28" width="9.26" height="1.32"/><rect class="cls-10" x="698.69" y="471.96" width="9.26" height="1.32"/><path class="cls-11" d="M694.67,470.64h-1a.48.48,0,0,1-.43-.67l.3-.68v-8.7h1.18v8.62l.36.87A.41.41,0,0,1,694.67,470.64Z"/><polygon class="cls-12" points="688.78 459.41 694.1 462.36 700.01 459.41 694.1 457.04 688.78 459.41"/><polygon class="cls-13" points="688.78 459.41 688.78 460.59 694.1 463.54 694.1 462.36 688.78 459.41"/><polygon class="cls-14" points="694.1 462.36 694.1 463.54 700.01 460.59 700.01 459.41 694.1 462.36"/><polygon class="cls-12" points="690.55 458.13 694.47 460.31 698.83 458.13 694.47 456.39 690.55 458.13"/><polygon class="cls-13" points="690.55 458.13 690.55 459 694.47 461.18 694.47 460.31 690.55 458.13"/><polygon class="cls-14" points="694.47 460.31 694.47 461.18 698.83 459 698.83 458.13 694.47 460.31"/><polygon class="cls-12" points="692.33 457.07 694.57 458.32 697.05 457.07 694.57 456.08 692.33 457.07"/><polygon class="cls-13" points="692.33 457.07 692.33 457.57 694.57 458.82 694.57 458.32 692.33 457.07"/><polygon class="cls-14" points="694.57 458.32 694.57 458.82 697.05 457.57 697.05 457.07 694.57 458.32"/><path class="cls-11" d="M706.59,470.64h-1a.48.48,0,0,1-.43-.67l.3-.68v-8.7h1.18v8.62l.36.87A.41.41,0,0,1,706.59,470.64Z"/><polygon class="cls-12" points="700.69 459.41 706.01 462.36 711.92 459.41 706.01 457.04 700.69 459.41"/><polygon class="cls-13" points="700.69 459.41 700.69 460.59 706.01 463.54 706.01 462.36 700.69 459.41"/><polygon class="cls-14" points="706.01 462.36 706.01 463.54 711.92 460.59 711.92 459.41 706.01 462.36"/><polygon class="cls-12" points="702.46 458.13 706.38 460.31 710.74 458.13 706.38 456.39 702.46 458.13"/><polygon class="cls-13" points="702.46 458.13 702.46 459 706.38 461.18 706.38 460.31 702.46 458.13"/><polygon class="cls-14" points="706.38 460.31 706.38 461.18 710.74 459 710.74 458.13 706.38 460.31"/><polygon class="cls-12" points="704.24 457.07 706.48 458.32 708.96 457.07 706.48 456.08 704.24 457.07"/><polygon class="cls-13" points="704.24 457.07 704.24 457.57 706.48 458.82 706.48 458.32 704.24 457.07"/><polygon class="cls-14" points="706.48 458.32 706.48 458.82 708.96 457.57 708.96 457.07 706.48 458.32"/><path class="cls-11" d="M698.89,474.55h-1c-.33,0-.54-.23-.41-.43l.28-.42v-5.51h1.12v5.45l.34.55C699.35,474.36,699.16,474.55,698.89,474.55Z"/><polygon class="cls-12" points="693.85 467.95 698.02 470.27 702.66 467.95 698.02 466.1 693.85 467.95"/><polygon class="cls-13" points="693.85 467.95 693.85 468.88 698.02 471.2 698.02 470.27 693.85 467.95"/><polygon class="cls-14" points="698.02 470.27 698.02 471.2 702.66 468.88 702.66 467.95 698.02 470.27"/><polygon class="cls-12" points="695.24 466.95 698.31 468.66 701.73 466.95 698.31 465.59 695.24 466.95"/><polygon class="cls-13" points="695.24 466.95 695.24 467.64 698.31 469.35 698.31 468.66 695.24 466.95"/><polygon class="cls-14" points="698.31 468.66 698.31 469.35 701.73 467.64 701.73 466.95 698.31 468.66"/><polygon class="cls-12" points="696.63 466.12 698.39 467.1 700.34 466.12 698.39 465.34 696.63 466.12"/><polygon class="cls-13" points="696.63 466.12 696.63 466.51 698.39 467.49 698.39 467.1 696.63 466.12"/><polygon class="cls-14" points="698.39 467.1 698.39 467.49 700.34 466.51 700.34 466.12 698.39 467.1"/><path class="cls-11" d="M710.8,474.55h-1c-.33,0-.54-.23-.41-.43l.28-.42v-5.51h1.12v5.45l.34.55C711.26,474.36,711.07,474.55,710.8,474.55Z"/><polygon class="cls-12" points="705.76 467.95 709.93 470.27 714.57 467.95 709.93 466.1 705.76 467.95"/><polygon class="cls-13" points="705.76 467.95 705.76 468.88 709.93 471.2 709.93 470.27 705.76 467.95"/><polygon class="cls-14" points="709.93 470.27 709.93 471.2 714.57 468.88 714.57 467.95 709.93 470.27"/><polygon class="cls-12" points="707.15 466.95 710.22 468.66 713.64 466.95 710.22 465.59 707.15 466.95"/><polygon class="cls-13" points="707.15 466.95 707.15 467.64 710.22 469.35 710.22 468.66 707.15 466.95"/><polygon class="cls-14" points="710.22 468.66 710.22 469.35 713.64 467.64 713.64 466.95 710.22 468.66"/><polygon class="cls-12" points="708.54 466.12 710.3 467.1 712.25 466.12 710.3 465.34 708.54 466.12"/><polygon class="cls-13" points="708.54 466.12 708.54 466.51 710.3 467.49 710.3 467.1 708.54 466.12"/><polygon class="cls-14" points="710.3 467.1 710.3 467.49 712.25 466.51 712.25 466.12 710.3 467.1"/><path class="cls-11" d="M703.43,479.84h-.83c-.27,0-.46-.19-.35-.36l.24-.36v-4.68h.95v4.63l.3.47C703.82,479.68,703.67,479.84,703.43,479.84Z"/><polygon class="cls-12" points="699.14 474.25 702.69 476.21 706.62 474.23 702.68 472.66 699.14 474.25"/><polygon class="cls-13" points="699.14 474.25 699.14 475.04 702.69 477 702.69 476.21 699.14 474.25"/><polygon class="cls-14" points="702.69 476.21 702.69 477 706.62 475.01 706.62 474.23 702.69 476.21"/><polygon class="cls-12" points="700.32 473.39 702.93 474.84 705.83 473.38 702.92 472.23 700.32 473.39"/><polygon class="cls-13" points="700.32 473.39 700.32 473.98 702.93 475.42 702.93 474.84 700.32 473.39"/><polygon class="cls-14" points="702.93 474.84 702.93 475.42 705.83 473.96 705.83 473.38 702.93 474.84"/><polygon class="cls-12" points="701.5 472.69 702.99 473.51 704.65 472.68 702.99 472.02 701.5 472.69"/><polygon class="cls-13" points="701.5 472.69 701.5 473.02 702.99 473.84 702.99 473.51 701.5 472.69"/><polygon class="cls-14" points="702.99 473.51 702.99 473.84 704.65 473.01 704.65 472.68 702.99 473.51"/><polygon class="cls-5" points="782.06 455 782.06 454.76 743.68 432.26 730.72 440.04 769.49 460.71 782.06 455"/><polygon class="cls-22" points="730.72 440.04 730.45 440.2 730.45 471.67 769.49 493.8 769.49 460.71 730.72 440.04"/><polygon class="cls-23" points="769.49 460.71 769.49 493.8 781.4 487.18 782.06 486.74 782.06 455 769.49 460.71"/><polygon class="cls-24" points="786.34 491.05 782.06 487.84 782.06 486.74 781.4 487.18 769.49 493.8 730.45 471.67 730.45 471.96 717.26 479.87 761.55 505.71 786.34 491.05"/><polygon class="cls-7" points="761.55 505.71 717.26 479.87 717.21 479.9 717.21 485.19 762.21 510.34 762.52 510.16 762.05 505.41 761.55 505.71"/><polygon class="cls-6" points="787.35 491.81 786.34 491.05 762.05 505.41 762.52 510.16 787.35 495.78 787.35 491.81"/><polygon class="cls-25" points="763.99 444.16 756.39 439.71 748.68 442.07 756.25 447.48 763.99 444.16"/><polygon class="cls-6" points="764.02 444.18 763.99 444.16 756.25 447.48 755.98 447.28 757.73 451.36 764.19 447.48 764.02 444.18"/><polygon class="cls-7" points="748.68 442.07 748.31 442.18 748.31 446.15 757.58 451.45 757.73 451.36 755.98 447.28 748.68 442.07"/><path class="cls-26" d="M726.62,511l17.14,10.48a2.56,2.56,0,0,0,2.53.07l11.83-6.37a2.55,2.55,0,0,0,0-4.47l-19.86-11.06a2.53,2.53,0,0,0-2.46,0l-9.06,5A3.68,3.68,0,0,0,726.62,511Z"/><path class="cls-11" d="M735.44,507.69h-1.11a.51.51,0,0,1-.46-.71l.32-.73v-9.32h1.26v9.23l.39.93A.44.44,0,0,1,735.44,507.69Z"/><polygon class="cls-12" points="729.12 495.67 734.82 498.83 741.15 495.67 734.82 493.14 729.12 495.67"/><polygon class="cls-13" points="729.12 495.67 729.12 496.93 734.82 500.1 734.82 498.83 729.12 495.67"/><polygon class="cls-14" points="734.82 498.83 734.82 500.1 741.15 496.93 741.15 495.67 734.82 498.83"/><polygon class="cls-12" points="731.02 494.3 735.22 496.63 739.88 494.3 735.22 492.44 731.02 494.3"/><polygon class="cls-13" points="731.02 494.3 731.02 495.24 735.22 497.57 735.22 496.63 731.02 494.3"/><polygon class="cls-14" points="735.22 496.63 735.22 497.57 739.88 495.24 739.88 494.3 735.22 496.63"/><polygon class="cls-12" points="732.92 493.17 735.32 494.5 737.98 493.17 735.32 492.1 732.92 493.17"/><polygon class="cls-13" points="732.92 493.17 732.92 493.7 735.32 495.04 735.32 494.5 732.92 493.17"/><polygon class="cls-14" points="735.32 494.5 735.32 495.04 737.98 493.7 737.98 493.17 735.32 494.5"/><path class="cls-11" d="M748.67,506.37h-1.1a.51.51,0,0,1-.47-.71l.32-.73v-9.32h1.27v9.23l.38.93A.43.43,0,0,1,748.67,506.37Z"/><polygon class="cls-12" points="742.36 494.34 748.05 497.51 754.38 494.34 748.05 491.81 742.36 494.34"/><polygon class="cls-13" points="742.36 494.34 742.36 495.61 748.05 498.77 748.05 497.51 742.36 494.34"/><polygon class="cls-14" points="748.05 497.51 748.05 498.77 754.38 495.61 754.38 494.34 748.05 497.51"/><polygon class="cls-12" points="744.26 492.98 748.45 495.31 753.12 492.98 748.45 491.11 744.26 492.98"/><polygon class="cls-13" points="744.26 492.98 744.26 493.91 748.45 496.24 748.45 495.31 744.26 492.98"/><polygon class="cls-14" points="748.45 495.31 748.45 496.24 753.12 493.91 753.12 492.98 748.45 495.31"/><polygon class="cls-12" points="746.15 491.85 748.55 493.18 751.22 491.85 748.55 490.78 746.15 491.85"/><polygon class="cls-13" points="746.15 491.85 746.15 492.38 748.55 493.71 748.55 493.18 746.15 491.85"/><polygon class="cls-14" points="748.55 493.18 748.55 493.71 751.22 492.38 751.22 491.85 748.55 493.18"/><path class="cls-11" d="M741.93,510.73h-.85a.39.39,0,0,1-.36-.55l.24-.56v-7.18h1v7.11l.3.72A.33.33,0,0,1,741.93,510.73Z"/><polygon class="cls-12" points="737.06 501.47 741.45 503.9 746.33 501.47 741.45 499.52 737.06 501.47"/><polygon class="cls-13" points="737.06 501.47 737.06 502.44 741.45 504.88 741.45 503.9 737.06 501.47"/><polygon class="cls-14" points="741.45 503.9 741.45 504.88 746.33 502.44 746.33 501.47 741.45 503.9"/><polygon class="cls-12" points="738.53 500.42 741.76 502.21 745.35 500.42 741.76 498.98 738.53 500.42"/><polygon class="cls-13" points="738.53 500.42 738.53 501.13 741.76 502.93 741.76 502.21 738.53 500.42"/><polygon class="cls-14" points="741.76 502.21 741.76 502.93 745.35 501.13 745.35 500.42 741.76 502.21"/><polygon class="cls-12" points="739.99 499.54 741.84 500.57 743.89 499.54 741.84 498.72 739.99 499.54"/><polygon class="cls-13" points="739.99 499.54 739.99 499.95 741.84 500.98 741.84 500.57 739.99 499.54"/><polygon class="cls-14" points="741.84 500.57 741.84 500.98 743.89 499.95 743.89 499.54 741.84 500.57"/><path class="cls-11" d="M744.67,515.63H744a.3.3,0,0,1-.27-.41l.19-.42v-5.36h.73v5.31l.22.54A.25.25,0,0,1,744.67,515.63Z"/><polygon class="cls-12" points="741.03 508.71 744.31 510.53 747.95 508.71 744.31 507.25 741.03 508.71"/><polygon class="cls-13" points="741.03 508.71 741.03 509.44 744.31 511.26 744.31 510.53 741.03 508.71"/><polygon class="cls-14" points="744.31 510.53 744.31 511.26 747.95 509.44 747.95 508.71 744.31 510.53"/><polygon class="cls-12" points="742.13 507.93 744.54 509.27 747.23 507.93 744.54 506.85 742.13 507.93"/><polygon class="cls-13" points="742.13 507.93 742.13 508.46 744.54 509.81 744.54 509.27 742.13 507.93"/><polygon class="cls-14" points="744.54 509.27 744.54 509.81 747.23 508.46 747.23 507.93 744.54 509.27"/><polygon class="cls-12" points="743.22 507.27 744.6 508.04 746.13 507.27 744.6 506.66 743.22 507.27"/><polygon class="cls-13" points="743.22 507.27 743.22 507.58 744.6 508.35 744.6 508.04 743.22 507.27"/><polygon class="cls-14" points="744.6 508.04 744.6 508.35 746.13 507.58 746.13 507.27 744.6 508.04"/><path class="cls-11" d="M752.61,510.34H752a.3.3,0,0,1-.27-.41l.19-.42v-5.36h.73v5.31l.22.53A.25.25,0,0,1,752.61,510.34Z"/><polygon class="cls-12" points="748.98 503.42 752.25 505.24 755.89 503.42 752.25 501.96 748.98 503.42"/><polygon class="cls-13" points="748.98 503.42 748.98 504.15 752.25 505.97 752.25 505.24 748.98 503.42"/><polygon class="cls-14" points="752.25 505.24 752.25 505.97 755.89 504.15 755.89 503.42 752.25 505.24"/><polygon class="cls-12" points="750.07 502.63 752.48 503.98 755.17 502.63 752.48 501.56 750.07 502.63"/><polygon class="cls-13" points="750.07 502.63 750.07 503.17 752.48 504.51 752.48 503.98 750.07 502.63"/><polygon class="cls-14" points="752.48 503.98 752.48 504.51 755.17 503.17 755.17 502.63 752.48 503.98"/><polygon class="cls-12" points="751.16 501.98 752.54 502.75 754.07 501.98 752.54 501.37 751.16 501.98"/><polygon class="cls-13" points="751.16 501.98 751.16 502.29 752.54 503.05 752.54 502.75 751.16 501.98"/><polygon class="cls-14" points="752.54 502.75 752.54 503.05 754.07 502.29 754.07 501.98 752.54 502.75"/><path class="cls-27" d="M812,430.93l-23.8-13.09a11.44,11.44,0,0,1-4.79-5,16.8,16.8,0,0,1-1.85-7c0-5.29,2.65-5.29,2.65-5.29s0-5.3,5.29-4c0,0,4-4,6.62,4s7.94,1.32,11.91,5.29,4,7.94,5.29,10.59,5.35,2.33,4,10.58C816,434.9,814.66,432.26,812,430.93Z"/><path class="cls-27" d="M743.85,358.81l-23.8-13.09a11.44,11.44,0,0,1-4.78-5.05,16.6,16.6,0,0,1-1.85-7c0-5.3,2.64-5.3,2.64-5.3s0-5.29,5.3-4c0,0,4-4,6.61,4s7.94,1.33,11.91,5.3,4,7.94,5.3,10.58,5.34,2.33,4,10.59C747.82,362.78,746.5,360.13,743.85,358.81Z"/><path class="cls-27" d="M529.75,427.63l23.8-13.1a11.36,11.36,0,0,0,4.78-5,16.61,16.61,0,0,0,1.85-7c0-5.29-2.64-5.29-2.64-5.29s0-5.3-5.3-4c0,0-4-4-6.61,4s-7.94,1.32-11.91,5.29-4,7.94-5.3,10.59-5.34,2.33-4,10.59C525.78,431.6,527.1,429,529.75,427.63Z"/><path class="cls-27" d="M600.18,416.3,624,403.21a11.44,11.44,0,0,0,4.78-5,16.61,16.61,0,0,0,1.85-7c0-5.29-2.64-5.29-2.64-5.29s0-5.29-5.3-4c0,0-4-4-6.61,4s-7.94,1.32-11.91,5.29-4,7.94-5.3,10.59-5.34,2.33-4,10.59C596.21,420.27,597.53,417.62,600.18,416.3Z"/><path class="cls-28" d="M598.94,694.42c.3,3.22,1.69,6,5.21,6s4.8-2,4.8-5.19-1.49-5.06-6.15-7.29c-6-2.85-8.42-5.4-8.42-10.7,0-5.49,3.52-9.44,9.81-9.44,7.7,0,9.66,5.31,9.76,9.84h-5.48c-.2-2-.73-5.37-4.4-5.37-2.86,0-4.12,1.9-4.12,4.49,0,2.89,1.29,4.24,5.61,6.26,6.4,3,9.09,5.92,9.09,11.72s-3.4,10.15-10.67,10.15c-7.91,0-10.38-5.1-10.62-10.43Z"/><path class="cls-28" d="M636.57,687.85h-11.7v11.59H638l-.71,4.84h-17.9v-36h17.79v4.92H624.87V683h11.7Z"/><path class="cls-28" d="M647.65,668.3v36h-5.6v-36Z"/><path class="cls-28" d="M660.17,704.28l-8.92-36h6l3.53,15.88c1.09,4.87,2.21,10.52,2.65,14.17h.11c.44-3.47,1.9-9.25,3-14.07l3.5-16h5.84l-9.14,36Z"/><path class="cls-28" d="M700.46,686c0,12.85-3.36,18.87-11.48,18.87-7.63,0-11.16-5.88-11.16-18.9,0-12.73,4.12-18.22,11.42-18.22C696.94,667.75,700.46,673.61,700.46,686Zm-16.9-.1c0,9.13,1.56,14.24,5.57,14.24,4.18,0,5.59-4.81,5.59-14.2,0-9.09-1.51-13.42-5.61-13.42S683.56,677.28,683.56,685.9Z"/><path class="cls-28" d="M726.26,694c-.16,1.91-.93,10.89-10.48,10.89-10,0-11-9.38-11-18.7,0-11.24,3.19-18.42,11.43-18.42,9.24,0,9.89,8.16,10,10.81h-5.56c-.09-1.22-.22-6-4.55-6-4.61,0-5.55,5.9-5.55,13.72,0,7.06.73,13.87,5.34,13.87,4.17,0,4.62-4.63,4.78-6.16Z"/><path class="cls-29" d="M739.5,712.58,728.08,706v5.07h-116c-8.11,0-8.89,3.41-9,4.09v.08l0,8.16h3l0-7.81c.21-.29,1.32-1.48,5.94-1.48h116v5.07Z"/><path class="cls-30" d="M739.5,660.06l-11.42-6.59v5.07h-116c-4.62,0-5.73-1.19-5.94-1.48l0-8h-3.05l.05,8.31v.08c.08.68.86,4.09,9,4.09h116v5.07Z"/><path class="cls-31" d="M708.75,723.39H592.45c-3.53,0-6.08-.81-7.57-2.39a5.15,5.15,0,0,1-1.41-3.58v-25l-.3.07a7.61,7.61,0,0,1-1.52.15,8.14,8.14,0,0,1-1.22-.1v24.72a8.35,8.35,0,0,0,2.18,5.77c2.09,2.26,5.4,3.4,9.84,3.4h116.3v5.07L720,724.91l-11.27-6.59Z"/><path class="cls-32" d="M583.17,677.26l.46.11V655.08a5.19,5.19,0,0,1,1.42-3.59c1.49-1.58,4-2.39,7.57-2.39H708.75v5.07l11.42-6.59L708.75,641v5.07H592.61c-4.45,0-7.76,1.14-9.85,3.4a8.33,8.33,0,0,0-2.18,5.77v22a7.53,7.53,0,0,1,2.59.07Z"/><path class="cls-28" d="M583.63,677.37l-.46-.11a7.53,7.53,0,0,0-2.59-.07l-.46.07a7.77,7.77,0,0,0,0,15.23l.31,0a8.14,8.14,0,0,0,1.22.1,7.61,7.61,0,0,0,1.52-.15l.3-.07a7.76,7.76,0,0,0,.16-15Z"/></g></g></svg>