<svg xmlns="http://www.w3.org/2000/svg" viewBox="0 0 322 228"><defs><style>.cls-1{fill:#dd1286;}.cls-2{fill:#bc0666;}.cls-3{fill:#91075d;}.cls-4{fill:#fc30af;}.cls-5{fill:#c60c77;}.cls-6{font-size:25.18px;fill:#fff;font-family:Averta-Bold, Averta-Bold;}.cls-7{letter-spacing:0.01em;}.cls-8{letter-spacing:-0.02em;}.cls-9{letter-spacing:-0.03em;}</style></defs><title>Recurso 1</title><g id="Capa_2" data-name="Capa 2"><g id="Capa_1-2" data-name="Capa 1"><polygon class="cls-1" points="108 7 80.5 0 52 6.5 80.5 16.25 108 7"/><polygon class="cls-1" points="0 119 161 93 322 119 161 174 0 119"/><polygon class="cls-2" points="0 119 0 175.15 161 228 161 173.5 0 119"/><polygon class="cls-3" points="322 119 322 175.15 161 228 161 173.5 322 119"/><polygon class="cls-3" points="108.5 6.5 80 16.25 80 117 108.5 110.5 108.5 6.5"/><polygon class="cls-2" points="108.5 106 108.5 100.17 80 106 80 112 108.5 106"/><polygon class="cls-2" points="108.5 94 108.5 88.17 80 94 80 100 108.5 94"/><polygon class="cls-2" points="108.5 82 108.5 76.17 80 82 80 88 108.5 82"/><polygon class="cls-2" points="108.5 70 108.5 64.17 80 70 80 76 108.5 70"/><polygon class="cls-2" points="108.5 58 108.5 52.17 80 58 80 64 108.5 58"/><polygon class="cls-2" points="108.5 46 108.5 40.17 80 46 80 52 108.5 46"/><polygon class="cls-2" points="108.5 34 108.5 28.17 80 34 80 40 108.5 34"/><polygon class="cls-2" points="108.5 22 108.5 16.17 80 22 80 28 108.5 22"/><polygon class="cls-2" points="199 118 199 124 271 130 271 124 199 118"/><polygon class="cls-3" points="271 124 300 115 300 122 271 130 271 124"/><polygon class="cls-1" points="300 115 291 107 279 112 276.03 113.37 223 101 199 118 270.68 123.61 271 124 300 115"/><polygon class="cls-4" points="283 115 212 109.37 212 48.24 283 53.06 283 115"/><polygon class="cls-1" points="212 48.24 223 41 295 46.63 283 53.06 212 48.24"/><polygon class="cls-3" points="295 46.63 295 110.46 283 115 283 53.06 295 46.63"/><polygon class="cls-4" points="260.37 49 243 48.16 243 39.08 260.37 39.79 260.37 49"/><polygon class="cls-1" points="243 39.08 245.69 38 263.31 38.84 260.37 39.79 243 39.08"/><polygon class="cls-3" points="263.31 38.84 263.31 48.33 260.37 49 260.37 39.79 263.31 38.84"/><polygon class="cls-2" points="52 6.5 80.5 16.25 80.5 117 52 110.5 52 6.5"/><polygon class="cls-5" points="52 106 52 100.17 80.5 106 80.5 112 52 106"/><polygon class="cls-5" points="52 94 52 88.17 80.5 94 80.5 100 52 94"/><polygon class="cls-5" points="52 82 52 76.17 80.5 82 80.5 88 52 82"/><polygon class="cls-5" points="52 70 52 64.17 80.5 70 80.5 76 52 70"/><polygon class="cls-5" points="52 58 52 52.17 80.5 58 80.5 64 52 58"/><polygon class="cls-5" points="52 46 52 40.17 80.5 46 80.5 52 52 46"/><polygon class="cls-5" points="52 34 52 28.17 80.5 34 80.5 40 52 34"/><polygon class="cls-5" points="52 22 52 16.17 80.5 22 80.5 28 52 22"/><text class="cls-6" transform="translate(83.98 146.53)"><tspan class="cls-7">B</tspan><tspan x="16.38" y="0">ie</tspan><tspan class="cls-8" x="37.4" y="0">n</tspan><tspan class="cls-9" x="51.77" y="0">v</tspan><tspan x="64.62" y="0">enido a</tspan></text></g></g></svg>